<?xml version="1.0" encoding="utf-8" standalone="no"?>
<!DOCTYPE svg PUBLIC "-//W3C//DTD SVG 1.1//EN"
  "http://www.w3.org/Graphics/SVG/1.1/DTD/svg11.dtd">
<svg xmlns:xlink="http://www.w3.org/1999/xlink" width="408.10125pt" height="388.953825pt" viewBox="0 0 408.10125 388.953825" xmlns="http://www.w3.org/2000/svg" version="1.1">
 <metadata>
  <rdf:RDF xmlns:dc="http://purl.org/dc/elements/1.1/" xmlns:cc="http://creativecommons.org/ns#" xmlns:rdf="http://www.w3.org/1999/02/22-rdf-syntax-ns#">
   <cc:Work>
    <dc:type rdf:resource="http://purl.org/dc/dcmitype/StillImage"/>
    <dc:date>2025-10-08T11:01:38.115812</dc:date>
    <dc:format>image/svg+xml</dc:format>
    <dc:creator>
     <cc:Agent>
      <dc:title>Matplotlib v3.9.4, https://matplotlib.org/</dc:title>
     </cc:Agent>
    </dc:creator>
   </cc:Work>
  </rdf:RDF>
 </metadata>
 <defs>
  <style type="text/css">*{stroke-linejoin: round; stroke-linecap: butt}</style>
 </defs>
 <g id="figure_1">
  <g id="patch_1">
   <path d="M 0 388.953825 
L 408.10125 388.953825 
L 408.10125 0 
L 0 0 
z
" style="fill: #ffffff"/>
  </g>
  <g id="axes_1">
   <g id="patch_2">
    <path d="M 43.78125 288.430125 
L 400.90125 288.430125 
L 400.90125 22.318125 
L 43.78125 22.318125 
z
" style="fill: #ffffff"/>
   </g>
   <g id="matplotlib.axis_1">
    <g id="xtick_1">
     <g id="line2d_1">
      <defs>
       <path id="m4bedb2ceb9" d="M 0 0 
L 0 3.5 
" style="stroke: #000000; stroke-width: 0.8"/>
      </defs>
      <g>
       <use xlink:href="#m4bedb2ceb9" x="43.78125" y="288.430125" style="stroke: #000000; stroke-width: 0.8"/>
      </g>
     </g>
     <g id="text_1">
      <!-- 0 -->
      <g transform="translate(40.6 303.028562) scale(0.1 -0.1)">
       <defs>
        <path id="DejaVuSans-30" d="M 2034 4250 
Q 1547 4250 1301 3770 
Q 1056 3291 1056 2328 
Q 1056 1369 1301 889 
Q 1547 409 2034 409 
Q 2525 409 2770 889 
Q 3016 1369 3016 2328 
Q 3016 3291 2770 3770 
Q 2525 4250 2034 4250 
z
M 2034 4750 
Q 2819 4750 3233 4129 
Q 3647 3509 3647 2328 
Q 3647 1150 3233 529 
Q 2819 -91 2034 -91 
Q 1250 -91 836 529 
Q 422 1150 422 2328 
Q 422 3509 836 4129 
Q 1250 4750 2034 4750 
z
" transform="scale(0.015625)"/>
       </defs>
       <use xlink:href="#DejaVuSans-30"/>
      </g>
     </g>
    </g>
    <g id="xtick_2">
     <g id="line2d_2">
      <g>
       <use xlink:href="#m4bedb2ceb9" x="95.030952" y="288.430125" style="stroke: #000000; stroke-width: 0.8"/>
      </g>
     </g>
     <g id="text_2">
      <!-- 1000 -->
      <g transform="translate(82.305952 303.028562) scale(0.1 -0.1)">
       <defs>
        <path id="DejaVuSans-31" d="M 794 531 
L 1825 531 
L 1825 4091 
L 703 3866 
L 703 4441 
L 1819 4666 
L 2450 4666 
L 2450 531 
L 3481 531 
L 3481 0 
L 794 0 
L 794 531 
z
" transform="scale(0.015625)"/>
       </defs>
       <use xlink:href="#DejaVuSans-31"/>
       <use xlink:href="#DejaVuSans-30" x="63.623047"/>
       <use xlink:href="#DejaVuSans-30" x="127.246094"/>
       <use xlink:href="#DejaVuSans-30" x="190.869141"/>
      </g>
     </g>
    </g>
    <g id="xtick_3">
     <g id="line2d_3">
      <g>
       <use xlink:href="#m4bedb2ceb9" x="146.280655" y="288.430125" style="stroke: #000000; stroke-width: 0.8"/>
      </g>
     </g>
     <g id="text_3">
      <!-- 2000 -->
      <g transform="translate(133.555655 303.028562) scale(0.1 -0.1)">
       <defs>
        <path id="DejaVuSans-32" d="M 1228 531 
L 3431 531 
L 3431 0 
L 469 0 
L 469 531 
Q 828 903 1448 1529 
Q 2069 2156 2228 2338 
Q 2531 2678 2651 2914 
Q 2772 3150 2772 3378 
Q 2772 3750 2511 3984 
Q 2250 4219 1831 4219 
Q 1534 4219 1204 4116 
Q 875 4013 500 3803 
L 500 4441 
Q 881 4594 1212 4672 
Q 1544 4750 1819 4750 
Q 2544 4750 2975 4387 
Q 3406 4025 3406 3419 
Q 3406 3131 3298 2873 
Q 3191 2616 2906 2266 
Q 2828 2175 2409 1742 
Q 1991 1309 1228 531 
z
" transform="scale(0.015625)"/>
       </defs>
       <use xlink:href="#DejaVuSans-32"/>
       <use xlink:href="#DejaVuSans-30" x="63.623047"/>
       <use xlink:href="#DejaVuSans-30" x="127.246094"/>
       <use xlink:href="#DejaVuSans-30" x="190.869141"/>
      </g>
     </g>
    </g>
    <g id="xtick_4">
     <g id="line2d_4">
      <g>
       <use xlink:href="#m4bedb2ceb9" x="197.530357" y="288.430125" style="stroke: #000000; stroke-width: 0.8"/>
      </g>
     </g>
     <g id="text_4">
      <!-- 3000 -->
      <g transform="translate(184.805357 303.028562) scale(0.1 -0.1)">
       <defs>
        <path id="DejaVuSans-33" d="M 2597 2516 
Q 3050 2419 3304 2112 
Q 3559 1806 3559 1356 
Q 3559 666 3084 287 
Q 2609 -91 1734 -91 
Q 1441 -91 1130 -33 
Q 819 25 488 141 
L 488 750 
Q 750 597 1062 519 
Q 1375 441 1716 441 
Q 2309 441 2620 675 
Q 2931 909 2931 1356 
Q 2931 1769 2642 2001 
Q 2353 2234 1838 2234 
L 1294 2234 
L 1294 2753 
L 1863 2753 
Q 2328 2753 2575 2939 
Q 2822 3125 2822 3475 
Q 2822 3834 2567 4026 
Q 2313 4219 1838 4219 
Q 1578 4219 1281 4162 
Q 984 4106 628 3988 
L 628 4550 
Q 988 4650 1302 4700 
Q 1616 4750 1894 4750 
Q 2613 4750 3031 4423 
Q 3450 4097 3450 3541 
Q 3450 3153 3228 2886 
Q 3006 2619 2597 2516 
z
" transform="scale(0.015625)"/>
       </defs>
       <use xlink:href="#DejaVuSans-33"/>
       <use xlink:href="#DejaVuSans-30" x="63.623047"/>
       <use xlink:href="#DejaVuSans-30" x="127.246094"/>
       <use xlink:href="#DejaVuSans-30" x="190.869141"/>
      </g>
     </g>
    </g>
    <g id="xtick_5">
     <g id="line2d_5">
      <g>
       <use xlink:href="#m4bedb2ceb9" x="248.78006" y="288.430125" style="stroke: #000000; stroke-width: 0.8"/>
      </g>
     </g>
     <g id="text_5">
      <!-- 4000 -->
      <g transform="translate(236.05506 303.028562) scale(0.1 -0.1)">
       <defs>
        <path id="DejaVuSans-34" d="M 2419 4116 
L 825 1625 
L 2419 1625 
L 2419 4116 
z
M 2253 4666 
L 3047 4666 
L 3047 1625 
L 3713 1625 
L 3713 1100 
L 3047 1100 
L 3047 0 
L 2419 0 
L 2419 1100 
L 313 1100 
L 313 1709 
L 2253 4666 
z
" transform="scale(0.015625)"/>
       </defs>
       <use xlink:href="#DejaVuSans-34"/>
       <use xlink:href="#DejaVuSans-30" x="63.623047"/>
       <use xlink:href="#DejaVuSans-30" x="127.246094"/>
       <use xlink:href="#DejaVuSans-30" x="190.869141"/>
      </g>
     </g>
    </g>
    <g id="xtick_6">
     <g id="line2d_6">
      <g>
       <use xlink:href="#m4bedb2ceb9" x="300.029762" y="288.430125" style="stroke: #000000; stroke-width: 0.8"/>
      </g>
     </g>
     <g id="text_6">
      <!-- 5000 -->
      <g transform="translate(287.304762 303.028562) scale(0.1 -0.1)">
       <defs>
        <path id="DejaVuSans-35" d="M 691 4666 
L 3169 4666 
L 3169 4134 
L 1269 4134 
L 1269 2991 
Q 1406 3038 1543 3061 
Q 1681 3084 1819 3084 
Q 2600 3084 3056 2656 
Q 3513 2228 3513 1497 
Q 3513 744 3044 326 
Q 2575 -91 1722 -91 
Q 1428 -91 1123 -41 
Q 819 9 494 109 
L 494 744 
Q 775 591 1075 516 
Q 1375 441 1709 441 
Q 2250 441 2565 725 
Q 2881 1009 2881 1497 
Q 2881 1984 2565 2268 
Q 2250 2553 1709 2553 
Q 1456 2553 1204 2497 
Q 953 2441 691 2322 
L 691 4666 
z
" transform="scale(0.015625)"/>
       </defs>
       <use xlink:href="#DejaVuSans-35"/>
       <use xlink:href="#DejaVuSans-30" x="63.623047"/>
       <use xlink:href="#DejaVuSans-30" x="127.246094"/>
       <use xlink:href="#DejaVuSans-30" x="190.869141"/>
      </g>
     </g>
    </g>
    <g id="xtick_7">
     <g id="line2d_7">
      <g>
       <use xlink:href="#m4bedb2ceb9" x="351.279464" y="288.430125" style="stroke: #000000; stroke-width: 0.8"/>
      </g>
     </g>
     <g id="text_7">
      <!-- 6000 -->
      <g transform="translate(338.554464 303.028562) scale(0.1 -0.1)">
       <defs>
        <path id="DejaVuSans-36" d="M 2113 2584 
Q 1688 2584 1439 2293 
Q 1191 2003 1191 1497 
Q 1191 994 1439 701 
Q 1688 409 2113 409 
Q 2538 409 2786 701 
Q 3034 994 3034 1497 
Q 3034 2003 2786 2293 
Q 2538 2584 2113 2584 
z
M 3366 4563 
L 3366 3988 
Q 3128 4100 2886 4159 
Q 2644 4219 2406 4219 
Q 1781 4219 1451 3797 
Q 1122 3375 1075 2522 
Q 1259 2794 1537 2939 
Q 1816 3084 2150 3084 
Q 2853 3084 3261 2657 
Q 3669 2231 3669 1497 
Q 3669 778 3244 343 
Q 2819 -91 2113 -91 
Q 1303 -91 875 529 
Q 447 1150 447 2328 
Q 447 3434 972 4092 
Q 1497 4750 2381 4750 
Q 2619 4750 2861 4703 
Q 3103 4656 3366 4563 
z
" transform="scale(0.015625)"/>
       </defs>
       <use xlink:href="#DejaVuSans-36"/>
       <use xlink:href="#DejaVuSans-30" x="63.623047"/>
       <use xlink:href="#DejaVuSans-30" x="127.246094"/>
       <use xlink:href="#DejaVuSans-30" x="190.869141"/>
      </g>
     </g>
    </g>
    <g id="text_8">
     <!-- Bandwidth (MB/s) -->
     <g transform="translate(178.198281 316.706687) scale(0.1 -0.1)">
      <defs>
       <path id="DejaVuSans-42" d="M 1259 2228 
L 1259 519 
L 2272 519 
Q 2781 519 3026 730 
Q 3272 941 3272 1375 
Q 3272 1813 3026 2020 
Q 2781 2228 2272 2228 
L 1259 2228 
z
M 1259 4147 
L 1259 2741 
L 2194 2741 
Q 2656 2741 2882 2914 
Q 3109 3088 3109 3444 
Q 3109 3797 2882 3972 
Q 2656 4147 2194 4147 
L 1259 4147 
z
M 628 4666 
L 2241 4666 
Q 2963 4666 3353 4366 
Q 3744 4066 3744 3513 
Q 3744 3084 3544 2831 
Q 3344 2578 2956 2516 
Q 3422 2416 3680 2098 
Q 3938 1781 3938 1306 
Q 3938 681 3513 340 
Q 3088 0 2303 0 
L 628 0 
L 628 4666 
z
" transform="scale(0.015625)"/>
       <path id="DejaVuSans-61" d="M 2194 1759 
Q 1497 1759 1228 1600 
Q 959 1441 959 1056 
Q 959 750 1161 570 
Q 1363 391 1709 391 
Q 2188 391 2477 730 
Q 2766 1069 2766 1631 
L 2766 1759 
L 2194 1759 
z
M 3341 1997 
L 3341 0 
L 2766 0 
L 2766 531 
Q 2569 213 2275 61 
Q 1981 -91 1556 -91 
Q 1019 -91 701 211 
Q 384 513 384 1019 
Q 384 1609 779 1909 
Q 1175 2209 1959 2209 
L 2766 2209 
L 2766 2266 
Q 2766 2663 2505 2880 
Q 2244 3097 1772 3097 
Q 1472 3097 1187 3025 
Q 903 2953 641 2809 
L 641 3341 
Q 956 3463 1253 3523 
Q 1550 3584 1831 3584 
Q 2591 3584 2966 3190 
Q 3341 2797 3341 1997 
z
" transform="scale(0.015625)"/>
       <path id="DejaVuSans-6e" d="M 3513 2113 
L 3513 0 
L 2938 0 
L 2938 2094 
Q 2938 2591 2744 2837 
Q 2550 3084 2163 3084 
Q 1697 3084 1428 2787 
Q 1159 2491 1159 1978 
L 1159 0 
L 581 0 
L 581 3500 
L 1159 3500 
L 1159 2956 
Q 1366 3272 1645 3428 
Q 1925 3584 2291 3584 
Q 2894 3584 3203 3211 
Q 3513 2838 3513 2113 
z
" transform="scale(0.015625)"/>
       <path id="DejaVuSans-64" d="M 2906 2969 
L 2906 4863 
L 3481 4863 
L 3481 0 
L 2906 0 
L 2906 525 
Q 2725 213 2448 61 
Q 2172 -91 1784 -91 
Q 1150 -91 751 415 
Q 353 922 353 1747 
Q 353 2572 751 3078 
Q 1150 3584 1784 3584 
Q 2172 3584 2448 3432 
Q 2725 3281 2906 2969 
z
M 947 1747 
Q 947 1113 1208 752 
Q 1469 391 1925 391 
Q 2381 391 2643 752 
Q 2906 1113 2906 1747 
Q 2906 2381 2643 2742 
Q 2381 3103 1925 3103 
Q 1469 3103 1208 2742 
Q 947 2381 947 1747 
z
" transform="scale(0.015625)"/>
       <path id="DejaVuSans-77" d="M 269 3500 
L 844 3500 
L 1563 769 
L 2278 3500 
L 2956 3500 
L 3675 769 
L 4391 3500 
L 4966 3500 
L 4050 0 
L 3372 0 
L 2619 2869 
L 1863 0 
L 1184 0 
L 269 3500 
z
" transform="scale(0.015625)"/>
       <path id="DejaVuSans-69" d="M 603 3500 
L 1178 3500 
L 1178 0 
L 603 0 
L 603 3500 
z
M 603 4863 
L 1178 4863 
L 1178 4134 
L 603 4134 
L 603 4863 
z
" transform="scale(0.015625)"/>
       <path id="DejaVuSans-74" d="M 1172 4494 
L 1172 3500 
L 2356 3500 
L 2356 3053 
L 1172 3053 
L 1172 1153 
Q 1172 725 1289 603 
Q 1406 481 1766 481 
L 2356 481 
L 2356 0 
L 1766 0 
Q 1100 0 847 248 
Q 594 497 594 1153 
L 594 3053 
L 172 3053 
L 172 3500 
L 594 3500 
L 594 4494 
L 1172 4494 
z
" transform="scale(0.015625)"/>
       <path id="DejaVuSans-68" d="M 3513 2113 
L 3513 0 
L 2938 0 
L 2938 2094 
Q 2938 2591 2744 2837 
Q 2550 3084 2163 3084 
Q 1697 3084 1428 2787 
Q 1159 2491 1159 1978 
L 1159 0 
L 581 0 
L 581 4863 
L 1159 4863 
L 1159 2956 
Q 1366 3272 1645 3428 
Q 1925 3584 2291 3584 
Q 2894 3584 3203 3211 
Q 3513 2838 3513 2113 
z
" transform="scale(0.015625)"/>
       <path id="DejaVuSans-20" transform="scale(0.015625)"/>
       <path id="DejaVuSans-28" d="M 1984 4856 
Q 1566 4138 1362 3434 
Q 1159 2731 1159 2009 
Q 1159 1288 1364 580 
Q 1569 -128 1984 -844 
L 1484 -844 
Q 1016 -109 783 600 
Q 550 1309 550 2009 
Q 550 2706 781 3412 
Q 1013 4119 1484 4856 
L 1984 4856 
z
" transform="scale(0.015625)"/>
       <path id="DejaVuSans-4d" d="M 628 4666 
L 1569 4666 
L 2759 1491 
L 3956 4666 
L 4897 4666 
L 4897 0 
L 4281 0 
L 4281 4097 
L 3078 897 
L 2444 897 
L 1241 4097 
L 1241 0 
L 628 0 
L 628 4666 
z
" transform="scale(0.015625)"/>
       <path id="DejaVuSans-2f" d="M 1625 4666 
L 2156 4666 
L 531 -594 
L 0 -594 
L 1625 4666 
z
" transform="scale(0.015625)"/>
       <path id="DejaVuSans-73" d="M 2834 3397 
L 2834 2853 
Q 2591 2978 2328 3040 
Q 2066 3103 1784 3103 
Q 1356 3103 1142 2972 
Q 928 2841 928 2578 
Q 928 2378 1081 2264 
Q 1234 2150 1697 2047 
L 1894 2003 
Q 2506 1872 2764 1633 
Q 3022 1394 3022 966 
Q 3022 478 2636 193 
Q 2250 -91 1575 -91 
Q 1294 -91 989 -36 
Q 684 19 347 128 
L 347 722 
Q 666 556 975 473 
Q 1284 391 1588 391 
Q 1994 391 2212 530 
Q 2431 669 2431 922 
Q 2431 1156 2273 1281 
Q 2116 1406 1581 1522 
L 1381 1569 
Q 847 1681 609 1914 
Q 372 2147 372 2553 
Q 372 3047 722 3315 
Q 1072 3584 1716 3584 
Q 2034 3584 2315 3537 
Q 2597 3491 2834 3397 
z
" transform="scale(0.015625)"/>
       <path id="DejaVuSans-29" d="M 513 4856 
L 1013 4856 
Q 1481 4119 1714 3412 
Q 1947 2706 1947 2009 
Q 1947 1309 1714 600 
Q 1481 -109 1013 -844 
L 513 -844 
Q 928 -128 1133 580 
Q 1338 1288 1338 2009 
Q 1338 2731 1133 3434 
Q 928 4138 513 4856 
z
" transform="scale(0.015625)"/>
      </defs>
      <use xlink:href="#DejaVuSans-42"/>
      <use xlink:href="#DejaVuSans-61" x="68.603516"/>
      <use xlink:href="#DejaVuSans-6e" x="129.882812"/>
      <use xlink:href="#DejaVuSans-64" x="193.261719"/>
      <use xlink:href="#DejaVuSans-77" x="256.738281"/>
      <use xlink:href="#DejaVuSans-69" x="338.525391"/>
      <use xlink:href="#DejaVuSans-64" x="366.308594"/>
      <use xlink:href="#DejaVuSans-74" x="429.785156"/>
      <use xlink:href="#DejaVuSans-68" x="468.994141"/>
      <use xlink:href="#DejaVuSans-20" x="532.373047"/>
      <use xlink:href="#DejaVuSans-28" x="564.160156"/>
      <use xlink:href="#DejaVuSans-4d" x="603.173828"/>
      <use xlink:href="#DejaVuSans-42" x="689.453125"/>
      <use xlink:href="#DejaVuSans-2f" x="758.056641"/>
      <use xlink:href="#DejaVuSans-73" x="791.748047"/>
      <use xlink:href="#DejaVuSans-29" x="843.847656"/>
     </g>
    </g>
   </g>
   <g id="matplotlib.axis_2">
    <g id="ytick_1">
     <g id="line2d_8">
      <defs>
       <path id="m5d5fd04c22" d="M 0 0 
L -3.5 0 
" style="stroke: #000000; stroke-width: 0.8"/>
      </defs>
      <g>
       <use xlink:href="#m5d5fd04c22" x="43.78125" y="288.430125" style="stroke: #000000; stroke-width: 0.8"/>
      </g>
     </g>
     <g id="text_9">
      <!-- 0.0 -->
      <g transform="translate(20.878125 292.229344) scale(0.1 -0.1)">
       <defs>
        <path id="DejaVuSans-2e" d="M 684 794 
L 1344 794 
L 1344 0 
L 684 0 
L 684 794 
z
" transform="scale(0.015625)"/>
       </defs>
       <use xlink:href="#DejaVuSans-30"/>
       <use xlink:href="#DejaVuSans-2e" x="63.623047"/>
       <use xlink:href="#DejaVuSans-30" x="95.410156"/>
      </g>
     </g>
    </g>
    <g id="ytick_2">
     <g id="line2d_9">
      <g>
       <use xlink:href="#m5d5fd04c22" x="43.78125" y="256.057167" style="stroke: #000000; stroke-width: 0.8"/>
      </g>
     </g>
     <g id="text_10">
      <!-- 0.5 -->
      <g transform="translate(20.878125 259.856386) scale(0.1 -0.1)">
       <use xlink:href="#DejaVuSans-30"/>
       <use xlink:href="#DejaVuSans-2e" x="63.623047"/>
       <use xlink:href="#DejaVuSans-35" x="95.410156"/>
      </g>
     </g>
    </g>
    <g id="ytick_3">
     <g id="line2d_10">
      <g>
       <use xlink:href="#m5d5fd04c22" x="43.78125" y="223.68421" style="stroke: #000000; stroke-width: 0.8"/>
      </g>
     </g>
     <g id="text_11">
      <!-- 1.0 -->
      <g transform="translate(20.878125 227.483429) scale(0.1 -0.1)">
       <use xlink:href="#DejaVuSans-31"/>
       <use xlink:href="#DejaVuSans-2e" x="63.623047"/>
       <use xlink:href="#DejaVuSans-30" x="95.410156"/>
      </g>
     </g>
    </g>
    <g id="ytick_4">
     <g id="line2d_11">
      <g>
       <use xlink:href="#m5d5fd04c22" x="43.78125" y="191.311252" style="stroke: #000000; stroke-width: 0.8"/>
      </g>
     </g>
     <g id="text_12">
      <!-- 1.5 -->
      <g transform="translate(20.878125 195.110471) scale(0.1 -0.1)">
       <use xlink:href="#DejaVuSans-31"/>
       <use xlink:href="#DejaVuSans-2e" x="63.623047"/>
       <use xlink:href="#DejaVuSans-35" x="95.410156"/>
      </g>
     </g>
    </g>
    <g id="ytick_5">
     <g id="line2d_12">
      <g>
       <use xlink:href="#m5d5fd04c22" x="43.78125" y="158.938295" style="stroke: #000000; stroke-width: 0.8"/>
      </g>
     </g>
     <g id="text_13">
      <!-- 2.0 -->
      <g transform="translate(20.878125 162.737513) scale(0.1 -0.1)">
       <use xlink:href="#DejaVuSans-32"/>
       <use xlink:href="#DejaVuSans-2e" x="63.623047"/>
       <use xlink:href="#DejaVuSans-30" x="95.410156"/>
      </g>
     </g>
    </g>
    <g id="ytick_6">
     <g id="line2d_13">
      <g>
       <use xlink:href="#m5d5fd04c22" x="43.78125" y="126.565337" style="stroke: #000000; stroke-width: 0.8"/>
      </g>
     </g>
     <g id="text_14">
      <!-- 2.5 -->
      <g transform="translate(20.878125 130.364556) scale(0.1 -0.1)">
       <use xlink:href="#DejaVuSans-32"/>
       <use xlink:href="#DejaVuSans-2e" x="63.623047"/>
       <use xlink:href="#DejaVuSans-35" x="95.410156"/>
      </g>
     </g>
    </g>
    <g id="ytick_7">
     <g id="line2d_14">
      <g>
       <use xlink:href="#m5d5fd04c22" x="43.78125" y="94.19238" style="stroke: #000000; stroke-width: 0.8"/>
      </g>
     </g>
     <g id="text_15">
      <!-- 3.0 -->
      <g transform="translate(20.878125 97.991598) scale(0.1 -0.1)">
       <use xlink:href="#DejaVuSans-33"/>
       <use xlink:href="#DejaVuSans-2e" x="63.623047"/>
       <use xlink:href="#DejaVuSans-30" x="95.410156"/>
      </g>
     </g>
    </g>
    <g id="ytick_8">
     <g id="line2d_15">
      <g>
       <use xlink:href="#m5d5fd04c22" x="43.78125" y="61.819422" style="stroke: #000000; stroke-width: 0.8"/>
      </g>
     </g>
     <g id="text_16">
      <!-- 3.5 -->
      <g transform="translate(20.878125 65.618641) scale(0.1 -0.1)">
       <use xlink:href="#DejaVuSans-33"/>
       <use xlink:href="#DejaVuSans-2e" x="63.623047"/>
       <use xlink:href="#DejaVuSans-35" x="95.410156"/>
      </g>
     </g>
    </g>
    <g id="ytick_9">
     <g id="line2d_16">
      <g>
       <use xlink:href="#m5d5fd04c22" x="43.78125" y="29.446464" style="stroke: #000000; stroke-width: 0.8"/>
      </g>
     </g>
     <g id="text_17">
      <!-- 4.0 -->
      <g transform="translate(20.878125 33.245683) scale(0.1 -0.1)">
       <use xlink:href="#DejaVuSans-34"/>
       <use xlink:href="#DejaVuSans-2e" x="63.623047"/>
       <use xlink:href="#DejaVuSans-30" x="95.410156"/>
      </g>
     </g>
    </g>
    <g id="text_18">
     <!-- Latency (ms) -->
     <g transform="translate(14.798438 188.103812) rotate(-90) scale(0.1 -0.1)">
      <defs>
       <path id="DejaVuSans-4c" d="M 628 4666 
L 1259 4666 
L 1259 531 
L 3531 531 
L 3531 0 
L 628 0 
L 628 4666 
z
" transform="scale(0.015625)"/>
       <path id="DejaVuSans-65" d="M 3597 1894 
L 3597 1613 
L 953 1613 
Q 991 1019 1311 708 
Q 1631 397 2203 397 
Q 2534 397 2845 478 
Q 3156 559 3463 722 
L 3463 178 
Q 3153 47 2828 -22 
Q 2503 -91 2169 -91 
Q 1331 -91 842 396 
Q 353 884 353 1716 
Q 353 2575 817 3079 
Q 1281 3584 2069 3584 
Q 2775 3584 3186 3129 
Q 3597 2675 3597 1894 
z
M 3022 2063 
Q 3016 2534 2758 2815 
Q 2500 3097 2075 3097 
Q 1594 3097 1305 2825 
Q 1016 2553 972 2059 
L 3022 2063 
z
" transform="scale(0.015625)"/>
       <path id="DejaVuSans-63" d="M 3122 3366 
L 3122 2828 
Q 2878 2963 2633 3030 
Q 2388 3097 2138 3097 
Q 1578 3097 1268 2742 
Q 959 2388 959 1747 
Q 959 1106 1268 751 
Q 1578 397 2138 397 
Q 2388 397 2633 464 
Q 2878 531 3122 666 
L 3122 134 
Q 2881 22 2623 -34 
Q 2366 -91 2075 -91 
Q 1284 -91 818 406 
Q 353 903 353 1747 
Q 353 2603 823 3093 
Q 1294 3584 2113 3584 
Q 2378 3584 2631 3529 
Q 2884 3475 3122 3366 
z
" transform="scale(0.015625)"/>
       <path id="DejaVuSans-79" d="M 2059 -325 
Q 1816 -950 1584 -1140 
Q 1353 -1331 966 -1331 
L 506 -1331 
L 506 -850 
L 844 -850 
Q 1081 -850 1212 -737 
Q 1344 -625 1503 -206 
L 1606 56 
L 191 3500 
L 800 3500 
L 1894 763 
L 2988 3500 
L 3597 3500 
L 2059 -325 
z
" transform="scale(0.015625)"/>
       <path id="DejaVuSans-6d" d="M 3328 2828 
Q 3544 3216 3844 3400 
Q 4144 3584 4550 3584 
Q 5097 3584 5394 3201 
Q 5691 2819 5691 2113 
L 5691 0 
L 5113 0 
L 5113 2094 
Q 5113 2597 4934 2840 
Q 4756 3084 4391 3084 
Q 3944 3084 3684 2787 
Q 3425 2491 3425 1978 
L 3425 0 
L 2847 0 
L 2847 2094 
Q 2847 2600 2669 2842 
Q 2491 3084 2119 3084 
Q 1678 3084 1418 2786 
Q 1159 2488 1159 1978 
L 1159 0 
L 581 0 
L 581 3500 
L 1159 3500 
L 1159 2956 
Q 1356 3278 1631 3431 
Q 1906 3584 2284 3584 
Q 2666 3584 2933 3390 
Q 3200 3197 3328 2828 
z
" transform="scale(0.015625)"/>
      </defs>
      <use xlink:href="#DejaVuSans-4c"/>
      <use xlink:href="#DejaVuSans-61" x="55.712891"/>
      <use xlink:href="#DejaVuSans-74" x="116.992188"/>
      <use xlink:href="#DejaVuSans-65" x="156.201172"/>
      <use xlink:href="#DejaVuSans-6e" x="217.724609"/>
      <use xlink:href="#DejaVuSans-63" x="281.103516"/>
      <use xlink:href="#DejaVuSans-79" x="336.083984"/>
      <use xlink:href="#DejaVuSans-20" x="395.263672"/>
      <use xlink:href="#DejaVuSans-28" x="427.050781"/>
      <use xlink:href="#DejaVuSans-6d" x="466.064453"/>
      <use xlink:href="#DejaVuSans-73" x="563.476562"/>
      <use xlink:href="#DejaVuSans-29" x="615.576172"/>
     </g>
    </g>
   </g>
   <g id="line2d_17">
    <path d="M 59.39741 66.833964 
L 82.567774 109.887095 
L 105.014738 118.786579 
L 126.78544 121.511409 
L 168.026525 121.064033 
L 204.812055 116.209461 
L 239.64481 111.407381 
L 268.935996 103.618589 
L 295.884391 95.864418 
L 317.581939 85.786175 
L 342.056376 55.806732 
" clip-path="url(#pd05d8fa8ef)" style="fill: none; stroke: #1f77b4; stroke-width: 1.5; stroke-linecap: square"/>
    <defs>
     <path id="m1866326583" d="M -3 0 
L 3 0 
M 0 3 
L 0 -3 
" style="stroke: #1f77b4"/>
    </defs>
    <g clip-path="url(#pd05d8fa8ef)">
     <use xlink:href="#m1866326583" x="59.39741" y="66.833964" style="fill: #1f77b4; stroke: #1f77b4"/>
     <use xlink:href="#m1866326583" x="82.567774" y="109.887095" style="fill: #1f77b4; stroke: #1f77b4"/>
     <use xlink:href="#m1866326583" x="105.014738" y="118.786579" style="fill: #1f77b4; stroke: #1f77b4"/>
     <use xlink:href="#m1866326583" x="126.78544" y="121.511409" style="fill: #1f77b4; stroke: #1f77b4"/>
     <use xlink:href="#m1866326583" x="168.026525" y="121.064033" style="fill: #1f77b4; stroke: #1f77b4"/>
     <use xlink:href="#m1866326583" x="204.812055" y="116.209461" style="fill: #1f77b4; stroke: #1f77b4"/>
     <use xlink:href="#m1866326583" x="239.64481" y="111.407381" style="fill: #1f77b4; stroke: #1f77b4"/>
     <use xlink:href="#m1866326583" x="268.935996" y="103.618589" style="fill: #1f77b4; stroke: #1f77b4"/>
     <use xlink:href="#m1866326583" x="295.884391" y="95.864418" style="fill: #1f77b4; stroke: #1f77b4"/>
     <use xlink:href="#m1866326583" x="317.581939" y="85.786175" style="fill: #1f77b4; stroke: #1f77b4"/>
     <use xlink:href="#m1866326583" x="342.056376" y="55.806732" style="fill: #1f77b4; stroke: #1f77b4"/>
    </g>
   </g>
   <g id="line2d_18">
    <path d="M 64.809739 123.991183 
L 84.31237 117.5595 
L 108.648896 128.227818 
L 138.654462 142.374561 
L 179.957457 135.71372 
L 219.733027 130.805531 
L 258.22649 126.752237 
L 282.99571 114.507569 
L 304.812891 102.492187 
L 322.417796 89.35149 
L 342.643991 56.315072 
" clip-path="url(#pd05d8fa8ef)" style="fill: none; stroke: #ff7f0e; stroke-width: 1.5; stroke-linecap: square"/>
    <defs>
     <path id="m18de67e187" d="M -3 0 
L 3 0 
M 0 3 
L 0 -3 
" style="stroke: #ff7f0e"/>
    </defs>
    <g clip-path="url(#pd05d8fa8ef)">
     <use xlink:href="#m18de67e187" x="64.809739" y="123.991183" style="fill: #ff7f0e; stroke: #ff7f0e"/>
     <use xlink:href="#m18de67e187" x="84.31237" y="117.5595" style="fill: #ff7f0e; stroke: #ff7f0e"/>
     <use xlink:href="#m18de67e187" x="108.648896" y="128.227818" style="fill: #ff7f0e; stroke: #ff7f0e"/>
     <use xlink:href="#m18de67e187" x="138.654462" y="142.374561" style="fill: #ff7f0e; stroke: #ff7f0e"/>
     <use xlink:href="#m18de67e187" x="179.957457" y="135.71372" style="fill: #ff7f0e; stroke: #ff7f0e"/>
     <use xlink:href="#m18de67e187" x="219.733027" y="130.805531" style="fill: #ff7f0e; stroke: #ff7f0e"/>
     <use xlink:href="#m18de67e187" x="258.22649" y="126.752237" style="fill: #ff7f0e; stroke: #ff7f0e"/>
     <use xlink:href="#m18de67e187" x="282.99571" y="114.507569" style="fill: #ff7f0e; stroke: #ff7f0e"/>
     <use xlink:href="#m18de67e187" x="304.812891" y="102.492187" style="fill: #ff7f0e; stroke: #ff7f0e"/>
     <use xlink:href="#m18de67e187" x="322.417796" y="89.35149" style="fill: #ff7f0e; stroke: #ff7f0e"/>
     <use xlink:href="#m18de67e187" x="342.643991" y="56.315072" style="fill: #ff7f0e; stroke: #ff7f0e"/>
    </g>
   </g>
   <g id="line2d_19">
    <path d="M 60.592923 82.398166 
L 82.388145 108.983805 
L 106.39666 122.379312 
L 128.749961 125.237418 
L 172.20985 126.437786 
L 204.581576 115.900367 
L 241.186931 112.78478 
L 263.873657 99.392455 
L 281.221028 84.002039 
L 296.913856 69.300738 
L 311.164704 28.966778 
" clip-path="url(#pd05d8fa8ef)" style="fill: none; stroke: #2ca02c; stroke-width: 1.5; stroke-linecap: square"/>
    <defs>
     <path id="md7f1dda601" d="M -3 0 
L 3 0 
M 0 3 
L 0 -3 
" style="stroke: #2ca02c"/>
    </defs>
    <g clip-path="url(#pd05d8fa8ef)">
     <use xlink:href="#md7f1dda601" x="60.592923" y="82.398166" style="fill: #2ca02c; stroke: #2ca02c"/>
     <use xlink:href="#md7f1dda601" x="82.388145" y="108.983805" style="fill: #2ca02c; stroke: #2ca02c"/>
     <use xlink:href="#md7f1dda601" x="106.39666" y="122.379312" style="fill: #2ca02c; stroke: #2ca02c"/>
     <use xlink:href="#md7f1dda601" x="128.749961" y="125.237418" style="fill: #2ca02c; stroke: #2ca02c"/>
     <use xlink:href="#md7f1dda601" x="172.20985" y="126.437786" style="fill: #2ca02c; stroke: #2ca02c"/>
     <use xlink:href="#md7f1dda601" x="204.581576" y="115.900367" style="fill: #2ca02c; stroke: #2ca02c"/>
     <use xlink:href="#md7f1dda601" x="241.186931" y="112.78478" style="fill: #2ca02c; stroke: #2ca02c"/>
     <use xlink:href="#md7f1dda601" x="263.873657" y="99.392455" style="fill: #2ca02c; stroke: #2ca02c"/>
     <use xlink:href="#md7f1dda601" x="281.221028" y="84.002039" style="fill: #2ca02c; stroke: #2ca02c"/>
     <use xlink:href="#md7f1dda601" x="296.913856" y="69.300738" style="fill: #2ca02c; stroke: #2ca02c"/>
     <use xlink:href="#md7f1dda601" x="311.164704" y="28.966778" style="fill: #2ca02c; stroke: #2ca02c"/>
    </g>
   </g>
   <g id="line2d_20">
    <path d="M 62.354302 102.280548 
L 85.329921 121.884212 
L 107.236997 124.792892 
L 132.101721 131.593546 
L 175.617897 130.723704 
L 215.067346 126.538862 
L 251.435544 121.482602 
L 281.945206 113.729923 
L 311.491617 107.099036 
L 334.503306 97.599987 
L 360.018982 69.030529 
" clip-path="url(#pd05d8fa8ef)" style="fill: none; stroke: #d62728; stroke-width: 1.5; stroke-linecap: square"/>
    <defs>
     <path id="m4543aae3b8" d="M -3 0 
L 3 0 
M 0 3 
L 0 -3 
" style="stroke: #d62728"/>
    </defs>
    <g clip-path="url(#pd05d8fa8ef)">
     <use xlink:href="#m4543aae3b8" x="62.354302" y="102.280548" style="fill: #d62728; stroke: #d62728"/>
     <use xlink:href="#m4543aae3b8" x="85.329921" y="121.884212" style="fill: #d62728; stroke: #d62728"/>
     <use xlink:href="#m4543aae3b8" x="107.236997" y="124.792892" style="fill: #d62728; stroke: #d62728"/>
     <use xlink:href="#m4543aae3b8" x="132.101721" y="131.593546" style="fill: #d62728; stroke: #d62728"/>
     <use xlink:href="#m4543aae3b8" x="175.617897" y="130.723704" style="fill: #d62728; stroke: #d62728"/>
     <use xlink:href="#m4543aae3b8" x="215.067346" y="126.538862" style="fill: #d62728; stroke: #d62728"/>
     <use xlink:href="#m4543aae3b8" x="251.435544" y="121.482602" style="fill: #d62728; stroke: #d62728"/>
     <use xlink:href="#m4543aae3b8" x="281.945206" y="113.729923" style="fill: #d62728; stroke: #d62728"/>
     <use xlink:href="#m4543aae3b8" x="311.491617" y="107.099036" style="fill: #d62728; stroke: #d62728"/>
     <use xlink:href="#m4543aae3b8" x="334.503306" y="97.599987" style="fill: #d62728; stroke: #d62728"/>
     <use xlink:href="#m4543aae3b8" x="360.018982" y="69.030529" style="fill: #d62728; stroke: #d62728"/>
    </g>
   </g>
   <g id="line2d_21">
    <path d="M 65.110208 126.352811 
L 92.839554 147.455384 
L 125.026559 160.595739 
L 153.298116 161.939844 
L 201.344668 156.481063 
L 244.825549 150.520949 
L 280.216162 141.837668 
L 305.643514 129.589781 
L 329.053757 118.327131 
L 348.762299 106.599013 
L 369.014185 75.18442 
" clip-path="url(#pd05d8fa8ef)" style="fill: none; stroke: #9467bd; stroke-width: 1.5; stroke-linecap: square"/>
    <defs>
     <path id="mba324e1e61" d="M -3 0 
L 3 0 
M 0 3 
L 0 -3 
" style="stroke: #9467bd"/>
    </defs>
    <g clip-path="url(#pd05d8fa8ef)">
     <use xlink:href="#mba324e1e61" x="65.110208" y="126.352811" style="fill: #9467bd; stroke: #9467bd"/>
     <use xlink:href="#mba324e1e61" x="92.839554" y="147.455384" style="fill: #9467bd; stroke: #9467bd"/>
     <use xlink:href="#mba324e1e61" x="125.026559" y="160.595739" style="fill: #9467bd; stroke: #9467bd"/>
     <use xlink:href="#mba324e1e61" x="153.298116" y="161.939844" style="fill: #9467bd; stroke: #9467bd"/>
     <use xlink:href="#mba324e1e61" x="201.344668" y="156.481063" style="fill: #9467bd; stroke: #9467bd"/>
     <use xlink:href="#mba324e1e61" x="244.825549" y="150.520949" style="fill: #9467bd; stroke: #9467bd"/>
     <use xlink:href="#mba324e1e61" x="280.216162" y="141.837668" style="fill: #9467bd; stroke: #9467bd"/>
     <use xlink:href="#mba324e1e61" x="305.643514" y="129.589781" style="fill: #9467bd; stroke: #9467bd"/>
     <use xlink:href="#mba324e1e61" x="329.053757" y="118.327131" style="fill: #9467bd; stroke: #9467bd"/>
     <use xlink:href="#mba324e1e61" x="348.762299" y="106.599013" style="fill: #9467bd; stroke: #9467bd"/>
     <use xlink:href="#mba324e1e61" x="369.014185" y="75.18442" style="fill: #9467bd; stroke: #9467bd"/>
    </g>
   </g>
   <g id="line2d_22">
    <path d="M 61.329295 91.07949 
L 83.449077 113.776578 
L 114.176214 140.721596 
L 149.899497 157.840263 
L 205.000662 159.452212 
L 246.649342 151.761375 
L 278.422355 140.725467 
L 304.096567 128.671433 
L 325.078773 115.958401 
L 341.701286 102.332883 
L 360.799773 69.713822 
" clip-path="url(#pd05d8fa8ef)" style="fill: none; stroke: #8c564b; stroke-width: 1.5; stroke-linecap: square"/>
    <defs>
     <path id="m780abc89fa" d="M -3 0 
L 3 0 
M 0 3 
L 0 -3 
" style="stroke: #8c564b"/>
    </defs>
    <g clip-path="url(#pd05d8fa8ef)">
     <use xlink:href="#m780abc89fa" x="61.329295" y="91.07949" style="fill: #8c564b; stroke: #8c564b"/>
     <use xlink:href="#m780abc89fa" x="83.449077" y="113.776578" style="fill: #8c564b; stroke: #8c564b"/>
     <use xlink:href="#m780abc89fa" x="114.176214" y="140.721596" style="fill: #8c564b; stroke: #8c564b"/>
     <use xlink:href="#m780abc89fa" x="149.899497" y="157.840263" style="fill: #8c564b; stroke: #8c564b"/>
     <use xlink:href="#m780abc89fa" x="205.000662" y="159.452212" style="fill: #8c564b; stroke: #8c564b"/>
     <use xlink:href="#m780abc89fa" x="246.649342" y="151.761375" style="fill: #8c564b; stroke: #8c564b"/>
     <use xlink:href="#m780abc89fa" x="278.422355" y="140.725467" style="fill: #8c564b; stroke: #8c564b"/>
     <use xlink:href="#m780abc89fa" x="304.096567" y="128.671433" style="fill: #8c564b; stroke: #8c564b"/>
     <use xlink:href="#m780abc89fa" x="325.078773" y="115.958401" style="fill: #8c564b; stroke: #8c564b"/>
     <use xlink:href="#m780abc89fa" x="341.701286" y="102.332883" style="fill: #8c564b; stroke: #8c564b"/>
     <use xlink:href="#m780abc89fa" x="360.799773" y="69.713822" style="fill: #8c564b; stroke: #8c564b"/>
    </g>
   </g>
   <g id="line2d_23">
    <path d="M 62.107041 99.72745 
L 82.923643 111.787608 
L 108.55192 128.239626 
L 130.161276 128.170627 
L 173.080413 127.76694 
L 213.526376 125.170345 
L 252.739925 122.606339 
L 289.894214 119.455678 
L 324.259348 115.416764 
L 355.553895 110.52558 
L 384.639162 84.883935 
" clip-path="url(#pd05d8fa8ef)" style="fill: none; stroke: #e377c2; stroke-width: 1.5; stroke-linecap: square"/>
    <defs>
     <path id="m25039ae39e" d="M -3 0 
L 3 0 
M 0 3 
L 0 -3 
" style="stroke: #e377c2"/>
    </defs>
    <g clip-path="url(#pd05d8fa8ef)">
     <use xlink:href="#m25039ae39e" x="62.107041" y="99.72745" style="fill: #e377c2; stroke: #e377c2"/>
     <use xlink:href="#m25039ae39e" x="82.923643" y="111.787608" style="fill: #e377c2; stroke: #e377c2"/>
     <use xlink:href="#m25039ae39e" x="108.55192" y="128.239626" style="fill: #e377c2; stroke: #e377c2"/>
     <use xlink:href="#m25039ae39e" x="130.161276" y="128.170627" style="fill: #e377c2; stroke: #e377c2"/>
     <use xlink:href="#m25039ae39e" x="173.080413" y="127.76694" style="fill: #e377c2; stroke: #e377c2"/>
     <use xlink:href="#m25039ae39e" x="213.526376" y="125.170345" style="fill: #e377c2; stroke: #e377c2"/>
     <use xlink:href="#m25039ae39e" x="252.739925" y="122.606339" style="fill: #e377c2; stroke: #e377c2"/>
     <use xlink:href="#m25039ae39e" x="289.894214" y="119.455678" style="fill: #e377c2; stroke: #e377c2"/>
     <use xlink:href="#m25039ae39e" x="324.259348" y="115.416764" style="fill: #e377c2; stroke: #e377c2"/>
     <use xlink:href="#m25039ae39e" x="355.553895" y="110.52558" style="fill: #e377c2; stroke: #e377c2"/>
     <use xlink:href="#m25039ae39e" x="384.639162" y="84.883935" style="fill: #e377c2; stroke: #e377c2"/>
    </g>
   </g>
   <g id="patch_3">
    <path d="M 43.78125 288.430125 
L 43.78125 22.318125 
" style="fill: none; stroke: #000000; stroke-width: 0.8; stroke-linejoin: miter; stroke-linecap: square"/>
   </g>
   <g id="patch_4">
    <path d="M 400.90125 288.430125 
L 400.90125 22.318125 
" style="fill: none; stroke: #000000; stroke-width: 0.8; stroke-linejoin: miter; stroke-linecap: square"/>
   </g>
   <g id="patch_5">
    <path d="M 43.78125 288.430125 
L 400.90125 288.430125 
" style="fill: none; stroke: #000000; stroke-width: 0.8; stroke-linejoin: miter; stroke-linecap: square"/>
   </g>
   <g id="patch_6">
    <path d="M 43.78125 22.318125 
L 400.90125 22.318125 
" style="fill: none; stroke: #000000; stroke-width: 0.8; stroke-linejoin: miter; stroke-linecap: square"/>
   </g>
   <g id="text_19">
    <!-- 1024K  Sequential Read -->
    <g transform="translate(150.369375 16.318125) scale(0.12 -0.12)">
     <defs>
      <path id="DejaVuSans-4b" d="M 628 4666 
L 1259 4666 
L 1259 2694 
L 3353 4666 
L 4166 4666 
L 1850 2491 
L 4331 0 
L 3500 0 
L 1259 2247 
L 1259 0 
L 628 0 
L 628 4666 
z
" transform="scale(0.015625)"/>
      <path id="DejaVuSans-53" d="M 3425 4513 
L 3425 3897 
Q 3066 4069 2747 4153 
Q 2428 4238 2131 4238 
Q 1616 4238 1336 4038 
Q 1056 3838 1056 3469 
Q 1056 3159 1242 3001 
Q 1428 2844 1947 2747 
L 2328 2669 
Q 3034 2534 3370 2195 
Q 3706 1856 3706 1288 
Q 3706 609 3251 259 
Q 2797 -91 1919 -91 
Q 1588 -91 1214 -16 
Q 841 59 441 206 
L 441 856 
Q 825 641 1194 531 
Q 1563 422 1919 422 
Q 2459 422 2753 634 
Q 3047 847 3047 1241 
Q 3047 1584 2836 1778 
Q 2625 1972 2144 2069 
L 1759 2144 
Q 1053 2284 737 2584 
Q 422 2884 422 3419 
Q 422 4038 858 4394 
Q 1294 4750 2059 4750 
Q 2388 4750 2728 4690 
Q 3069 4631 3425 4513 
z
" transform="scale(0.015625)"/>
      <path id="DejaVuSans-71" d="M 947 1747 
Q 947 1113 1208 752 
Q 1469 391 1925 391 
Q 2381 391 2643 752 
Q 2906 1113 2906 1747 
Q 2906 2381 2643 2742 
Q 2381 3103 1925 3103 
Q 1469 3103 1208 2742 
Q 947 2381 947 1747 
z
M 2906 525 
Q 2725 213 2448 61 
Q 2172 -91 1784 -91 
Q 1150 -91 751 415 
Q 353 922 353 1747 
Q 353 2572 751 3078 
Q 1150 3584 1784 3584 
Q 2172 3584 2448 3432 
Q 2725 3281 2906 2969 
L 2906 3500 
L 3481 3500 
L 3481 -1331 
L 2906 -1331 
L 2906 525 
z
" transform="scale(0.015625)"/>
      <path id="DejaVuSans-75" d="M 544 1381 
L 544 3500 
L 1119 3500 
L 1119 1403 
Q 1119 906 1312 657 
Q 1506 409 1894 409 
Q 2359 409 2629 706 
Q 2900 1003 2900 1516 
L 2900 3500 
L 3475 3500 
L 3475 0 
L 2900 0 
L 2900 538 
Q 2691 219 2414 64 
Q 2138 -91 1772 -91 
Q 1169 -91 856 284 
Q 544 659 544 1381 
z
M 1991 3584 
L 1991 3584 
z
" transform="scale(0.015625)"/>
      <path id="DejaVuSans-6c" d="M 603 4863 
L 1178 4863 
L 1178 0 
L 603 0 
L 603 4863 
z
" transform="scale(0.015625)"/>
      <path id="DejaVuSans-52" d="M 2841 2188 
Q 3044 2119 3236 1894 
Q 3428 1669 3622 1275 
L 4263 0 
L 3584 0 
L 2988 1197 
Q 2756 1666 2539 1819 
Q 2322 1972 1947 1972 
L 1259 1972 
L 1259 0 
L 628 0 
L 628 4666 
L 2053 4666 
Q 2853 4666 3247 4331 
Q 3641 3997 3641 3322 
Q 3641 2881 3436 2590 
Q 3231 2300 2841 2188 
z
M 1259 4147 
L 1259 2491 
L 2053 2491 
Q 2509 2491 2742 2702 
Q 2975 2913 2975 3322 
Q 2975 3731 2742 3939 
Q 2509 4147 2053 4147 
L 1259 4147 
z
" transform="scale(0.015625)"/>
     </defs>
     <use xlink:href="#DejaVuSans-31"/>
     <use xlink:href="#DejaVuSans-30" x="63.623047"/>
     <use xlink:href="#DejaVuSans-32" x="127.246094"/>
     <use xlink:href="#DejaVuSans-34" x="190.869141"/>
     <use xlink:href="#DejaVuSans-4b" x="254.492188"/>
     <use xlink:href="#DejaVuSans-20" x="320.068359"/>
     <use xlink:href="#DejaVuSans-20" x="351.855469"/>
     <use xlink:href="#DejaVuSans-53" x="383.642578"/>
     <use xlink:href="#DejaVuSans-65" x="447.119141"/>
     <use xlink:href="#DejaVuSans-71" x="508.642578"/>
     <use xlink:href="#DejaVuSans-75" x="572.119141"/>
     <use xlink:href="#DejaVuSans-65" x="635.498047"/>
     <use xlink:href="#DejaVuSans-6e" x="697.021484"/>
     <use xlink:href="#DejaVuSans-74" x="760.400391"/>
     <use xlink:href="#DejaVuSans-69" x="799.609375"/>
     <use xlink:href="#DejaVuSans-61" x="827.392578"/>
     <use xlink:href="#DejaVuSans-6c" x="888.671875"/>
     <use xlink:href="#DejaVuSans-20" x="916.455078"/>
     <use xlink:href="#DejaVuSans-52" x="948.242188"/>
     <use xlink:href="#DejaVuSans-65" x="1013.224609"/>
     <use xlink:href="#DejaVuSans-61" x="1074.748047"/>
     <use xlink:href="#DejaVuSans-64" x="1136.027344"/>
    </g>
   </g>
   <g id="legend_1">
    <g id="patch_7">
     <path d="M 56.970937 381.753825 
L 387.711563 381.753825 
Q 389.711563 381.753825 389.711563 379.753825 
L 389.711563 322.041325 
Q 389.711563 320.041325 387.711563 320.041325 
L 56.970937 320.041325 
Q 54.970937 320.041325 54.970937 322.041325 
L 54.970937 379.753825 
Q 54.970937 381.753825 56.970937 381.753825 
z
" style="fill: #ffffff; opacity: 0.8; stroke: #cccccc; stroke-linejoin: miter"/>
    </g>
    <g id="line2d_24">
     <path d="M 58.970937 328.139762 
L 68.970937 328.139762 
L 78.970937 328.139762 
" style="fill: none; stroke: #1f77b4; stroke-width: 1.5; stroke-linecap: square"/>
     <g>
      <use xlink:href="#m1866326583" x="68.970937" y="328.139762" style="fill: #1f77b4; stroke: #1f77b4"/>
     </g>
    </g>
    <g id="text_20">
     <!-- squid-ec-2+2-4k -->
     <g transform="translate(86.970937 331.639762) scale(0.1 -0.1)">
      <defs>
       <path id="DejaVuSans-2d" d="M 313 2009 
L 1997 2009 
L 1997 1497 
L 313 1497 
L 313 2009 
z
" transform="scale(0.015625)"/>
       <path id="DejaVuSans-2b" d="M 2944 4013 
L 2944 2272 
L 4684 2272 
L 4684 1741 
L 2944 1741 
L 2944 0 
L 2419 0 
L 2419 1741 
L 678 1741 
L 678 2272 
L 2419 2272 
L 2419 4013 
L 2944 4013 
z
" transform="scale(0.015625)"/>
       <path id="DejaVuSans-6b" d="M 581 4863 
L 1159 4863 
L 1159 1991 
L 2875 3500 
L 3609 3500 
L 1753 1863 
L 3688 0 
L 2938 0 
L 1159 1709 
L 1159 0 
L 581 0 
L 581 4863 
z
" transform="scale(0.015625)"/>
      </defs>
      <use xlink:href="#DejaVuSans-73"/>
      <use xlink:href="#DejaVuSans-71" x="52.099609"/>
      <use xlink:href="#DejaVuSans-75" x="115.576172"/>
      <use xlink:href="#DejaVuSans-69" x="178.955078"/>
      <use xlink:href="#DejaVuSans-64" x="206.738281"/>
      <use xlink:href="#DejaVuSans-2d" x="270.214844"/>
      <use xlink:href="#DejaVuSans-65" x="306.298828"/>
      <use xlink:href="#DejaVuSans-63" x="367.822266"/>
      <use xlink:href="#DejaVuSans-2d" x="422.802734"/>
      <use xlink:href="#DejaVuSans-32" x="458.886719"/>
      <use xlink:href="#DejaVuSans-2b" x="522.509766"/>
      <use xlink:href="#DejaVuSans-32" x="606.298828"/>
      <use xlink:href="#DejaVuSans-2d" x="669.921875"/>
      <use xlink:href="#DejaVuSans-34" x="706.005859"/>
      <use xlink:href="#DejaVuSans-6b" x="769.628906"/>
     </g>
    </g>
    <g id="line2d_25">
     <path d="M 58.970937 342.817887 
L 68.970937 342.817887 
L 78.970937 342.817887 
" style="fill: none; stroke: #ff7f0e; stroke-width: 1.5; stroke-linecap: square"/>
     <g>
      <use xlink:href="#m18de67e187" x="68.970937" y="342.817887" style="fill: #ff7f0e; stroke: #ff7f0e"/>
     </g>
    </g>
    <g id="text_21">
     <!-- squid-ec-4+2-4k -->
     <g transform="translate(86.970937 346.317887) scale(0.1 -0.1)">
      <use xlink:href="#DejaVuSans-73"/>
      <use xlink:href="#DejaVuSans-71" x="52.099609"/>
      <use xlink:href="#DejaVuSans-75" x="115.576172"/>
      <use xlink:href="#DejaVuSans-69" x="178.955078"/>
      <use xlink:href="#DejaVuSans-64" x="206.738281"/>
      <use xlink:href="#DejaVuSans-2d" x="270.214844"/>
      <use xlink:href="#DejaVuSans-65" x="306.298828"/>
      <use xlink:href="#DejaVuSans-63" x="367.822266"/>
      <use xlink:href="#DejaVuSans-2d" x="422.802734"/>
      <use xlink:href="#DejaVuSans-34" x="458.886719"/>
      <use xlink:href="#DejaVuSans-2b" x="522.509766"/>
      <use xlink:href="#DejaVuSans-32" x="606.298828"/>
      <use xlink:href="#DejaVuSans-2d" x="669.921875"/>
      <use xlink:href="#DejaVuSans-34" x="706.005859"/>
      <use xlink:href="#DejaVuSans-6b" x="769.628906"/>
     </g>
    </g>
    <g id="line2d_26">
     <path d="M 58.970937 357.496012 
L 68.970937 357.496012 
L 78.970937 357.496012 
" style="fill: none; stroke: #2ca02c; stroke-width: 1.5; stroke-linecap: square"/>
     <g>
      <use xlink:href="#md7f1dda601" x="68.970937" y="357.496012" style="fill: #2ca02c; stroke: #2ca02c"/>
     </g>
    </g>
    <g id="text_22">
     <!-- squid-ec-6+2-4k -->
     <g transform="translate(86.970937 360.996012) scale(0.1 -0.1)">
      <use xlink:href="#DejaVuSans-73"/>
      <use xlink:href="#DejaVuSans-71" x="52.099609"/>
      <use xlink:href="#DejaVuSans-75" x="115.576172"/>
      <use xlink:href="#DejaVuSans-69" x="178.955078"/>
      <use xlink:href="#DejaVuSans-64" x="206.738281"/>
      <use xlink:href="#DejaVuSans-2d" x="270.214844"/>
      <use xlink:href="#DejaVuSans-65" x="306.298828"/>
      <use xlink:href="#DejaVuSans-63" x="367.822266"/>
      <use xlink:href="#DejaVuSans-2d" x="422.802734"/>
      <use xlink:href="#DejaVuSans-36" x="458.886719"/>
      <use xlink:href="#DejaVuSans-2b" x="522.509766"/>
      <use xlink:href="#DejaVuSans-32" x="606.298828"/>
      <use xlink:href="#DejaVuSans-2d" x="669.921875"/>
      <use xlink:href="#DejaVuSans-34" x="706.005859"/>
      <use xlink:href="#DejaVuSans-6b" x="769.628906"/>
     </g>
    </g>
    <g id="line2d_27">
     <path d="M 58.970937 372.174137 
L 68.970937 372.174137 
L 78.970937 372.174137 
" style="fill: none; stroke: #d62728; stroke-width: 1.5; stroke-linecap: square"/>
     <g>
      <use xlink:href="#m4543aae3b8" x="68.970937" y="372.174137" style="fill: #d62728; stroke: #d62728"/>
     </g>
    </g>
    <g id="text_23">
     <!-- tentacle-fast-ec-2+2-16k -->
     <g transform="translate(86.970937 375.674137) scale(0.1 -0.1)">
      <defs>
       <path id="DejaVuSans-66" d="M 2375 4863 
L 2375 4384 
L 1825 4384 
Q 1516 4384 1395 4259 
Q 1275 4134 1275 3809 
L 1275 3500 
L 2222 3500 
L 2222 3053 
L 1275 3053 
L 1275 0 
L 697 0 
L 697 3053 
L 147 3053 
L 147 3500 
L 697 3500 
L 697 3744 
Q 697 4328 969 4595 
Q 1241 4863 1831 4863 
L 2375 4863 
z
" transform="scale(0.015625)"/>
      </defs>
      <use xlink:href="#DejaVuSans-74"/>
      <use xlink:href="#DejaVuSans-65" x="39.208984"/>
      <use xlink:href="#DejaVuSans-6e" x="100.732422"/>
      <use xlink:href="#DejaVuSans-74" x="164.111328"/>
      <use xlink:href="#DejaVuSans-61" x="203.320312"/>
      <use xlink:href="#DejaVuSans-63" x="264.599609"/>
      <use xlink:href="#DejaVuSans-6c" x="319.580078"/>
      <use xlink:href="#DejaVuSans-65" x="347.363281"/>
      <use xlink:href="#DejaVuSans-2d" x="408.886719"/>
      <use xlink:href="#DejaVuSans-66" x="444.970703"/>
      <use xlink:href="#DejaVuSans-61" x="480.175781"/>
      <use xlink:href="#DejaVuSans-73" x="541.455078"/>
      <use xlink:href="#DejaVuSans-74" x="593.554688"/>
      <use xlink:href="#DejaVuSans-2d" x="632.763672"/>
      <use xlink:href="#DejaVuSans-65" x="668.847656"/>
      <use xlink:href="#DejaVuSans-63" x="730.371094"/>
      <use xlink:href="#DejaVuSans-2d" x="785.351562"/>
      <use xlink:href="#DejaVuSans-32" x="821.435547"/>
      <use xlink:href="#DejaVuSans-2b" x="885.058594"/>
      <use xlink:href="#DejaVuSans-32" x="968.847656"/>
      <use xlink:href="#DejaVuSans-2d" x="1032.470703"/>
      <use xlink:href="#DejaVuSans-31" x="1068.554688"/>
      <use xlink:href="#DejaVuSans-36" x="1132.177734"/>
      <use xlink:href="#DejaVuSans-6b" x="1195.800781"/>
     </g>
    </g>
    <g id="line2d_28">
     <path d="M 232.34125 328.139762 
L 242.34125 328.139762 
L 252.34125 328.139762 
" style="fill: none; stroke: #9467bd; stroke-width: 1.5; stroke-linecap: square"/>
     <g>
      <use xlink:href="#mba324e1e61" x="242.34125" y="328.139762" style="fill: #9467bd; stroke: #9467bd"/>
     </g>
    </g>
    <g id="text_24">
     <!-- tentacle-fast-ec-4+2-16k -->
     <g transform="translate(260.34125 331.639762) scale(0.1 -0.1)">
      <use xlink:href="#DejaVuSans-74"/>
      <use xlink:href="#DejaVuSans-65" x="39.208984"/>
      <use xlink:href="#DejaVuSans-6e" x="100.732422"/>
      <use xlink:href="#DejaVuSans-74" x="164.111328"/>
      <use xlink:href="#DejaVuSans-61" x="203.320312"/>
      <use xlink:href="#DejaVuSans-63" x="264.599609"/>
      <use xlink:href="#DejaVuSans-6c" x="319.580078"/>
      <use xlink:href="#DejaVuSans-65" x="347.363281"/>
      <use xlink:href="#DejaVuSans-2d" x="408.886719"/>
      <use xlink:href="#DejaVuSans-66" x="444.970703"/>
      <use xlink:href="#DejaVuSans-61" x="480.175781"/>
      <use xlink:href="#DejaVuSans-73" x="541.455078"/>
      <use xlink:href="#DejaVuSans-74" x="593.554688"/>
      <use xlink:href="#DejaVuSans-2d" x="632.763672"/>
      <use xlink:href="#DejaVuSans-65" x="668.847656"/>
      <use xlink:href="#DejaVuSans-63" x="730.371094"/>
      <use xlink:href="#DejaVuSans-2d" x="785.351562"/>
      <use xlink:href="#DejaVuSans-34" x="821.435547"/>
      <use xlink:href="#DejaVuSans-2b" x="885.058594"/>
      <use xlink:href="#DejaVuSans-32" x="968.847656"/>
      <use xlink:href="#DejaVuSans-2d" x="1032.470703"/>
      <use xlink:href="#DejaVuSans-31" x="1068.554688"/>
      <use xlink:href="#DejaVuSans-36" x="1132.177734"/>
      <use xlink:href="#DejaVuSans-6b" x="1195.800781"/>
     </g>
    </g>
    <g id="line2d_29">
     <path d="M 232.34125 342.817887 
L 242.34125 342.817887 
L 252.34125 342.817887 
" style="fill: none; stroke: #8c564b; stroke-width: 1.5; stroke-linecap: square"/>
     <g>
      <use xlink:href="#m780abc89fa" x="242.34125" y="342.817887" style="fill: #8c564b; stroke: #8c564b"/>
     </g>
    </g>
    <g id="text_25">
     <!-- tentacle-fast-ec-6+2-16k -->
     <g transform="translate(260.34125 346.317887) scale(0.1 -0.1)">
      <use xlink:href="#DejaVuSans-74"/>
      <use xlink:href="#DejaVuSans-65" x="39.208984"/>
      <use xlink:href="#DejaVuSans-6e" x="100.732422"/>
      <use xlink:href="#DejaVuSans-74" x="164.111328"/>
      <use xlink:href="#DejaVuSans-61" x="203.320312"/>
      <use xlink:href="#DejaVuSans-63" x="264.599609"/>
      <use xlink:href="#DejaVuSans-6c" x="319.580078"/>
      <use xlink:href="#DejaVuSans-65" x="347.363281"/>
      <use xlink:href="#DejaVuSans-2d" x="408.886719"/>
      <use xlink:href="#DejaVuSans-66" x="444.970703"/>
      <use xlink:href="#DejaVuSans-61" x="480.175781"/>
      <use xlink:href="#DejaVuSans-73" x="541.455078"/>
      <use xlink:href="#DejaVuSans-74" x="593.554688"/>
      <use xlink:href="#DejaVuSans-2d" x="632.763672"/>
      <use xlink:href="#DejaVuSans-65" x="668.847656"/>
      <use xlink:href="#DejaVuSans-63" x="730.371094"/>
      <use xlink:href="#DejaVuSans-2d" x="785.351562"/>
      <use xlink:href="#DejaVuSans-36" x="821.435547"/>
      <use xlink:href="#DejaVuSans-2b" x="885.058594"/>
      <use xlink:href="#DejaVuSans-32" x="968.847656"/>
      <use xlink:href="#DejaVuSans-2d" x="1032.470703"/>
      <use xlink:href="#DejaVuSans-31" x="1068.554688"/>
      <use xlink:href="#DejaVuSans-36" x="1132.177734"/>
      <use xlink:href="#DejaVuSans-6b" x="1195.800781"/>
     </g>
    </g>
    <g id="line2d_30">
     <path d="M 232.34125 357.496012 
L 242.34125 357.496012 
L 252.34125 357.496012 
" style="fill: none; stroke: #e377c2; stroke-width: 1.5; stroke-linecap: square"/>
     <g>
      <use xlink:href="#m25039ae39e" x="242.34125" y="357.496012" style="fill: #e377c2; stroke: #e377c2"/>
     </g>
    </g>
    <g id="text_26">
     <!-- tentacle-3way-replica -->
     <g transform="translate(260.34125 360.996012) scale(0.1 -0.1)">
      <defs>
       <path id="DejaVuSans-72" d="M 2631 2963 
Q 2534 3019 2420 3045 
Q 2306 3072 2169 3072 
Q 1681 3072 1420 2755 
Q 1159 2438 1159 1844 
L 1159 0 
L 581 0 
L 581 3500 
L 1159 3500 
L 1159 2956 
Q 1341 3275 1631 3429 
Q 1922 3584 2338 3584 
Q 2397 3584 2469 3576 
Q 2541 3569 2628 3553 
L 2631 2963 
z
" transform="scale(0.015625)"/>
       <path id="DejaVuSans-70" d="M 1159 525 
L 1159 -1331 
L 581 -1331 
L 581 3500 
L 1159 3500 
L 1159 2969 
Q 1341 3281 1617 3432 
Q 1894 3584 2278 3584 
Q 2916 3584 3314 3078 
Q 3713 2572 3713 1747 
Q 3713 922 3314 415 
Q 2916 -91 2278 -91 
Q 1894 -91 1617 61 
Q 1341 213 1159 525 
z
M 3116 1747 
Q 3116 2381 2855 2742 
Q 2594 3103 2138 3103 
Q 1681 3103 1420 2742 
Q 1159 2381 1159 1747 
Q 1159 1113 1420 752 
Q 1681 391 2138 391 
Q 2594 391 2855 752 
Q 3116 1113 3116 1747 
z
" transform="scale(0.015625)"/>
      </defs>
      <use xlink:href="#DejaVuSans-74"/>
      <use xlink:href="#DejaVuSans-65" x="39.208984"/>
      <use xlink:href="#DejaVuSans-6e" x="100.732422"/>
      <use xlink:href="#DejaVuSans-74" x="164.111328"/>
      <use xlink:href="#DejaVuSans-61" x="203.320312"/>
      <use xlink:href="#DejaVuSans-63" x="264.599609"/>
      <use xlink:href="#DejaVuSans-6c" x="319.580078"/>
      <use xlink:href="#DejaVuSans-65" x="347.363281"/>
      <use xlink:href="#DejaVuSans-2d" x="408.886719"/>
      <use xlink:href="#DejaVuSans-33" x="444.970703"/>
      <use xlink:href="#DejaVuSans-77" x="508.59375"/>
      <use xlink:href="#DejaVuSans-61" x="590.380859"/>
      <use xlink:href="#DejaVuSans-79" x="651.660156"/>
      <use xlink:href="#DejaVuSans-2d" x="709.089844"/>
      <use xlink:href="#DejaVuSans-72" x="745.173828"/>
      <use xlink:href="#DejaVuSans-65" x="784.037109"/>
      <use xlink:href="#DejaVuSans-70" x="845.560547"/>
      <use xlink:href="#DejaVuSans-6c" x="909.037109"/>
      <use xlink:href="#DejaVuSans-69" x="936.820312"/>
      <use xlink:href="#DejaVuSans-63" x="964.603516"/>
      <use xlink:href="#DejaVuSans-61" x="1019.583984"/>
     </g>
    </g>
   </g>
  </g>
 </g>
 <defs>
  <clipPath id="pd05d8fa8ef">
   <rect x="43.78125" y="22.318125" width="357.12" height="266.112"/>
  </clipPath>
 </defs>
</svg>
