<?xml version="1.0" encoding="utf-8" standalone="no"?>
<!DOCTYPE svg PUBLIC "-//W3C//DTD SVG 1.1//EN"
  "http://www.w3.org/Graphics/SVG/1.1/DTD/svg11.dtd">
<svg xmlns:xlink="http://www.w3.org/1999/xlink" width="404.923125pt" height="388.953825pt" viewBox="0 0 404.923125 388.953825" xmlns="http://www.w3.org/2000/svg" version="1.1">
 <metadata>
  <rdf:RDF xmlns:dc="http://purl.org/dc/elements/1.1/" xmlns:cc="http://creativecommons.org/ns#" xmlns:rdf="http://www.w3.org/1999/02/22-rdf-syntax-ns#">
   <cc:Work>
    <dc:type rdf:resource="http://purl.org/dc/dcmitype/StillImage"/>
    <dc:date>2025-10-08T11:01:32.419422</dc:date>
    <dc:format>image/svg+xml</dc:format>
    <dc:creator>
     <cc:Agent>
      <dc:title>Matplotlib v3.9.4, https://matplotlib.org/</dc:title>
     </cc:Agent>
    </dc:creator>
   </cc:Work>
  </rdf:RDF>
 </metadata>
 <defs>
  <style type="text/css">*{stroke-linejoin: round; stroke-linecap: butt}</style>
 </defs>
 <g id="figure_1">
  <g id="patch_1">
   <path d="M 0 388.953825 
L 404.923125 388.953825 
L 404.923125 0 
L 0 0 
z
" style="fill: #ffffff"/>
  </g>
  <g id="axes_1">
   <g id="patch_2">
    <path d="M 40.603125 288.430125 
L 397.723125 288.430125 
L 397.723125 22.318125 
L 40.603125 22.318125 
z
" style="fill: #ffffff"/>
   </g>
   <g id="matplotlib.axis_1">
    <g id="xtick_1">
     <g id="line2d_1">
      <defs>
       <path id="m6b7c00f33b" d="M 0 0 
L 0 3.5 
" style="stroke: #000000; stroke-width: 0.8"/>
      </defs>
      <g>
       <use xlink:href="#m6b7c00f33b" x="40.603125" y="288.430125" style="stroke: #000000; stroke-width: 0.8"/>
      </g>
     </g>
     <g id="text_1">
      <!-- 0 -->
      <g transform="translate(37.421875 303.028562) scale(0.1 -0.1)">
       <defs>
        <path id="DejaVuSans-30" d="M 2034 4250 
Q 1547 4250 1301 3770 
Q 1056 3291 1056 2328 
Q 1056 1369 1301 889 
Q 1547 409 2034 409 
Q 2525 409 2770 889 
Q 3016 1369 3016 2328 
Q 3016 3291 2770 3770 
Q 2525 4250 2034 4250 
z
M 2034 4750 
Q 2819 4750 3233 4129 
Q 3647 3509 3647 2328 
Q 3647 1150 3233 529 
Q 2819 -91 2034 -91 
Q 1250 -91 836 529 
Q 422 1150 422 2328 
Q 422 3509 836 4129 
Q 1250 4750 2034 4750 
z
" transform="scale(0.015625)"/>
       </defs>
       <use xlink:href="#DejaVuSans-30"/>
      </g>
     </g>
    </g>
    <g id="xtick_2">
     <g id="line2d_2">
      <g>
       <use xlink:href="#m6b7c00f33b" x="116.252934" y="288.430125" style="stroke: #000000; stroke-width: 0.8"/>
      </g>
     </g>
     <g id="text_2">
      <!-- 10000 -->
      <g transform="translate(100.346684 303.028562) scale(0.1 -0.1)">
       <defs>
        <path id="DejaVuSans-31" d="M 794 531 
L 1825 531 
L 1825 4091 
L 703 3866 
L 703 4441 
L 1819 4666 
L 2450 4666 
L 2450 531 
L 3481 531 
L 3481 0 
L 794 0 
L 794 531 
z
" transform="scale(0.015625)"/>
       </defs>
       <use xlink:href="#DejaVuSans-31"/>
       <use xlink:href="#DejaVuSans-30" x="63.623047"/>
       <use xlink:href="#DejaVuSans-30" x="127.246094"/>
       <use xlink:href="#DejaVuSans-30" x="190.869141"/>
       <use xlink:href="#DejaVuSans-30" x="254.492188"/>
      </g>
     </g>
    </g>
    <g id="xtick_3">
     <g id="line2d_3">
      <g>
       <use xlink:href="#m6b7c00f33b" x="191.902743" y="288.430125" style="stroke: #000000; stroke-width: 0.8"/>
      </g>
     </g>
     <g id="text_3">
      <!-- 20000 -->
      <g transform="translate(175.996493 303.028562) scale(0.1 -0.1)">
       <defs>
        <path id="DejaVuSans-32" d="M 1228 531 
L 3431 531 
L 3431 0 
L 469 0 
L 469 531 
Q 828 903 1448 1529 
Q 2069 2156 2228 2338 
Q 2531 2678 2651 2914 
Q 2772 3150 2772 3378 
Q 2772 3750 2511 3984 
Q 2250 4219 1831 4219 
Q 1534 4219 1204 4116 
Q 875 4013 500 3803 
L 500 4441 
Q 881 4594 1212 4672 
Q 1544 4750 1819 4750 
Q 2544 4750 2975 4387 
Q 3406 4025 3406 3419 
Q 3406 3131 3298 2873 
Q 3191 2616 2906 2266 
Q 2828 2175 2409 1742 
Q 1991 1309 1228 531 
z
" transform="scale(0.015625)"/>
       </defs>
       <use xlink:href="#DejaVuSans-32"/>
       <use xlink:href="#DejaVuSans-30" x="63.623047"/>
       <use xlink:href="#DejaVuSans-30" x="127.246094"/>
       <use xlink:href="#DejaVuSans-30" x="190.869141"/>
       <use xlink:href="#DejaVuSans-30" x="254.492188"/>
      </g>
     </g>
    </g>
    <g id="xtick_4">
     <g id="line2d_4">
      <g>
       <use xlink:href="#m6b7c00f33b" x="267.552551" y="288.430125" style="stroke: #000000; stroke-width: 0.8"/>
      </g>
     </g>
     <g id="text_4">
      <!-- 30000 -->
      <g transform="translate(251.646301 303.028562) scale(0.1 -0.1)">
       <defs>
        <path id="DejaVuSans-33" d="M 2597 2516 
Q 3050 2419 3304 2112 
Q 3559 1806 3559 1356 
Q 3559 666 3084 287 
Q 2609 -91 1734 -91 
Q 1441 -91 1130 -33 
Q 819 25 488 141 
L 488 750 
Q 750 597 1062 519 
Q 1375 441 1716 441 
Q 2309 441 2620 675 
Q 2931 909 2931 1356 
Q 2931 1769 2642 2001 
Q 2353 2234 1838 2234 
L 1294 2234 
L 1294 2753 
L 1863 2753 
Q 2328 2753 2575 2939 
Q 2822 3125 2822 3475 
Q 2822 3834 2567 4026 
Q 2313 4219 1838 4219 
Q 1578 4219 1281 4162 
Q 984 4106 628 3988 
L 628 4550 
Q 988 4650 1302 4700 
Q 1616 4750 1894 4750 
Q 2613 4750 3031 4423 
Q 3450 4097 3450 3541 
Q 3450 3153 3228 2886 
Q 3006 2619 2597 2516 
z
" transform="scale(0.015625)"/>
       </defs>
       <use xlink:href="#DejaVuSans-33"/>
       <use xlink:href="#DejaVuSans-30" x="63.623047"/>
       <use xlink:href="#DejaVuSans-30" x="127.246094"/>
       <use xlink:href="#DejaVuSans-30" x="190.869141"/>
       <use xlink:href="#DejaVuSans-30" x="254.492188"/>
      </g>
     </g>
    </g>
    <g id="xtick_5">
     <g id="line2d_5">
      <g>
       <use xlink:href="#m6b7c00f33b" x="343.20236" y="288.430125" style="stroke: #000000; stroke-width: 0.8"/>
      </g>
     </g>
     <g id="text_5">
      <!-- 40000 -->
      <g transform="translate(327.29611 303.028562) scale(0.1 -0.1)">
       <defs>
        <path id="DejaVuSans-34" d="M 2419 4116 
L 825 1625 
L 2419 1625 
L 2419 4116 
z
M 2253 4666 
L 3047 4666 
L 3047 1625 
L 3713 1625 
L 3713 1100 
L 3047 1100 
L 3047 0 
L 2419 0 
L 2419 1100 
L 313 1100 
L 313 1709 
L 2253 4666 
z
" transform="scale(0.015625)"/>
       </defs>
       <use xlink:href="#DejaVuSans-34"/>
       <use xlink:href="#DejaVuSans-30" x="63.623047"/>
       <use xlink:href="#DejaVuSans-30" x="127.246094"/>
       <use xlink:href="#DejaVuSans-30" x="190.869141"/>
       <use xlink:href="#DejaVuSans-30" x="254.492188"/>
      </g>
     </g>
    </g>
    <g id="text_6">
     <!-- IOps -->
     <g transform="translate(207.973281 316.706687) scale(0.1 -0.1)">
      <defs>
       <path id="DejaVuSans-49" d="M 628 4666 
L 1259 4666 
L 1259 0 
L 628 0 
L 628 4666 
z
" transform="scale(0.015625)"/>
       <path id="DejaVuSans-4f" d="M 2522 4238 
Q 1834 4238 1429 3725 
Q 1025 3213 1025 2328 
Q 1025 1447 1429 934 
Q 1834 422 2522 422 
Q 3209 422 3611 934 
Q 4013 1447 4013 2328 
Q 4013 3213 3611 3725 
Q 3209 4238 2522 4238 
z
M 2522 4750 
Q 3503 4750 4090 4092 
Q 4678 3434 4678 2328 
Q 4678 1225 4090 567 
Q 3503 -91 2522 -91 
Q 1538 -91 948 565 
Q 359 1222 359 2328 
Q 359 3434 948 4092 
Q 1538 4750 2522 4750 
z
" transform="scale(0.015625)"/>
       <path id="DejaVuSans-70" d="M 1159 525 
L 1159 -1331 
L 581 -1331 
L 581 3500 
L 1159 3500 
L 1159 2969 
Q 1341 3281 1617 3432 
Q 1894 3584 2278 3584 
Q 2916 3584 3314 3078 
Q 3713 2572 3713 1747 
Q 3713 922 3314 415 
Q 2916 -91 2278 -91 
Q 1894 -91 1617 61 
Q 1341 213 1159 525 
z
M 3116 1747 
Q 3116 2381 2855 2742 
Q 2594 3103 2138 3103 
Q 1681 3103 1420 2742 
Q 1159 2381 1159 1747 
Q 1159 1113 1420 752 
Q 1681 391 2138 391 
Q 2594 391 2855 752 
Q 3116 1113 3116 1747 
z
" transform="scale(0.015625)"/>
       <path id="DejaVuSans-73" d="M 2834 3397 
L 2834 2853 
Q 2591 2978 2328 3040 
Q 2066 3103 1784 3103 
Q 1356 3103 1142 2972 
Q 928 2841 928 2578 
Q 928 2378 1081 2264 
Q 1234 2150 1697 2047 
L 1894 2003 
Q 2506 1872 2764 1633 
Q 3022 1394 3022 966 
Q 3022 478 2636 193 
Q 2250 -91 1575 -91 
Q 1294 -91 989 -36 
Q 684 19 347 128 
L 347 722 
Q 666 556 975 473 
Q 1284 391 1588 391 
Q 1994 391 2212 530 
Q 2431 669 2431 922 
Q 2431 1156 2273 1281 
Q 2116 1406 1581 1522 
L 1381 1569 
Q 847 1681 609 1914 
Q 372 2147 372 2553 
Q 372 3047 722 3315 
Q 1072 3584 1716 3584 
Q 2034 3584 2315 3537 
Q 2597 3491 2834 3397 
z
" transform="scale(0.015625)"/>
      </defs>
      <use xlink:href="#DejaVuSans-49"/>
      <use xlink:href="#DejaVuSans-4f" x="29.492188"/>
      <use xlink:href="#DejaVuSans-70" x="108.203125"/>
      <use xlink:href="#DejaVuSans-73" x="171.679688"/>
     </g>
    </g>
   </g>
   <g id="matplotlib.axis_2">
    <g id="ytick_1">
     <g id="line2d_6">
      <defs>
       <path id="mac7b0f0e19" d="M 0 0 
L -3.5 0 
" style="stroke: #000000; stroke-width: 0.8"/>
      </defs>
      <g>
       <use xlink:href="#mac7b0f0e19" x="40.603125" y="288.430125" style="stroke: #000000; stroke-width: 0.8"/>
      </g>
     </g>
     <g id="text_7">
      <!-- 0 -->
      <g transform="translate(27.240625 292.229344) scale(0.1 -0.1)">
       <use xlink:href="#DejaVuSans-30"/>
      </g>
     </g>
    </g>
    <g id="ytick_2">
     <g id="line2d_7">
      <g>
       <use xlink:href="#mac7b0f0e19" x="40.603125" y="238.286641" style="stroke: #000000; stroke-width: 0.8"/>
      </g>
     </g>
     <g id="text_8">
      <!-- 10 -->
      <g transform="translate(20.878125 242.085859) scale(0.1 -0.1)">
       <use xlink:href="#DejaVuSans-31"/>
       <use xlink:href="#DejaVuSans-30" x="63.623047"/>
      </g>
     </g>
    </g>
    <g id="ytick_3">
     <g id="line2d_8">
      <g>
       <use xlink:href="#mac7b0f0e19" x="40.603125" y="188.143156" style="stroke: #000000; stroke-width: 0.8"/>
      </g>
     </g>
     <g id="text_9">
      <!-- 20 -->
      <g transform="translate(20.878125 191.942375) scale(0.1 -0.1)">
       <use xlink:href="#DejaVuSans-32"/>
       <use xlink:href="#DejaVuSans-30" x="63.623047"/>
      </g>
     </g>
    </g>
    <g id="ytick_4">
     <g id="line2d_9">
      <g>
       <use xlink:href="#mac7b0f0e19" x="40.603125" y="137.999672" style="stroke: #000000; stroke-width: 0.8"/>
      </g>
     </g>
     <g id="text_10">
      <!-- 30 -->
      <g transform="translate(20.878125 141.798891) scale(0.1 -0.1)">
       <use xlink:href="#DejaVuSans-33"/>
       <use xlink:href="#DejaVuSans-30" x="63.623047"/>
      </g>
     </g>
    </g>
    <g id="ytick_5">
     <g id="line2d_10">
      <g>
       <use xlink:href="#mac7b0f0e19" x="40.603125" y="87.856187" style="stroke: #000000; stroke-width: 0.8"/>
      </g>
     </g>
     <g id="text_11">
      <!-- 40 -->
      <g transform="translate(20.878125 91.655406) scale(0.1 -0.1)">
       <use xlink:href="#DejaVuSans-34"/>
       <use xlink:href="#DejaVuSans-30" x="63.623047"/>
      </g>
     </g>
    </g>
    <g id="ytick_6">
     <g id="line2d_11">
      <g>
       <use xlink:href="#mac7b0f0e19" x="40.603125" y="37.712703" style="stroke: #000000; stroke-width: 0.8"/>
      </g>
     </g>
     <g id="text_12">
      <!-- 50 -->
      <g transform="translate(20.878125 41.511922) scale(0.1 -0.1)">
       <defs>
        <path id="DejaVuSans-35" d="M 691 4666 
L 3169 4666 
L 3169 4134 
L 1269 4134 
L 1269 2991 
Q 1406 3038 1543 3061 
Q 1681 3084 1819 3084 
Q 2600 3084 3056 2656 
Q 3513 2228 3513 1497 
Q 3513 744 3044 326 
Q 2575 -91 1722 -91 
Q 1428 -91 1123 -41 
Q 819 9 494 109 
L 494 744 
Q 775 591 1075 516 
Q 1375 441 1709 441 
Q 2250 441 2565 725 
Q 2881 1009 2881 1497 
Q 2881 1984 2565 2268 
Q 2250 2553 1709 2553 
Q 1456 2553 1204 2497 
Q 953 2441 691 2322 
L 691 4666 
z
" transform="scale(0.015625)"/>
       </defs>
       <use xlink:href="#DejaVuSans-35"/>
       <use xlink:href="#DejaVuSans-30" x="63.623047"/>
      </g>
     </g>
    </g>
    <g id="text_13">
     <!-- Latency (ms) -->
     <g transform="translate(14.798438 188.103812) rotate(-90) scale(0.1 -0.1)">
      <defs>
       <path id="DejaVuSans-4c" d="M 628 4666 
L 1259 4666 
L 1259 531 
L 3531 531 
L 3531 0 
L 628 0 
L 628 4666 
z
" transform="scale(0.015625)"/>
       <path id="DejaVuSans-61" d="M 2194 1759 
Q 1497 1759 1228 1600 
Q 959 1441 959 1056 
Q 959 750 1161 570 
Q 1363 391 1709 391 
Q 2188 391 2477 730 
Q 2766 1069 2766 1631 
L 2766 1759 
L 2194 1759 
z
M 3341 1997 
L 3341 0 
L 2766 0 
L 2766 531 
Q 2569 213 2275 61 
Q 1981 -91 1556 -91 
Q 1019 -91 701 211 
Q 384 513 384 1019 
Q 384 1609 779 1909 
Q 1175 2209 1959 2209 
L 2766 2209 
L 2766 2266 
Q 2766 2663 2505 2880 
Q 2244 3097 1772 3097 
Q 1472 3097 1187 3025 
Q 903 2953 641 2809 
L 641 3341 
Q 956 3463 1253 3523 
Q 1550 3584 1831 3584 
Q 2591 3584 2966 3190 
Q 3341 2797 3341 1997 
z
" transform="scale(0.015625)"/>
       <path id="DejaVuSans-74" d="M 1172 4494 
L 1172 3500 
L 2356 3500 
L 2356 3053 
L 1172 3053 
L 1172 1153 
Q 1172 725 1289 603 
Q 1406 481 1766 481 
L 2356 481 
L 2356 0 
L 1766 0 
Q 1100 0 847 248 
Q 594 497 594 1153 
L 594 3053 
L 172 3053 
L 172 3500 
L 594 3500 
L 594 4494 
L 1172 4494 
z
" transform="scale(0.015625)"/>
       <path id="DejaVuSans-65" d="M 3597 1894 
L 3597 1613 
L 953 1613 
Q 991 1019 1311 708 
Q 1631 397 2203 397 
Q 2534 397 2845 478 
Q 3156 559 3463 722 
L 3463 178 
Q 3153 47 2828 -22 
Q 2503 -91 2169 -91 
Q 1331 -91 842 396 
Q 353 884 353 1716 
Q 353 2575 817 3079 
Q 1281 3584 2069 3584 
Q 2775 3584 3186 3129 
Q 3597 2675 3597 1894 
z
M 3022 2063 
Q 3016 2534 2758 2815 
Q 2500 3097 2075 3097 
Q 1594 3097 1305 2825 
Q 1016 2553 972 2059 
L 3022 2063 
z
" transform="scale(0.015625)"/>
       <path id="DejaVuSans-6e" d="M 3513 2113 
L 3513 0 
L 2938 0 
L 2938 2094 
Q 2938 2591 2744 2837 
Q 2550 3084 2163 3084 
Q 1697 3084 1428 2787 
Q 1159 2491 1159 1978 
L 1159 0 
L 581 0 
L 581 3500 
L 1159 3500 
L 1159 2956 
Q 1366 3272 1645 3428 
Q 1925 3584 2291 3584 
Q 2894 3584 3203 3211 
Q 3513 2838 3513 2113 
z
" transform="scale(0.015625)"/>
       <path id="DejaVuSans-63" d="M 3122 3366 
L 3122 2828 
Q 2878 2963 2633 3030 
Q 2388 3097 2138 3097 
Q 1578 3097 1268 2742 
Q 959 2388 959 1747 
Q 959 1106 1268 751 
Q 1578 397 2138 397 
Q 2388 397 2633 464 
Q 2878 531 3122 666 
L 3122 134 
Q 2881 22 2623 -34 
Q 2366 -91 2075 -91 
Q 1284 -91 818 406 
Q 353 903 353 1747 
Q 353 2603 823 3093 
Q 1294 3584 2113 3584 
Q 2378 3584 2631 3529 
Q 2884 3475 3122 3366 
z
" transform="scale(0.015625)"/>
       <path id="DejaVuSans-79" d="M 2059 -325 
Q 1816 -950 1584 -1140 
Q 1353 -1331 966 -1331 
L 506 -1331 
L 506 -850 
L 844 -850 
Q 1081 -850 1212 -737 
Q 1344 -625 1503 -206 
L 1606 56 
L 191 3500 
L 800 3500 
L 1894 763 
L 2988 3500 
L 3597 3500 
L 2059 -325 
z
" transform="scale(0.015625)"/>
       <path id="DejaVuSans-20" transform="scale(0.015625)"/>
       <path id="DejaVuSans-28" d="M 1984 4856 
Q 1566 4138 1362 3434 
Q 1159 2731 1159 2009 
Q 1159 1288 1364 580 
Q 1569 -128 1984 -844 
L 1484 -844 
Q 1016 -109 783 600 
Q 550 1309 550 2009 
Q 550 2706 781 3412 
Q 1013 4119 1484 4856 
L 1984 4856 
z
" transform="scale(0.015625)"/>
       <path id="DejaVuSans-6d" d="M 3328 2828 
Q 3544 3216 3844 3400 
Q 4144 3584 4550 3584 
Q 5097 3584 5394 3201 
Q 5691 2819 5691 2113 
L 5691 0 
L 5113 0 
L 5113 2094 
Q 5113 2597 4934 2840 
Q 4756 3084 4391 3084 
Q 3944 3084 3684 2787 
Q 3425 2491 3425 1978 
L 3425 0 
L 2847 0 
L 2847 2094 
Q 2847 2600 2669 2842 
Q 2491 3084 2119 3084 
Q 1678 3084 1418 2786 
Q 1159 2488 1159 1978 
L 1159 0 
L 581 0 
L 581 3500 
L 1159 3500 
L 1159 2956 
Q 1356 3278 1631 3431 
Q 1906 3584 2284 3584 
Q 2666 3584 2933 3390 
Q 3200 3197 3328 2828 
z
" transform="scale(0.015625)"/>
       <path id="DejaVuSans-29" d="M 513 4856 
L 1013 4856 
Q 1481 4119 1714 3412 
Q 1947 2706 1947 2009 
Q 1947 1309 1714 600 
Q 1481 -109 1013 -844 
L 513 -844 
Q 928 -128 1133 580 
Q 1338 1288 1338 2009 
Q 1338 2731 1133 3434 
Q 928 4138 513 4856 
z
" transform="scale(0.015625)"/>
      </defs>
      <use xlink:href="#DejaVuSans-4c"/>
      <use xlink:href="#DejaVuSans-61" x="55.712891"/>
      <use xlink:href="#DejaVuSans-74" x="116.992188"/>
      <use xlink:href="#DejaVuSans-65" x="156.201172"/>
      <use xlink:href="#DejaVuSans-6e" x="217.724609"/>
      <use xlink:href="#DejaVuSans-63" x="281.103516"/>
      <use xlink:href="#DejaVuSans-79" x="336.083984"/>
      <use xlink:href="#DejaVuSans-20" x="395.263672"/>
      <use xlink:href="#DejaVuSans-28" x="427.050781"/>
      <use xlink:href="#DejaVuSans-6d" x="466.064453"/>
      <use xlink:href="#DejaVuSans-73" x="563.476562"/>
      <use xlink:href="#DejaVuSans-29" x="615.576172"/>
     </g>
    </g>
   </g>
   <g id="line2d_12">
    <path d="M 44.264451 278.184488 
L 53.741418 282.713176 
L 64.013623 283.624674 
L 71.92558 283.646095 
L 88.505649 282.173277 
L 112.597927 280.092556 
L 148.235182 277.257502 
L 160.25719 268.271626 
L 161.361591 248.299121 
L 158.36256 206.096699 
L 171.334169 177.134861 
L 170.981726 139.562361 
" clip-path="url(#pe690c66dee)" style="fill: none; stroke: #1f77b4; stroke-width: 1.5; stroke-linecap: square"/>
    <defs>
     <path id="ma51569a6cd" d="M -3 0 
L 3 0 
M 0 3 
L 0 -3 
" style="stroke: #1f77b4"/>
    </defs>
    <g clip-path="url(#pe690c66dee)">
     <use xlink:href="#ma51569a6cd" x="44.264451" y="278.184488" style="fill: #1f77b4; stroke: #1f77b4"/>
     <use xlink:href="#ma51569a6cd" x="53.741418" y="282.713176" style="fill: #1f77b4; stroke: #1f77b4"/>
     <use xlink:href="#ma51569a6cd" x="64.013623" y="283.624674" style="fill: #1f77b4; stroke: #1f77b4"/>
     <use xlink:href="#ma51569a6cd" x="71.92558" y="283.646095" style="fill: #1f77b4; stroke: #1f77b4"/>
     <use xlink:href="#ma51569a6cd" x="88.505649" y="282.173277" style="fill: #1f77b4; stroke: #1f77b4"/>
     <use xlink:href="#ma51569a6cd" x="112.597927" y="280.092556" style="fill: #1f77b4; stroke: #1f77b4"/>
     <use xlink:href="#ma51569a6cd" x="148.235182" y="277.257502" style="fill: #1f77b4; stroke: #1f77b4"/>
     <use xlink:href="#ma51569a6cd" x="160.25719" y="268.271626" style="fill: #1f77b4; stroke: #1f77b4"/>
     <use xlink:href="#ma51569a6cd" x="161.361591" y="248.299121" style="fill: #1f77b4; stroke: #1f77b4"/>
     <use xlink:href="#ma51569a6cd" x="158.36256" y="206.096699" style="fill: #1f77b4; stroke: #1f77b4"/>
     <use xlink:href="#ma51569a6cd" x="171.334169" y="177.134861" style="fill: #1f77b4; stroke: #1f77b4"/>
     <use xlink:href="#ma51569a6cd" x="170.981726" y="139.562361" style="fill: #1f77b4; stroke: #1f77b4"/>
    </g>
   </g>
   <g id="line2d_13">
    <path d="M 44.523423 278.835964 
L 53.062594 282.396013 
L 63.834419 283.592065 
L 69.375958 283.224257 
L 85.065682 281.68944 
L 103.452156 278.872457 
L 132.178149 275.286919 
L 145.309291 265.378449 
L 150.298211 244.251676 
L 155.923409 204.382459 
L 156.119102 162.504246 
L 161.428806 127.866133 
" clip-path="url(#pe690c66dee)" style="fill: none; stroke: #ff7f0e; stroke-width: 1.5; stroke-linecap: square"/>
    <defs>
     <path id="mdac22df7e4" d="M -3 0 
L 3 0 
M 0 3 
L 0 -3 
" style="stroke: #ff7f0e"/>
    </defs>
    <g clip-path="url(#pe690c66dee)">
     <use xlink:href="#mdac22df7e4" x="44.523423" y="278.835964" style="fill: #ff7f0e; stroke: #ff7f0e"/>
     <use xlink:href="#mdac22df7e4" x="53.062594" y="282.396013" style="fill: #ff7f0e; stroke: #ff7f0e"/>
     <use xlink:href="#mdac22df7e4" x="63.834419" y="283.592065" style="fill: #ff7f0e; stroke: #ff7f0e"/>
     <use xlink:href="#mdac22df7e4" x="69.375958" y="283.224257" style="fill: #ff7f0e; stroke: #ff7f0e"/>
     <use xlink:href="#mdac22df7e4" x="85.065682" y="281.68944" style="fill: #ff7f0e; stroke: #ff7f0e"/>
     <use xlink:href="#mdac22df7e4" x="103.452156" y="278.872457" style="fill: #ff7f0e; stroke: #ff7f0e"/>
     <use xlink:href="#mdac22df7e4" x="132.178149" y="275.286919" style="fill: #ff7f0e; stroke: #ff7f0e"/>
     <use xlink:href="#mdac22df7e4" x="145.309291" y="265.378449" style="fill: #ff7f0e; stroke: #ff7f0e"/>
     <use xlink:href="#mdac22df7e4" x="150.298211" y="244.251676" style="fill: #ff7f0e; stroke: #ff7f0e"/>
     <use xlink:href="#mdac22df7e4" x="155.923409" y="204.382459" style="fill: #ff7f0e; stroke: #ff7f0e"/>
     <use xlink:href="#mdac22df7e4" x="156.119102" y="162.504246" style="fill: #ff7f0e; stroke: #ff7f0e"/>
     <use xlink:href="#mdac22df7e4" x="161.428806" y="127.866133" style="fill: #ff7f0e; stroke: #ff7f0e"/>
    </g>
   </g>
   <g id="line2d_14">
    <path d="M 44.854298 279.581445 
L 51.385961 281.456646 
L 55.383336 280.799803 
L 60.749454 280.970774 
L 70.210411 278.269758 
L 75.227147 271.014891 
L 97.995381 267.414277 
L 108.743868 252.947999 
L 111.880516 220.468248 
L 110.338777 149.248409 
L 115.694548 94.627185 
L 117.135148 34.847311 
" clip-path="url(#pe690c66dee)" style="fill: none; stroke: #2ca02c; stroke-width: 1.5; stroke-linecap: square"/>
    <defs>
     <path id="m2d2c18e97e" d="M -3 0 
L 3 0 
M 0 3 
L 0 -3 
" style="stroke: #2ca02c"/>
    </defs>
    <g clip-path="url(#pe690c66dee)">
     <use xlink:href="#m2d2c18e97e" x="44.854298" y="279.581445" style="fill: #2ca02c; stroke: #2ca02c"/>
     <use xlink:href="#m2d2c18e97e" x="51.385961" y="281.456646" style="fill: #2ca02c; stroke: #2ca02c"/>
     <use xlink:href="#m2d2c18e97e" x="55.383336" y="280.799803" style="fill: #2ca02c; stroke: #2ca02c"/>
     <use xlink:href="#m2d2c18e97e" x="60.749454" y="280.970774" style="fill: #2ca02c; stroke: #2ca02c"/>
     <use xlink:href="#m2d2c18e97e" x="70.210411" y="278.269758" style="fill: #2ca02c; stroke: #2ca02c"/>
     <use xlink:href="#m2d2c18e97e" x="75.227147" y="271.014891" style="fill: #2ca02c; stroke: #2ca02c"/>
     <use xlink:href="#m2d2c18e97e" x="97.995381" y="267.414277" style="fill: #2ca02c; stroke: #2ca02c"/>
     <use xlink:href="#m2d2c18e97e" x="108.743868" y="252.947999" style="fill: #2ca02c; stroke: #2ca02c"/>
     <use xlink:href="#m2d2c18e97e" x="111.880516" y="220.468248" style="fill: #2ca02c; stroke: #2ca02c"/>
     <use xlink:href="#m2d2c18e97e" x="110.338777" y="149.248409" style="fill: #2ca02c; stroke: #2ca02c"/>
     <use xlink:href="#m2d2c18e97e" x="115.694548" y="94.627185" style="fill: #2ca02c; stroke: #2ca02c"/>
     <use xlink:href="#m2d2c18e97e" x="117.135148" y="34.847311" style="fill: #2ca02c; stroke: #2ca02c"/>
    </g>
   </g>
   <g id="line2d_15">
    <path d="M 44.432896 278.643013 
L 52.392785 282.056263 
L 61.930334 283.151274 
L 69.339394 283.211044 
L 82.976585 281.344677 
L 108.207146 279.543906 
L 134.559218 275.619302 
L 147.169897 265.781307 
L 160.855655 248.199242 
L 162.157857 208.677088 
L 165.158935 171.551819 
L 159.882716 125.766362 
" clip-path="url(#pe690c66dee)" style="fill: none; stroke: #d62728; stroke-width: 1.5; stroke-linecap: square"/>
    <defs>
     <path id="m7c9c7bbf19" d="M -3 0 
L 3 0 
M 0 3 
L 0 -3 
" style="stroke: #d62728"/>
    </defs>
    <g clip-path="url(#pe690c66dee)">
     <use xlink:href="#m7c9c7bbf19" x="44.432896" y="278.643013" style="fill: #d62728; stroke: #d62728"/>
     <use xlink:href="#m7c9c7bbf19" x="52.392785" y="282.056263" style="fill: #d62728; stroke: #d62728"/>
     <use xlink:href="#m7c9c7bbf19" x="61.930334" y="283.151274" style="fill: #d62728; stroke: #d62728"/>
     <use xlink:href="#m7c9c7bbf19" x="69.339394" y="283.211044" style="fill: #d62728; stroke: #d62728"/>
     <use xlink:href="#m7c9c7bbf19" x="82.976585" y="281.344677" style="fill: #d62728; stroke: #d62728"/>
     <use xlink:href="#m7c9c7bbf19" x="108.207146" y="279.543906" style="fill: #d62728; stroke: #d62728"/>
     <use xlink:href="#m7c9c7bbf19" x="134.559218" y="275.619302" style="fill: #d62728; stroke: #d62728"/>
     <use xlink:href="#m7c9c7bbf19" x="147.169897" y="265.781307" style="fill: #d62728; stroke: #d62728"/>
     <use xlink:href="#m7c9c7bbf19" x="160.855655" y="248.199242" style="fill: #d62728; stroke: #d62728"/>
     <use xlink:href="#m7c9c7bbf19" x="162.157857" y="208.677088" style="fill: #d62728; stroke: #d62728"/>
     <use xlink:href="#m7c9c7bbf19" x="165.158935" y="171.551819" style="fill: #d62728; stroke: #d62728"/>
     <use xlink:href="#m7c9c7bbf19" x="159.882716" y="125.766362" style="fill: #d62728; stroke: #d62728"/>
    </g>
   </g>
   <g id="line2d_16">
    <path d="M 43.046112 273.025987 
L 48.711303 279.150914 
L 55.124349 280.656191 
L 62.696154 281.625196 
L 78.28364 280.453646 
L 95.194821 277.406756 
L 122.38926 273.701325 
L 142.651531 264.776325 
L 151.587492 244.835371 
L 158.972194 206.551047 
L 161.11747 167.735126 
L 154.918371 118.620139 
" clip-path="url(#pe690c66dee)" style="fill: none; stroke: #9467bd; stroke-width: 1.5; stroke-linecap: square"/>
    <defs>
     <path id="md3e3ab1bc7" d="M -3 0 
L 3 0 
M 0 3 
L 0 -3 
" style="stroke: #9467bd"/>
    </defs>
    <g clip-path="url(#pe690c66dee)">
     <use xlink:href="#md3e3ab1bc7" x="43.046112" y="273.025987" style="fill: #9467bd; stroke: #9467bd"/>
     <use xlink:href="#md3e3ab1bc7" x="48.711303" y="279.150914" style="fill: #9467bd; stroke: #9467bd"/>
     <use xlink:href="#md3e3ab1bc7" x="55.124349" y="280.656191" style="fill: #9467bd; stroke: #9467bd"/>
     <use xlink:href="#md3e3ab1bc7" x="62.696154" y="281.625196" style="fill: #9467bd; stroke: #9467bd"/>
     <use xlink:href="#md3e3ab1bc7" x="78.28364" y="280.453646" style="fill: #9467bd; stroke: #9467bd"/>
     <use xlink:href="#md3e3ab1bc7" x="95.194821" y="277.406756" style="fill: #9467bd; stroke: #9467bd"/>
     <use xlink:href="#md3e3ab1bc7" x="122.38926" y="273.701325" style="fill: #9467bd; stroke: #9467bd"/>
     <use xlink:href="#md3e3ab1bc7" x="142.651531" y="264.776325" style="fill: #9467bd; stroke: #9467bd"/>
     <use xlink:href="#md3e3ab1bc7" x="151.587492" y="244.835371" style="fill: #9467bd; stroke: #9467bd"/>
     <use xlink:href="#md3e3ab1bc7" x="158.972194" y="206.551047" style="fill: #9467bd; stroke: #9467bd"/>
     <use xlink:href="#md3e3ab1bc7" x="161.11747" y="167.735126" style="fill: #9467bd; stroke: #9467bd"/>
     <use xlink:href="#md3e3ab1bc7" x="154.918371" y="118.620139" style="fill: #9467bd; stroke: #9467bd"/>
    </g>
   </g>
   <g id="line2d_17">
    <path d="M 43.392975 274.940878 
L 48.88256 279.343151 
L 55.696523 280.957304 
L 61.229152 281.143959 
L 76.740995 280.110902 
L 91.169129 276.522607 
L 119.568955 273.182021 
L 133.975273 262.580068 
L 148.871751 243.743986 
L 156.109394 204.508952 
L 155.647076 161.900162 
L 154.229011 117.532728 
" clip-path="url(#pe690c66dee)" style="fill: none; stroke: #8c564b; stroke-width: 1.5; stroke-linecap: square"/>
    <defs>
     <path id="mdfaddaccba" d="M -3 0 
L 3 0 
M 0 3 
L 0 -3 
" style="stroke: #8c564b"/>
    </defs>
    <g clip-path="url(#pe690c66dee)">
     <use xlink:href="#mdfaddaccba" x="43.392975" y="274.940878" style="fill: #8c564b; stroke: #8c564b"/>
     <use xlink:href="#mdfaddaccba" x="48.88256" y="279.343151" style="fill: #8c564b; stroke: #8c564b"/>
     <use xlink:href="#mdfaddaccba" x="55.696523" y="280.957304" style="fill: #8c564b; stroke: #8c564b"/>
     <use xlink:href="#mdfaddaccba" x="61.229152" y="281.143959" style="fill: #8c564b; stroke: #8c564b"/>
     <use xlink:href="#mdfaddaccba" x="76.740995" y="280.110902" style="fill: #8c564b; stroke: #8c564b"/>
     <use xlink:href="#mdfaddaccba" x="91.169129" y="276.522607" style="fill: #8c564b; stroke: #8c564b"/>
     <use xlink:href="#mdfaddaccba" x="119.568955" y="273.182021" style="fill: #8c564b; stroke: #8c564b"/>
     <use xlink:href="#mdfaddaccba" x="133.975273" y="262.580068" style="fill: #8c564b; stroke: #8c564b"/>
     <use xlink:href="#mdfaddaccba" x="148.871751" y="243.743986" style="fill: #8c564b; stroke: #8c564b"/>
     <use xlink:href="#mdfaddaccba" x="156.109394" y="204.508952" style="fill: #8c564b; stroke: #8c564b"/>
     <use xlink:href="#mdfaddaccba" x="155.647076" y="161.900162" style="fill: #8c564b; stroke: #8c564b"/>
     <use xlink:href="#mdfaddaccba" x="154.229011" y="117.532728" style="fill: #8c564b; stroke: #8c564b"/>
    </g>
   </g>
   <g id="line2d_18">
    <path d="M 45.316308 280.489379 
L 56.454521 283.702133 
L 74.591114 285.130315 
L 90.376448 285.431025 
L 131.385669 285.144512 
L 178.400555 284.097842 
L 266.397844 283.139471 
L 319.967446 279.847118 
L 351.496348 272.940972 
L 375.488559 259.574035 
L 380.833743 245.760803 
L 380.287882 231.386605 
" clip-path="url(#pe690c66dee)" style="fill: none; stroke: #e377c2; stroke-width: 1.5; stroke-linecap: square"/>
    <defs>
     <path id="m383b528ae9" d="M -3 0 
L 3 0 
M 0 3 
L 0 -3 
" style="stroke: #e377c2"/>
    </defs>
    <g clip-path="url(#pe690c66dee)">
     <use xlink:href="#m383b528ae9" x="45.316308" y="280.489379" style="fill: #e377c2; stroke: #e377c2"/>
     <use xlink:href="#m383b528ae9" x="56.454521" y="283.702133" style="fill: #e377c2; stroke: #e377c2"/>
     <use xlink:href="#m383b528ae9" x="74.591114" y="285.130315" style="fill: #e377c2; stroke: #e377c2"/>
     <use xlink:href="#m383b528ae9" x="90.376448" y="285.431025" style="fill: #e377c2; stroke: #e377c2"/>
     <use xlink:href="#m383b528ae9" x="131.385669" y="285.144512" style="fill: #e377c2; stroke: #e377c2"/>
     <use xlink:href="#m383b528ae9" x="178.400555" y="284.097842" style="fill: #e377c2; stroke: #e377c2"/>
     <use xlink:href="#m383b528ae9" x="266.397844" y="283.139471" style="fill: #e377c2; stroke: #e377c2"/>
     <use xlink:href="#m383b528ae9" x="319.967446" y="279.847118" style="fill: #e377c2; stroke: #e377c2"/>
     <use xlink:href="#m383b528ae9" x="351.496348" y="272.940972" style="fill: #e377c2; stroke: #e377c2"/>
     <use xlink:href="#m383b528ae9" x="375.488559" y="259.574035" style="fill: #e377c2; stroke: #e377c2"/>
     <use xlink:href="#m383b528ae9" x="380.833743" y="245.760803" style="fill: #e377c2; stroke: #e377c2"/>
     <use xlink:href="#m383b528ae9" x="380.287882" y="231.386605" style="fill: #e377c2; stroke: #e377c2"/>
    </g>
   </g>
   <g id="patch_3">
    <path d="M 40.603125 288.430125 
L 40.603125 22.318125 
" style="fill: none; stroke: #000000; stroke-width: 0.8; stroke-linejoin: miter; stroke-linecap: square"/>
   </g>
   <g id="patch_4">
    <path d="M 397.723125 288.430125 
L 397.723125 22.318125 
" style="fill: none; stroke: #000000; stroke-width: 0.8; stroke-linejoin: miter; stroke-linecap: square"/>
   </g>
   <g id="patch_5">
    <path d="M 40.603125 288.430125 
L 397.723125 288.430125 
" style="fill: none; stroke: #000000; stroke-width: 0.8; stroke-linejoin: miter; stroke-linecap: square"/>
   </g>
   <g id="patch_6">
    <path d="M 40.603125 22.318125 
L 397.723125 22.318125 
" style="fill: none; stroke: #000000; stroke-width: 0.8; stroke-linejoin: miter; stroke-linecap: square"/>
   </g>
   <g id="text_14">
    <!-- 32K  Random Write -->
    <g transform="translate(161.194688 16.318125) scale(0.12 -0.12)">
     <defs>
      <path id="DejaVuSans-4b" d="M 628 4666 
L 1259 4666 
L 1259 2694 
L 3353 4666 
L 4166 4666 
L 1850 2491 
L 4331 0 
L 3500 0 
L 1259 2247 
L 1259 0 
L 628 0 
L 628 4666 
z
" transform="scale(0.015625)"/>
      <path id="DejaVuSans-52" d="M 2841 2188 
Q 3044 2119 3236 1894 
Q 3428 1669 3622 1275 
L 4263 0 
L 3584 0 
L 2988 1197 
Q 2756 1666 2539 1819 
Q 2322 1972 1947 1972 
L 1259 1972 
L 1259 0 
L 628 0 
L 628 4666 
L 2053 4666 
Q 2853 4666 3247 4331 
Q 3641 3997 3641 3322 
Q 3641 2881 3436 2590 
Q 3231 2300 2841 2188 
z
M 1259 4147 
L 1259 2491 
L 2053 2491 
Q 2509 2491 2742 2702 
Q 2975 2913 2975 3322 
Q 2975 3731 2742 3939 
Q 2509 4147 2053 4147 
L 1259 4147 
z
" transform="scale(0.015625)"/>
      <path id="DejaVuSans-64" d="M 2906 2969 
L 2906 4863 
L 3481 4863 
L 3481 0 
L 2906 0 
L 2906 525 
Q 2725 213 2448 61 
Q 2172 -91 1784 -91 
Q 1150 -91 751 415 
Q 353 922 353 1747 
Q 353 2572 751 3078 
Q 1150 3584 1784 3584 
Q 2172 3584 2448 3432 
Q 2725 3281 2906 2969 
z
M 947 1747 
Q 947 1113 1208 752 
Q 1469 391 1925 391 
Q 2381 391 2643 752 
Q 2906 1113 2906 1747 
Q 2906 2381 2643 2742 
Q 2381 3103 1925 3103 
Q 1469 3103 1208 2742 
Q 947 2381 947 1747 
z
" transform="scale(0.015625)"/>
      <path id="DejaVuSans-6f" d="M 1959 3097 
Q 1497 3097 1228 2736 
Q 959 2375 959 1747 
Q 959 1119 1226 758 
Q 1494 397 1959 397 
Q 2419 397 2687 759 
Q 2956 1122 2956 1747 
Q 2956 2369 2687 2733 
Q 2419 3097 1959 3097 
z
M 1959 3584 
Q 2709 3584 3137 3096 
Q 3566 2609 3566 1747 
Q 3566 888 3137 398 
Q 2709 -91 1959 -91 
Q 1206 -91 779 398 
Q 353 888 353 1747 
Q 353 2609 779 3096 
Q 1206 3584 1959 3584 
z
" transform="scale(0.015625)"/>
      <path id="DejaVuSans-57" d="M 213 4666 
L 850 4666 
L 1831 722 
L 2809 4666 
L 3519 4666 
L 4500 722 
L 5478 4666 
L 6119 4666 
L 4947 0 
L 4153 0 
L 3169 4050 
L 2175 0 
L 1381 0 
L 213 4666 
z
" transform="scale(0.015625)"/>
      <path id="DejaVuSans-72" d="M 2631 2963 
Q 2534 3019 2420 3045 
Q 2306 3072 2169 3072 
Q 1681 3072 1420 2755 
Q 1159 2438 1159 1844 
L 1159 0 
L 581 0 
L 581 3500 
L 1159 3500 
L 1159 2956 
Q 1341 3275 1631 3429 
Q 1922 3584 2338 3584 
Q 2397 3584 2469 3576 
Q 2541 3569 2628 3553 
L 2631 2963 
z
" transform="scale(0.015625)"/>
      <path id="DejaVuSans-69" d="M 603 3500 
L 1178 3500 
L 1178 0 
L 603 0 
L 603 3500 
z
M 603 4863 
L 1178 4863 
L 1178 4134 
L 603 4134 
L 603 4863 
z
" transform="scale(0.015625)"/>
     </defs>
     <use xlink:href="#DejaVuSans-33"/>
     <use xlink:href="#DejaVuSans-32" x="63.623047"/>
     <use xlink:href="#DejaVuSans-4b" x="127.246094"/>
     <use xlink:href="#DejaVuSans-20" x="192.822266"/>
     <use xlink:href="#DejaVuSans-20" x="224.609375"/>
     <use xlink:href="#DejaVuSans-52" x="256.396484"/>
     <use xlink:href="#DejaVuSans-61" x="323.628906"/>
     <use xlink:href="#DejaVuSans-6e" x="384.908203"/>
     <use xlink:href="#DejaVuSans-64" x="448.287109"/>
     <use xlink:href="#DejaVuSans-6f" x="511.763672"/>
     <use xlink:href="#DejaVuSans-6d" x="572.945312"/>
     <use xlink:href="#DejaVuSans-20" x="670.357422"/>
     <use xlink:href="#DejaVuSans-57" x="702.144531"/>
     <use xlink:href="#DejaVuSans-72" x="796.521484"/>
     <use xlink:href="#DejaVuSans-69" x="837.634766"/>
     <use xlink:href="#DejaVuSans-74" x="865.417969"/>
     <use xlink:href="#DejaVuSans-65" x="904.626953"/>
    </g>
   </g>
   <g id="legend_1">
    <g id="patch_7">
     <path d="M 53.792812 381.753825 
L 384.533437 381.753825 
Q 386.533437 381.753825 386.533437 379.753825 
L 386.533437 322.041325 
Q 386.533437 320.041325 384.533437 320.041325 
L 53.792812 320.041325 
Q 51.792812 320.041325 51.792812 322.041325 
L 51.792812 379.753825 
Q 51.792812 381.753825 53.792812 381.753825 
z
" style="fill: #ffffff; opacity: 0.8; stroke: #cccccc; stroke-linejoin: miter"/>
    </g>
    <g id="line2d_19">
     <path d="M 55.792812 328.139762 
L 65.792812 328.139762 
L 75.792812 328.139762 
" style="fill: none; stroke: #1f77b4; stroke-width: 1.5; stroke-linecap: square"/>
     <g>
      <use xlink:href="#ma51569a6cd" x="65.792812" y="328.139762" style="fill: #1f77b4; stroke: #1f77b4"/>
     </g>
    </g>
    <g id="text_15">
     <!-- squid-ec-2+2-4k -->
     <g transform="translate(83.792812 331.639762) scale(0.1 -0.1)">
      <defs>
       <path id="DejaVuSans-71" d="M 947 1747 
Q 947 1113 1208 752 
Q 1469 391 1925 391 
Q 2381 391 2643 752 
Q 2906 1113 2906 1747 
Q 2906 2381 2643 2742 
Q 2381 3103 1925 3103 
Q 1469 3103 1208 2742 
Q 947 2381 947 1747 
z
M 2906 525 
Q 2725 213 2448 61 
Q 2172 -91 1784 -91 
Q 1150 -91 751 415 
Q 353 922 353 1747 
Q 353 2572 751 3078 
Q 1150 3584 1784 3584 
Q 2172 3584 2448 3432 
Q 2725 3281 2906 2969 
L 2906 3500 
L 3481 3500 
L 3481 -1331 
L 2906 -1331 
L 2906 525 
z
" transform="scale(0.015625)"/>
       <path id="DejaVuSans-75" d="M 544 1381 
L 544 3500 
L 1119 3500 
L 1119 1403 
Q 1119 906 1312 657 
Q 1506 409 1894 409 
Q 2359 409 2629 706 
Q 2900 1003 2900 1516 
L 2900 3500 
L 3475 3500 
L 3475 0 
L 2900 0 
L 2900 538 
Q 2691 219 2414 64 
Q 2138 -91 1772 -91 
Q 1169 -91 856 284 
Q 544 659 544 1381 
z
M 1991 3584 
L 1991 3584 
z
" transform="scale(0.015625)"/>
       <path id="DejaVuSans-2d" d="M 313 2009 
L 1997 2009 
L 1997 1497 
L 313 1497 
L 313 2009 
z
" transform="scale(0.015625)"/>
       <path id="DejaVuSans-2b" d="M 2944 4013 
L 2944 2272 
L 4684 2272 
L 4684 1741 
L 2944 1741 
L 2944 0 
L 2419 0 
L 2419 1741 
L 678 1741 
L 678 2272 
L 2419 2272 
L 2419 4013 
L 2944 4013 
z
" transform="scale(0.015625)"/>
       <path id="DejaVuSans-6b" d="M 581 4863 
L 1159 4863 
L 1159 1991 
L 2875 3500 
L 3609 3500 
L 1753 1863 
L 3688 0 
L 2938 0 
L 1159 1709 
L 1159 0 
L 581 0 
L 581 4863 
z
" transform="scale(0.015625)"/>
      </defs>
      <use xlink:href="#DejaVuSans-73"/>
      <use xlink:href="#DejaVuSans-71" x="52.099609"/>
      <use xlink:href="#DejaVuSans-75" x="115.576172"/>
      <use xlink:href="#DejaVuSans-69" x="178.955078"/>
      <use xlink:href="#DejaVuSans-64" x="206.738281"/>
      <use xlink:href="#DejaVuSans-2d" x="270.214844"/>
      <use xlink:href="#DejaVuSans-65" x="306.298828"/>
      <use xlink:href="#DejaVuSans-63" x="367.822266"/>
      <use xlink:href="#DejaVuSans-2d" x="422.802734"/>
      <use xlink:href="#DejaVuSans-32" x="458.886719"/>
      <use xlink:href="#DejaVuSans-2b" x="522.509766"/>
      <use xlink:href="#DejaVuSans-32" x="606.298828"/>
      <use xlink:href="#DejaVuSans-2d" x="669.921875"/>
      <use xlink:href="#DejaVuSans-34" x="706.005859"/>
      <use xlink:href="#DejaVuSans-6b" x="769.628906"/>
     </g>
    </g>
    <g id="line2d_20">
     <path d="M 55.792812 342.817887 
L 65.792812 342.817887 
L 75.792812 342.817887 
" style="fill: none; stroke: #ff7f0e; stroke-width: 1.5; stroke-linecap: square"/>
     <g>
      <use xlink:href="#mdac22df7e4" x="65.792812" y="342.817887" style="fill: #ff7f0e; stroke: #ff7f0e"/>
     </g>
    </g>
    <g id="text_16">
     <!-- squid-ec-4+2-4k -->
     <g transform="translate(83.792812 346.317887) scale(0.1 -0.1)">
      <use xlink:href="#DejaVuSans-73"/>
      <use xlink:href="#DejaVuSans-71" x="52.099609"/>
      <use xlink:href="#DejaVuSans-75" x="115.576172"/>
      <use xlink:href="#DejaVuSans-69" x="178.955078"/>
      <use xlink:href="#DejaVuSans-64" x="206.738281"/>
      <use xlink:href="#DejaVuSans-2d" x="270.214844"/>
      <use xlink:href="#DejaVuSans-65" x="306.298828"/>
      <use xlink:href="#DejaVuSans-63" x="367.822266"/>
      <use xlink:href="#DejaVuSans-2d" x="422.802734"/>
      <use xlink:href="#DejaVuSans-34" x="458.886719"/>
      <use xlink:href="#DejaVuSans-2b" x="522.509766"/>
      <use xlink:href="#DejaVuSans-32" x="606.298828"/>
      <use xlink:href="#DejaVuSans-2d" x="669.921875"/>
      <use xlink:href="#DejaVuSans-34" x="706.005859"/>
      <use xlink:href="#DejaVuSans-6b" x="769.628906"/>
     </g>
    </g>
    <g id="line2d_21">
     <path d="M 55.792812 357.496012 
L 65.792812 357.496012 
L 75.792812 357.496012 
" style="fill: none; stroke: #2ca02c; stroke-width: 1.5; stroke-linecap: square"/>
     <g>
      <use xlink:href="#m2d2c18e97e" x="65.792812" y="357.496012" style="fill: #2ca02c; stroke: #2ca02c"/>
     </g>
    </g>
    <g id="text_17">
     <!-- squid-ec-6+2-4k -->
     <g transform="translate(83.792812 360.996012) scale(0.1 -0.1)">
      <defs>
       <path id="DejaVuSans-36" d="M 2113 2584 
Q 1688 2584 1439 2293 
Q 1191 2003 1191 1497 
Q 1191 994 1439 701 
Q 1688 409 2113 409 
Q 2538 409 2786 701 
Q 3034 994 3034 1497 
Q 3034 2003 2786 2293 
Q 2538 2584 2113 2584 
z
M 3366 4563 
L 3366 3988 
Q 3128 4100 2886 4159 
Q 2644 4219 2406 4219 
Q 1781 4219 1451 3797 
Q 1122 3375 1075 2522 
Q 1259 2794 1537 2939 
Q 1816 3084 2150 3084 
Q 2853 3084 3261 2657 
Q 3669 2231 3669 1497 
Q 3669 778 3244 343 
Q 2819 -91 2113 -91 
Q 1303 -91 875 529 
Q 447 1150 447 2328 
Q 447 3434 972 4092 
Q 1497 4750 2381 4750 
Q 2619 4750 2861 4703 
Q 3103 4656 3366 4563 
z
" transform="scale(0.015625)"/>
      </defs>
      <use xlink:href="#DejaVuSans-73"/>
      <use xlink:href="#DejaVuSans-71" x="52.099609"/>
      <use xlink:href="#DejaVuSans-75" x="115.576172"/>
      <use xlink:href="#DejaVuSans-69" x="178.955078"/>
      <use xlink:href="#DejaVuSans-64" x="206.738281"/>
      <use xlink:href="#DejaVuSans-2d" x="270.214844"/>
      <use xlink:href="#DejaVuSans-65" x="306.298828"/>
      <use xlink:href="#DejaVuSans-63" x="367.822266"/>
      <use xlink:href="#DejaVuSans-2d" x="422.802734"/>
      <use xlink:href="#DejaVuSans-36" x="458.886719"/>
      <use xlink:href="#DejaVuSans-2b" x="522.509766"/>
      <use xlink:href="#DejaVuSans-32" x="606.298828"/>
      <use xlink:href="#DejaVuSans-2d" x="669.921875"/>
      <use xlink:href="#DejaVuSans-34" x="706.005859"/>
      <use xlink:href="#DejaVuSans-6b" x="769.628906"/>
     </g>
    </g>
    <g id="line2d_22">
     <path d="M 55.792812 372.174137 
L 65.792812 372.174137 
L 75.792812 372.174137 
" style="fill: none; stroke: #d62728; stroke-width: 1.5; stroke-linecap: square"/>
     <g>
      <use xlink:href="#m7c9c7bbf19" x="65.792812" y="372.174137" style="fill: #d62728; stroke: #d62728"/>
     </g>
    </g>
    <g id="text_18">
     <!-- tentacle-fast-ec-2+2-16k -->
     <g transform="translate(83.792812 375.674137) scale(0.1 -0.1)">
      <defs>
       <path id="DejaVuSans-6c" d="M 603 4863 
L 1178 4863 
L 1178 0 
L 603 0 
L 603 4863 
z
" transform="scale(0.015625)"/>
       <path id="DejaVuSans-66" d="M 2375 4863 
L 2375 4384 
L 1825 4384 
Q 1516 4384 1395 4259 
Q 1275 4134 1275 3809 
L 1275 3500 
L 2222 3500 
L 2222 3053 
L 1275 3053 
L 1275 0 
L 697 0 
L 697 3053 
L 147 3053 
L 147 3500 
L 697 3500 
L 697 3744 
Q 697 4328 969 4595 
Q 1241 4863 1831 4863 
L 2375 4863 
z
" transform="scale(0.015625)"/>
      </defs>
      <use xlink:href="#DejaVuSans-74"/>
      <use xlink:href="#DejaVuSans-65" x="39.208984"/>
      <use xlink:href="#DejaVuSans-6e" x="100.732422"/>
      <use xlink:href="#DejaVuSans-74" x="164.111328"/>
      <use xlink:href="#DejaVuSans-61" x="203.320312"/>
      <use xlink:href="#DejaVuSans-63" x="264.599609"/>
      <use xlink:href="#DejaVuSans-6c" x="319.580078"/>
      <use xlink:href="#DejaVuSans-65" x="347.363281"/>
      <use xlink:href="#DejaVuSans-2d" x="408.886719"/>
      <use xlink:href="#DejaVuSans-66" x="444.970703"/>
      <use xlink:href="#DejaVuSans-61" x="480.175781"/>
      <use xlink:href="#DejaVuSans-73" x="541.455078"/>
      <use xlink:href="#DejaVuSans-74" x="593.554688"/>
      <use xlink:href="#DejaVuSans-2d" x="632.763672"/>
      <use xlink:href="#DejaVuSans-65" x="668.847656"/>
      <use xlink:href="#DejaVuSans-63" x="730.371094"/>
      <use xlink:href="#DejaVuSans-2d" x="785.351562"/>
      <use xlink:href="#DejaVuSans-32" x="821.435547"/>
      <use xlink:href="#DejaVuSans-2b" x="885.058594"/>
      <use xlink:href="#DejaVuSans-32" x="968.847656"/>
      <use xlink:href="#DejaVuSans-2d" x="1032.470703"/>
      <use xlink:href="#DejaVuSans-31" x="1068.554688"/>
      <use xlink:href="#DejaVuSans-36" x="1132.177734"/>
      <use xlink:href="#DejaVuSans-6b" x="1195.800781"/>
     </g>
    </g>
    <g id="line2d_23">
     <path d="M 229.163125 328.139762 
L 239.163125 328.139762 
L 249.163125 328.139762 
" style="fill: none; stroke: #9467bd; stroke-width: 1.5; stroke-linecap: square"/>
     <g>
      <use xlink:href="#md3e3ab1bc7" x="239.163125" y="328.139762" style="fill: #9467bd; stroke: #9467bd"/>
     </g>
    </g>
    <g id="text_19">
     <!-- tentacle-fast-ec-4+2-16k -->
     <g transform="translate(257.163125 331.639762) scale(0.1 -0.1)">
      <use xlink:href="#DejaVuSans-74"/>
      <use xlink:href="#DejaVuSans-65" x="39.208984"/>
      <use xlink:href="#DejaVuSans-6e" x="100.732422"/>
      <use xlink:href="#DejaVuSans-74" x="164.111328"/>
      <use xlink:href="#DejaVuSans-61" x="203.320312"/>
      <use xlink:href="#DejaVuSans-63" x="264.599609"/>
      <use xlink:href="#DejaVuSans-6c" x="319.580078"/>
      <use xlink:href="#DejaVuSans-65" x="347.363281"/>
      <use xlink:href="#DejaVuSans-2d" x="408.886719"/>
      <use xlink:href="#DejaVuSans-66" x="444.970703"/>
      <use xlink:href="#DejaVuSans-61" x="480.175781"/>
      <use xlink:href="#DejaVuSans-73" x="541.455078"/>
      <use xlink:href="#DejaVuSans-74" x="593.554688"/>
      <use xlink:href="#DejaVuSans-2d" x="632.763672"/>
      <use xlink:href="#DejaVuSans-65" x="668.847656"/>
      <use xlink:href="#DejaVuSans-63" x="730.371094"/>
      <use xlink:href="#DejaVuSans-2d" x="785.351562"/>
      <use xlink:href="#DejaVuSans-34" x="821.435547"/>
      <use xlink:href="#DejaVuSans-2b" x="885.058594"/>
      <use xlink:href="#DejaVuSans-32" x="968.847656"/>
      <use xlink:href="#DejaVuSans-2d" x="1032.470703"/>
      <use xlink:href="#DejaVuSans-31" x="1068.554688"/>
      <use xlink:href="#DejaVuSans-36" x="1132.177734"/>
      <use xlink:href="#DejaVuSans-6b" x="1195.800781"/>
     </g>
    </g>
    <g id="line2d_24">
     <path d="M 229.163125 342.817887 
L 239.163125 342.817887 
L 249.163125 342.817887 
" style="fill: none; stroke: #8c564b; stroke-width: 1.5; stroke-linecap: square"/>
     <g>
      <use xlink:href="#mdfaddaccba" x="239.163125" y="342.817887" style="fill: #8c564b; stroke: #8c564b"/>
     </g>
    </g>
    <g id="text_20">
     <!-- tentacle-fast-ec-6+2-16k -->
     <g transform="translate(257.163125 346.317887) scale(0.1 -0.1)">
      <use xlink:href="#DejaVuSans-74"/>
      <use xlink:href="#DejaVuSans-65" x="39.208984"/>
      <use xlink:href="#DejaVuSans-6e" x="100.732422"/>
      <use xlink:href="#DejaVuSans-74" x="164.111328"/>
      <use xlink:href="#DejaVuSans-61" x="203.320312"/>
      <use xlink:href="#DejaVuSans-63" x="264.599609"/>
      <use xlink:href="#DejaVuSans-6c" x="319.580078"/>
      <use xlink:href="#DejaVuSans-65" x="347.363281"/>
      <use xlink:href="#DejaVuSans-2d" x="408.886719"/>
      <use xlink:href="#DejaVuSans-66" x="444.970703"/>
      <use xlink:href="#DejaVuSans-61" x="480.175781"/>
      <use xlink:href="#DejaVuSans-73" x="541.455078"/>
      <use xlink:href="#DejaVuSans-74" x="593.554688"/>
      <use xlink:href="#DejaVuSans-2d" x="632.763672"/>
      <use xlink:href="#DejaVuSans-65" x="668.847656"/>
      <use xlink:href="#DejaVuSans-63" x="730.371094"/>
      <use xlink:href="#DejaVuSans-2d" x="785.351562"/>
      <use xlink:href="#DejaVuSans-36" x="821.435547"/>
      <use xlink:href="#DejaVuSans-2b" x="885.058594"/>
      <use xlink:href="#DejaVuSans-32" x="968.847656"/>
      <use xlink:href="#DejaVuSans-2d" x="1032.470703"/>
      <use xlink:href="#DejaVuSans-31" x="1068.554688"/>
      <use xlink:href="#DejaVuSans-36" x="1132.177734"/>
      <use xlink:href="#DejaVuSans-6b" x="1195.800781"/>
     </g>
    </g>
    <g id="line2d_25">
     <path d="M 229.163125 357.496012 
L 239.163125 357.496012 
L 249.163125 357.496012 
" style="fill: none; stroke: #e377c2; stroke-width: 1.5; stroke-linecap: square"/>
     <g>
      <use xlink:href="#m383b528ae9" x="239.163125" y="357.496012" style="fill: #e377c2; stroke: #e377c2"/>
     </g>
    </g>
    <g id="text_21">
     <!-- tentacle-3way-replica -->
     <g transform="translate(257.163125 360.996012) scale(0.1 -0.1)">
      <defs>
       <path id="DejaVuSans-77" d="M 269 3500 
L 844 3500 
L 1563 769 
L 2278 3500 
L 2956 3500 
L 3675 769 
L 4391 3500 
L 4966 3500 
L 4050 0 
L 3372 0 
L 2619 2869 
L 1863 0 
L 1184 0 
L 269 3500 
z
" transform="scale(0.015625)"/>
      </defs>
      <use xlink:href="#DejaVuSans-74"/>
      <use xlink:href="#DejaVuSans-65" x="39.208984"/>
      <use xlink:href="#DejaVuSans-6e" x="100.732422"/>
      <use xlink:href="#DejaVuSans-74" x="164.111328"/>
      <use xlink:href="#DejaVuSans-61" x="203.320312"/>
      <use xlink:href="#DejaVuSans-63" x="264.599609"/>
      <use xlink:href="#DejaVuSans-6c" x="319.580078"/>
      <use xlink:href="#DejaVuSans-65" x="347.363281"/>
      <use xlink:href="#DejaVuSans-2d" x="408.886719"/>
      <use xlink:href="#DejaVuSans-33" x="444.970703"/>
      <use xlink:href="#DejaVuSans-77" x="508.59375"/>
      <use xlink:href="#DejaVuSans-61" x="590.380859"/>
      <use xlink:href="#DejaVuSans-79" x="651.660156"/>
      <use xlink:href="#DejaVuSans-2d" x="709.089844"/>
      <use xlink:href="#DejaVuSans-72" x="745.173828"/>
      <use xlink:href="#DejaVuSans-65" x="784.037109"/>
      <use xlink:href="#DejaVuSans-70" x="845.560547"/>
      <use xlink:href="#DejaVuSans-6c" x="909.037109"/>
      <use xlink:href="#DejaVuSans-69" x="936.820312"/>
      <use xlink:href="#DejaVuSans-63" x="964.603516"/>
      <use xlink:href="#DejaVuSans-61" x="1019.583984"/>
     </g>
    </g>
   </g>
  </g>
 </g>
 <defs>
  <clipPath id="pe690c66dee">
   <rect x="40.603125" y="22.318125" width="357.12" height="266.112"/>
  </clipPath>
 </defs>
</svg>
