<?xml version="1.0" encoding="utf-8" standalone="no"?>
<!DOCTYPE svg PUBLIC "-//W3C//DTD SVG 1.1//EN"
  "http://www.w3.org/Graphics/SVG/1.1/DTD/svg11.dtd">
<svg xmlns:xlink="http://www.w3.org/1999/xlink" width="406.947763pt" height="388.953825pt" viewBox="0 0 406.947763 388.953825" xmlns="http://www.w3.org/2000/svg" version="1.1">
 <metadata>
  <rdf:RDF xmlns:dc="http://purl.org/dc/elements/1.1/" xmlns:cc="http://creativecommons.org/ns#" xmlns:rdf="http://www.w3.org/1999/02/22-rdf-syntax-ns#">
   <cc:Work>
    <dc:type rdf:resource="http://purl.org/dc/dcmitype/StillImage"/>
    <dc:date>2025-10-08T11:01:37.746844</dc:date>
    <dc:format>image/svg+xml</dc:format>
    <dc:creator>
     <cc:Agent>
      <dc:title>Matplotlib v3.9.4, https://matplotlib.org/</dc:title>
     </cc:Agent>
    </dc:creator>
   </cc:Work>
  </rdf:RDF>
 </metadata>
 <defs>
  <style type="text/css">*{stroke-linejoin: round; stroke-linecap: butt}</style>
 </defs>
 <g id="figure_1">
  <g id="patch_1">
   <path d="M 0 388.953825 
L 406.947763 388.953825 
L 406.947763 0 
L 0 0 
z
" style="fill: #ffffff"/>
  </g>
  <g id="axes_1">
   <g id="patch_2">
    <path d="M 40.603125 288.430125 
L 397.723125 288.430125 
L 397.723125 22.318125 
L 40.603125 22.318125 
z
" style="fill: #ffffff"/>
   </g>
   <g id="matplotlib.axis_1">
    <g id="xtick_1">
     <g id="line2d_1">
      <defs>
       <path id="mae92e71e27" d="M 0 0 
L 0 3.5 
" style="stroke: #000000; stroke-width: 0.8"/>
      </defs>
      <g>
       <use xlink:href="#mae92e71e27" x="40.603125" y="288.430125" style="stroke: #000000; stroke-width: 0.8"/>
      </g>
     </g>
     <g id="text_1">
      <!-- 0 -->
      <g transform="translate(37.421875 303.028562) scale(0.1 -0.1)">
       <defs>
        <path id="DejaVuSans-30" d="M 2034 4250 
Q 1547 4250 1301 3770 
Q 1056 3291 1056 2328 
Q 1056 1369 1301 889 
Q 1547 409 2034 409 
Q 2525 409 2770 889 
Q 3016 1369 3016 2328 
Q 3016 3291 2770 3770 
Q 2525 4250 2034 4250 
z
M 2034 4750 
Q 2819 4750 3233 4129 
Q 3647 3509 3647 2328 
Q 3647 1150 3233 529 
Q 2819 -91 2034 -91 
Q 1250 -91 836 529 
Q 422 1150 422 2328 
Q 422 3509 836 4129 
Q 1250 4750 2034 4750 
z
" transform="scale(0.015625)"/>
       </defs>
       <use xlink:href="#DejaVuSans-30"/>
      </g>
     </g>
    </g>
    <g id="xtick_2">
     <g id="line2d_2">
      <g>
       <use xlink:href="#mae92e71e27" x="108.614553" y="288.430125" style="stroke: #000000; stroke-width: 0.8"/>
      </g>
     </g>
     <g id="text_2">
      <!-- 100000 -->
      <g transform="translate(89.527053 303.028562) scale(0.1 -0.1)">
       <defs>
        <path id="DejaVuSans-31" d="M 794 531 
L 1825 531 
L 1825 4091 
L 703 3866 
L 703 4441 
L 1819 4666 
L 2450 4666 
L 2450 531 
L 3481 531 
L 3481 0 
L 794 0 
L 794 531 
z
" transform="scale(0.015625)"/>
       </defs>
       <use xlink:href="#DejaVuSans-31"/>
       <use xlink:href="#DejaVuSans-30" x="63.623047"/>
       <use xlink:href="#DejaVuSans-30" x="127.246094"/>
       <use xlink:href="#DejaVuSans-30" x="190.869141"/>
       <use xlink:href="#DejaVuSans-30" x="254.492188"/>
       <use xlink:href="#DejaVuSans-30" x="318.115234"/>
      </g>
     </g>
    </g>
    <g id="xtick_3">
     <g id="line2d_3">
      <g>
       <use xlink:href="#mae92e71e27" x="176.62598" y="288.430125" style="stroke: #000000; stroke-width: 0.8"/>
      </g>
     </g>
     <g id="text_3">
      <!-- 200000 -->
      <g transform="translate(157.53848 303.028562) scale(0.1 -0.1)">
       <defs>
        <path id="DejaVuSans-32" d="M 1228 531 
L 3431 531 
L 3431 0 
L 469 0 
L 469 531 
Q 828 903 1448 1529 
Q 2069 2156 2228 2338 
Q 2531 2678 2651 2914 
Q 2772 3150 2772 3378 
Q 2772 3750 2511 3984 
Q 2250 4219 1831 4219 
Q 1534 4219 1204 4116 
Q 875 4013 500 3803 
L 500 4441 
Q 881 4594 1212 4672 
Q 1544 4750 1819 4750 
Q 2544 4750 2975 4387 
Q 3406 4025 3406 3419 
Q 3406 3131 3298 2873 
Q 3191 2616 2906 2266 
Q 2828 2175 2409 1742 
Q 1991 1309 1228 531 
z
" transform="scale(0.015625)"/>
       </defs>
       <use xlink:href="#DejaVuSans-32"/>
       <use xlink:href="#DejaVuSans-30" x="63.623047"/>
       <use xlink:href="#DejaVuSans-30" x="127.246094"/>
       <use xlink:href="#DejaVuSans-30" x="190.869141"/>
       <use xlink:href="#DejaVuSans-30" x="254.492188"/>
       <use xlink:href="#DejaVuSans-30" x="318.115234"/>
      </g>
     </g>
    </g>
    <g id="xtick_4">
     <g id="line2d_4">
      <g>
       <use xlink:href="#mae92e71e27" x="244.637408" y="288.430125" style="stroke: #000000; stroke-width: 0.8"/>
      </g>
     </g>
     <g id="text_4">
      <!-- 300000 -->
      <g transform="translate(225.549908 303.028562) scale(0.1 -0.1)">
       <defs>
        <path id="DejaVuSans-33" d="M 2597 2516 
Q 3050 2419 3304 2112 
Q 3559 1806 3559 1356 
Q 3559 666 3084 287 
Q 2609 -91 1734 -91 
Q 1441 -91 1130 -33 
Q 819 25 488 141 
L 488 750 
Q 750 597 1062 519 
Q 1375 441 1716 441 
Q 2309 441 2620 675 
Q 2931 909 2931 1356 
Q 2931 1769 2642 2001 
Q 2353 2234 1838 2234 
L 1294 2234 
L 1294 2753 
L 1863 2753 
Q 2328 2753 2575 2939 
Q 2822 3125 2822 3475 
Q 2822 3834 2567 4026 
Q 2313 4219 1838 4219 
Q 1578 4219 1281 4162 
Q 984 4106 628 3988 
L 628 4550 
Q 988 4650 1302 4700 
Q 1616 4750 1894 4750 
Q 2613 4750 3031 4423 
Q 3450 4097 3450 3541 
Q 3450 3153 3228 2886 
Q 3006 2619 2597 2516 
z
" transform="scale(0.015625)"/>
       </defs>
       <use xlink:href="#DejaVuSans-33"/>
       <use xlink:href="#DejaVuSans-30" x="63.623047"/>
       <use xlink:href="#DejaVuSans-30" x="127.246094"/>
       <use xlink:href="#DejaVuSans-30" x="190.869141"/>
       <use xlink:href="#DejaVuSans-30" x="254.492188"/>
       <use xlink:href="#DejaVuSans-30" x="318.115234"/>
      </g>
     </g>
    </g>
    <g id="xtick_5">
     <g id="line2d_5">
      <g>
       <use xlink:href="#mae92e71e27" x="312.648835" y="288.430125" style="stroke: #000000; stroke-width: 0.8"/>
      </g>
     </g>
     <g id="text_5">
      <!-- 400000 -->
      <g transform="translate(293.561335 303.028562) scale(0.1 -0.1)">
       <defs>
        <path id="DejaVuSans-34" d="M 2419 4116 
L 825 1625 
L 2419 1625 
L 2419 4116 
z
M 2253 4666 
L 3047 4666 
L 3047 1625 
L 3713 1625 
L 3713 1100 
L 3047 1100 
L 3047 0 
L 2419 0 
L 2419 1100 
L 313 1100 
L 313 1709 
L 2253 4666 
z
" transform="scale(0.015625)"/>
       </defs>
       <use xlink:href="#DejaVuSans-34"/>
       <use xlink:href="#DejaVuSans-30" x="63.623047"/>
       <use xlink:href="#DejaVuSans-30" x="127.246094"/>
       <use xlink:href="#DejaVuSans-30" x="190.869141"/>
       <use xlink:href="#DejaVuSans-30" x="254.492188"/>
       <use xlink:href="#DejaVuSans-30" x="318.115234"/>
      </g>
     </g>
    </g>
    <g id="xtick_6">
     <g id="line2d_6">
      <g>
       <use xlink:href="#mae92e71e27" x="380.660263" y="288.430125" style="stroke: #000000; stroke-width: 0.8"/>
      </g>
     </g>
     <g id="text_6">
      <!-- 500000 -->
      <g transform="translate(361.572763 303.028562) scale(0.1 -0.1)">
       <defs>
        <path id="DejaVuSans-35" d="M 691 4666 
L 3169 4666 
L 3169 4134 
L 1269 4134 
L 1269 2991 
Q 1406 3038 1543 3061 
Q 1681 3084 1819 3084 
Q 2600 3084 3056 2656 
Q 3513 2228 3513 1497 
Q 3513 744 3044 326 
Q 2575 -91 1722 -91 
Q 1428 -91 1123 -41 
Q 819 9 494 109 
L 494 744 
Q 775 591 1075 516 
Q 1375 441 1709 441 
Q 2250 441 2565 725 
Q 2881 1009 2881 1497 
Q 2881 1984 2565 2268 
Q 2250 2553 1709 2553 
Q 1456 2553 1204 2497 
Q 953 2441 691 2322 
L 691 4666 
z
" transform="scale(0.015625)"/>
       </defs>
       <use xlink:href="#DejaVuSans-35"/>
       <use xlink:href="#DejaVuSans-30" x="63.623047"/>
       <use xlink:href="#DejaVuSans-30" x="127.246094"/>
       <use xlink:href="#DejaVuSans-30" x="190.869141"/>
       <use xlink:href="#DejaVuSans-30" x="254.492188"/>
       <use xlink:href="#DejaVuSans-30" x="318.115234"/>
      </g>
     </g>
    </g>
    <g id="text_7">
     <!-- IOps -->
     <g transform="translate(207.973281 316.706687) scale(0.1 -0.1)">
      <defs>
       <path id="DejaVuSans-49" d="M 628 4666 
L 1259 4666 
L 1259 0 
L 628 0 
L 628 4666 
z
" transform="scale(0.015625)"/>
       <path id="DejaVuSans-4f" d="M 2522 4238 
Q 1834 4238 1429 3725 
Q 1025 3213 1025 2328 
Q 1025 1447 1429 934 
Q 1834 422 2522 422 
Q 3209 422 3611 934 
Q 4013 1447 4013 2328 
Q 4013 3213 3611 3725 
Q 3209 4238 2522 4238 
z
M 2522 4750 
Q 3503 4750 4090 4092 
Q 4678 3434 4678 2328 
Q 4678 1225 4090 567 
Q 3503 -91 2522 -91 
Q 1538 -91 948 565 
Q 359 1222 359 2328 
Q 359 3434 948 4092 
Q 1538 4750 2522 4750 
z
" transform="scale(0.015625)"/>
       <path id="DejaVuSans-70" d="M 1159 525 
L 1159 -1331 
L 581 -1331 
L 581 3500 
L 1159 3500 
L 1159 2969 
Q 1341 3281 1617 3432 
Q 1894 3584 2278 3584 
Q 2916 3584 3314 3078 
Q 3713 2572 3713 1747 
Q 3713 922 3314 415 
Q 2916 -91 2278 -91 
Q 1894 -91 1617 61 
Q 1341 213 1159 525 
z
M 3116 1747 
Q 3116 2381 2855 2742 
Q 2594 3103 2138 3103 
Q 1681 3103 1420 2742 
Q 1159 2381 1159 1747 
Q 1159 1113 1420 752 
Q 1681 391 2138 391 
Q 2594 391 2855 752 
Q 3116 1113 3116 1747 
z
" transform="scale(0.015625)"/>
       <path id="DejaVuSans-73" d="M 2834 3397 
L 2834 2853 
Q 2591 2978 2328 3040 
Q 2066 3103 1784 3103 
Q 1356 3103 1142 2972 
Q 928 2841 928 2578 
Q 928 2378 1081 2264 
Q 1234 2150 1697 2047 
L 1894 2003 
Q 2506 1872 2764 1633 
Q 3022 1394 3022 966 
Q 3022 478 2636 193 
Q 2250 -91 1575 -91 
Q 1294 -91 989 -36 
Q 684 19 347 128 
L 347 722 
Q 666 556 975 473 
Q 1284 391 1588 391 
Q 1994 391 2212 530 
Q 2431 669 2431 922 
Q 2431 1156 2273 1281 
Q 2116 1406 1581 1522 
L 1381 1569 
Q 847 1681 609 1914 
Q 372 2147 372 2553 
Q 372 3047 722 3315 
Q 1072 3584 1716 3584 
Q 2034 3584 2315 3537 
Q 2597 3491 2834 3397 
z
" transform="scale(0.015625)"/>
      </defs>
      <use xlink:href="#DejaVuSans-49"/>
      <use xlink:href="#DejaVuSans-4f" x="29.492188"/>
      <use xlink:href="#DejaVuSans-70" x="108.203125"/>
      <use xlink:href="#DejaVuSans-73" x="171.679688"/>
     </g>
    </g>
   </g>
   <g id="matplotlib.axis_2">
    <g id="ytick_1">
     <g id="line2d_7">
      <defs>
       <path id="m4961e9cc29" d="M 0 0 
L -3.5 0 
" style="stroke: #000000; stroke-width: 0.8"/>
      </defs>
      <g>
       <use xlink:href="#m4961e9cc29" x="40.603125" y="288.430125" style="stroke: #000000; stroke-width: 0.8"/>
      </g>
     </g>
     <g id="text_8">
      <!-- 0 -->
      <g transform="translate(27.240625 292.229344) scale(0.1 -0.1)">
       <use xlink:href="#DejaVuSans-30"/>
      </g>
     </g>
    </g>
    <g id="ytick_2">
     <g id="line2d_8">
      <g>
       <use xlink:href="#m4961e9cc29" x="40.603125" y="243.383768" style="stroke: #000000; stroke-width: 0.8"/>
      </g>
     </g>
     <g id="text_9">
      <!-- 2 -->
      <g transform="translate(27.240625 247.182986) scale(0.1 -0.1)">
       <use xlink:href="#DejaVuSans-32"/>
      </g>
     </g>
    </g>
    <g id="ytick_3">
     <g id="line2d_9">
      <g>
       <use xlink:href="#m4961e9cc29" x="40.603125" y="198.33741" style="stroke: #000000; stroke-width: 0.8"/>
      </g>
     </g>
     <g id="text_10">
      <!-- 4 -->
      <g transform="translate(27.240625 202.136629) scale(0.1 -0.1)">
       <use xlink:href="#DejaVuSans-34"/>
      </g>
     </g>
    </g>
    <g id="ytick_4">
     <g id="line2d_10">
      <g>
       <use xlink:href="#m4961e9cc29" x="40.603125" y="153.291053" style="stroke: #000000; stroke-width: 0.8"/>
      </g>
     </g>
     <g id="text_11">
      <!-- 6 -->
      <g transform="translate(27.240625 157.090272) scale(0.1 -0.1)">
       <defs>
        <path id="DejaVuSans-36" d="M 2113 2584 
Q 1688 2584 1439 2293 
Q 1191 2003 1191 1497 
Q 1191 994 1439 701 
Q 1688 409 2113 409 
Q 2538 409 2786 701 
Q 3034 994 3034 1497 
Q 3034 2003 2786 2293 
Q 2538 2584 2113 2584 
z
M 3366 4563 
L 3366 3988 
Q 3128 4100 2886 4159 
Q 2644 4219 2406 4219 
Q 1781 4219 1451 3797 
Q 1122 3375 1075 2522 
Q 1259 2794 1537 2939 
Q 1816 3084 2150 3084 
Q 2853 3084 3261 2657 
Q 3669 2231 3669 1497 
Q 3669 778 3244 343 
Q 2819 -91 2113 -91 
Q 1303 -91 875 529 
Q 447 1150 447 2328 
Q 447 3434 972 4092 
Q 1497 4750 2381 4750 
Q 2619 4750 2861 4703 
Q 3103 4656 3366 4563 
z
" transform="scale(0.015625)"/>
       </defs>
       <use xlink:href="#DejaVuSans-36"/>
      </g>
     </g>
    </g>
    <g id="ytick_5">
     <g id="line2d_11">
      <g>
       <use xlink:href="#m4961e9cc29" x="40.603125" y="108.244696" style="stroke: #000000; stroke-width: 0.8"/>
      </g>
     </g>
     <g id="text_12">
      <!-- 8 -->
      <g transform="translate(27.240625 112.043914) scale(0.1 -0.1)">
       <defs>
        <path id="DejaVuSans-38" d="M 2034 2216 
Q 1584 2216 1326 1975 
Q 1069 1734 1069 1313 
Q 1069 891 1326 650 
Q 1584 409 2034 409 
Q 2484 409 2743 651 
Q 3003 894 3003 1313 
Q 3003 1734 2745 1975 
Q 2488 2216 2034 2216 
z
M 1403 2484 
Q 997 2584 770 2862 
Q 544 3141 544 3541 
Q 544 4100 942 4425 
Q 1341 4750 2034 4750 
Q 2731 4750 3128 4425 
Q 3525 4100 3525 3541 
Q 3525 3141 3298 2862 
Q 3072 2584 2669 2484 
Q 3125 2378 3379 2068 
Q 3634 1759 3634 1313 
Q 3634 634 3220 271 
Q 2806 -91 2034 -91 
Q 1263 -91 848 271 
Q 434 634 434 1313 
Q 434 1759 690 2068 
Q 947 2378 1403 2484 
z
M 1172 3481 
Q 1172 3119 1398 2916 
Q 1625 2713 2034 2713 
Q 2441 2713 2670 2916 
Q 2900 3119 2900 3481 
Q 2900 3844 2670 4047 
Q 2441 4250 2034 4250 
Q 1625 4250 1398 4047 
Q 1172 3844 1172 3481 
z
" transform="scale(0.015625)"/>
       </defs>
       <use xlink:href="#DejaVuSans-38"/>
      </g>
     </g>
    </g>
    <g id="ytick_6">
     <g id="line2d_12">
      <g>
       <use xlink:href="#m4961e9cc29" x="40.603125" y="63.198338" style="stroke: #000000; stroke-width: 0.8"/>
      </g>
     </g>
     <g id="text_13">
      <!-- 10 -->
      <g transform="translate(20.878125 66.997557) scale(0.1 -0.1)">
       <use xlink:href="#DejaVuSans-31"/>
       <use xlink:href="#DejaVuSans-30" x="63.623047"/>
      </g>
     </g>
    </g>
    <g id="text_14">
     <!-- Latency (ms) -->
     <g transform="translate(14.798438 188.103812) rotate(-90) scale(0.1 -0.1)">
      <defs>
       <path id="DejaVuSans-4c" d="M 628 4666 
L 1259 4666 
L 1259 531 
L 3531 531 
L 3531 0 
L 628 0 
L 628 4666 
z
" transform="scale(0.015625)"/>
       <path id="DejaVuSans-61" d="M 2194 1759 
Q 1497 1759 1228 1600 
Q 959 1441 959 1056 
Q 959 750 1161 570 
Q 1363 391 1709 391 
Q 2188 391 2477 730 
Q 2766 1069 2766 1631 
L 2766 1759 
L 2194 1759 
z
M 3341 1997 
L 3341 0 
L 2766 0 
L 2766 531 
Q 2569 213 2275 61 
Q 1981 -91 1556 -91 
Q 1019 -91 701 211 
Q 384 513 384 1019 
Q 384 1609 779 1909 
Q 1175 2209 1959 2209 
L 2766 2209 
L 2766 2266 
Q 2766 2663 2505 2880 
Q 2244 3097 1772 3097 
Q 1472 3097 1187 3025 
Q 903 2953 641 2809 
L 641 3341 
Q 956 3463 1253 3523 
Q 1550 3584 1831 3584 
Q 2591 3584 2966 3190 
Q 3341 2797 3341 1997 
z
" transform="scale(0.015625)"/>
       <path id="DejaVuSans-74" d="M 1172 4494 
L 1172 3500 
L 2356 3500 
L 2356 3053 
L 1172 3053 
L 1172 1153 
Q 1172 725 1289 603 
Q 1406 481 1766 481 
L 2356 481 
L 2356 0 
L 1766 0 
Q 1100 0 847 248 
Q 594 497 594 1153 
L 594 3053 
L 172 3053 
L 172 3500 
L 594 3500 
L 594 4494 
L 1172 4494 
z
" transform="scale(0.015625)"/>
       <path id="DejaVuSans-65" d="M 3597 1894 
L 3597 1613 
L 953 1613 
Q 991 1019 1311 708 
Q 1631 397 2203 397 
Q 2534 397 2845 478 
Q 3156 559 3463 722 
L 3463 178 
Q 3153 47 2828 -22 
Q 2503 -91 2169 -91 
Q 1331 -91 842 396 
Q 353 884 353 1716 
Q 353 2575 817 3079 
Q 1281 3584 2069 3584 
Q 2775 3584 3186 3129 
Q 3597 2675 3597 1894 
z
M 3022 2063 
Q 3016 2534 2758 2815 
Q 2500 3097 2075 3097 
Q 1594 3097 1305 2825 
Q 1016 2553 972 2059 
L 3022 2063 
z
" transform="scale(0.015625)"/>
       <path id="DejaVuSans-6e" d="M 3513 2113 
L 3513 0 
L 2938 0 
L 2938 2094 
Q 2938 2591 2744 2837 
Q 2550 3084 2163 3084 
Q 1697 3084 1428 2787 
Q 1159 2491 1159 1978 
L 1159 0 
L 581 0 
L 581 3500 
L 1159 3500 
L 1159 2956 
Q 1366 3272 1645 3428 
Q 1925 3584 2291 3584 
Q 2894 3584 3203 3211 
Q 3513 2838 3513 2113 
z
" transform="scale(0.015625)"/>
       <path id="DejaVuSans-63" d="M 3122 3366 
L 3122 2828 
Q 2878 2963 2633 3030 
Q 2388 3097 2138 3097 
Q 1578 3097 1268 2742 
Q 959 2388 959 1747 
Q 959 1106 1268 751 
Q 1578 397 2138 397 
Q 2388 397 2633 464 
Q 2878 531 3122 666 
L 3122 134 
Q 2881 22 2623 -34 
Q 2366 -91 2075 -91 
Q 1284 -91 818 406 
Q 353 903 353 1747 
Q 353 2603 823 3093 
Q 1294 3584 2113 3584 
Q 2378 3584 2631 3529 
Q 2884 3475 3122 3366 
z
" transform="scale(0.015625)"/>
       <path id="DejaVuSans-79" d="M 2059 -325 
Q 1816 -950 1584 -1140 
Q 1353 -1331 966 -1331 
L 506 -1331 
L 506 -850 
L 844 -850 
Q 1081 -850 1212 -737 
Q 1344 -625 1503 -206 
L 1606 56 
L 191 3500 
L 800 3500 
L 1894 763 
L 2988 3500 
L 3597 3500 
L 2059 -325 
z
" transform="scale(0.015625)"/>
       <path id="DejaVuSans-20" transform="scale(0.015625)"/>
       <path id="DejaVuSans-28" d="M 1984 4856 
Q 1566 4138 1362 3434 
Q 1159 2731 1159 2009 
Q 1159 1288 1364 580 
Q 1569 -128 1984 -844 
L 1484 -844 
Q 1016 -109 783 600 
Q 550 1309 550 2009 
Q 550 2706 781 3412 
Q 1013 4119 1484 4856 
L 1984 4856 
z
" transform="scale(0.015625)"/>
       <path id="DejaVuSans-6d" d="M 3328 2828 
Q 3544 3216 3844 3400 
Q 4144 3584 4550 3584 
Q 5097 3584 5394 3201 
Q 5691 2819 5691 2113 
L 5691 0 
L 5113 0 
L 5113 2094 
Q 5113 2597 4934 2840 
Q 4756 3084 4391 3084 
Q 3944 3084 3684 2787 
Q 3425 2491 3425 1978 
L 3425 0 
L 2847 0 
L 2847 2094 
Q 2847 2600 2669 2842 
Q 2491 3084 2119 3084 
Q 1678 3084 1418 2786 
Q 1159 2488 1159 1978 
L 1159 0 
L 581 0 
L 581 3500 
L 1159 3500 
L 1159 2956 
Q 1356 3278 1631 3431 
Q 1906 3584 2284 3584 
Q 2666 3584 2933 3390 
Q 3200 3197 3328 2828 
z
" transform="scale(0.015625)"/>
       <path id="DejaVuSans-29" d="M 513 4856 
L 1013 4856 
Q 1481 4119 1714 3412 
Q 1947 2706 1947 2009 
Q 1947 1309 1714 600 
Q 1481 -109 1013 -844 
L 513 -844 
Q 928 -128 1133 580 
Q 1338 1288 1338 2009 
Q 1338 2731 1133 3434 
Q 928 4138 513 4856 
z
" transform="scale(0.015625)"/>
      </defs>
      <use xlink:href="#DejaVuSans-4c"/>
      <use xlink:href="#DejaVuSans-61" x="55.712891"/>
      <use xlink:href="#DejaVuSans-74" x="116.992188"/>
      <use xlink:href="#DejaVuSans-65" x="156.201172"/>
      <use xlink:href="#DejaVuSans-6e" x="217.724609"/>
      <use xlink:href="#DejaVuSans-63" x="281.103516"/>
      <use xlink:href="#DejaVuSans-79" x="336.083984"/>
      <use xlink:href="#DejaVuSans-20" x="395.263672"/>
      <use xlink:href="#DejaVuSans-28" x="427.050781"/>
      <use xlink:href="#DejaVuSans-6d" x="466.064453"/>
      <use xlink:href="#DejaVuSans-73" x="563.476562"/>
      <use xlink:href="#DejaVuSans-29" x="615.576172"/>
     </g>
    </g>
   </g>
   <g id="line2d_13">
    <path d="M 41.13019 230.584643 
L 42.73072 231.05925 
L 44.170691 220.000758 
L 44.953235 204.171996 
L 45.708697 192.66824 
L 48.36599 193.927522 
L 49.970786 183.96243 
L 58.177926 177.008725 
L 72.830964 166.878279 
L 85.397043 157.236799 
L 96.486591 148.208525 
L 118.524531 137.579137 
L 138.472328 128.286204 
L 158.233651 121.871343 
L 176.539842 115.47718 
" clip-path="url(#pc59f4d177f)" style="fill: none; stroke: #1f77b4; stroke-width: 1.5; stroke-linecap: square"/>
    <defs>
     <path id="m0dba808ca3" d="M -3 0 
L 3 0 
M 0 3 
L 0 -3 
" style="stroke: #1f77b4"/>
    </defs>
    <g clip-path="url(#pc59f4d177f)">
     <use xlink:href="#m0dba808ca3" x="41.13019" y="230.584643" style="fill: #1f77b4; stroke: #1f77b4"/>
     <use xlink:href="#m0dba808ca3" x="42.73072" y="231.05925" style="fill: #1f77b4; stroke: #1f77b4"/>
     <use xlink:href="#m0dba808ca3" x="44.170691" y="220.000758" style="fill: #1f77b4; stroke: #1f77b4"/>
     <use xlink:href="#m0dba808ca3" x="44.953235" y="204.171996" style="fill: #1f77b4; stroke: #1f77b4"/>
     <use xlink:href="#m0dba808ca3" x="45.708697" y="192.66824" style="fill: #1f77b4; stroke: #1f77b4"/>
     <use xlink:href="#m0dba808ca3" x="48.36599" y="193.927522" style="fill: #1f77b4; stroke: #1f77b4"/>
     <use xlink:href="#m0dba808ca3" x="49.970786" y="183.96243" style="fill: #1f77b4; stroke: #1f77b4"/>
     <use xlink:href="#m0dba808ca3" x="58.177926" y="177.008725" style="fill: #1f77b4; stroke: #1f77b4"/>
     <use xlink:href="#m0dba808ca3" x="72.830964" y="166.878279" style="fill: #1f77b4; stroke: #1f77b4"/>
     <use xlink:href="#m0dba808ca3" x="85.397043" y="157.236799" style="fill: #1f77b4; stroke: #1f77b4"/>
     <use xlink:href="#m0dba808ca3" x="96.486591" y="148.208525" style="fill: #1f77b4; stroke: #1f77b4"/>
     <use xlink:href="#m0dba808ca3" x="118.524531" y="137.579137" style="fill: #1f77b4; stroke: #1f77b4"/>
     <use xlink:href="#m0dba808ca3" x="138.472328" y="128.286204" style="fill: #1f77b4; stroke: #1f77b4"/>
     <use xlink:href="#m0dba808ca3" x="158.233651" y="121.871343" style="fill: #1f77b4; stroke: #1f77b4"/>
     <use xlink:href="#m0dba808ca3" x="176.539842" y="115.47718" style="fill: #1f77b4; stroke: #1f77b4"/>
    </g>
   </g>
   <g id="line2d_14">
    <path d="M 40.930485 195.147885 
L 41.894282 193.787043 
L 42.961507 184.815597 
L 43.568229 164.728571 
L 44.170942 151.316636 
L 45.64813 142.923272 
L 47.159029 139.094269 
L 52.692834 126.406699 
L 62.9874 113.377876 
L 72.151377 102.107012 
L 81.009105 94.451672 
L 97.805857 82.900681 
L 113.366015 72.98869 
L 128.621019 65.795525 
L 143.584017 60.088763 
" clip-path="url(#pc59f4d177f)" style="fill: none; stroke: #ff7f0e; stroke-width: 1.5; stroke-linecap: square"/>
    <defs>
     <path id="mca86f8d427" d="M -3 0 
L 3 0 
M 0 3 
L 0 -3 
" style="stroke: #ff7f0e"/>
    </defs>
    <g clip-path="url(#pc59f4d177f)">
     <use xlink:href="#mca86f8d427" x="40.930485" y="195.147885" style="fill: #ff7f0e; stroke: #ff7f0e"/>
     <use xlink:href="#mca86f8d427" x="41.894282" y="193.787043" style="fill: #ff7f0e; stroke: #ff7f0e"/>
     <use xlink:href="#mca86f8d427" x="42.961507" y="184.815597" style="fill: #ff7f0e; stroke: #ff7f0e"/>
     <use xlink:href="#mca86f8d427" x="43.568229" y="164.728571" style="fill: #ff7f0e; stroke: #ff7f0e"/>
     <use xlink:href="#mca86f8d427" x="44.170942" y="151.316636" style="fill: #ff7f0e; stroke: #ff7f0e"/>
     <use xlink:href="#mca86f8d427" x="45.64813" y="142.923272" style="fill: #ff7f0e; stroke: #ff7f0e"/>
     <use xlink:href="#mca86f8d427" x="47.159029" y="139.094269" style="fill: #ff7f0e; stroke: #ff7f0e"/>
     <use xlink:href="#mca86f8d427" x="52.692834" y="126.406699" style="fill: #ff7f0e; stroke: #ff7f0e"/>
     <use xlink:href="#mca86f8d427" x="62.9874" y="113.377876" style="fill: #ff7f0e; stroke: #ff7f0e"/>
     <use xlink:href="#mca86f8d427" x="72.151377" y="102.107012" style="fill: #ff7f0e; stroke: #ff7f0e"/>
     <use xlink:href="#mca86f8d427" x="81.009105" y="94.451672" style="fill: #ff7f0e; stroke: #ff7f0e"/>
     <use xlink:href="#mca86f8d427" x="97.805857" y="82.900681" style="fill: #ff7f0e; stroke: #ff7f0e"/>
     <use xlink:href="#mca86f8d427" x="113.366015" y="72.98869" style="fill: #ff7f0e; stroke: #ff7f0e"/>
     <use xlink:href="#mca86f8d427" x="128.621019" y="65.795525" style="fill: #ff7f0e; stroke: #ff7f0e"/>
     <use xlink:href="#mca86f8d427" x="143.584017" y="60.088763" style="fill: #ff7f0e; stroke: #ff7f0e"/>
    </g>
   </g>
   <g id="line2d_15">
    <path d="M 40.899951 185.524807 
L 41.759015 182.698483 
L 42.575579 164.493652 
L 43.134824 143.516922 
L 43.665528 128.660333 
L 44.550075 102.392327 
L 46.175375 112.707223 
L 51.07059 101.277767 
L 59.782982 84.111813 
L 68.394792 76.910947 
L 76.726074 71.446729 
L 91.868014 59.081874 
L 106.429881 50.273242 
L 120.552212 43.323806 
L 133.256188 34.623903 
" clip-path="url(#pc59f4d177f)" style="fill: none; stroke: #2ca02c; stroke-width: 1.5; stroke-linecap: square"/>
    <defs>
     <path id="m52c6a5924c" d="M -3 0 
L 3 0 
M 0 3 
L 0 -3 
" style="stroke: #2ca02c"/>
    </defs>
    <g clip-path="url(#pc59f4d177f)">
     <use xlink:href="#m52c6a5924c" x="40.899951" y="185.524807" style="fill: #2ca02c; stroke: #2ca02c"/>
     <use xlink:href="#m52c6a5924c" x="41.759015" y="182.698483" style="fill: #2ca02c; stroke: #2ca02c"/>
     <use xlink:href="#m52c6a5924c" x="42.575579" y="164.493652" style="fill: #2ca02c; stroke: #2ca02c"/>
     <use xlink:href="#m52c6a5924c" x="43.134824" y="143.516922" style="fill: #2ca02c; stroke: #2ca02c"/>
     <use xlink:href="#m52c6a5924c" x="43.665528" y="128.660333" style="fill: #2ca02c; stroke: #2ca02c"/>
     <use xlink:href="#m52c6a5924c" x="44.550075" y="102.392327" style="fill: #2ca02c; stroke: #2ca02c"/>
     <use xlink:href="#m52c6a5924c" x="46.175375" y="112.707223" style="fill: #2ca02c; stroke: #2ca02c"/>
     <use xlink:href="#m52c6a5924c" x="51.07059" y="101.277767" style="fill: #2ca02c; stroke: #2ca02c"/>
     <use xlink:href="#m52c6a5924c" x="59.782982" y="84.111813" style="fill: #2ca02c; stroke: #2ca02c"/>
     <use xlink:href="#m52c6a5924c" x="68.394792" y="76.910947" style="fill: #2ca02c; stroke: #2ca02c"/>
     <use xlink:href="#m52c6a5924c" x="76.726074" y="71.446729" style="fill: #2ca02c; stroke: #2ca02c"/>
     <use xlink:href="#m52c6a5924c" x="91.868014" y="59.081874" style="fill: #2ca02c; stroke: #2ca02c"/>
     <use xlink:href="#m52c6a5924c" x="106.429881" y="50.273242" style="fill: #2ca02c; stroke: #2ca02c"/>
     <use xlink:href="#m52c6a5924c" x="120.552212" y="43.323806" style="fill: #2ca02c; stroke: #2ca02c"/>
     <use xlink:href="#m52c6a5924c" x="133.256188" y="34.623903" style="fill: #2ca02c; stroke: #2ca02c"/>
    </g>
   </g>
   <g id="line2d_16">
    <path d="M 42.696327 273.916682 
L 46.649145 268.369937 
L 49.974635 262.565729 
L 51.473698 254.885176 
L 52.821272 248.579695 
L 57.309229 244.63813 
L 61.372384 241.420136 
L 78.026736 236.185057 
L 107.398224 229.849449 
L 132.232222 224.36039 
L 151.309693 217.714217 
L 184.955982 207.065035 
L 210.454192 196.216033 
L 231.40396 185.805943 
L 250.559836 176.506873 
" clip-path="url(#pc59f4d177f)" style="fill: none; stroke: #d62728; stroke-width: 1.5; stroke-linecap: square"/>
    <defs>
     <path id="mb43208673d" d="M -3 0 
L 3 0 
M 0 3 
L 0 -3 
" style="stroke: #d62728"/>
    </defs>
    <g clip-path="url(#pc59f4d177f)">
     <use xlink:href="#mb43208673d" x="42.696327" y="273.916682" style="fill: #d62728; stroke: #d62728"/>
     <use xlink:href="#mb43208673d" x="46.649145" y="268.369937" style="fill: #d62728; stroke: #d62728"/>
     <use xlink:href="#mb43208673d" x="49.974635" y="262.565729" style="fill: #d62728; stroke: #d62728"/>
     <use xlink:href="#mb43208673d" x="51.473698" y="254.885176" style="fill: #d62728; stroke: #d62728"/>
     <use xlink:href="#mb43208673d" x="52.821272" y="248.579695" style="fill: #d62728; stroke: #d62728"/>
     <use xlink:href="#mb43208673d" x="57.309229" y="244.63813" style="fill: #d62728; stroke: #d62728"/>
     <use xlink:href="#mb43208673d" x="61.372384" y="241.420136" style="fill: #d62728; stroke: #d62728"/>
     <use xlink:href="#mb43208673d" x="78.026736" y="236.185057" style="fill: #d62728; stroke: #d62728"/>
     <use xlink:href="#mb43208673d" x="107.398224" y="229.849449" style="fill: #d62728; stroke: #d62728"/>
     <use xlink:href="#mb43208673d" x="132.232222" y="224.36039" style="fill: #d62728; stroke: #d62728"/>
     <use xlink:href="#mb43208673d" x="151.309693" y="217.714217" style="fill: #d62728; stroke: #d62728"/>
     <use xlink:href="#mb43208673d" x="184.955982" y="207.065035" style="fill: #d62728; stroke: #d62728"/>
     <use xlink:href="#mb43208673d" x="210.454192" y="196.216033" style="fill: #d62728; stroke: #d62728"/>
     <use xlink:href="#mb43208673d" x="231.40396" y="185.805943" style="fill: #d62728; stroke: #d62728"/>
     <use xlink:href="#mb43208673d" x="250.559836" y="176.506873" style="fill: #d62728; stroke: #d62728"/>
    </g>
   </g>
   <g id="line2d_17">
    <path d="M 42.4766 272.191801 
L 46.556597 268.07158 
L 49.847468 262.21455 
L 51.39595 254.645321 
L 52.662277 248.062481 
L 56.969457 243.738134 
L 61.031524 240.643232 
L 74.623325 230.95305 
L 97.816773 220.026188 
L 116.388719 210.948986 
L 137.552963 207.666417 
L 167.889851 196.141512 
L 192.247861 185.132141 
L 213.515108 175.17727 
L 231.160323 165.099781 
" clip-path="url(#pc59f4d177f)" style="fill: none; stroke: #9467bd; stroke-width: 1.5; stroke-linecap: square"/>
    <defs>
     <path id="md7b783cb6f" d="M -3 0 
L 3 0 
M 0 3 
L 0 -3 
" style="stroke: #9467bd"/>
    </defs>
    <g clip-path="url(#pc59f4d177f)">
     <use xlink:href="#md7b783cb6f" x="42.4766" y="272.191801" style="fill: #9467bd; stroke: #9467bd"/>
     <use xlink:href="#md7b783cb6f" x="46.556597" y="268.07158" style="fill: #9467bd; stroke: #9467bd"/>
     <use xlink:href="#md7b783cb6f" x="49.847468" y="262.21455" style="fill: #9467bd; stroke: #9467bd"/>
     <use xlink:href="#md7b783cb6f" x="51.39595" y="254.645321" style="fill: #9467bd; stroke: #9467bd"/>
     <use xlink:href="#md7b783cb6f" x="52.662277" y="248.062481" style="fill: #9467bd; stroke: #9467bd"/>
     <use xlink:href="#md7b783cb6f" x="56.969457" y="243.738134" style="fill: #9467bd; stroke: #9467bd"/>
     <use xlink:href="#md7b783cb6f" x="61.031524" y="240.643232" style="fill: #9467bd; stroke: #9467bd"/>
     <use xlink:href="#md7b783cb6f" x="74.623325" y="230.95305" style="fill: #9467bd; stroke: #9467bd"/>
     <use xlink:href="#md7b783cb6f" x="97.816773" y="220.026188" style="fill: #9467bd; stroke: #9467bd"/>
     <use xlink:href="#md7b783cb6f" x="116.388719" y="210.948986" style="fill: #9467bd; stroke: #9467bd"/>
     <use xlink:href="#md7b783cb6f" x="137.552963" y="207.666417" style="fill: #9467bd; stroke: #9467bd"/>
     <use xlink:href="#md7b783cb6f" x="167.889851" y="196.141512" style="fill: #9467bd; stroke: #9467bd"/>
     <use xlink:href="#md7b783cb6f" x="192.247861" y="185.132141" style="fill: #9467bd; stroke: #9467bd"/>
     <use xlink:href="#md7b783cb6f" x="213.515108" y="175.17727" style="fill: #9467bd; stroke: #9467bd"/>
     <use xlink:href="#md7b783cb6f" x="231.160323" y="165.099781" style="fill: #9467bd; stroke: #9467bd"/>
    </g>
   </g>
   <g id="line2d_18">
    <path d="M 42.269802 270.185225 
L 45.558709 263.929542 
L 48.442119 257.462324 
L 48.634182 242.939058 
L 51.598077 244.130678 
L 54.201708 234.600966 
L 58.697805 234.454369 
L 71.343138 224.806967 
L 92.548423 213.081322 
L 109.524851 203.223135 
L 123.033188 193.425655 
L 152.781354 183.695607 
L 173.384332 170.442568 
L 192.904421 159.837412 
L 212.454186 151.663366 
" clip-path="url(#pc59f4d177f)" style="fill: none; stroke: #8c564b; stroke-width: 1.5; stroke-linecap: square"/>
    <defs>
     <path id="m47e6d9c23e" d="M -3 0 
L 3 0 
M 0 3 
L 0 -3 
" style="stroke: #8c564b"/>
    </defs>
    <g clip-path="url(#pc59f4d177f)">
     <use xlink:href="#m47e6d9c23e" x="42.269802" y="270.185225" style="fill: #8c564b; stroke: #8c564b"/>
     <use xlink:href="#m47e6d9c23e" x="45.558709" y="263.929542" style="fill: #8c564b; stroke: #8c564b"/>
     <use xlink:href="#m47e6d9c23e" x="48.442119" y="257.462324" style="fill: #8c564b; stroke: #8c564b"/>
     <use xlink:href="#m47e6d9c23e" x="48.634182" y="242.939058" style="fill: #8c564b; stroke: #8c564b"/>
     <use xlink:href="#m47e6d9c23e" x="51.598077" y="244.130678" style="fill: #8c564b; stroke: #8c564b"/>
     <use xlink:href="#m47e6d9c23e" x="54.201708" y="234.600966" style="fill: #8c564b; stroke: #8c564b"/>
     <use xlink:href="#m47e6d9c23e" x="58.697805" y="234.454369" style="fill: #8c564b; stroke: #8c564b"/>
     <use xlink:href="#m47e6d9c23e" x="71.343138" y="224.806967" style="fill: #8c564b; stroke: #8c564b"/>
     <use xlink:href="#m47e6d9c23e" x="92.548423" y="213.081322" style="fill: #8c564b; stroke: #8c564b"/>
     <use xlink:href="#m47e6d9c23e" x="109.524851" y="203.223135" style="fill: #8c564b; stroke: #8c564b"/>
     <use xlink:href="#m47e6d9c23e" x="123.033188" y="193.425655" style="fill: #8c564b; stroke: #8c564b"/>
     <use xlink:href="#m47e6d9c23e" x="152.781354" y="183.695607" style="fill: #8c564b; stroke: #8c564b"/>
     <use xlink:href="#m47e6d9c23e" x="173.384332" y="170.442568" style="fill: #8c564b; stroke: #8c564b"/>
     <use xlink:href="#m47e6d9c23e" x="192.904421" y="159.837412" style="fill: #8c564b; stroke: #8c564b"/>
     <use xlink:href="#m47e6d9c23e" x="212.454186" y="151.663366" style="fill: #8c564b; stroke: #8c564b"/>
    </g>
   </g>
   <g id="line2d_19">
    <path d="M 44.533998 280.739461 
L 53.696048 279.201312 
L 60.572449 276.361217 
L 63.840588 272.813379 
L 66.572055 269.762564 
L 77.209451 268.519128 
L 87.138358 267.517155 
L 121.386364 264.28311 
L 169.930463 258.223912 
L 205.319824 252.835688 
L 238.282715 248.872139 
L 289.72787 241.328424 
L 323.483111 233.105677 
L 358.409829 226.863244 
L 380.731545 219.387829 
" clip-path="url(#pc59f4d177f)" style="fill: none; stroke: #e377c2; stroke-width: 1.5; stroke-linecap: square"/>
    <defs>
     <path id="m0de4dbc076" d="M -3 0 
L 3 0 
M 0 3 
L 0 -3 
" style="stroke: #e377c2"/>
    </defs>
    <g clip-path="url(#pc59f4d177f)">
     <use xlink:href="#m0de4dbc076" x="44.533998" y="280.739461" style="fill: #e377c2; stroke: #e377c2"/>
     <use xlink:href="#m0de4dbc076" x="53.696048" y="279.201312" style="fill: #e377c2; stroke: #e377c2"/>
     <use xlink:href="#m0de4dbc076" x="60.572449" y="276.361217" style="fill: #e377c2; stroke: #e377c2"/>
     <use xlink:href="#m0de4dbc076" x="63.840588" y="272.813379" style="fill: #e377c2; stroke: #e377c2"/>
     <use xlink:href="#m0de4dbc076" x="66.572055" y="269.762564" style="fill: #e377c2; stroke: #e377c2"/>
     <use xlink:href="#m0de4dbc076" x="77.209451" y="268.519128" style="fill: #e377c2; stroke: #e377c2"/>
     <use xlink:href="#m0de4dbc076" x="87.138358" y="267.517155" style="fill: #e377c2; stroke: #e377c2"/>
     <use xlink:href="#m0de4dbc076" x="121.386364" y="264.28311" style="fill: #e377c2; stroke: #e377c2"/>
     <use xlink:href="#m0de4dbc076" x="169.930463" y="258.223912" style="fill: #e377c2; stroke: #e377c2"/>
     <use xlink:href="#m0de4dbc076" x="205.319824" y="252.835688" style="fill: #e377c2; stroke: #e377c2"/>
     <use xlink:href="#m0de4dbc076" x="238.282715" y="248.872139" style="fill: #e377c2; stroke: #e377c2"/>
     <use xlink:href="#m0de4dbc076" x="289.72787" y="241.328424" style="fill: #e377c2; stroke: #e377c2"/>
     <use xlink:href="#m0de4dbc076" x="323.483111" y="233.105677" style="fill: #e377c2; stroke: #e377c2"/>
     <use xlink:href="#m0de4dbc076" x="358.409829" y="226.863244" style="fill: #e377c2; stroke: #e377c2"/>
     <use xlink:href="#m0de4dbc076" x="380.731545" y="219.387829" style="fill: #e377c2; stroke: #e377c2"/>
    </g>
   </g>
   <g id="patch_3">
    <path d="M 40.603125 288.430125 
L 40.603125 22.318125 
" style="fill: none; stroke: #000000; stroke-width: 0.8; stroke-linejoin: miter; stroke-linecap: square"/>
   </g>
   <g id="patch_4">
    <path d="M 397.723125 288.430125 
L 397.723125 22.318125 
" style="fill: none; stroke: #000000; stroke-width: 0.8; stroke-linejoin: miter; stroke-linecap: square"/>
   </g>
   <g id="patch_5">
    <path d="M 40.603125 288.430125 
L 397.723125 288.430125 
" style="fill: none; stroke: #000000; stroke-width: 0.8; stroke-linejoin: miter; stroke-linecap: square"/>
   </g>
   <g id="patch_6">
    <path d="M 40.603125 22.318125 
L 397.723125 22.318125 
" style="fill: none; stroke: #000000; stroke-width: 0.8; stroke-linejoin: miter; stroke-linecap: square"/>
   </g>
   <g id="text_15">
    <!-- 4K  Sequential Write -->
    <g transform="translate(157.880625 16.318125) scale(0.12 -0.12)">
     <defs>
      <path id="DejaVuSans-4b" d="M 628 4666 
L 1259 4666 
L 1259 2694 
L 3353 4666 
L 4166 4666 
L 1850 2491 
L 4331 0 
L 3500 0 
L 1259 2247 
L 1259 0 
L 628 0 
L 628 4666 
z
" transform="scale(0.015625)"/>
      <path id="DejaVuSans-53" d="M 3425 4513 
L 3425 3897 
Q 3066 4069 2747 4153 
Q 2428 4238 2131 4238 
Q 1616 4238 1336 4038 
Q 1056 3838 1056 3469 
Q 1056 3159 1242 3001 
Q 1428 2844 1947 2747 
L 2328 2669 
Q 3034 2534 3370 2195 
Q 3706 1856 3706 1288 
Q 3706 609 3251 259 
Q 2797 -91 1919 -91 
Q 1588 -91 1214 -16 
Q 841 59 441 206 
L 441 856 
Q 825 641 1194 531 
Q 1563 422 1919 422 
Q 2459 422 2753 634 
Q 3047 847 3047 1241 
Q 3047 1584 2836 1778 
Q 2625 1972 2144 2069 
L 1759 2144 
Q 1053 2284 737 2584 
Q 422 2884 422 3419 
Q 422 4038 858 4394 
Q 1294 4750 2059 4750 
Q 2388 4750 2728 4690 
Q 3069 4631 3425 4513 
z
" transform="scale(0.015625)"/>
      <path id="DejaVuSans-71" d="M 947 1747 
Q 947 1113 1208 752 
Q 1469 391 1925 391 
Q 2381 391 2643 752 
Q 2906 1113 2906 1747 
Q 2906 2381 2643 2742 
Q 2381 3103 1925 3103 
Q 1469 3103 1208 2742 
Q 947 2381 947 1747 
z
M 2906 525 
Q 2725 213 2448 61 
Q 2172 -91 1784 -91 
Q 1150 -91 751 415 
Q 353 922 353 1747 
Q 353 2572 751 3078 
Q 1150 3584 1784 3584 
Q 2172 3584 2448 3432 
Q 2725 3281 2906 2969 
L 2906 3500 
L 3481 3500 
L 3481 -1331 
L 2906 -1331 
L 2906 525 
z
" transform="scale(0.015625)"/>
      <path id="DejaVuSans-75" d="M 544 1381 
L 544 3500 
L 1119 3500 
L 1119 1403 
Q 1119 906 1312 657 
Q 1506 409 1894 409 
Q 2359 409 2629 706 
Q 2900 1003 2900 1516 
L 2900 3500 
L 3475 3500 
L 3475 0 
L 2900 0 
L 2900 538 
Q 2691 219 2414 64 
Q 2138 -91 1772 -91 
Q 1169 -91 856 284 
Q 544 659 544 1381 
z
M 1991 3584 
L 1991 3584 
z
" transform="scale(0.015625)"/>
      <path id="DejaVuSans-69" d="M 603 3500 
L 1178 3500 
L 1178 0 
L 603 0 
L 603 3500 
z
M 603 4863 
L 1178 4863 
L 1178 4134 
L 603 4134 
L 603 4863 
z
" transform="scale(0.015625)"/>
      <path id="DejaVuSans-6c" d="M 603 4863 
L 1178 4863 
L 1178 0 
L 603 0 
L 603 4863 
z
" transform="scale(0.015625)"/>
      <path id="DejaVuSans-57" d="M 213 4666 
L 850 4666 
L 1831 722 
L 2809 4666 
L 3519 4666 
L 4500 722 
L 5478 4666 
L 6119 4666 
L 4947 0 
L 4153 0 
L 3169 4050 
L 2175 0 
L 1381 0 
L 213 4666 
z
" transform="scale(0.015625)"/>
      <path id="DejaVuSans-72" d="M 2631 2963 
Q 2534 3019 2420 3045 
Q 2306 3072 2169 3072 
Q 1681 3072 1420 2755 
Q 1159 2438 1159 1844 
L 1159 0 
L 581 0 
L 581 3500 
L 1159 3500 
L 1159 2956 
Q 1341 3275 1631 3429 
Q 1922 3584 2338 3584 
Q 2397 3584 2469 3576 
Q 2541 3569 2628 3553 
L 2631 2963 
z
" transform="scale(0.015625)"/>
     </defs>
     <use xlink:href="#DejaVuSans-34"/>
     <use xlink:href="#DejaVuSans-4b" x="63.623047"/>
     <use xlink:href="#DejaVuSans-20" x="129.199219"/>
     <use xlink:href="#DejaVuSans-20" x="160.986328"/>
     <use xlink:href="#DejaVuSans-53" x="192.773438"/>
     <use xlink:href="#DejaVuSans-65" x="256.25"/>
     <use xlink:href="#DejaVuSans-71" x="317.773438"/>
     <use xlink:href="#DejaVuSans-75" x="381.25"/>
     <use xlink:href="#DejaVuSans-65" x="444.628906"/>
     <use xlink:href="#DejaVuSans-6e" x="506.152344"/>
     <use xlink:href="#DejaVuSans-74" x="569.53125"/>
     <use xlink:href="#DejaVuSans-69" x="608.740234"/>
     <use xlink:href="#DejaVuSans-61" x="636.523438"/>
     <use xlink:href="#DejaVuSans-6c" x="697.802734"/>
     <use xlink:href="#DejaVuSans-20" x="725.585938"/>
     <use xlink:href="#DejaVuSans-57" x="757.373047"/>
     <use xlink:href="#DejaVuSans-72" x="851.75"/>
     <use xlink:href="#DejaVuSans-69" x="892.863281"/>
     <use xlink:href="#DejaVuSans-74" x="920.646484"/>
     <use xlink:href="#DejaVuSans-65" x="959.855469"/>
    </g>
   </g>
   <g id="legend_1">
    <g id="patch_7">
     <path d="M 53.792812 381.753825 
L 384.533437 381.753825 
Q 386.533437 381.753825 386.533437 379.753825 
L 386.533437 322.041325 
Q 386.533437 320.041325 384.533437 320.041325 
L 53.792812 320.041325 
Q 51.792812 320.041325 51.792812 322.041325 
L 51.792812 379.753825 
Q 51.792812 381.753825 53.792812 381.753825 
z
" style="fill: #ffffff; opacity: 0.8; stroke: #cccccc; stroke-linejoin: miter"/>
    </g>
    <g id="line2d_20">
     <path d="M 55.792812 328.139762 
L 65.792812 328.139762 
L 75.792812 328.139762 
" style="fill: none; stroke: #1f77b4; stroke-width: 1.5; stroke-linecap: square"/>
     <g>
      <use xlink:href="#m0dba808ca3" x="65.792812" y="328.139762" style="fill: #1f77b4; stroke: #1f77b4"/>
     </g>
    </g>
    <g id="text_16">
     <!-- squid-ec-2+2-4k -->
     <g transform="translate(83.792812 331.639762) scale(0.1 -0.1)">
      <defs>
       <path id="DejaVuSans-64" d="M 2906 2969 
L 2906 4863 
L 3481 4863 
L 3481 0 
L 2906 0 
L 2906 525 
Q 2725 213 2448 61 
Q 2172 -91 1784 -91 
Q 1150 -91 751 415 
Q 353 922 353 1747 
Q 353 2572 751 3078 
Q 1150 3584 1784 3584 
Q 2172 3584 2448 3432 
Q 2725 3281 2906 2969 
z
M 947 1747 
Q 947 1113 1208 752 
Q 1469 391 1925 391 
Q 2381 391 2643 752 
Q 2906 1113 2906 1747 
Q 2906 2381 2643 2742 
Q 2381 3103 1925 3103 
Q 1469 3103 1208 2742 
Q 947 2381 947 1747 
z
" transform="scale(0.015625)"/>
       <path id="DejaVuSans-2d" d="M 313 2009 
L 1997 2009 
L 1997 1497 
L 313 1497 
L 313 2009 
z
" transform="scale(0.015625)"/>
       <path id="DejaVuSans-2b" d="M 2944 4013 
L 2944 2272 
L 4684 2272 
L 4684 1741 
L 2944 1741 
L 2944 0 
L 2419 0 
L 2419 1741 
L 678 1741 
L 678 2272 
L 2419 2272 
L 2419 4013 
L 2944 4013 
z
" transform="scale(0.015625)"/>
       <path id="DejaVuSans-6b" d="M 581 4863 
L 1159 4863 
L 1159 1991 
L 2875 3500 
L 3609 3500 
L 1753 1863 
L 3688 0 
L 2938 0 
L 1159 1709 
L 1159 0 
L 581 0 
L 581 4863 
z
" transform="scale(0.015625)"/>
      </defs>
      <use xlink:href="#DejaVuSans-73"/>
      <use xlink:href="#DejaVuSans-71" x="52.099609"/>
      <use xlink:href="#DejaVuSans-75" x="115.576172"/>
      <use xlink:href="#DejaVuSans-69" x="178.955078"/>
      <use xlink:href="#DejaVuSans-64" x="206.738281"/>
      <use xlink:href="#DejaVuSans-2d" x="270.214844"/>
      <use xlink:href="#DejaVuSans-65" x="306.298828"/>
      <use xlink:href="#DejaVuSans-63" x="367.822266"/>
      <use xlink:href="#DejaVuSans-2d" x="422.802734"/>
      <use xlink:href="#DejaVuSans-32" x="458.886719"/>
      <use xlink:href="#DejaVuSans-2b" x="522.509766"/>
      <use xlink:href="#DejaVuSans-32" x="606.298828"/>
      <use xlink:href="#DejaVuSans-2d" x="669.921875"/>
      <use xlink:href="#DejaVuSans-34" x="706.005859"/>
      <use xlink:href="#DejaVuSans-6b" x="769.628906"/>
     </g>
    </g>
    <g id="line2d_21">
     <path d="M 55.792812 342.817887 
L 65.792812 342.817887 
L 75.792812 342.817887 
" style="fill: none; stroke: #ff7f0e; stroke-width: 1.5; stroke-linecap: square"/>
     <g>
      <use xlink:href="#mca86f8d427" x="65.792812" y="342.817887" style="fill: #ff7f0e; stroke: #ff7f0e"/>
     </g>
    </g>
    <g id="text_17">
     <!-- squid-ec-4+2-4k -->
     <g transform="translate(83.792812 346.317887) scale(0.1 -0.1)">
      <use xlink:href="#DejaVuSans-73"/>
      <use xlink:href="#DejaVuSans-71" x="52.099609"/>
      <use xlink:href="#DejaVuSans-75" x="115.576172"/>
      <use xlink:href="#DejaVuSans-69" x="178.955078"/>
      <use xlink:href="#DejaVuSans-64" x="206.738281"/>
      <use xlink:href="#DejaVuSans-2d" x="270.214844"/>
      <use xlink:href="#DejaVuSans-65" x="306.298828"/>
      <use xlink:href="#DejaVuSans-63" x="367.822266"/>
      <use xlink:href="#DejaVuSans-2d" x="422.802734"/>
      <use xlink:href="#DejaVuSans-34" x="458.886719"/>
      <use xlink:href="#DejaVuSans-2b" x="522.509766"/>
      <use xlink:href="#DejaVuSans-32" x="606.298828"/>
      <use xlink:href="#DejaVuSans-2d" x="669.921875"/>
      <use xlink:href="#DejaVuSans-34" x="706.005859"/>
      <use xlink:href="#DejaVuSans-6b" x="769.628906"/>
     </g>
    </g>
    <g id="line2d_22">
     <path d="M 55.792812 357.496012 
L 65.792812 357.496012 
L 75.792812 357.496012 
" style="fill: none; stroke: #2ca02c; stroke-width: 1.5; stroke-linecap: square"/>
     <g>
      <use xlink:href="#m52c6a5924c" x="65.792812" y="357.496012" style="fill: #2ca02c; stroke: #2ca02c"/>
     </g>
    </g>
    <g id="text_18">
     <!-- squid-ec-6+2-4k -->
     <g transform="translate(83.792812 360.996012) scale(0.1 -0.1)">
      <use xlink:href="#DejaVuSans-73"/>
      <use xlink:href="#DejaVuSans-71" x="52.099609"/>
      <use xlink:href="#DejaVuSans-75" x="115.576172"/>
      <use xlink:href="#DejaVuSans-69" x="178.955078"/>
      <use xlink:href="#DejaVuSans-64" x="206.738281"/>
      <use xlink:href="#DejaVuSans-2d" x="270.214844"/>
      <use xlink:href="#DejaVuSans-65" x="306.298828"/>
      <use xlink:href="#DejaVuSans-63" x="367.822266"/>
      <use xlink:href="#DejaVuSans-2d" x="422.802734"/>
      <use xlink:href="#DejaVuSans-36" x="458.886719"/>
      <use xlink:href="#DejaVuSans-2b" x="522.509766"/>
      <use xlink:href="#DejaVuSans-32" x="606.298828"/>
      <use xlink:href="#DejaVuSans-2d" x="669.921875"/>
      <use xlink:href="#DejaVuSans-34" x="706.005859"/>
      <use xlink:href="#DejaVuSans-6b" x="769.628906"/>
     </g>
    </g>
    <g id="line2d_23">
     <path d="M 55.792812 372.174137 
L 65.792812 372.174137 
L 75.792812 372.174137 
" style="fill: none; stroke: #d62728; stroke-width: 1.5; stroke-linecap: square"/>
     <g>
      <use xlink:href="#mb43208673d" x="65.792812" y="372.174137" style="fill: #d62728; stroke: #d62728"/>
     </g>
    </g>
    <g id="text_19">
     <!-- tentacle-fast-ec-2+2-16k -->
     <g transform="translate(83.792812 375.674137) scale(0.1 -0.1)">
      <defs>
       <path id="DejaVuSans-66" d="M 2375 4863 
L 2375 4384 
L 1825 4384 
Q 1516 4384 1395 4259 
Q 1275 4134 1275 3809 
L 1275 3500 
L 2222 3500 
L 2222 3053 
L 1275 3053 
L 1275 0 
L 697 0 
L 697 3053 
L 147 3053 
L 147 3500 
L 697 3500 
L 697 3744 
Q 697 4328 969 4595 
Q 1241 4863 1831 4863 
L 2375 4863 
z
" transform="scale(0.015625)"/>
      </defs>
      <use xlink:href="#DejaVuSans-74"/>
      <use xlink:href="#DejaVuSans-65" x="39.208984"/>
      <use xlink:href="#DejaVuSans-6e" x="100.732422"/>
      <use xlink:href="#DejaVuSans-74" x="164.111328"/>
      <use xlink:href="#DejaVuSans-61" x="203.320312"/>
      <use xlink:href="#DejaVuSans-63" x="264.599609"/>
      <use xlink:href="#DejaVuSans-6c" x="319.580078"/>
      <use xlink:href="#DejaVuSans-65" x="347.363281"/>
      <use xlink:href="#DejaVuSans-2d" x="408.886719"/>
      <use xlink:href="#DejaVuSans-66" x="444.970703"/>
      <use xlink:href="#DejaVuSans-61" x="480.175781"/>
      <use xlink:href="#DejaVuSans-73" x="541.455078"/>
      <use xlink:href="#DejaVuSans-74" x="593.554688"/>
      <use xlink:href="#DejaVuSans-2d" x="632.763672"/>
      <use xlink:href="#DejaVuSans-65" x="668.847656"/>
      <use xlink:href="#DejaVuSans-63" x="730.371094"/>
      <use xlink:href="#DejaVuSans-2d" x="785.351562"/>
      <use xlink:href="#DejaVuSans-32" x="821.435547"/>
      <use xlink:href="#DejaVuSans-2b" x="885.058594"/>
      <use xlink:href="#DejaVuSans-32" x="968.847656"/>
      <use xlink:href="#DejaVuSans-2d" x="1032.470703"/>
      <use xlink:href="#DejaVuSans-31" x="1068.554688"/>
      <use xlink:href="#DejaVuSans-36" x="1132.177734"/>
      <use xlink:href="#DejaVuSans-6b" x="1195.800781"/>
     </g>
    </g>
    <g id="line2d_24">
     <path d="M 229.163125 328.139762 
L 239.163125 328.139762 
L 249.163125 328.139762 
" style="fill: none; stroke: #9467bd; stroke-width: 1.5; stroke-linecap: square"/>
     <g>
      <use xlink:href="#md7b783cb6f" x="239.163125" y="328.139762" style="fill: #9467bd; stroke: #9467bd"/>
     </g>
    </g>
    <g id="text_20">
     <!-- tentacle-fast-ec-4+2-16k -->
     <g transform="translate(257.163125 331.639762) scale(0.1 -0.1)">
      <use xlink:href="#DejaVuSans-74"/>
      <use xlink:href="#DejaVuSans-65" x="39.208984"/>
      <use xlink:href="#DejaVuSans-6e" x="100.732422"/>
      <use xlink:href="#DejaVuSans-74" x="164.111328"/>
      <use xlink:href="#DejaVuSans-61" x="203.320312"/>
      <use xlink:href="#DejaVuSans-63" x="264.599609"/>
      <use xlink:href="#DejaVuSans-6c" x="319.580078"/>
      <use xlink:href="#DejaVuSans-65" x="347.363281"/>
      <use xlink:href="#DejaVuSans-2d" x="408.886719"/>
      <use xlink:href="#DejaVuSans-66" x="444.970703"/>
      <use xlink:href="#DejaVuSans-61" x="480.175781"/>
      <use xlink:href="#DejaVuSans-73" x="541.455078"/>
      <use xlink:href="#DejaVuSans-74" x="593.554688"/>
      <use xlink:href="#DejaVuSans-2d" x="632.763672"/>
      <use xlink:href="#DejaVuSans-65" x="668.847656"/>
      <use xlink:href="#DejaVuSans-63" x="730.371094"/>
      <use xlink:href="#DejaVuSans-2d" x="785.351562"/>
      <use xlink:href="#DejaVuSans-34" x="821.435547"/>
      <use xlink:href="#DejaVuSans-2b" x="885.058594"/>
      <use xlink:href="#DejaVuSans-32" x="968.847656"/>
      <use xlink:href="#DejaVuSans-2d" x="1032.470703"/>
      <use xlink:href="#DejaVuSans-31" x="1068.554688"/>
      <use xlink:href="#DejaVuSans-36" x="1132.177734"/>
      <use xlink:href="#DejaVuSans-6b" x="1195.800781"/>
     </g>
    </g>
    <g id="line2d_25">
     <path d="M 229.163125 342.817887 
L 239.163125 342.817887 
L 249.163125 342.817887 
" style="fill: none; stroke: #8c564b; stroke-width: 1.5; stroke-linecap: square"/>
     <g>
      <use xlink:href="#m47e6d9c23e" x="239.163125" y="342.817887" style="fill: #8c564b; stroke: #8c564b"/>
     </g>
    </g>
    <g id="text_21">
     <!-- tentacle-fast-ec-6+2-16k -->
     <g transform="translate(257.163125 346.317887) scale(0.1 -0.1)">
      <use xlink:href="#DejaVuSans-74"/>
      <use xlink:href="#DejaVuSans-65" x="39.208984"/>
      <use xlink:href="#DejaVuSans-6e" x="100.732422"/>
      <use xlink:href="#DejaVuSans-74" x="164.111328"/>
      <use xlink:href="#DejaVuSans-61" x="203.320312"/>
      <use xlink:href="#DejaVuSans-63" x="264.599609"/>
      <use xlink:href="#DejaVuSans-6c" x="319.580078"/>
      <use xlink:href="#DejaVuSans-65" x="347.363281"/>
      <use xlink:href="#DejaVuSans-2d" x="408.886719"/>
      <use xlink:href="#DejaVuSans-66" x="444.970703"/>
      <use xlink:href="#DejaVuSans-61" x="480.175781"/>
      <use xlink:href="#DejaVuSans-73" x="541.455078"/>
      <use xlink:href="#DejaVuSans-74" x="593.554688"/>
      <use xlink:href="#DejaVuSans-2d" x="632.763672"/>
      <use xlink:href="#DejaVuSans-65" x="668.847656"/>
      <use xlink:href="#DejaVuSans-63" x="730.371094"/>
      <use xlink:href="#DejaVuSans-2d" x="785.351562"/>
      <use xlink:href="#DejaVuSans-36" x="821.435547"/>
      <use xlink:href="#DejaVuSans-2b" x="885.058594"/>
      <use xlink:href="#DejaVuSans-32" x="968.847656"/>
      <use xlink:href="#DejaVuSans-2d" x="1032.470703"/>
      <use xlink:href="#DejaVuSans-31" x="1068.554688"/>
      <use xlink:href="#DejaVuSans-36" x="1132.177734"/>
      <use xlink:href="#DejaVuSans-6b" x="1195.800781"/>
     </g>
    </g>
    <g id="line2d_26">
     <path d="M 229.163125 357.496012 
L 239.163125 357.496012 
L 249.163125 357.496012 
" style="fill: none; stroke: #e377c2; stroke-width: 1.5; stroke-linecap: square"/>
     <g>
      <use xlink:href="#m0de4dbc076" x="239.163125" y="357.496012" style="fill: #e377c2; stroke: #e377c2"/>
     </g>
    </g>
    <g id="text_22">
     <!-- tentacle-3way-replica -->
     <g transform="translate(257.163125 360.996012) scale(0.1 -0.1)">
      <defs>
       <path id="DejaVuSans-77" d="M 269 3500 
L 844 3500 
L 1563 769 
L 2278 3500 
L 2956 3500 
L 3675 769 
L 4391 3500 
L 4966 3500 
L 4050 0 
L 3372 0 
L 2619 2869 
L 1863 0 
L 1184 0 
L 269 3500 
z
" transform="scale(0.015625)"/>
      </defs>
      <use xlink:href="#DejaVuSans-74"/>
      <use xlink:href="#DejaVuSans-65" x="39.208984"/>
      <use xlink:href="#DejaVuSans-6e" x="100.732422"/>
      <use xlink:href="#DejaVuSans-74" x="164.111328"/>
      <use xlink:href="#DejaVuSans-61" x="203.320312"/>
      <use xlink:href="#DejaVuSans-63" x="264.599609"/>
      <use xlink:href="#DejaVuSans-6c" x="319.580078"/>
      <use xlink:href="#DejaVuSans-65" x="347.363281"/>
      <use xlink:href="#DejaVuSans-2d" x="408.886719"/>
      <use xlink:href="#DejaVuSans-33" x="444.970703"/>
      <use xlink:href="#DejaVuSans-77" x="508.59375"/>
      <use xlink:href="#DejaVuSans-61" x="590.380859"/>
      <use xlink:href="#DejaVuSans-79" x="651.660156"/>
      <use xlink:href="#DejaVuSans-2d" x="709.089844"/>
      <use xlink:href="#DejaVuSans-72" x="745.173828"/>
      <use xlink:href="#DejaVuSans-65" x="784.037109"/>
      <use xlink:href="#DejaVuSans-70" x="845.560547"/>
      <use xlink:href="#DejaVuSans-6c" x="909.037109"/>
      <use xlink:href="#DejaVuSans-69" x="936.820312"/>
      <use xlink:href="#DejaVuSans-63" x="964.603516"/>
      <use xlink:href="#DejaVuSans-61" x="1019.583984"/>
     </g>
    </g>
   </g>
  </g>
 </g>
 <defs>
  <clipPath id="pc59f4d177f">
   <rect x="40.603125" y="22.318125" width="357.12" height="266.112"/>
  </clipPath>
 </defs>
</svg>
