<?xml version="1.0" encoding="utf-8" standalone="no"?>
<!DOCTYPE svg PUBLIC "-//W3C//DTD SVG 1.1//EN"
  "http://www.w3.org/Graphics/SVG/1.1/DTD/svg11.dtd">
<svg xmlns:xlink="http://www.w3.org/1999/xlink" width="420.222075pt" height="388.953825pt" viewBox="0 0 420.222075 388.953825" xmlns="http://www.w3.org/2000/svg" version="1.1">
 <metadata>
  <rdf:RDF xmlns:dc="http://purl.org/dc/elements/1.1/" xmlns:cc="http://creativecommons.org/ns#" xmlns:rdf="http://www.w3.org/1999/02/22-rdf-syntax-ns#">
   <cc:Work>
    <dc:type rdf:resource="http://purl.org/dc/dcmitype/StillImage"/>
    <dc:date>2025-10-08T11:01:37.559237</dc:date>
    <dc:format>image/svg+xml</dc:format>
    <dc:creator>
     <cc:Agent>
      <dc:title>Matplotlib v3.9.4, https://matplotlib.org/</dc:title>
     </cc:Agent>
    </dc:creator>
   </cc:Work>
  </rdf:RDF>
 </metadata>
 <defs>
  <style type="text/css">*{stroke-linejoin: round; stroke-linecap: butt}</style>
 </defs>
 <g id="figure_1">
  <g id="patch_1">
   <path d="M 0 388.953825 
L 420.222075 388.953825 
L 420.222075 0 
L 0 0 
z
" style="fill: #ffffff"/>
  </g>
  <g id="axes_1">
   <g id="patch_2">
    <path d="M 40.603125 288.430125 
L 397.723125 288.430125 
L 397.723125 22.318125 
L 40.603125 22.318125 
z
" style="fill: #ffffff"/>
   </g>
   <g id="matplotlib.axis_1">
    <g id="xtick_1">
     <g id="line2d_1">
      <defs>
       <path id="m4d48a5df88" d="M 0 0 
L 0 3.5 
" style="stroke: #000000; stroke-width: 0.8"/>
      </defs>
      <g>
       <use xlink:href="#m4d48a5df88" x="40.603125" y="288.430125" style="stroke: #000000; stroke-width: 0.8"/>
      </g>
     </g>
     <g id="text_1">
      <!-- 0 -->
      <g transform="translate(37.421875 303.028562) scale(0.1 -0.1)">
       <defs>
        <path id="DejaVuSans-30" d="M 2034 4250 
Q 1547 4250 1301 3770 
Q 1056 3291 1056 2328 
Q 1056 1369 1301 889 
Q 1547 409 2034 409 
Q 2525 409 2770 889 
Q 3016 1369 3016 2328 
Q 3016 3291 2770 3770 
Q 2525 4250 2034 4250 
z
M 2034 4750 
Q 2819 4750 3233 4129 
Q 3647 3509 3647 2328 
Q 3647 1150 3233 529 
Q 2819 -91 2034 -91 
Q 1250 -91 836 529 
Q 422 1150 422 2328 
Q 422 3509 836 4129 
Q 1250 4750 2034 4750 
z
" transform="scale(0.015625)"/>
       </defs>
       <use xlink:href="#DejaVuSans-30"/>
      </g>
     </g>
    </g>
    <g id="xtick_2">
     <g id="line2d_2">
      <g>
       <use xlink:href="#m4d48a5df88" x="91.079046" y="288.430125" style="stroke: #000000; stroke-width: 0.8"/>
      </g>
     </g>
     <g id="text_2">
      <!-- 50000 -->
      <g transform="translate(75.172796 303.028562) scale(0.1 -0.1)">
       <defs>
        <path id="DejaVuSans-35" d="M 691 4666 
L 3169 4666 
L 3169 4134 
L 1269 4134 
L 1269 2991 
Q 1406 3038 1543 3061 
Q 1681 3084 1819 3084 
Q 2600 3084 3056 2656 
Q 3513 2228 3513 1497 
Q 3513 744 3044 326 
Q 2575 -91 1722 -91 
Q 1428 -91 1123 -41 
Q 819 9 494 109 
L 494 744 
Q 775 591 1075 516 
Q 1375 441 1709 441 
Q 2250 441 2565 725 
Q 2881 1009 2881 1497 
Q 2881 1984 2565 2268 
Q 2250 2553 1709 2553 
Q 1456 2553 1204 2497 
Q 953 2441 691 2322 
L 691 4666 
z
" transform="scale(0.015625)"/>
       </defs>
       <use xlink:href="#DejaVuSans-35"/>
       <use xlink:href="#DejaVuSans-30" x="63.623047"/>
       <use xlink:href="#DejaVuSans-30" x="127.246094"/>
       <use xlink:href="#DejaVuSans-30" x="190.869141"/>
       <use xlink:href="#DejaVuSans-30" x="254.492188"/>
      </g>
     </g>
    </g>
    <g id="xtick_3">
     <g id="line2d_3">
      <g>
       <use xlink:href="#m4d48a5df88" x="141.554968" y="288.430125" style="stroke: #000000; stroke-width: 0.8"/>
      </g>
     </g>
     <g id="text_3">
      <!-- 100000 -->
      <g transform="translate(122.467468 303.028562) scale(0.1 -0.1)">
       <defs>
        <path id="DejaVuSans-31" d="M 794 531 
L 1825 531 
L 1825 4091 
L 703 3866 
L 703 4441 
L 1819 4666 
L 2450 4666 
L 2450 531 
L 3481 531 
L 3481 0 
L 794 0 
L 794 531 
z
" transform="scale(0.015625)"/>
       </defs>
       <use xlink:href="#DejaVuSans-31"/>
       <use xlink:href="#DejaVuSans-30" x="63.623047"/>
       <use xlink:href="#DejaVuSans-30" x="127.246094"/>
       <use xlink:href="#DejaVuSans-30" x="190.869141"/>
       <use xlink:href="#DejaVuSans-30" x="254.492188"/>
       <use xlink:href="#DejaVuSans-30" x="318.115234"/>
      </g>
     </g>
    </g>
    <g id="xtick_4">
     <g id="line2d_4">
      <g>
       <use xlink:href="#m4d48a5df88" x="192.030889" y="288.430125" style="stroke: #000000; stroke-width: 0.8"/>
      </g>
     </g>
     <g id="text_4">
      <!-- 150000 -->
      <g transform="translate(172.943389 303.028562) scale(0.1 -0.1)">
       <use xlink:href="#DejaVuSans-31"/>
       <use xlink:href="#DejaVuSans-35" x="63.623047"/>
       <use xlink:href="#DejaVuSans-30" x="127.246094"/>
       <use xlink:href="#DejaVuSans-30" x="190.869141"/>
       <use xlink:href="#DejaVuSans-30" x="254.492188"/>
       <use xlink:href="#DejaVuSans-30" x="318.115234"/>
      </g>
     </g>
    </g>
    <g id="xtick_5">
     <g id="line2d_5">
      <g>
       <use xlink:href="#m4d48a5df88" x="242.506811" y="288.430125" style="stroke: #000000; stroke-width: 0.8"/>
      </g>
     </g>
     <g id="text_5">
      <!-- 200000 -->
      <g transform="translate(223.419311 303.028562) scale(0.1 -0.1)">
       <defs>
        <path id="DejaVuSans-32" d="M 1228 531 
L 3431 531 
L 3431 0 
L 469 0 
L 469 531 
Q 828 903 1448 1529 
Q 2069 2156 2228 2338 
Q 2531 2678 2651 2914 
Q 2772 3150 2772 3378 
Q 2772 3750 2511 3984 
Q 2250 4219 1831 4219 
Q 1534 4219 1204 4116 
Q 875 4013 500 3803 
L 500 4441 
Q 881 4594 1212 4672 
Q 1544 4750 1819 4750 
Q 2544 4750 2975 4387 
Q 3406 4025 3406 3419 
Q 3406 3131 3298 2873 
Q 3191 2616 2906 2266 
Q 2828 2175 2409 1742 
Q 1991 1309 1228 531 
z
" transform="scale(0.015625)"/>
       </defs>
       <use xlink:href="#DejaVuSans-32"/>
       <use xlink:href="#DejaVuSans-30" x="63.623047"/>
       <use xlink:href="#DejaVuSans-30" x="127.246094"/>
       <use xlink:href="#DejaVuSans-30" x="190.869141"/>
       <use xlink:href="#DejaVuSans-30" x="254.492188"/>
       <use xlink:href="#DejaVuSans-30" x="318.115234"/>
      </g>
     </g>
    </g>
    <g id="xtick_6">
     <g id="line2d_6">
      <g>
       <use xlink:href="#m4d48a5df88" x="292.982732" y="288.430125" style="stroke: #000000; stroke-width: 0.8"/>
      </g>
     </g>
     <g id="text_6">
      <!-- 250000 -->
      <g transform="translate(273.895232 303.028562) scale(0.1 -0.1)">
       <use xlink:href="#DejaVuSans-32"/>
       <use xlink:href="#DejaVuSans-35" x="63.623047"/>
       <use xlink:href="#DejaVuSans-30" x="127.246094"/>
       <use xlink:href="#DejaVuSans-30" x="190.869141"/>
       <use xlink:href="#DejaVuSans-30" x="254.492188"/>
       <use xlink:href="#DejaVuSans-30" x="318.115234"/>
      </g>
     </g>
    </g>
    <g id="xtick_7">
     <g id="line2d_7">
      <g>
       <use xlink:href="#m4d48a5df88" x="343.458654" y="288.430125" style="stroke: #000000; stroke-width: 0.8"/>
      </g>
     </g>
     <g id="text_7">
      <!-- 300000 -->
      <g transform="translate(324.371154 303.028562) scale(0.1 -0.1)">
       <defs>
        <path id="DejaVuSans-33" d="M 2597 2516 
Q 3050 2419 3304 2112 
Q 3559 1806 3559 1356 
Q 3559 666 3084 287 
Q 2609 -91 1734 -91 
Q 1441 -91 1130 -33 
Q 819 25 488 141 
L 488 750 
Q 750 597 1062 519 
Q 1375 441 1716 441 
Q 2309 441 2620 675 
Q 2931 909 2931 1356 
Q 2931 1769 2642 2001 
Q 2353 2234 1838 2234 
L 1294 2234 
L 1294 2753 
L 1863 2753 
Q 2328 2753 2575 2939 
Q 2822 3125 2822 3475 
Q 2822 3834 2567 4026 
Q 2313 4219 1838 4219 
Q 1578 4219 1281 4162 
Q 984 4106 628 3988 
L 628 4550 
Q 988 4650 1302 4700 
Q 1616 4750 1894 4750 
Q 2613 4750 3031 4423 
Q 3450 4097 3450 3541 
Q 3450 3153 3228 2886 
Q 3006 2619 2597 2516 
z
" transform="scale(0.015625)"/>
       </defs>
       <use xlink:href="#DejaVuSans-33"/>
       <use xlink:href="#DejaVuSans-30" x="63.623047"/>
       <use xlink:href="#DejaVuSans-30" x="127.246094"/>
       <use xlink:href="#DejaVuSans-30" x="190.869141"/>
       <use xlink:href="#DejaVuSans-30" x="254.492188"/>
       <use xlink:href="#DejaVuSans-30" x="318.115234"/>
      </g>
     </g>
    </g>
    <g id="xtick_8">
     <g id="line2d_8">
      <g>
       <use xlink:href="#m4d48a5df88" x="393.934575" y="288.430125" style="stroke: #000000; stroke-width: 0.8"/>
      </g>
     </g>
     <g id="text_8">
      <!-- 350000 -->
      <g transform="translate(374.847075 303.028562) scale(0.1 -0.1)">
       <use xlink:href="#DejaVuSans-33"/>
       <use xlink:href="#DejaVuSans-35" x="63.623047"/>
       <use xlink:href="#DejaVuSans-30" x="127.246094"/>
       <use xlink:href="#DejaVuSans-30" x="190.869141"/>
       <use xlink:href="#DejaVuSans-30" x="254.492188"/>
       <use xlink:href="#DejaVuSans-30" x="318.115234"/>
      </g>
     </g>
    </g>
    <g id="text_9">
     <!-- IOps -->
     <g transform="translate(207.973281 316.706687) scale(0.1 -0.1)">
      <defs>
       <path id="DejaVuSans-49" d="M 628 4666 
L 1259 4666 
L 1259 0 
L 628 0 
L 628 4666 
z
" transform="scale(0.015625)"/>
       <path id="DejaVuSans-4f" d="M 2522 4238 
Q 1834 4238 1429 3725 
Q 1025 3213 1025 2328 
Q 1025 1447 1429 934 
Q 1834 422 2522 422 
Q 3209 422 3611 934 
Q 4013 1447 4013 2328 
Q 4013 3213 3611 3725 
Q 3209 4238 2522 4238 
z
M 2522 4750 
Q 3503 4750 4090 4092 
Q 4678 3434 4678 2328 
Q 4678 1225 4090 567 
Q 3503 -91 2522 -91 
Q 1538 -91 948 565 
Q 359 1222 359 2328 
Q 359 3434 948 4092 
Q 1538 4750 2522 4750 
z
" transform="scale(0.015625)"/>
       <path id="DejaVuSans-70" d="M 1159 525 
L 1159 -1331 
L 581 -1331 
L 581 3500 
L 1159 3500 
L 1159 2969 
Q 1341 3281 1617 3432 
Q 1894 3584 2278 3584 
Q 2916 3584 3314 3078 
Q 3713 2572 3713 1747 
Q 3713 922 3314 415 
Q 2916 -91 2278 -91 
Q 1894 -91 1617 61 
Q 1341 213 1159 525 
z
M 3116 1747 
Q 3116 2381 2855 2742 
Q 2594 3103 2138 3103 
Q 1681 3103 1420 2742 
Q 1159 2381 1159 1747 
Q 1159 1113 1420 752 
Q 1681 391 2138 391 
Q 2594 391 2855 752 
Q 3116 1113 3116 1747 
z
" transform="scale(0.015625)"/>
       <path id="DejaVuSans-73" d="M 2834 3397 
L 2834 2853 
Q 2591 2978 2328 3040 
Q 2066 3103 1784 3103 
Q 1356 3103 1142 2972 
Q 928 2841 928 2578 
Q 928 2378 1081 2264 
Q 1234 2150 1697 2047 
L 1894 2003 
Q 2506 1872 2764 1633 
Q 3022 1394 3022 966 
Q 3022 478 2636 193 
Q 2250 -91 1575 -91 
Q 1294 -91 989 -36 
Q 684 19 347 128 
L 347 722 
Q 666 556 975 473 
Q 1284 391 1588 391 
Q 1994 391 2212 530 
Q 2431 669 2431 922 
Q 2431 1156 2273 1281 
Q 2116 1406 1581 1522 
L 1381 1569 
Q 847 1681 609 1914 
Q 372 2147 372 2553 
Q 372 3047 722 3315 
Q 1072 3584 1716 3584 
Q 2034 3584 2315 3537 
Q 2597 3491 2834 3397 
z
" transform="scale(0.015625)"/>
      </defs>
      <use xlink:href="#DejaVuSans-49"/>
      <use xlink:href="#DejaVuSans-4f" x="29.492188"/>
      <use xlink:href="#DejaVuSans-70" x="108.203125"/>
      <use xlink:href="#DejaVuSans-73" x="171.679688"/>
     </g>
    </g>
   </g>
   <g id="matplotlib.axis_2">
    <g id="ytick_1">
     <g id="line2d_9">
      <defs>
       <path id="m039901c0ac" d="M 0 0 
L -3.5 0 
" style="stroke: #000000; stroke-width: 0.8"/>
      </defs>
      <g>
       <use xlink:href="#m039901c0ac" x="40.603125" y="288.430125" style="stroke: #000000; stroke-width: 0.8"/>
      </g>
     </g>
     <g id="text_10">
      <!-- 0 -->
      <g transform="translate(27.240625 292.229344) scale(0.1 -0.1)">
       <use xlink:href="#DejaVuSans-30"/>
      </g>
     </g>
    </g>
    <g id="ytick_2">
     <g id="line2d_10">
      <g>
       <use xlink:href="#m039901c0ac" x="40.603125" y="245.143371" style="stroke: #000000; stroke-width: 0.8"/>
      </g>
     </g>
     <g id="text_11">
      <!-- 2 -->
      <g transform="translate(27.240625 248.94259) scale(0.1 -0.1)">
       <use xlink:href="#DejaVuSans-32"/>
      </g>
     </g>
    </g>
    <g id="ytick_3">
     <g id="line2d_11">
      <g>
       <use xlink:href="#m039901c0ac" x="40.603125" y="201.856617" style="stroke: #000000; stroke-width: 0.8"/>
      </g>
     </g>
     <g id="text_12">
      <!-- 4 -->
      <g transform="translate(27.240625 205.655836) scale(0.1 -0.1)">
       <defs>
        <path id="DejaVuSans-34" d="M 2419 4116 
L 825 1625 
L 2419 1625 
L 2419 4116 
z
M 2253 4666 
L 3047 4666 
L 3047 1625 
L 3713 1625 
L 3713 1100 
L 3047 1100 
L 3047 0 
L 2419 0 
L 2419 1100 
L 313 1100 
L 313 1709 
L 2253 4666 
z
" transform="scale(0.015625)"/>
       </defs>
       <use xlink:href="#DejaVuSans-34"/>
      </g>
     </g>
    </g>
    <g id="ytick_4">
     <g id="line2d_12">
      <g>
       <use xlink:href="#m039901c0ac" x="40.603125" y="158.569863" style="stroke: #000000; stroke-width: 0.8"/>
      </g>
     </g>
     <g id="text_13">
      <!-- 6 -->
      <g transform="translate(27.240625 162.369082) scale(0.1 -0.1)">
       <defs>
        <path id="DejaVuSans-36" d="M 2113 2584 
Q 1688 2584 1439 2293 
Q 1191 2003 1191 1497 
Q 1191 994 1439 701 
Q 1688 409 2113 409 
Q 2538 409 2786 701 
Q 3034 994 3034 1497 
Q 3034 2003 2786 2293 
Q 2538 2584 2113 2584 
z
M 3366 4563 
L 3366 3988 
Q 3128 4100 2886 4159 
Q 2644 4219 2406 4219 
Q 1781 4219 1451 3797 
Q 1122 3375 1075 2522 
Q 1259 2794 1537 2939 
Q 1816 3084 2150 3084 
Q 2853 3084 3261 2657 
Q 3669 2231 3669 1497 
Q 3669 778 3244 343 
Q 2819 -91 2113 -91 
Q 1303 -91 875 529 
Q 447 1150 447 2328 
Q 447 3434 972 4092 
Q 1497 4750 2381 4750 
Q 2619 4750 2861 4703 
Q 3103 4656 3366 4563 
z
" transform="scale(0.015625)"/>
       </defs>
       <use xlink:href="#DejaVuSans-36"/>
      </g>
     </g>
    </g>
    <g id="ytick_5">
     <g id="line2d_13">
      <g>
       <use xlink:href="#m039901c0ac" x="40.603125" y="115.283109" style="stroke: #000000; stroke-width: 0.8"/>
      </g>
     </g>
     <g id="text_14">
      <!-- 8 -->
      <g transform="translate(27.240625 119.082328) scale(0.1 -0.1)">
       <defs>
        <path id="DejaVuSans-38" d="M 2034 2216 
Q 1584 2216 1326 1975 
Q 1069 1734 1069 1313 
Q 1069 891 1326 650 
Q 1584 409 2034 409 
Q 2484 409 2743 651 
Q 3003 894 3003 1313 
Q 3003 1734 2745 1975 
Q 2488 2216 2034 2216 
z
M 1403 2484 
Q 997 2584 770 2862 
Q 544 3141 544 3541 
Q 544 4100 942 4425 
Q 1341 4750 2034 4750 
Q 2731 4750 3128 4425 
Q 3525 4100 3525 3541 
Q 3525 3141 3298 2862 
Q 3072 2584 2669 2484 
Q 3125 2378 3379 2068 
Q 3634 1759 3634 1313 
Q 3634 634 3220 271 
Q 2806 -91 2034 -91 
Q 1263 -91 848 271 
Q 434 634 434 1313 
Q 434 1759 690 2068 
Q 947 2378 1403 2484 
z
M 1172 3481 
Q 1172 3119 1398 2916 
Q 1625 2713 2034 2713 
Q 2441 2713 2670 2916 
Q 2900 3119 2900 3481 
Q 2900 3844 2670 4047 
Q 2441 4250 2034 4250 
Q 1625 4250 1398 4047 
Q 1172 3844 1172 3481 
z
" transform="scale(0.015625)"/>
       </defs>
       <use xlink:href="#DejaVuSans-38"/>
      </g>
     </g>
    </g>
    <g id="ytick_6">
     <g id="line2d_14">
      <g>
       <use xlink:href="#m039901c0ac" x="40.603125" y="71.996355" style="stroke: #000000; stroke-width: 0.8"/>
      </g>
     </g>
     <g id="text_15">
      <!-- 10 -->
      <g transform="translate(20.878125 75.795574) scale(0.1 -0.1)">
       <use xlink:href="#DejaVuSans-31"/>
       <use xlink:href="#DejaVuSans-30" x="63.623047"/>
      </g>
     </g>
    </g>
    <g id="ytick_7">
     <g id="line2d_15">
      <g>
       <use xlink:href="#m039901c0ac" x="40.603125" y="28.709601" style="stroke: #000000; stroke-width: 0.8"/>
      </g>
     </g>
     <g id="text_16">
      <!-- 12 -->
      <g transform="translate(20.878125 32.50882) scale(0.1 -0.1)">
       <use xlink:href="#DejaVuSans-31"/>
       <use xlink:href="#DejaVuSans-32" x="63.623047"/>
      </g>
     </g>
    </g>
    <g id="text_17">
     <!-- Latency (ms) -->
     <g transform="translate(14.798438 188.103812) rotate(-90) scale(0.1 -0.1)">
      <defs>
       <path id="DejaVuSans-4c" d="M 628 4666 
L 1259 4666 
L 1259 531 
L 3531 531 
L 3531 0 
L 628 0 
L 628 4666 
z
" transform="scale(0.015625)"/>
       <path id="DejaVuSans-61" d="M 2194 1759 
Q 1497 1759 1228 1600 
Q 959 1441 959 1056 
Q 959 750 1161 570 
Q 1363 391 1709 391 
Q 2188 391 2477 730 
Q 2766 1069 2766 1631 
L 2766 1759 
L 2194 1759 
z
M 3341 1997 
L 3341 0 
L 2766 0 
L 2766 531 
Q 2569 213 2275 61 
Q 1981 -91 1556 -91 
Q 1019 -91 701 211 
Q 384 513 384 1019 
Q 384 1609 779 1909 
Q 1175 2209 1959 2209 
L 2766 2209 
L 2766 2266 
Q 2766 2663 2505 2880 
Q 2244 3097 1772 3097 
Q 1472 3097 1187 3025 
Q 903 2953 641 2809 
L 641 3341 
Q 956 3463 1253 3523 
Q 1550 3584 1831 3584 
Q 2591 3584 2966 3190 
Q 3341 2797 3341 1997 
z
" transform="scale(0.015625)"/>
       <path id="DejaVuSans-74" d="M 1172 4494 
L 1172 3500 
L 2356 3500 
L 2356 3053 
L 1172 3053 
L 1172 1153 
Q 1172 725 1289 603 
Q 1406 481 1766 481 
L 2356 481 
L 2356 0 
L 1766 0 
Q 1100 0 847 248 
Q 594 497 594 1153 
L 594 3053 
L 172 3053 
L 172 3500 
L 594 3500 
L 594 4494 
L 1172 4494 
z
" transform="scale(0.015625)"/>
       <path id="DejaVuSans-65" d="M 3597 1894 
L 3597 1613 
L 953 1613 
Q 991 1019 1311 708 
Q 1631 397 2203 397 
Q 2534 397 2845 478 
Q 3156 559 3463 722 
L 3463 178 
Q 3153 47 2828 -22 
Q 2503 -91 2169 -91 
Q 1331 -91 842 396 
Q 353 884 353 1716 
Q 353 2575 817 3079 
Q 1281 3584 2069 3584 
Q 2775 3584 3186 3129 
Q 3597 2675 3597 1894 
z
M 3022 2063 
Q 3016 2534 2758 2815 
Q 2500 3097 2075 3097 
Q 1594 3097 1305 2825 
Q 1016 2553 972 2059 
L 3022 2063 
z
" transform="scale(0.015625)"/>
       <path id="DejaVuSans-6e" d="M 3513 2113 
L 3513 0 
L 2938 0 
L 2938 2094 
Q 2938 2591 2744 2837 
Q 2550 3084 2163 3084 
Q 1697 3084 1428 2787 
Q 1159 2491 1159 1978 
L 1159 0 
L 581 0 
L 581 3500 
L 1159 3500 
L 1159 2956 
Q 1366 3272 1645 3428 
Q 1925 3584 2291 3584 
Q 2894 3584 3203 3211 
Q 3513 2838 3513 2113 
z
" transform="scale(0.015625)"/>
       <path id="DejaVuSans-63" d="M 3122 3366 
L 3122 2828 
Q 2878 2963 2633 3030 
Q 2388 3097 2138 3097 
Q 1578 3097 1268 2742 
Q 959 2388 959 1747 
Q 959 1106 1268 751 
Q 1578 397 2138 397 
Q 2388 397 2633 464 
Q 2878 531 3122 666 
L 3122 134 
Q 2881 22 2623 -34 
Q 2366 -91 2075 -91 
Q 1284 -91 818 406 
Q 353 903 353 1747 
Q 353 2603 823 3093 
Q 1294 3584 2113 3584 
Q 2378 3584 2631 3529 
Q 2884 3475 3122 3366 
z
" transform="scale(0.015625)"/>
       <path id="DejaVuSans-79" d="M 2059 -325 
Q 1816 -950 1584 -1140 
Q 1353 -1331 966 -1331 
L 506 -1331 
L 506 -850 
L 844 -850 
Q 1081 -850 1212 -737 
Q 1344 -625 1503 -206 
L 1606 56 
L 191 3500 
L 800 3500 
L 1894 763 
L 2988 3500 
L 3597 3500 
L 2059 -325 
z
" transform="scale(0.015625)"/>
       <path id="DejaVuSans-20" transform="scale(0.015625)"/>
       <path id="DejaVuSans-28" d="M 1984 4856 
Q 1566 4138 1362 3434 
Q 1159 2731 1159 2009 
Q 1159 1288 1364 580 
Q 1569 -128 1984 -844 
L 1484 -844 
Q 1016 -109 783 600 
Q 550 1309 550 2009 
Q 550 2706 781 3412 
Q 1013 4119 1484 4856 
L 1984 4856 
z
" transform="scale(0.015625)"/>
       <path id="DejaVuSans-6d" d="M 3328 2828 
Q 3544 3216 3844 3400 
Q 4144 3584 4550 3584 
Q 5097 3584 5394 3201 
Q 5691 2819 5691 2113 
L 5691 0 
L 5113 0 
L 5113 2094 
Q 5113 2597 4934 2840 
Q 4756 3084 4391 3084 
Q 3944 3084 3684 2787 
Q 3425 2491 3425 1978 
L 3425 0 
L 2847 0 
L 2847 2094 
Q 2847 2600 2669 2842 
Q 2491 3084 2119 3084 
Q 1678 3084 1418 2786 
Q 1159 2488 1159 1978 
L 1159 0 
L 581 0 
L 581 3500 
L 1159 3500 
L 1159 2956 
Q 1356 3278 1631 3431 
Q 1906 3584 2284 3584 
Q 2666 3584 2933 3390 
Q 3200 3197 3328 2828 
z
" transform="scale(0.015625)"/>
       <path id="DejaVuSans-29" d="M 513 4856 
L 1013 4856 
Q 1481 4119 1714 3412 
Q 1947 2706 1947 2009 
Q 1947 1309 1714 600 
Q 1481 -109 1013 -844 
L 513 -844 
Q 928 -128 1133 580 
Q 1338 1288 1338 2009 
Q 1338 2731 1133 3434 
Q 928 4138 513 4856 
z
" transform="scale(0.015625)"/>
      </defs>
      <use xlink:href="#DejaVuSans-4c"/>
      <use xlink:href="#DejaVuSans-61" x="55.712891"/>
      <use xlink:href="#DejaVuSans-74" x="116.992188"/>
      <use xlink:href="#DejaVuSans-65" x="156.201172"/>
      <use xlink:href="#DejaVuSans-6e" x="217.724609"/>
      <use xlink:href="#DejaVuSans-63" x="281.103516"/>
      <use xlink:href="#DejaVuSans-79" x="336.083984"/>
      <use xlink:href="#DejaVuSans-20" x="395.263672"/>
      <use xlink:href="#DejaVuSans-28" x="427.050781"/>
      <use xlink:href="#DejaVuSans-6d" x="466.064453"/>
      <use xlink:href="#DejaVuSans-73" x="563.476562"/>
      <use xlink:href="#DejaVuSans-29" x="615.576172"/>
     </g>
    </g>
   </g>
   <g id="line2d_16">
    <path d="M 44.056795 275.903887 
L 49.503643 269.02441 
L 53.776129 262.201223 
L 56.068721 254.821927 
L 57.982534 248.493362 
L 64.454384 244.701318 
L 70.764929 242.277864 
L 94.565636 236.767298 
L 130.809908 226.575645 
L 159.712539 218.14243 
L 182.565417 209.78556 
L 215.959415 192.901352 
L 240.593484 176.725221 
L 260.351461 161.331252 
L 275.278366 145.594731 
" clip-path="url(#p4dff6277aa)" style="fill: none; stroke: #1f77b4; stroke-width: 1.5; stroke-linecap: square"/>
    <defs>
     <path id="m1713a87654" d="M -3 0 
L 3 0 
M 0 3 
L 0 -3 
" style="stroke: #1f77b4"/>
    </defs>
    <g clip-path="url(#p4dff6277aa)">
     <use xlink:href="#m1713a87654" x="44.056795" y="275.903887" style="fill: #1f77b4; stroke: #1f77b4"/>
     <use xlink:href="#m1713a87654" x="49.503643" y="269.02441" style="fill: #1f77b4; stroke: #1f77b4"/>
     <use xlink:href="#m1713a87654" x="53.776129" y="262.201223" style="fill: #1f77b4; stroke: #1f77b4"/>
     <use xlink:href="#m1713a87654" x="56.068721" y="254.821927" style="fill: #1f77b4; stroke: #1f77b4"/>
     <use xlink:href="#m1713a87654" x="57.982534" y="248.493362" style="fill: #1f77b4; stroke: #1f77b4"/>
     <use xlink:href="#m1713a87654" x="64.454384" y="244.701318" style="fill: #1f77b4; stroke: #1f77b4"/>
     <use xlink:href="#m1713a87654" x="70.764929" y="242.277864" style="fill: #1f77b4; stroke: #1f77b4"/>
     <use xlink:href="#m1713a87654" x="94.565636" y="236.767298" style="fill: #1f77b4; stroke: #1f77b4"/>
     <use xlink:href="#m1713a87654" x="130.809908" y="226.575645" style="fill: #1f77b4; stroke: #1f77b4"/>
     <use xlink:href="#m1713a87654" x="159.712539" y="218.14243" style="fill: #1f77b4; stroke: #1f77b4"/>
     <use xlink:href="#m1713a87654" x="182.565417" y="209.78556" style="fill: #1f77b4; stroke: #1f77b4"/>
     <use xlink:href="#m1713a87654" x="215.959415" y="192.901352" style="fill: #1f77b4; stroke: #1f77b4"/>
     <use xlink:href="#m1713a87654" x="240.593484" y="176.725221" style="fill: #1f77b4; stroke: #1f77b4"/>
     <use xlink:href="#m1713a87654" x="260.351461" y="161.331252" style="fill: #1f77b4; stroke: #1f77b4"/>
     <use xlink:href="#m1713a87654" x="275.278366" y="145.594731" style="fill: #1f77b4; stroke: #1f77b4"/>
    </g>
   </g>
   <g id="line2d_17">
    <path d="M 41.259402 222.122409 
L 43.092979 218.4915 
L 44.599357 201.266258 
L 45.569596 183.142554 
L 46.444953 169.038645 
L 49.522892 171.112005 
L 51.439245 159.603148 
L 60.732299 149.664284 
L 77.425523 136.681542 
L 92.087889 125.619638 
L 105.871469 117.184566 
L 132.101284 105.192048 
L 156.496275 95.526112 
L 178.29219 85.474013 
L 196.740399 73.651323 
" clip-path="url(#p4dff6277aa)" style="fill: none; stroke: #ff7f0e; stroke-width: 1.5; stroke-linecap: square"/>
    <defs>
     <path id="m81dfe0ed49" d="M -3 0 
L 3 0 
M 0 3 
L 0 -3 
" style="stroke: #ff7f0e"/>
    </defs>
    <g clip-path="url(#p4dff6277aa)">
     <use xlink:href="#m81dfe0ed49" x="41.259402" y="222.122409" style="fill: #ff7f0e; stroke: #ff7f0e"/>
     <use xlink:href="#m81dfe0ed49" x="43.092979" y="218.4915" style="fill: #ff7f0e; stroke: #ff7f0e"/>
     <use xlink:href="#m81dfe0ed49" x="44.599357" y="201.266258" style="fill: #ff7f0e; stroke: #ff7f0e"/>
     <use xlink:href="#m81dfe0ed49" x="45.569596" y="183.142554" style="fill: #ff7f0e; stroke: #ff7f0e"/>
     <use xlink:href="#m81dfe0ed49" x="46.444953" y="169.038645" style="fill: #ff7f0e; stroke: #ff7f0e"/>
     <use xlink:href="#m81dfe0ed49" x="49.522892" y="171.112005" style="fill: #ff7f0e; stroke: #ff7f0e"/>
     <use xlink:href="#m81dfe0ed49" x="51.439245" y="159.603148" style="fill: #ff7f0e; stroke: #ff7f0e"/>
     <use xlink:href="#m81dfe0ed49" x="60.732299" y="149.664284" style="fill: #ff7f0e; stroke: #ff7f0e"/>
     <use xlink:href="#m81dfe0ed49" x="77.425523" y="136.681542" style="fill: #ff7f0e; stroke: #ff7f0e"/>
     <use xlink:href="#m81dfe0ed49" x="92.087889" y="125.619638" style="fill: #ff7f0e; stroke: #ff7f0e"/>
     <use xlink:href="#m81dfe0ed49" x="105.871469" y="117.184566" style="fill: #ff7f0e; stroke: #ff7f0e"/>
     <use xlink:href="#m81dfe0ed49" x="132.101284" y="105.192048" style="fill: #ff7f0e; stroke: #ff7f0e"/>
     <use xlink:href="#m81dfe0ed49" x="156.496275" y="95.526112" style="fill: #ff7f0e; stroke: #ff7f0e"/>
     <use xlink:href="#m81dfe0ed49" x="178.29219" y="85.474013" style="fill: #ff7f0e; stroke: #ff7f0e"/>
     <use xlink:href="#m81dfe0ed49" x="196.740399" y="73.651323" style="fill: #ff7f0e; stroke: #ff7f0e"/>
    </g>
   </g>
   <g id="line2d_18">
    <path d="M 41.14486 208.0545 
L 42.588462 200.671699 
L 43.817903 180.018483 
L 44.718705 161.334935 
L 45.545095 147.268909 
L 47.363309 133.558938 
L 49.873011 137.816549 
L 57.088118 118.963252 
L 72.147476 111.27334 
L 83.277495 91.978712 
L 96.849216 89.69904 
L 117.377357 70.023049 
L 142.114256 68.184343 
L 158.424309 51.223859 
L 172.74116 34.61576 
" clip-path="url(#p4dff6277aa)" style="fill: none; stroke: #2ca02c; stroke-width: 1.5; stroke-linecap: square"/>
    <defs>
     <path id="mdb837a6e72" d="M -3 0 
L 3 0 
M 0 3 
L 0 -3 
" style="stroke: #2ca02c"/>
    </defs>
    <g clip-path="url(#p4dff6277aa)">
     <use xlink:href="#mdb837a6e72" x="41.14486" y="208.0545" style="fill: #2ca02c; stroke: #2ca02c"/>
     <use xlink:href="#mdb837a6e72" x="42.588462" y="200.671699" style="fill: #2ca02c; stroke: #2ca02c"/>
     <use xlink:href="#mdb837a6e72" x="43.817903" y="180.018483" style="fill: #2ca02c; stroke: #2ca02c"/>
     <use xlink:href="#mdb837a6e72" x="44.718705" y="161.334935" style="fill: #2ca02c; stroke: #2ca02c"/>
     <use xlink:href="#mdb837a6e72" x="45.545095" y="147.268909" style="fill: #2ca02c; stroke: #2ca02c"/>
     <use xlink:href="#mdb837a6e72" x="47.363309" y="133.558938" style="fill: #2ca02c; stroke: #2ca02c"/>
     <use xlink:href="#mdb837a6e72" x="49.873011" y="137.816549" style="fill: #2ca02c; stroke: #2ca02c"/>
     <use xlink:href="#mdb837a6e72" x="57.088118" y="118.963252" style="fill: #2ca02c; stroke: #2ca02c"/>
     <use xlink:href="#mdb837a6e72" x="72.147476" y="111.27334" style="fill: #2ca02c; stroke: #2ca02c"/>
     <use xlink:href="#mdb837a6e72" x="83.277495" y="91.978712" style="fill: #2ca02c; stroke: #2ca02c"/>
     <use xlink:href="#mdb837a6e72" x="96.849216" y="89.69904" style="fill: #2ca02c; stroke: #2ca02c"/>
     <use xlink:href="#mdb837a6e72" x="117.377357" y="70.023049" style="fill: #2ca02c; stroke: #2ca02c"/>
     <use xlink:href="#mdb837a6e72" x="142.114256" y="68.184343" style="fill: #2ca02c; stroke: #2ca02c"/>
     <use xlink:href="#mdb837a6e72" x="158.424309" y="51.223859" style="fill: #2ca02c; stroke: #2ca02c"/>
     <use xlink:href="#mdb837a6e72" x="172.74116" y="34.61576" style="fill: #2ca02c; stroke: #2ca02c"/>
    </g>
   </g>
   <g id="line2d_19">
    <path d="M 43.669716 274.306199 
L 49.348239 268.659577 
L 53.999243 262.630971 
L 56.099337 254.877493 
L 58.017104 248.561768 
L 63.532332 242.928363 
L 69.636331 240.47317 
L 93.259907 235.480608 
L 131.137782 226.796599 
L 159.586071 218.064892 
L 181.399614 209.130783 
L 214.195008 191.925724 
L 238.254444 175.396733 
L 256.429962 158.997453 
L 271.144206 143.018567 
" clip-path="url(#p4dff6277aa)" style="fill: none; stroke: #d62728; stroke-width: 1.5; stroke-linecap: square"/>
    <defs>
     <path id="mbd524ec7cd" d="M -3 0 
L 3 0 
M 0 3 
L 0 -3 
" style="stroke: #d62728"/>
    </defs>
    <g clip-path="url(#p4dff6277aa)">
     <use xlink:href="#mbd524ec7cd" x="43.669716" y="274.306199" style="fill: #d62728; stroke: #d62728"/>
     <use xlink:href="#mbd524ec7cd" x="49.348239" y="268.659577" style="fill: #d62728; stroke: #d62728"/>
     <use xlink:href="#mbd524ec7cd" x="53.999243" y="262.630971" style="fill: #d62728; stroke: #d62728"/>
     <use xlink:href="#mbd524ec7cd" x="56.099337" y="254.877493" style="fill: #d62728; stroke: #d62728"/>
     <use xlink:href="#mbd524ec7cd" x="58.017104" y="248.561768" style="fill: #d62728; stroke: #d62728"/>
     <use xlink:href="#mbd524ec7cd" x="63.532332" y="242.928363" style="fill: #d62728; stroke: #d62728"/>
     <use xlink:href="#mbd524ec7cd" x="69.636331" y="240.47317" style="fill: #d62728; stroke: #d62728"/>
     <use xlink:href="#mbd524ec7cd" x="93.259907" y="235.480608" style="fill: #d62728; stroke: #d62728"/>
     <use xlink:href="#mbd524ec7cd" x="131.137782" y="226.796599" style="fill: #d62728; stroke: #d62728"/>
     <use xlink:href="#mbd524ec7cd" x="159.586071" y="218.064892" style="fill: #d62728; stroke: #d62728"/>
     <use xlink:href="#mbd524ec7cd" x="181.399614" y="209.130783" style="fill: #d62728; stroke: #d62728"/>
     <use xlink:href="#mbd524ec7cd" x="214.195008" y="191.925724" style="fill: #d62728; stroke: #d62728"/>
     <use xlink:href="#mbd524ec7cd" x="238.254444" y="175.396733" style="fill: #d62728; stroke: #d62728"/>
     <use xlink:href="#mbd524ec7cd" x="256.429962" y="158.997453" style="fill: #d62728; stroke: #d62728"/>
     <use xlink:href="#mbd524ec7cd" x="271.144206" y="143.018567" style="fill: #d62728; stroke: #d62728"/>
    </g>
   </g>
   <g id="line2d_20">
    <path d="M 43.281034 272.241889 
L 49.113696 268.12686 
L 53.806555 262.258106 
L 55.96622 254.591255 
L 57.768385 247.990571 
L 62.979369 241.809251 
L 68.104834 237.802544 
L 85.720967 226.618788 
L 118.570724 216.846011 
L 145.144668 208.331234 
L 166.746454 199.904905 
L 199.23501 182.81037 
L 224.947272 167.228797 
L 244.044039 151.130177 
L 259.981038 135.620815 
" clip-path="url(#p4dff6277aa)" style="fill: none; stroke: #9467bd; stroke-width: 1.5; stroke-linecap: square"/>
    <defs>
     <path id="mcb0163f1fb" d="M -3 0 
L 3 0 
M 0 3 
L 0 -3 
" style="stroke: #9467bd"/>
    </defs>
    <g clip-path="url(#p4dff6277aa)">
     <use xlink:href="#mcb0163f1fb" x="43.281034" y="272.241889" style="fill: #9467bd; stroke: #9467bd"/>
     <use xlink:href="#mcb0163f1fb" x="49.113696" y="268.12686" style="fill: #9467bd; stroke: #9467bd"/>
     <use xlink:href="#mcb0163f1fb" x="53.806555" y="262.258106" style="fill: #9467bd; stroke: #9467bd"/>
     <use xlink:href="#mcb0163f1fb" x="55.96622" y="254.591255" style="fill: #9467bd; stroke: #9467bd"/>
     <use xlink:href="#mcb0163f1fb" x="57.768385" y="247.990571" style="fill: #9467bd; stroke: #9467bd"/>
     <use xlink:href="#mcb0163f1fb" x="62.979369" y="241.809251" style="fill: #9467bd; stroke: #9467bd"/>
     <use xlink:href="#mcb0163f1fb" x="68.104834" y="237.802544" style="fill: #9467bd; stroke: #9467bd"/>
     <use xlink:href="#mcb0163f1fb" x="85.720967" y="226.618788" style="fill: #9467bd; stroke: #9467bd"/>
     <use xlink:href="#mcb0163f1fb" x="118.570724" y="216.846011" style="fill: #9467bd; stroke: #9467bd"/>
     <use xlink:href="#mcb0163f1fb" x="145.144668" y="208.331234" style="fill: #9467bd; stroke: #9467bd"/>
     <use xlink:href="#mcb0163f1fb" x="166.746454" y="199.904905" style="fill: #9467bd; stroke: #9467bd"/>
     <use xlink:href="#mcb0163f1fb" x="199.23501" y="182.81037" style="fill: #9467bd; stroke: #9467bd"/>
     <use xlink:href="#mcb0163f1fb" x="224.947272" y="167.228797" style="fill: #9467bd; stroke: #9467bd"/>
     <use xlink:href="#mcb0163f1fb" x="244.044039" y="151.130177" style="fill: #9467bd; stroke: #9467bd"/>
     <use xlink:href="#mcb0163f1fb" x="259.981038" y="135.620815" style="fill: #9467bd; stroke: #9467bd"/>
    </g>
   </g>
   <g id="line2d_21">
    <path d="M 42.549892 266.116128 
L 47.764695 264.264936 
L 51.878904 257.733163 
L 54.235741 250.260787 
L 56.164166 243.792036 
L 59.742776 233.891176 
L 64.6993 230.620329 
L 82.117291 221.247296 
L 105.72502 202.707208 
L 129.111784 193.799419 
L 147.512005 183.958975 
L 181.775055 169.723146 
L 202.43354 150.349555 
L 222.895521 135.184725 
L 241.405554 121.470316 
" clip-path="url(#p4dff6277aa)" style="fill: none; stroke: #8c564b; stroke-width: 1.5; stroke-linecap: square"/>
    <defs>
     <path id="mfa792efe7e" d="M -3 0 
L 3 0 
M 0 3 
L 0 -3 
" style="stroke: #8c564b"/>
    </defs>
    <g clip-path="url(#p4dff6277aa)">
     <use xlink:href="#mfa792efe7e" x="42.549892" y="266.116128" style="fill: #8c564b; stroke: #8c564b"/>
     <use xlink:href="#mfa792efe7e" x="47.764695" y="264.264936" style="fill: #8c564b; stroke: #8c564b"/>
     <use xlink:href="#mfa792efe7e" x="51.878904" y="257.733163" style="fill: #8c564b; stroke: #8c564b"/>
     <use xlink:href="#mfa792efe7e" x="54.235741" y="250.260787" style="fill: #8c564b; stroke: #8c564b"/>
     <use xlink:href="#mfa792efe7e" x="56.164166" y="243.792036" style="fill: #8c564b; stroke: #8c564b"/>
     <use xlink:href="#mfa792efe7e" x="59.742776" y="233.891176" style="fill: #8c564b; stroke: #8c564b"/>
     <use xlink:href="#mfa792efe7e" x="64.6993" y="230.620329" style="fill: #8c564b; stroke: #8c564b"/>
     <use xlink:href="#mfa792efe7e" x="82.117291" y="221.247296" style="fill: #8c564b; stroke: #8c564b"/>
     <use xlink:href="#mfa792efe7e" x="105.72502" y="202.707208" style="fill: #8c564b; stroke: #8c564b"/>
     <use xlink:href="#mfa792efe7e" x="129.111784" y="193.799419" style="fill: #8c564b; stroke: #8c564b"/>
     <use xlink:href="#mfa792efe7e" x="147.512005" y="183.958975" style="fill: #8c564b; stroke: #8c564b"/>
     <use xlink:href="#mfa792efe7e" x="181.775055" y="169.723146" style="fill: #8c564b; stroke: #8c564b"/>
     <use xlink:href="#mfa792efe7e" x="202.43354" y="150.349555" style="fill: #8c564b; stroke: #8c564b"/>
     <use xlink:href="#mfa792efe7e" x="222.895521" y="135.184725" style="fill: #8c564b; stroke: #8c564b"/>
     <use xlink:href="#mfa792efe7e" x="241.405554" y="121.470316" style="fill: #8c564b; stroke: #8c564b"/>
    </g>
   </g>
   <g id="line2d_22">
    <path d="M 46.076774 280.568453 
L 59.278369 279.210525 
L 69.423885 276.511628 
L 74.435525 273.141194 
L 78.331711 270.113731 
L 92.721142 268.491072 
L 105.973865 267.201691 
L 146.452797 262.145019 
L 203.886557 254.303193 
L 239.242017 246.324826 
L 270.672985 239.942506 
L 319.900025 228.493653 
L 347.088789 215.582643 
L 365.8179 202.594817 
L 380.743208 189.927979 
" clip-path="url(#p4dff6277aa)" style="fill: none; stroke: #e377c2; stroke-width: 1.5; stroke-linecap: square"/>
    <defs>
     <path id="mfc650d10db" d="M -3 0 
L 3 0 
M 0 3 
L 0 -3 
" style="stroke: #e377c2"/>
    </defs>
    <g clip-path="url(#p4dff6277aa)">
     <use xlink:href="#mfc650d10db" x="46.076774" y="280.568453" style="fill: #e377c2; stroke: #e377c2"/>
     <use xlink:href="#mfc650d10db" x="59.278369" y="279.210525" style="fill: #e377c2; stroke: #e377c2"/>
     <use xlink:href="#mfc650d10db" x="69.423885" y="276.511628" style="fill: #e377c2; stroke: #e377c2"/>
     <use xlink:href="#mfc650d10db" x="74.435525" y="273.141194" style="fill: #e377c2; stroke: #e377c2"/>
     <use xlink:href="#mfc650d10db" x="78.331711" y="270.113731" style="fill: #e377c2; stroke: #e377c2"/>
     <use xlink:href="#mfc650d10db" x="92.721142" y="268.491072" style="fill: #e377c2; stroke: #e377c2"/>
     <use xlink:href="#mfc650d10db" x="105.973865" y="267.201691" style="fill: #e377c2; stroke: #e377c2"/>
     <use xlink:href="#mfc650d10db" x="146.452797" y="262.145019" style="fill: #e377c2; stroke: #e377c2"/>
     <use xlink:href="#mfc650d10db" x="203.886557" y="254.303193" style="fill: #e377c2; stroke: #e377c2"/>
     <use xlink:href="#mfc650d10db" x="239.242017" y="246.324826" style="fill: #e377c2; stroke: #e377c2"/>
     <use xlink:href="#mfc650d10db" x="270.672985" y="239.942506" style="fill: #e377c2; stroke: #e377c2"/>
     <use xlink:href="#mfc650d10db" x="319.900025" y="228.493653" style="fill: #e377c2; stroke: #e377c2"/>
     <use xlink:href="#mfc650d10db" x="347.088789" y="215.582643" style="fill: #e377c2; stroke: #e377c2"/>
     <use xlink:href="#mfc650d10db" x="365.8179" y="202.594817" style="fill: #e377c2; stroke: #e377c2"/>
     <use xlink:href="#mfc650d10db" x="380.743208" y="189.927979" style="fill: #e377c2; stroke: #e377c2"/>
    </g>
   </g>
   <g id="patch_3">
    <path d="M 40.603125 288.430125 
L 40.603125 22.318125 
" style="fill: none; stroke: #000000; stroke-width: 0.8; stroke-linejoin: miter; stroke-linecap: square"/>
   </g>
   <g id="patch_4">
    <path d="M 397.723125 288.430125 
L 397.723125 22.318125 
" style="fill: none; stroke: #000000; stroke-width: 0.8; stroke-linejoin: miter; stroke-linecap: square"/>
   </g>
   <g id="patch_5">
    <path d="M 40.603125 288.430125 
L 397.723125 288.430125 
" style="fill: none; stroke: #000000; stroke-width: 0.8; stroke-linejoin: miter; stroke-linecap: square"/>
   </g>
   <g id="patch_6">
    <path d="M 40.603125 22.318125 
L 397.723125 22.318125 
" style="fill: none; stroke: #000000; stroke-width: 0.8; stroke-linejoin: miter; stroke-linecap: square"/>
   </g>
   <g id="text_18">
    <!-- 8K  Sequential Write -->
    <g transform="translate(157.880625 16.318125) scale(0.12 -0.12)">
     <defs>
      <path id="DejaVuSans-4b" d="M 628 4666 
L 1259 4666 
L 1259 2694 
L 3353 4666 
L 4166 4666 
L 1850 2491 
L 4331 0 
L 3500 0 
L 1259 2247 
L 1259 0 
L 628 0 
L 628 4666 
z
" transform="scale(0.015625)"/>
      <path id="DejaVuSans-53" d="M 3425 4513 
L 3425 3897 
Q 3066 4069 2747 4153 
Q 2428 4238 2131 4238 
Q 1616 4238 1336 4038 
Q 1056 3838 1056 3469 
Q 1056 3159 1242 3001 
Q 1428 2844 1947 2747 
L 2328 2669 
Q 3034 2534 3370 2195 
Q 3706 1856 3706 1288 
Q 3706 609 3251 259 
Q 2797 -91 1919 -91 
Q 1588 -91 1214 -16 
Q 841 59 441 206 
L 441 856 
Q 825 641 1194 531 
Q 1563 422 1919 422 
Q 2459 422 2753 634 
Q 3047 847 3047 1241 
Q 3047 1584 2836 1778 
Q 2625 1972 2144 2069 
L 1759 2144 
Q 1053 2284 737 2584 
Q 422 2884 422 3419 
Q 422 4038 858 4394 
Q 1294 4750 2059 4750 
Q 2388 4750 2728 4690 
Q 3069 4631 3425 4513 
z
" transform="scale(0.015625)"/>
      <path id="DejaVuSans-71" d="M 947 1747 
Q 947 1113 1208 752 
Q 1469 391 1925 391 
Q 2381 391 2643 752 
Q 2906 1113 2906 1747 
Q 2906 2381 2643 2742 
Q 2381 3103 1925 3103 
Q 1469 3103 1208 2742 
Q 947 2381 947 1747 
z
M 2906 525 
Q 2725 213 2448 61 
Q 2172 -91 1784 -91 
Q 1150 -91 751 415 
Q 353 922 353 1747 
Q 353 2572 751 3078 
Q 1150 3584 1784 3584 
Q 2172 3584 2448 3432 
Q 2725 3281 2906 2969 
L 2906 3500 
L 3481 3500 
L 3481 -1331 
L 2906 -1331 
L 2906 525 
z
" transform="scale(0.015625)"/>
      <path id="DejaVuSans-75" d="M 544 1381 
L 544 3500 
L 1119 3500 
L 1119 1403 
Q 1119 906 1312 657 
Q 1506 409 1894 409 
Q 2359 409 2629 706 
Q 2900 1003 2900 1516 
L 2900 3500 
L 3475 3500 
L 3475 0 
L 2900 0 
L 2900 538 
Q 2691 219 2414 64 
Q 2138 -91 1772 -91 
Q 1169 -91 856 284 
Q 544 659 544 1381 
z
M 1991 3584 
L 1991 3584 
z
" transform="scale(0.015625)"/>
      <path id="DejaVuSans-69" d="M 603 3500 
L 1178 3500 
L 1178 0 
L 603 0 
L 603 3500 
z
M 603 4863 
L 1178 4863 
L 1178 4134 
L 603 4134 
L 603 4863 
z
" transform="scale(0.015625)"/>
      <path id="DejaVuSans-6c" d="M 603 4863 
L 1178 4863 
L 1178 0 
L 603 0 
L 603 4863 
z
" transform="scale(0.015625)"/>
      <path id="DejaVuSans-57" d="M 213 4666 
L 850 4666 
L 1831 722 
L 2809 4666 
L 3519 4666 
L 4500 722 
L 5478 4666 
L 6119 4666 
L 4947 0 
L 4153 0 
L 3169 4050 
L 2175 0 
L 1381 0 
L 213 4666 
z
" transform="scale(0.015625)"/>
      <path id="DejaVuSans-72" d="M 2631 2963 
Q 2534 3019 2420 3045 
Q 2306 3072 2169 3072 
Q 1681 3072 1420 2755 
Q 1159 2438 1159 1844 
L 1159 0 
L 581 0 
L 581 3500 
L 1159 3500 
L 1159 2956 
Q 1341 3275 1631 3429 
Q 1922 3584 2338 3584 
Q 2397 3584 2469 3576 
Q 2541 3569 2628 3553 
L 2631 2963 
z
" transform="scale(0.015625)"/>
     </defs>
     <use xlink:href="#DejaVuSans-38"/>
     <use xlink:href="#DejaVuSans-4b" x="63.623047"/>
     <use xlink:href="#DejaVuSans-20" x="129.199219"/>
     <use xlink:href="#DejaVuSans-20" x="160.986328"/>
     <use xlink:href="#DejaVuSans-53" x="192.773438"/>
     <use xlink:href="#DejaVuSans-65" x="256.25"/>
     <use xlink:href="#DejaVuSans-71" x="317.773438"/>
     <use xlink:href="#DejaVuSans-75" x="381.25"/>
     <use xlink:href="#DejaVuSans-65" x="444.628906"/>
     <use xlink:href="#DejaVuSans-6e" x="506.152344"/>
     <use xlink:href="#DejaVuSans-74" x="569.53125"/>
     <use xlink:href="#DejaVuSans-69" x="608.740234"/>
     <use xlink:href="#DejaVuSans-61" x="636.523438"/>
     <use xlink:href="#DejaVuSans-6c" x="697.802734"/>
     <use xlink:href="#DejaVuSans-20" x="725.585938"/>
     <use xlink:href="#DejaVuSans-57" x="757.373047"/>
     <use xlink:href="#DejaVuSans-72" x="851.75"/>
     <use xlink:href="#DejaVuSans-69" x="892.863281"/>
     <use xlink:href="#DejaVuSans-74" x="920.646484"/>
     <use xlink:href="#DejaVuSans-65" x="959.855469"/>
    </g>
   </g>
   <g id="legend_1">
    <g id="patch_7">
     <path d="M 53.792812 381.753825 
L 384.533437 381.753825 
Q 386.533437 381.753825 386.533437 379.753825 
L 386.533437 322.041325 
Q 386.533437 320.041325 384.533437 320.041325 
L 53.792812 320.041325 
Q 51.792812 320.041325 51.792812 322.041325 
L 51.792812 379.753825 
Q 51.792812 381.753825 53.792812 381.753825 
z
" style="fill: #ffffff; opacity: 0.8; stroke: #cccccc; stroke-linejoin: miter"/>
    </g>
    <g id="line2d_23">
     <path d="M 55.792812 328.139762 
L 65.792812 328.139762 
L 75.792812 328.139762 
" style="fill: none; stroke: #1f77b4; stroke-width: 1.5; stroke-linecap: square"/>
     <g>
      <use xlink:href="#m1713a87654" x="65.792812" y="328.139762" style="fill: #1f77b4; stroke: #1f77b4"/>
     </g>
    </g>
    <g id="text_19">
     <!-- squid-ec-2+2-4k -->
     <g transform="translate(83.792812 331.639762) scale(0.1 -0.1)">
      <defs>
       <path id="DejaVuSans-64" d="M 2906 2969 
L 2906 4863 
L 3481 4863 
L 3481 0 
L 2906 0 
L 2906 525 
Q 2725 213 2448 61 
Q 2172 -91 1784 -91 
Q 1150 -91 751 415 
Q 353 922 353 1747 
Q 353 2572 751 3078 
Q 1150 3584 1784 3584 
Q 2172 3584 2448 3432 
Q 2725 3281 2906 2969 
z
M 947 1747 
Q 947 1113 1208 752 
Q 1469 391 1925 391 
Q 2381 391 2643 752 
Q 2906 1113 2906 1747 
Q 2906 2381 2643 2742 
Q 2381 3103 1925 3103 
Q 1469 3103 1208 2742 
Q 947 2381 947 1747 
z
" transform="scale(0.015625)"/>
       <path id="DejaVuSans-2d" d="M 313 2009 
L 1997 2009 
L 1997 1497 
L 313 1497 
L 313 2009 
z
" transform="scale(0.015625)"/>
       <path id="DejaVuSans-2b" d="M 2944 4013 
L 2944 2272 
L 4684 2272 
L 4684 1741 
L 2944 1741 
L 2944 0 
L 2419 0 
L 2419 1741 
L 678 1741 
L 678 2272 
L 2419 2272 
L 2419 4013 
L 2944 4013 
z
" transform="scale(0.015625)"/>
       <path id="DejaVuSans-6b" d="M 581 4863 
L 1159 4863 
L 1159 1991 
L 2875 3500 
L 3609 3500 
L 1753 1863 
L 3688 0 
L 2938 0 
L 1159 1709 
L 1159 0 
L 581 0 
L 581 4863 
z
" transform="scale(0.015625)"/>
      </defs>
      <use xlink:href="#DejaVuSans-73"/>
      <use xlink:href="#DejaVuSans-71" x="52.099609"/>
      <use xlink:href="#DejaVuSans-75" x="115.576172"/>
      <use xlink:href="#DejaVuSans-69" x="178.955078"/>
      <use xlink:href="#DejaVuSans-64" x="206.738281"/>
      <use xlink:href="#DejaVuSans-2d" x="270.214844"/>
      <use xlink:href="#DejaVuSans-65" x="306.298828"/>
      <use xlink:href="#DejaVuSans-63" x="367.822266"/>
      <use xlink:href="#DejaVuSans-2d" x="422.802734"/>
      <use xlink:href="#DejaVuSans-32" x="458.886719"/>
      <use xlink:href="#DejaVuSans-2b" x="522.509766"/>
      <use xlink:href="#DejaVuSans-32" x="606.298828"/>
      <use xlink:href="#DejaVuSans-2d" x="669.921875"/>
      <use xlink:href="#DejaVuSans-34" x="706.005859"/>
      <use xlink:href="#DejaVuSans-6b" x="769.628906"/>
     </g>
    </g>
    <g id="line2d_24">
     <path d="M 55.792812 342.817887 
L 65.792812 342.817887 
L 75.792812 342.817887 
" style="fill: none; stroke: #ff7f0e; stroke-width: 1.5; stroke-linecap: square"/>
     <g>
      <use xlink:href="#m81dfe0ed49" x="65.792812" y="342.817887" style="fill: #ff7f0e; stroke: #ff7f0e"/>
     </g>
    </g>
    <g id="text_20">
     <!-- squid-ec-4+2-4k -->
     <g transform="translate(83.792812 346.317887) scale(0.1 -0.1)">
      <use xlink:href="#DejaVuSans-73"/>
      <use xlink:href="#DejaVuSans-71" x="52.099609"/>
      <use xlink:href="#DejaVuSans-75" x="115.576172"/>
      <use xlink:href="#DejaVuSans-69" x="178.955078"/>
      <use xlink:href="#DejaVuSans-64" x="206.738281"/>
      <use xlink:href="#DejaVuSans-2d" x="270.214844"/>
      <use xlink:href="#DejaVuSans-65" x="306.298828"/>
      <use xlink:href="#DejaVuSans-63" x="367.822266"/>
      <use xlink:href="#DejaVuSans-2d" x="422.802734"/>
      <use xlink:href="#DejaVuSans-34" x="458.886719"/>
      <use xlink:href="#DejaVuSans-2b" x="522.509766"/>
      <use xlink:href="#DejaVuSans-32" x="606.298828"/>
      <use xlink:href="#DejaVuSans-2d" x="669.921875"/>
      <use xlink:href="#DejaVuSans-34" x="706.005859"/>
      <use xlink:href="#DejaVuSans-6b" x="769.628906"/>
     </g>
    </g>
    <g id="line2d_25">
     <path d="M 55.792812 357.496012 
L 65.792812 357.496012 
L 75.792812 357.496012 
" style="fill: none; stroke: #2ca02c; stroke-width: 1.5; stroke-linecap: square"/>
     <g>
      <use xlink:href="#mdb837a6e72" x="65.792812" y="357.496012" style="fill: #2ca02c; stroke: #2ca02c"/>
     </g>
    </g>
    <g id="text_21">
     <!-- squid-ec-6+2-4k -->
     <g transform="translate(83.792812 360.996012) scale(0.1 -0.1)">
      <use xlink:href="#DejaVuSans-73"/>
      <use xlink:href="#DejaVuSans-71" x="52.099609"/>
      <use xlink:href="#DejaVuSans-75" x="115.576172"/>
      <use xlink:href="#DejaVuSans-69" x="178.955078"/>
      <use xlink:href="#DejaVuSans-64" x="206.738281"/>
      <use xlink:href="#DejaVuSans-2d" x="270.214844"/>
      <use xlink:href="#DejaVuSans-65" x="306.298828"/>
      <use xlink:href="#DejaVuSans-63" x="367.822266"/>
      <use xlink:href="#DejaVuSans-2d" x="422.802734"/>
      <use xlink:href="#DejaVuSans-36" x="458.886719"/>
      <use xlink:href="#DejaVuSans-2b" x="522.509766"/>
      <use xlink:href="#DejaVuSans-32" x="606.298828"/>
      <use xlink:href="#DejaVuSans-2d" x="669.921875"/>
      <use xlink:href="#DejaVuSans-34" x="706.005859"/>
      <use xlink:href="#DejaVuSans-6b" x="769.628906"/>
     </g>
    </g>
    <g id="line2d_26">
     <path d="M 55.792812 372.174137 
L 65.792812 372.174137 
L 75.792812 372.174137 
" style="fill: none; stroke: #d62728; stroke-width: 1.5; stroke-linecap: square"/>
     <g>
      <use xlink:href="#mbd524ec7cd" x="65.792812" y="372.174137" style="fill: #d62728; stroke: #d62728"/>
     </g>
    </g>
    <g id="text_22">
     <!-- tentacle-fast-ec-2+2-16k -->
     <g transform="translate(83.792812 375.674137) scale(0.1 -0.1)">
      <defs>
       <path id="DejaVuSans-66" d="M 2375 4863 
L 2375 4384 
L 1825 4384 
Q 1516 4384 1395 4259 
Q 1275 4134 1275 3809 
L 1275 3500 
L 2222 3500 
L 2222 3053 
L 1275 3053 
L 1275 0 
L 697 0 
L 697 3053 
L 147 3053 
L 147 3500 
L 697 3500 
L 697 3744 
Q 697 4328 969 4595 
Q 1241 4863 1831 4863 
L 2375 4863 
z
" transform="scale(0.015625)"/>
      </defs>
      <use xlink:href="#DejaVuSans-74"/>
      <use xlink:href="#DejaVuSans-65" x="39.208984"/>
      <use xlink:href="#DejaVuSans-6e" x="100.732422"/>
      <use xlink:href="#DejaVuSans-74" x="164.111328"/>
      <use xlink:href="#DejaVuSans-61" x="203.320312"/>
      <use xlink:href="#DejaVuSans-63" x="264.599609"/>
      <use xlink:href="#DejaVuSans-6c" x="319.580078"/>
      <use xlink:href="#DejaVuSans-65" x="347.363281"/>
      <use xlink:href="#DejaVuSans-2d" x="408.886719"/>
      <use xlink:href="#DejaVuSans-66" x="444.970703"/>
      <use xlink:href="#DejaVuSans-61" x="480.175781"/>
      <use xlink:href="#DejaVuSans-73" x="541.455078"/>
      <use xlink:href="#DejaVuSans-74" x="593.554688"/>
      <use xlink:href="#DejaVuSans-2d" x="632.763672"/>
      <use xlink:href="#DejaVuSans-65" x="668.847656"/>
      <use xlink:href="#DejaVuSans-63" x="730.371094"/>
      <use xlink:href="#DejaVuSans-2d" x="785.351562"/>
      <use xlink:href="#DejaVuSans-32" x="821.435547"/>
      <use xlink:href="#DejaVuSans-2b" x="885.058594"/>
      <use xlink:href="#DejaVuSans-32" x="968.847656"/>
      <use xlink:href="#DejaVuSans-2d" x="1032.470703"/>
      <use xlink:href="#DejaVuSans-31" x="1068.554688"/>
      <use xlink:href="#DejaVuSans-36" x="1132.177734"/>
      <use xlink:href="#DejaVuSans-6b" x="1195.800781"/>
     </g>
    </g>
    <g id="line2d_27">
     <path d="M 229.163125 328.139762 
L 239.163125 328.139762 
L 249.163125 328.139762 
" style="fill: none; stroke: #9467bd; stroke-width: 1.5; stroke-linecap: square"/>
     <g>
      <use xlink:href="#mcb0163f1fb" x="239.163125" y="328.139762" style="fill: #9467bd; stroke: #9467bd"/>
     </g>
    </g>
    <g id="text_23">
     <!-- tentacle-fast-ec-4+2-16k -->
     <g transform="translate(257.163125 331.639762) scale(0.1 -0.1)">
      <use xlink:href="#DejaVuSans-74"/>
      <use xlink:href="#DejaVuSans-65" x="39.208984"/>
      <use xlink:href="#DejaVuSans-6e" x="100.732422"/>
      <use xlink:href="#DejaVuSans-74" x="164.111328"/>
      <use xlink:href="#DejaVuSans-61" x="203.320312"/>
      <use xlink:href="#DejaVuSans-63" x="264.599609"/>
      <use xlink:href="#DejaVuSans-6c" x="319.580078"/>
      <use xlink:href="#DejaVuSans-65" x="347.363281"/>
      <use xlink:href="#DejaVuSans-2d" x="408.886719"/>
      <use xlink:href="#DejaVuSans-66" x="444.970703"/>
      <use xlink:href="#DejaVuSans-61" x="480.175781"/>
      <use xlink:href="#DejaVuSans-73" x="541.455078"/>
      <use xlink:href="#DejaVuSans-74" x="593.554688"/>
      <use xlink:href="#DejaVuSans-2d" x="632.763672"/>
      <use xlink:href="#DejaVuSans-65" x="668.847656"/>
      <use xlink:href="#DejaVuSans-63" x="730.371094"/>
      <use xlink:href="#DejaVuSans-2d" x="785.351562"/>
      <use xlink:href="#DejaVuSans-34" x="821.435547"/>
      <use xlink:href="#DejaVuSans-2b" x="885.058594"/>
      <use xlink:href="#DejaVuSans-32" x="968.847656"/>
      <use xlink:href="#DejaVuSans-2d" x="1032.470703"/>
      <use xlink:href="#DejaVuSans-31" x="1068.554688"/>
      <use xlink:href="#DejaVuSans-36" x="1132.177734"/>
      <use xlink:href="#DejaVuSans-6b" x="1195.800781"/>
     </g>
    </g>
    <g id="line2d_28">
     <path d="M 229.163125 342.817887 
L 239.163125 342.817887 
L 249.163125 342.817887 
" style="fill: none; stroke: #8c564b; stroke-width: 1.5; stroke-linecap: square"/>
     <g>
      <use xlink:href="#mfa792efe7e" x="239.163125" y="342.817887" style="fill: #8c564b; stroke: #8c564b"/>
     </g>
    </g>
    <g id="text_24">
     <!-- tentacle-fast-ec-6+2-16k -->
     <g transform="translate(257.163125 346.317887) scale(0.1 -0.1)">
      <use xlink:href="#DejaVuSans-74"/>
      <use xlink:href="#DejaVuSans-65" x="39.208984"/>
      <use xlink:href="#DejaVuSans-6e" x="100.732422"/>
      <use xlink:href="#DejaVuSans-74" x="164.111328"/>
      <use xlink:href="#DejaVuSans-61" x="203.320312"/>
      <use xlink:href="#DejaVuSans-63" x="264.599609"/>
      <use xlink:href="#DejaVuSans-6c" x="319.580078"/>
      <use xlink:href="#DejaVuSans-65" x="347.363281"/>
      <use xlink:href="#DejaVuSans-2d" x="408.886719"/>
      <use xlink:href="#DejaVuSans-66" x="444.970703"/>
      <use xlink:href="#DejaVuSans-61" x="480.175781"/>
      <use xlink:href="#DejaVuSans-73" x="541.455078"/>
      <use xlink:href="#DejaVuSans-74" x="593.554688"/>
      <use xlink:href="#DejaVuSans-2d" x="632.763672"/>
      <use xlink:href="#DejaVuSans-65" x="668.847656"/>
      <use xlink:href="#DejaVuSans-63" x="730.371094"/>
      <use xlink:href="#DejaVuSans-2d" x="785.351562"/>
      <use xlink:href="#DejaVuSans-36" x="821.435547"/>
      <use xlink:href="#DejaVuSans-2b" x="885.058594"/>
      <use xlink:href="#DejaVuSans-32" x="968.847656"/>
      <use xlink:href="#DejaVuSans-2d" x="1032.470703"/>
      <use xlink:href="#DejaVuSans-31" x="1068.554688"/>
      <use xlink:href="#DejaVuSans-36" x="1132.177734"/>
      <use xlink:href="#DejaVuSans-6b" x="1195.800781"/>
     </g>
    </g>
    <g id="line2d_29">
     <path d="M 229.163125 357.496012 
L 239.163125 357.496012 
L 249.163125 357.496012 
" style="fill: none; stroke: #e377c2; stroke-width: 1.5; stroke-linecap: square"/>
     <g>
      <use xlink:href="#mfc650d10db" x="239.163125" y="357.496012" style="fill: #e377c2; stroke: #e377c2"/>
     </g>
    </g>
    <g id="text_25">
     <!-- tentacle-3way-replica -->
     <g transform="translate(257.163125 360.996012) scale(0.1 -0.1)">
      <defs>
       <path id="DejaVuSans-77" d="M 269 3500 
L 844 3500 
L 1563 769 
L 2278 3500 
L 2956 3500 
L 3675 769 
L 4391 3500 
L 4966 3500 
L 4050 0 
L 3372 0 
L 2619 2869 
L 1863 0 
L 1184 0 
L 269 3500 
z
" transform="scale(0.015625)"/>
      </defs>
      <use xlink:href="#DejaVuSans-74"/>
      <use xlink:href="#DejaVuSans-65" x="39.208984"/>
      <use xlink:href="#DejaVuSans-6e" x="100.732422"/>
      <use xlink:href="#DejaVuSans-74" x="164.111328"/>
      <use xlink:href="#DejaVuSans-61" x="203.320312"/>
      <use xlink:href="#DejaVuSans-63" x="264.599609"/>
      <use xlink:href="#DejaVuSans-6c" x="319.580078"/>
      <use xlink:href="#DejaVuSans-65" x="347.363281"/>
      <use xlink:href="#DejaVuSans-2d" x="408.886719"/>
      <use xlink:href="#DejaVuSans-33" x="444.970703"/>
      <use xlink:href="#DejaVuSans-77" x="508.59375"/>
      <use xlink:href="#DejaVuSans-61" x="590.380859"/>
      <use xlink:href="#DejaVuSans-79" x="651.660156"/>
      <use xlink:href="#DejaVuSans-2d" x="709.089844"/>
      <use xlink:href="#DejaVuSans-72" x="745.173828"/>
      <use xlink:href="#DejaVuSans-65" x="784.037109"/>
      <use xlink:href="#DejaVuSans-70" x="845.560547"/>
      <use xlink:href="#DejaVuSans-6c" x="909.037109"/>
      <use xlink:href="#DejaVuSans-69" x="936.820312"/>
      <use xlink:href="#DejaVuSans-63" x="964.603516"/>
      <use xlink:href="#DejaVuSans-61" x="1019.583984"/>
     </g>
    </g>
   </g>
  </g>
 </g>
 <defs>
  <clipPath id="p4dff6277aa">
   <rect x="40.603125" y="22.318125" width="357.12" height="266.112"/>
  </clipPath>
 </defs>
</svg>
