<?xml version="1.0" encoding="utf-8" standalone="no"?>
<!DOCTYPE svg PUBLIC "-//W3C//DTD SVG 1.1//EN"
  "http://www.w3.org/Graphics/SVG/1.1/DTD/svg11.dtd">
<svg xmlns:xlink="http://www.w3.org/1999/xlink" width="442.103125pt" height="359.597575pt" viewBox="0 0 442.103125 359.597575" xmlns="http://www.w3.org/2000/svg" version="1.1">
 <metadata>
  <rdf:RDF xmlns:dc="http://purl.org/dc/elements/1.1/" xmlns:cc="http://creativecommons.org/ns#" xmlns:rdf="http://www.w3.org/1999/02/22-rdf-syntax-ns#">
   <cc:Work>
    <dc:type rdf:resource="http://purl.org/dc/dcmitype/StillImage"/>
    <dc:date>2025-10-08T09:29:42.828232</dc:date>
    <dc:format>image/svg+xml</dc:format>
    <dc:creator>
     <cc:Agent>
      <dc:title>Matplotlib v3.9.4, https://matplotlib.org/</dc:title>
     </cc:Agent>
    </dc:creator>
   </cc:Work>
  </rdf:RDF>
 </metadata>
 <defs>
  <style type="text/css">*{stroke-linejoin: round; stroke-linecap: butt}</style>
 </defs>
 <g id="figure_1">
  <g id="patch_1">
   <path d="M 0 359.597575 
L 442.103125 359.597575 
L 442.103125 0 
L 0 0 
z
" style="fill: #ffffff"/>
  </g>
  <g id="axes_1">
   <g id="patch_2">
    <path d="M 42.491563 288.430125 
L 399.611563 288.430125 
L 399.611563 22.318125 
L 42.491563 22.318125 
z
" style="fill: #ffffff"/>
   </g>
   <g id="matplotlib.axis_1">
    <g id="xtick_1">
     <g id="line2d_1">
      <defs>
       <path id="mb80175ecd5" d="M 0 0 
L 0 3.5 
" style="stroke: #000000; stroke-width: 0.8"/>
      </defs>
      <g>
       <use xlink:href="#mb80175ecd5" x="42.491563" y="288.430125" style="stroke: #000000; stroke-width: 0.8"/>
      </g>
     </g>
     <g id="text_1">
      <!-- 0 -->
      <g transform="translate(39.310313 303.028562) scale(0.1 -0.1)">
       <defs>
        <path id="DejaVuSans-30" d="M 2034 4250 
Q 1547 4250 1301 3770 
Q 1056 3291 1056 2328 
Q 1056 1369 1301 889 
Q 1547 409 2034 409 
Q 2525 409 2770 889 
Q 3016 1369 3016 2328 
Q 3016 3291 2770 3770 
Q 2525 4250 2034 4250 
z
M 2034 4750 
Q 2819 4750 3233 4129 
Q 3647 3509 3647 2328 
Q 3647 1150 3233 529 
Q 2819 -91 2034 -91 
Q 1250 -91 836 529 
Q 422 1150 422 2328 
Q 422 3509 836 4129 
Q 1250 4750 2034 4750 
z
" transform="scale(0.015625)"/>
       </defs>
       <use xlink:href="#DejaVuSans-30"/>
      </g>
     </g>
    </g>
    <g id="xtick_2">
     <g id="line2d_2">
      <g>
       <use xlink:href="#mb80175ecd5" x="115.675774" y="288.430125" style="stroke: #000000; stroke-width: 0.8"/>
      </g>
     </g>
     <g id="text_2">
      <!-- 20000 -->
      <g transform="translate(99.769524 303.028562) scale(0.1 -0.1)">
       <defs>
        <path id="DejaVuSans-32" d="M 1228 531 
L 3431 531 
L 3431 0 
L 469 0 
L 469 531 
Q 828 903 1448 1529 
Q 2069 2156 2228 2338 
Q 2531 2678 2651 2914 
Q 2772 3150 2772 3378 
Q 2772 3750 2511 3984 
Q 2250 4219 1831 4219 
Q 1534 4219 1204 4116 
Q 875 4013 500 3803 
L 500 4441 
Q 881 4594 1212 4672 
Q 1544 4750 1819 4750 
Q 2544 4750 2975 4387 
Q 3406 4025 3406 3419 
Q 3406 3131 3298 2873 
Q 3191 2616 2906 2266 
Q 2828 2175 2409 1742 
Q 1991 1309 1228 531 
z
" transform="scale(0.015625)"/>
       </defs>
       <use xlink:href="#DejaVuSans-32"/>
       <use xlink:href="#DejaVuSans-30" x="63.623047"/>
       <use xlink:href="#DejaVuSans-30" x="127.246094"/>
       <use xlink:href="#DejaVuSans-30" x="190.869141"/>
       <use xlink:href="#DejaVuSans-30" x="254.492188"/>
      </g>
     </g>
    </g>
    <g id="xtick_3">
     <g id="line2d_3">
      <g>
       <use xlink:href="#mb80175ecd5" x="188.859985" y="288.430125" style="stroke: #000000; stroke-width: 0.8"/>
      </g>
     </g>
     <g id="text_3">
      <!-- 40000 -->
      <g transform="translate(172.953735 303.028562) scale(0.1 -0.1)">
       <defs>
        <path id="DejaVuSans-34" d="M 2419 4116 
L 825 1625 
L 2419 1625 
L 2419 4116 
z
M 2253 4666 
L 3047 4666 
L 3047 1625 
L 3713 1625 
L 3713 1100 
L 3047 1100 
L 3047 0 
L 2419 0 
L 2419 1100 
L 313 1100 
L 313 1709 
L 2253 4666 
z
" transform="scale(0.015625)"/>
       </defs>
       <use xlink:href="#DejaVuSans-34"/>
       <use xlink:href="#DejaVuSans-30" x="63.623047"/>
       <use xlink:href="#DejaVuSans-30" x="127.246094"/>
       <use xlink:href="#DejaVuSans-30" x="190.869141"/>
       <use xlink:href="#DejaVuSans-30" x="254.492188"/>
      </g>
     </g>
    </g>
    <g id="xtick_4">
     <g id="line2d_4">
      <g>
       <use xlink:href="#mb80175ecd5" x="262.044196" y="288.430125" style="stroke: #000000; stroke-width: 0.8"/>
      </g>
     </g>
     <g id="text_4">
      <!-- 60000 -->
      <g transform="translate(246.137946 303.028562) scale(0.1 -0.1)">
       <defs>
        <path id="DejaVuSans-36" d="M 2113 2584 
Q 1688 2584 1439 2293 
Q 1191 2003 1191 1497 
Q 1191 994 1439 701 
Q 1688 409 2113 409 
Q 2538 409 2786 701 
Q 3034 994 3034 1497 
Q 3034 2003 2786 2293 
Q 2538 2584 2113 2584 
z
M 3366 4563 
L 3366 3988 
Q 3128 4100 2886 4159 
Q 2644 4219 2406 4219 
Q 1781 4219 1451 3797 
Q 1122 3375 1075 2522 
Q 1259 2794 1537 2939 
Q 1816 3084 2150 3084 
Q 2853 3084 3261 2657 
Q 3669 2231 3669 1497 
Q 3669 778 3244 343 
Q 2819 -91 2113 -91 
Q 1303 -91 875 529 
Q 447 1150 447 2328 
Q 447 3434 972 4092 
Q 1497 4750 2381 4750 
Q 2619 4750 2861 4703 
Q 3103 4656 3366 4563 
z
" transform="scale(0.015625)"/>
       </defs>
       <use xlink:href="#DejaVuSans-36"/>
       <use xlink:href="#DejaVuSans-30" x="63.623047"/>
       <use xlink:href="#DejaVuSans-30" x="127.246094"/>
       <use xlink:href="#DejaVuSans-30" x="190.869141"/>
       <use xlink:href="#DejaVuSans-30" x="254.492188"/>
      </g>
     </g>
    </g>
    <g id="xtick_5">
     <g id="line2d_5">
      <g>
       <use xlink:href="#mb80175ecd5" x="335.228407" y="288.430125" style="stroke: #000000; stroke-width: 0.8"/>
      </g>
     </g>
     <g id="text_5">
      <!-- 80000 -->
      <g transform="translate(319.322157 303.028562) scale(0.1 -0.1)">
       <defs>
        <path id="DejaVuSans-38" d="M 2034 2216 
Q 1584 2216 1326 1975 
Q 1069 1734 1069 1313 
Q 1069 891 1326 650 
Q 1584 409 2034 409 
Q 2484 409 2743 651 
Q 3003 894 3003 1313 
Q 3003 1734 2745 1975 
Q 2488 2216 2034 2216 
z
M 1403 2484 
Q 997 2584 770 2862 
Q 544 3141 544 3541 
Q 544 4100 942 4425 
Q 1341 4750 2034 4750 
Q 2731 4750 3128 4425 
Q 3525 4100 3525 3541 
Q 3525 3141 3298 2862 
Q 3072 2584 2669 2484 
Q 3125 2378 3379 2068 
Q 3634 1759 3634 1313 
Q 3634 634 3220 271 
Q 2806 -91 2034 -91 
Q 1263 -91 848 271 
Q 434 634 434 1313 
Q 434 1759 690 2068 
Q 947 2378 1403 2484 
z
M 1172 3481 
Q 1172 3119 1398 2916 
Q 1625 2713 2034 2713 
Q 2441 2713 2670 2916 
Q 2900 3119 2900 3481 
Q 2900 3844 2670 4047 
Q 2441 4250 2034 4250 
Q 1625 4250 1398 4047 
Q 1172 3844 1172 3481 
z
" transform="scale(0.015625)"/>
       </defs>
       <use xlink:href="#DejaVuSans-38"/>
       <use xlink:href="#DejaVuSans-30" x="63.623047"/>
       <use xlink:href="#DejaVuSans-30" x="127.246094"/>
       <use xlink:href="#DejaVuSans-30" x="190.869141"/>
       <use xlink:href="#DejaVuSans-30" x="254.492188"/>
      </g>
     </g>
    </g>
    <g id="text_6">
     <!-- IOps -->
     <g transform="translate(209.861719 316.706687) scale(0.1 -0.1)">
      <defs>
       <path id="DejaVuSans-49" d="M 628 4666 
L 1259 4666 
L 1259 0 
L 628 0 
L 628 4666 
z
" transform="scale(0.015625)"/>
       <path id="DejaVuSans-4f" d="M 2522 4238 
Q 1834 4238 1429 3725 
Q 1025 3213 1025 2328 
Q 1025 1447 1429 934 
Q 1834 422 2522 422 
Q 3209 422 3611 934 
Q 4013 1447 4013 2328 
Q 4013 3213 3611 3725 
Q 3209 4238 2522 4238 
z
M 2522 4750 
Q 3503 4750 4090 4092 
Q 4678 3434 4678 2328 
Q 4678 1225 4090 567 
Q 3503 -91 2522 -91 
Q 1538 -91 948 565 
Q 359 1222 359 2328 
Q 359 3434 948 4092 
Q 1538 4750 2522 4750 
z
" transform="scale(0.015625)"/>
       <path id="DejaVuSans-70" d="M 1159 525 
L 1159 -1331 
L 581 -1331 
L 581 3500 
L 1159 3500 
L 1159 2969 
Q 1341 3281 1617 3432 
Q 1894 3584 2278 3584 
Q 2916 3584 3314 3078 
Q 3713 2572 3713 1747 
Q 3713 922 3314 415 
Q 2916 -91 2278 -91 
Q 1894 -91 1617 61 
Q 1341 213 1159 525 
z
M 3116 1747 
Q 3116 2381 2855 2742 
Q 2594 3103 2138 3103 
Q 1681 3103 1420 2742 
Q 1159 2381 1159 1747 
Q 1159 1113 1420 752 
Q 1681 391 2138 391 
Q 2594 391 2855 752 
Q 3116 1113 3116 1747 
z
" transform="scale(0.015625)"/>
       <path id="DejaVuSans-73" d="M 2834 3397 
L 2834 2853 
Q 2591 2978 2328 3040 
Q 2066 3103 1784 3103 
Q 1356 3103 1142 2972 
Q 928 2841 928 2578 
Q 928 2378 1081 2264 
Q 1234 2150 1697 2047 
L 1894 2003 
Q 2506 1872 2764 1633 
Q 3022 1394 3022 966 
Q 3022 478 2636 193 
Q 2250 -91 1575 -91 
Q 1294 -91 989 -36 
Q 684 19 347 128 
L 347 722 
Q 666 556 975 473 
Q 1284 391 1588 391 
Q 1994 391 2212 530 
Q 2431 669 2431 922 
Q 2431 1156 2273 1281 
Q 2116 1406 1581 1522 
L 1381 1569 
Q 847 1681 609 1914 
Q 372 2147 372 2553 
Q 372 3047 722 3315 
Q 1072 3584 1716 3584 
Q 2034 3584 2315 3537 
Q 2597 3491 2834 3397 
z
" transform="scale(0.015625)"/>
      </defs>
      <use xlink:href="#DejaVuSans-49"/>
      <use xlink:href="#DejaVuSans-4f" x="29.492188"/>
      <use xlink:href="#DejaVuSans-70" x="108.203125"/>
      <use xlink:href="#DejaVuSans-73" x="171.679688"/>
     </g>
    </g>
   </g>
   <g id="matplotlib.axis_2">
    <g id="ytick_1">
     <g id="line2d_6">
      <defs>
       <path id="m8bd3340876" d="M 0 0 
L -3.5 0 
" style="stroke: #000000; stroke-width: 0.8"/>
      </defs>
      <g>
       <use xlink:href="#m8bd3340876" x="42.491563" y="288.430125" style="stroke: #000000; stroke-width: 0.8"/>
      </g>
     </g>
     <g id="text_7">
      <!-- 0 -->
      <g transform="translate(29.129062 292.229344) scale(0.1 -0.1)">
       <use xlink:href="#DejaVuSans-30"/>
      </g>
     </g>
    </g>
    <g id="ytick_2">
     <g id="line2d_7">
      <g>
       <use xlink:href="#m8bd3340876" x="42.491563" y="242.301139" style="stroke: #000000; stroke-width: 0.8"/>
      </g>
     </g>
     <g id="text_8">
      <!-- 2 -->
      <g transform="translate(29.129062 246.100357) scale(0.1 -0.1)">
       <use xlink:href="#DejaVuSans-32"/>
      </g>
     </g>
    </g>
    <g id="ytick_3">
     <g id="line2d_8">
      <g>
       <use xlink:href="#m8bd3340876" x="42.491563" y="196.172152" style="stroke: #000000; stroke-width: 0.8"/>
      </g>
     </g>
     <g id="text_9">
      <!-- 4 -->
      <g transform="translate(29.129062 199.971371) scale(0.1 -0.1)">
       <use xlink:href="#DejaVuSans-34"/>
      </g>
     </g>
    </g>
    <g id="ytick_4">
     <g id="line2d_9">
      <g>
       <use xlink:href="#m8bd3340876" x="42.491563" y="150.043166" style="stroke: #000000; stroke-width: 0.8"/>
      </g>
     </g>
     <g id="text_10">
      <!-- 6 -->
      <g transform="translate(29.129062 153.842384) scale(0.1 -0.1)">
       <use xlink:href="#DejaVuSans-36"/>
      </g>
     </g>
    </g>
    <g id="ytick_5">
     <g id="line2d_10">
      <g>
       <use xlink:href="#m8bd3340876" x="42.491563" y="103.914179" style="stroke: #000000; stroke-width: 0.8"/>
      </g>
     </g>
     <g id="text_11">
      <!-- 8 -->
      <g transform="translate(29.129062 107.713398) scale(0.1 -0.1)">
       <use xlink:href="#DejaVuSans-38"/>
      </g>
     </g>
    </g>
    <g id="ytick_6">
     <g id="line2d_11">
      <g>
       <use xlink:href="#m8bd3340876" x="42.491563" y="57.785193" style="stroke: #000000; stroke-width: 0.8"/>
      </g>
     </g>
     <g id="text_12">
      <!-- 10 -->
      <g transform="translate(22.766562 61.584411) scale(0.1 -0.1)">
       <defs>
        <path id="DejaVuSans-31" d="M 794 531 
L 1825 531 
L 1825 4091 
L 703 3866 
L 703 4441 
L 1819 4666 
L 2450 4666 
L 2450 531 
L 3481 531 
L 3481 0 
L 794 0 
L 794 531 
z
" transform="scale(0.015625)"/>
       </defs>
       <use xlink:href="#DejaVuSans-31"/>
       <use xlink:href="#DejaVuSans-30" x="63.623047"/>
      </g>
     </g>
    </g>
    <g id="text_13">
     <!-- Latency (ms) -->
     <g transform="translate(16.686875 188.103812) rotate(-90) scale(0.1 -0.1)">
      <defs>
       <path id="DejaVuSans-4c" d="M 628 4666 
L 1259 4666 
L 1259 531 
L 3531 531 
L 3531 0 
L 628 0 
L 628 4666 
z
" transform="scale(0.015625)"/>
       <path id="DejaVuSans-61" d="M 2194 1759 
Q 1497 1759 1228 1600 
Q 959 1441 959 1056 
Q 959 750 1161 570 
Q 1363 391 1709 391 
Q 2188 391 2477 730 
Q 2766 1069 2766 1631 
L 2766 1759 
L 2194 1759 
z
M 3341 1997 
L 3341 0 
L 2766 0 
L 2766 531 
Q 2569 213 2275 61 
Q 1981 -91 1556 -91 
Q 1019 -91 701 211 
Q 384 513 384 1019 
Q 384 1609 779 1909 
Q 1175 2209 1959 2209 
L 2766 2209 
L 2766 2266 
Q 2766 2663 2505 2880 
Q 2244 3097 1772 3097 
Q 1472 3097 1187 3025 
Q 903 2953 641 2809 
L 641 3341 
Q 956 3463 1253 3523 
Q 1550 3584 1831 3584 
Q 2591 3584 2966 3190 
Q 3341 2797 3341 1997 
z
" transform="scale(0.015625)"/>
       <path id="DejaVuSans-74" d="M 1172 4494 
L 1172 3500 
L 2356 3500 
L 2356 3053 
L 1172 3053 
L 1172 1153 
Q 1172 725 1289 603 
Q 1406 481 1766 481 
L 2356 481 
L 2356 0 
L 1766 0 
Q 1100 0 847 248 
Q 594 497 594 1153 
L 594 3053 
L 172 3053 
L 172 3500 
L 594 3500 
L 594 4494 
L 1172 4494 
z
" transform="scale(0.015625)"/>
       <path id="DejaVuSans-65" d="M 3597 1894 
L 3597 1613 
L 953 1613 
Q 991 1019 1311 708 
Q 1631 397 2203 397 
Q 2534 397 2845 478 
Q 3156 559 3463 722 
L 3463 178 
Q 3153 47 2828 -22 
Q 2503 -91 2169 -91 
Q 1331 -91 842 396 
Q 353 884 353 1716 
Q 353 2575 817 3079 
Q 1281 3584 2069 3584 
Q 2775 3584 3186 3129 
Q 3597 2675 3597 1894 
z
M 3022 2063 
Q 3016 2534 2758 2815 
Q 2500 3097 2075 3097 
Q 1594 3097 1305 2825 
Q 1016 2553 972 2059 
L 3022 2063 
z
" transform="scale(0.015625)"/>
       <path id="DejaVuSans-6e" d="M 3513 2113 
L 3513 0 
L 2938 0 
L 2938 2094 
Q 2938 2591 2744 2837 
Q 2550 3084 2163 3084 
Q 1697 3084 1428 2787 
Q 1159 2491 1159 1978 
L 1159 0 
L 581 0 
L 581 3500 
L 1159 3500 
L 1159 2956 
Q 1366 3272 1645 3428 
Q 1925 3584 2291 3584 
Q 2894 3584 3203 3211 
Q 3513 2838 3513 2113 
z
" transform="scale(0.015625)"/>
       <path id="DejaVuSans-63" d="M 3122 3366 
L 3122 2828 
Q 2878 2963 2633 3030 
Q 2388 3097 2138 3097 
Q 1578 3097 1268 2742 
Q 959 2388 959 1747 
Q 959 1106 1268 751 
Q 1578 397 2138 397 
Q 2388 397 2633 464 
Q 2878 531 3122 666 
L 3122 134 
Q 2881 22 2623 -34 
Q 2366 -91 2075 -91 
Q 1284 -91 818 406 
Q 353 903 353 1747 
Q 353 2603 823 3093 
Q 1294 3584 2113 3584 
Q 2378 3584 2631 3529 
Q 2884 3475 3122 3366 
z
" transform="scale(0.015625)"/>
       <path id="DejaVuSans-79" d="M 2059 -325 
Q 1816 -950 1584 -1140 
Q 1353 -1331 966 -1331 
L 506 -1331 
L 506 -850 
L 844 -850 
Q 1081 -850 1212 -737 
Q 1344 -625 1503 -206 
L 1606 56 
L 191 3500 
L 800 3500 
L 1894 763 
L 2988 3500 
L 3597 3500 
L 2059 -325 
z
" transform="scale(0.015625)"/>
       <path id="DejaVuSans-20" transform="scale(0.015625)"/>
       <path id="DejaVuSans-28" d="M 1984 4856 
Q 1566 4138 1362 3434 
Q 1159 2731 1159 2009 
Q 1159 1288 1364 580 
Q 1569 -128 1984 -844 
L 1484 -844 
Q 1016 -109 783 600 
Q 550 1309 550 2009 
Q 550 2706 781 3412 
Q 1013 4119 1484 4856 
L 1984 4856 
z
" transform="scale(0.015625)"/>
       <path id="DejaVuSans-6d" d="M 3328 2828 
Q 3544 3216 3844 3400 
Q 4144 3584 4550 3584 
Q 5097 3584 5394 3201 
Q 5691 2819 5691 2113 
L 5691 0 
L 5113 0 
L 5113 2094 
Q 5113 2597 4934 2840 
Q 4756 3084 4391 3084 
Q 3944 3084 3684 2787 
Q 3425 2491 3425 1978 
L 3425 0 
L 2847 0 
L 2847 2094 
Q 2847 2600 2669 2842 
Q 2491 3084 2119 3084 
Q 1678 3084 1418 2786 
Q 1159 2488 1159 1978 
L 1159 0 
L 581 0 
L 581 3500 
L 1159 3500 
L 1159 2956 
Q 1356 3278 1631 3431 
Q 1906 3584 2284 3584 
Q 2666 3584 2933 3390 
Q 3200 3197 3328 2828 
z
" transform="scale(0.015625)"/>
       <path id="DejaVuSans-29" d="M 513 4856 
L 1013 4856 
Q 1481 4119 1714 3412 
Q 1947 2706 1947 2009 
Q 1947 1309 1714 600 
Q 1481 -109 1013 -844 
L 513 -844 
Q 928 -128 1133 580 
Q 1338 1288 1338 2009 
Q 1338 2731 1133 3434 
Q 928 4138 513 4856 
z
" transform="scale(0.015625)"/>
      </defs>
      <use xlink:href="#DejaVuSans-4c"/>
      <use xlink:href="#DejaVuSans-61" x="55.712891"/>
      <use xlink:href="#DejaVuSans-74" x="116.992188"/>
      <use xlink:href="#DejaVuSans-65" x="156.201172"/>
      <use xlink:href="#DejaVuSans-6e" x="217.724609"/>
      <use xlink:href="#DejaVuSans-63" x="281.103516"/>
      <use xlink:href="#DejaVuSans-79" x="336.083984"/>
      <use xlink:href="#DejaVuSans-20" x="395.263672"/>
      <use xlink:href="#DejaVuSans-28" x="427.050781"/>
      <use xlink:href="#DejaVuSans-6d" x="466.064453"/>
      <use xlink:href="#DejaVuSans-73" x="563.476562"/>
      <use xlink:href="#DejaVuSans-29" x="615.576172"/>
     </g>
    </g>
   </g>
   <g id="line2d_12">
    <path d="M 44.544636 206.568097 
L 46.501366 204.583978 
L 50.181738 201.001606 
L 55.988414 188.784923 
L 62.935081 156.716744 
L 78.945056 140.578241 
L 93.870398 131.031898 
L 104.157758 113.547222 
L 153.163438 93.535574 
L 196.60213 78.489431 
L 233.996677 63.165493 
L 297.316882 34.472825 
" clip-path="url(#p75764f276e)" style="fill: none; stroke: #1f77b4; stroke-width: 1.5; stroke-linecap: square"/>
    <defs>
     <path id="m0cbc121afb" d="M -3 0 
L 3 0 
M 0 3 
L 0 -3 
" style="stroke: #1f77b4"/>
    </defs>
    <g clip-path="url(#p75764f276e)">
     <use xlink:href="#m0cbc121afb" x="44.544636" y="206.568097" style="fill: #1f77b4; stroke: #1f77b4"/>
     <use xlink:href="#m0cbc121afb" x="46.501366" y="204.583978" style="fill: #1f77b4; stroke: #1f77b4"/>
     <use xlink:href="#m0cbc121afb" x="50.181738" y="201.001606" style="fill: #1f77b4; stroke: #1f77b4"/>
     <use xlink:href="#m0cbc121afb" x="55.988414" y="188.784923" style="fill: #1f77b4; stroke: #1f77b4"/>
     <use xlink:href="#m0cbc121afb" x="62.935081" y="156.716744" style="fill: #1f77b4; stroke: #1f77b4"/>
     <use xlink:href="#m0cbc121afb" x="78.945056" y="140.578241" style="fill: #1f77b4; stroke: #1f77b4"/>
     <use xlink:href="#m0cbc121afb" x="93.870398" y="131.031898" style="fill: #1f77b4; stroke: #1f77b4"/>
     <use xlink:href="#m0cbc121afb" x="104.157758" y="113.547222" style="fill: #1f77b4; stroke: #1f77b4"/>
     <use xlink:href="#m0cbc121afb" x="153.163438" y="93.535574" style="fill: #1f77b4; stroke: #1f77b4"/>
     <use xlink:href="#m0cbc121afb" x="196.60213" y="78.489431" style="fill: #1f77b4; stroke: #1f77b4"/>
     <use xlink:href="#m0cbc121afb" x="233.996677" y="63.165493" style="fill: #1f77b4; stroke: #1f77b4"/>
     <use xlink:href="#m0cbc121afb" x="297.316882" y="34.472825" style="fill: #1f77b4; stroke: #1f77b4"/>
    </g>
   </g>
   <g id="line2d_13">
    <path d="M 57.772215 277.566821 
L 69.256154 276.027005 
L 86.211772 273.251683 
L 107.039437 267.863721 
L 126.793313 256.737057 
L 180.879794 249.686031 
L 218.130944 242.581362 
L 245.624984 235.535627 
L 310.701839 208.212261 
L 344.355825 181.441604 
L 366.883793 155.622379 
L 382.703614 98.323538 
" clip-path="url(#p75764f276e)" style="fill: none; stroke: #ff7f0e; stroke-width: 1.5; stroke-linecap: square"/>
    <defs>
     <path id="ma0feca4fb5" d="M -3 0 
L 3 0 
M 0 3 
L 0 -3 
" style="stroke: #ff7f0e"/>
    </defs>
    <g clip-path="url(#p75764f276e)">
     <use xlink:href="#ma0feca4fb5" x="57.772215" y="277.566821" style="fill: #ff7f0e; stroke: #ff7f0e"/>
     <use xlink:href="#ma0feca4fb5" x="69.256154" y="276.027005" style="fill: #ff7f0e; stroke: #ff7f0e"/>
     <use xlink:href="#ma0feca4fb5" x="86.211772" y="273.251683" style="fill: #ff7f0e; stroke: #ff7f0e"/>
     <use xlink:href="#ma0feca4fb5" x="107.039437" y="267.863721" style="fill: #ff7f0e; stroke: #ff7f0e"/>
     <use xlink:href="#ma0feca4fb5" x="126.793313" y="256.737057" style="fill: #ff7f0e; stroke: #ff7f0e"/>
     <use xlink:href="#ma0feca4fb5" x="180.879794" y="249.686031" style="fill: #ff7f0e; stroke: #ff7f0e"/>
     <use xlink:href="#ma0feca4fb5" x="218.130944" y="242.581362" style="fill: #ff7f0e; stroke: #ff7f0e"/>
     <use xlink:href="#ma0feca4fb5" x="245.624984" y="235.535627" style="fill: #ff7f0e; stroke: #ff7f0e"/>
     <use xlink:href="#ma0feca4fb5" x="310.701839" y="208.212261" style="fill: #ff7f0e; stroke: #ff7f0e"/>
     <use xlink:href="#ma0feca4fb5" x="344.355825" y="181.441604" style="fill: #ff7f0e; stroke: #ff7f0e"/>
     <use xlink:href="#ma0feca4fb5" x="366.883793" y="155.622379" style="fill: #ff7f0e; stroke: #ff7f0e"/>
     <use xlink:href="#ma0feca4fb5" x="382.703614" y="98.323538" style="fill: #ff7f0e; stroke: #ff7f0e"/>
    </g>
   </g>
   <g id="line2d_14">
    <path d="M 55.843711 275.968945 
L 65.362431 273.895942 
L 77.872442 269.652475 
L 92.124096 261.595904 
L 105.89077 246.205739 
L 147.614677 237.358598 
L 182.303475 230.783598 
L 207.186193 223.144706 
L 278.410901 197.19248 
L 320.021516 172.030175 
L 351.420018 148.952185 
L 381.911911 97.879837 
" clip-path="url(#p75764f276e)" style="fill: none; stroke: #2ca02c; stroke-width: 1.5; stroke-linecap: square"/>
    <defs>
     <path id="medfc0aeba2" d="M -3 0 
L 3 0 
M 0 3 
L 0 -3 
" style="stroke: #2ca02c"/>
    </defs>
    <g clip-path="url(#p75764f276e)">
     <use xlink:href="#medfc0aeba2" x="55.843711" y="275.968945" style="fill: #2ca02c; stroke: #2ca02c"/>
     <use xlink:href="#medfc0aeba2" x="65.362431" y="273.895942" style="fill: #2ca02c; stroke: #2ca02c"/>
     <use xlink:href="#medfc0aeba2" x="77.872442" y="269.652475" style="fill: #2ca02c; stroke: #2ca02c"/>
     <use xlink:href="#medfc0aeba2" x="92.124096" y="261.595904" style="fill: #2ca02c; stroke: #2ca02c"/>
     <use xlink:href="#medfc0aeba2" x="105.89077" y="246.205739" style="fill: #2ca02c; stroke: #2ca02c"/>
     <use xlink:href="#medfc0aeba2" x="147.614677" y="237.358598" style="fill: #2ca02c; stroke: #2ca02c"/>
     <use xlink:href="#medfc0aeba2" x="182.303475" y="230.783598" style="fill: #2ca02c; stroke: #2ca02c"/>
     <use xlink:href="#medfc0aeba2" x="207.186193" y="223.144706" style="fill: #2ca02c; stroke: #2ca02c"/>
     <use xlink:href="#medfc0aeba2" x="278.410901" y="197.19248" style="fill: #2ca02c; stroke: #2ca02c"/>
     <use xlink:href="#medfc0aeba2" x="320.021516" y="172.030175" style="fill: #2ca02c; stroke: #2ca02c"/>
     <use xlink:href="#medfc0aeba2" x="351.420018" y="148.952185" style="fill: #2ca02c; stroke: #2ca02c"/>
     <use xlink:href="#medfc0aeba2" x="381.911911" y="97.879837" style="fill: #2ca02c; stroke: #2ca02c"/>
    </g>
   </g>
   <g id="line2d_15">
    <path d="M 54.66867 274.774297 
L 63.085981 272.279496 
L 73.622601 267.070383 
L 86.624933 258.222179 
L 97.710006 239.928839 
L 134.321248 229.951183 
L 165.967361 223.118315 
L 192.819602 216.898319 
L 264.847171 191.627593 
L 309.075234 167.249838 
L 342.511531 144.81105 
L 382.315784 98.122934 
" clip-path="url(#p75764f276e)" style="fill: none; stroke: #d62728; stroke-width: 1.5; stroke-linecap: square"/>
    <defs>
     <path id="me95914a6ea" d="M -3 0 
L 3 0 
M 0 3 
L 0 -3 
" style="stroke: #d62728"/>
    </defs>
    <g clip-path="url(#p75764f276e)">
     <use xlink:href="#me95914a6ea" x="54.66867" y="274.774297" style="fill: #d62728; stroke: #d62728"/>
     <use xlink:href="#me95914a6ea" x="63.085981" y="272.279496" style="fill: #d62728; stroke: #d62728"/>
     <use xlink:href="#me95914a6ea" x="73.622601" y="267.070383" style="fill: #d62728; stroke: #d62728"/>
     <use xlink:href="#me95914a6ea" x="86.624933" y="258.222179" style="fill: #d62728; stroke: #d62728"/>
     <use xlink:href="#me95914a6ea" x="97.710006" y="239.928839" style="fill: #d62728; stroke: #d62728"/>
     <use xlink:href="#me95914a6ea" x="134.321248" y="229.951183" style="fill: #d62728; stroke: #d62728"/>
     <use xlink:href="#me95914a6ea" x="165.967361" y="223.118315" style="fill: #d62728; stroke: #d62728"/>
     <use xlink:href="#me95914a6ea" x="192.819602" y="216.898319" style="fill: #d62728; stroke: #d62728"/>
     <use xlink:href="#me95914a6ea" x="264.847171" y="191.627593" style="fill: #d62728; stroke: #d62728"/>
     <use xlink:href="#me95914a6ea" x="309.075234" y="167.249838" style="fill: #d62728; stroke: #d62728"/>
     <use xlink:href="#me95914a6ea" x="342.511531" y="144.81105" style="fill: #d62728; stroke: #d62728"/>
     <use xlink:href="#me95914a6ea" x="382.315784" y="98.122934" style="fill: #d62728; stroke: #d62728"/>
    </g>
   </g>
   <g id="patch_3">
    <path d="M 42.491563 288.430125 
L 42.491563 22.318125 
" style="fill: none; stroke: #000000; stroke-width: 0.8; stroke-linejoin: miter; stroke-linecap: square"/>
   </g>
   <g id="patch_4">
    <path d="M 399.611563 288.430125 
L 399.611563 22.318125 
" style="fill: none; stroke: #000000; stroke-width: 0.8; stroke-linejoin: miter; stroke-linecap: square"/>
   </g>
   <g id="patch_5">
    <path d="M 42.491563 288.430125 
L 399.611563 288.430125 
" style="fill: none; stroke: #000000; stroke-width: 0.8; stroke-linejoin: miter; stroke-linecap: square"/>
   </g>
   <g id="patch_6">
    <path d="M 42.491563 22.318125 
L 399.611563 22.318125 
" style="fill: none; stroke: #000000; stroke-width: 0.8; stroke-linejoin: miter; stroke-linecap: square"/>
   </g>
   <g id="text_14">
    <!-- 32K  Sequential Write -->
    <g transform="translate(155.951563 16.318125) scale(0.12 -0.12)">
     <defs>
      <path id="DejaVuSans-33" d="M 2597 2516 
Q 3050 2419 3304 2112 
Q 3559 1806 3559 1356 
Q 3559 666 3084 287 
Q 2609 -91 1734 -91 
Q 1441 -91 1130 -33 
Q 819 25 488 141 
L 488 750 
Q 750 597 1062 519 
Q 1375 441 1716 441 
Q 2309 441 2620 675 
Q 2931 909 2931 1356 
Q 2931 1769 2642 2001 
Q 2353 2234 1838 2234 
L 1294 2234 
L 1294 2753 
L 1863 2753 
Q 2328 2753 2575 2939 
Q 2822 3125 2822 3475 
Q 2822 3834 2567 4026 
Q 2313 4219 1838 4219 
Q 1578 4219 1281 4162 
Q 984 4106 628 3988 
L 628 4550 
Q 988 4650 1302 4700 
Q 1616 4750 1894 4750 
Q 2613 4750 3031 4423 
Q 3450 4097 3450 3541 
Q 3450 3153 3228 2886 
Q 3006 2619 2597 2516 
z
" transform="scale(0.015625)"/>
      <path id="DejaVuSans-4b" d="M 628 4666 
L 1259 4666 
L 1259 2694 
L 3353 4666 
L 4166 4666 
L 1850 2491 
L 4331 0 
L 3500 0 
L 1259 2247 
L 1259 0 
L 628 0 
L 628 4666 
z
" transform="scale(0.015625)"/>
      <path id="DejaVuSans-53" d="M 3425 4513 
L 3425 3897 
Q 3066 4069 2747 4153 
Q 2428 4238 2131 4238 
Q 1616 4238 1336 4038 
Q 1056 3838 1056 3469 
Q 1056 3159 1242 3001 
Q 1428 2844 1947 2747 
L 2328 2669 
Q 3034 2534 3370 2195 
Q 3706 1856 3706 1288 
Q 3706 609 3251 259 
Q 2797 -91 1919 -91 
Q 1588 -91 1214 -16 
Q 841 59 441 206 
L 441 856 
Q 825 641 1194 531 
Q 1563 422 1919 422 
Q 2459 422 2753 634 
Q 3047 847 3047 1241 
Q 3047 1584 2836 1778 
Q 2625 1972 2144 2069 
L 1759 2144 
Q 1053 2284 737 2584 
Q 422 2884 422 3419 
Q 422 4038 858 4394 
Q 1294 4750 2059 4750 
Q 2388 4750 2728 4690 
Q 3069 4631 3425 4513 
z
" transform="scale(0.015625)"/>
      <path id="DejaVuSans-71" d="M 947 1747 
Q 947 1113 1208 752 
Q 1469 391 1925 391 
Q 2381 391 2643 752 
Q 2906 1113 2906 1747 
Q 2906 2381 2643 2742 
Q 2381 3103 1925 3103 
Q 1469 3103 1208 2742 
Q 947 2381 947 1747 
z
M 2906 525 
Q 2725 213 2448 61 
Q 2172 -91 1784 -91 
Q 1150 -91 751 415 
Q 353 922 353 1747 
Q 353 2572 751 3078 
Q 1150 3584 1784 3584 
Q 2172 3584 2448 3432 
Q 2725 3281 2906 2969 
L 2906 3500 
L 3481 3500 
L 3481 -1331 
L 2906 -1331 
L 2906 525 
z
" transform="scale(0.015625)"/>
      <path id="DejaVuSans-75" d="M 544 1381 
L 544 3500 
L 1119 3500 
L 1119 1403 
Q 1119 906 1312 657 
Q 1506 409 1894 409 
Q 2359 409 2629 706 
Q 2900 1003 2900 1516 
L 2900 3500 
L 3475 3500 
L 3475 0 
L 2900 0 
L 2900 538 
Q 2691 219 2414 64 
Q 2138 -91 1772 -91 
Q 1169 -91 856 284 
Q 544 659 544 1381 
z
M 1991 3584 
L 1991 3584 
z
" transform="scale(0.015625)"/>
      <path id="DejaVuSans-69" d="M 603 3500 
L 1178 3500 
L 1178 0 
L 603 0 
L 603 3500 
z
M 603 4863 
L 1178 4863 
L 1178 4134 
L 603 4134 
L 603 4863 
z
" transform="scale(0.015625)"/>
      <path id="DejaVuSans-6c" d="M 603 4863 
L 1178 4863 
L 1178 0 
L 603 0 
L 603 4863 
z
" transform="scale(0.015625)"/>
      <path id="DejaVuSans-57" d="M 213 4666 
L 850 4666 
L 1831 722 
L 2809 4666 
L 3519 4666 
L 4500 722 
L 5478 4666 
L 6119 4666 
L 4947 0 
L 4153 0 
L 3169 4050 
L 2175 0 
L 1381 0 
L 213 4666 
z
" transform="scale(0.015625)"/>
      <path id="DejaVuSans-72" d="M 2631 2963 
Q 2534 3019 2420 3045 
Q 2306 3072 2169 3072 
Q 1681 3072 1420 2755 
Q 1159 2438 1159 1844 
L 1159 0 
L 581 0 
L 581 3500 
L 1159 3500 
L 1159 2956 
Q 1341 3275 1631 3429 
Q 1922 3584 2338 3584 
Q 2397 3584 2469 3576 
Q 2541 3569 2628 3553 
L 2631 2963 
z
" transform="scale(0.015625)"/>
     </defs>
     <use xlink:href="#DejaVuSans-33"/>
     <use xlink:href="#DejaVuSans-32" x="63.623047"/>
     <use xlink:href="#DejaVuSans-4b" x="127.246094"/>
     <use xlink:href="#DejaVuSans-20" x="192.822266"/>
     <use xlink:href="#DejaVuSans-20" x="224.609375"/>
     <use xlink:href="#DejaVuSans-53" x="256.396484"/>
     <use xlink:href="#DejaVuSans-65" x="319.873047"/>
     <use xlink:href="#DejaVuSans-71" x="381.396484"/>
     <use xlink:href="#DejaVuSans-75" x="444.873047"/>
     <use xlink:href="#DejaVuSans-65" x="508.251953"/>
     <use xlink:href="#DejaVuSans-6e" x="569.775391"/>
     <use xlink:href="#DejaVuSans-74" x="633.154297"/>
     <use xlink:href="#DejaVuSans-69" x="672.363281"/>
     <use xlink:href="#DejaVuSans-61" x="700.146484"/>
     <use xlink:href="#DejaVuSans-6c" x="761.425781"/>
     <use xlink:href="#DejaVuSans-20" x="789.208984"/>
     <use xlink:href="#DejaVuSans-57" x="820.996094"/>
     <use xlink:href="#DejaVuSans-72" x="915.373047"/>
     <use xlink:href="#DejaVuSans-69" x="956.486328"/>
     <use xlink:href="#DejaVuSans-74" x="984.269531"/>
     <use xlink:href="#DejaVuSans-65" x="1023.478516"/>
    </g>
   </g>
   <g id="legend_1">
    <g id="patch_7">
     <path d="M 9.2 352.397575 
L 432.903125 352.397575 
Q 434.903125 352.397575 434.903125 350.397575 
L 434.903125 322.041325 
Q 434.903125 320.041325 432.903125 320.041325 
L 9.2 320.041325 
Q 7.2 320.041325 7.2 322.041325 
L 7.2 350.397575 
Q 7.2 352.397575 9.2 352.397575 
z
" style="fill: #ffffff; opacity: 0.8; stroke: #cccccc; stroke-linejoin: miter"/>
    </g>
    <g id="line2d_16">
     <path d="M 11.2 328.139762 
L 21.2 328.139762 
L 31.2 328.139762 
" style="fill: none; stroke: #1f77b4; stroke-width: 1.5; stroke-linecap: square"/>
     <g>
      <use xlink:href="#m0cbc121afb" x="21.2" y="328.139762" style="fill: #1f77b4; stroke: #1f77b4"/>
     </g>
    </g>
    <g id="text_15">
     <!-- squid-ec-6+2-4k-appends -->
     <g transform="translate(39.2 331.639762) scale(0.1 -0.1)">
      <defs>
       <path id="DejaVuSans-64" d="M 2906 2969 
L 2906 4863 
L 3481 4863 
L 3481 0 
L 2906 0 
L 2906 525 
Q 2725 213 2448 61 
Q 2172 -91 1784 -91 
Q 1150 -91 751 415 
Q 353 922 353 1747 
Q 353 2572 751 3078 
Q 1150 3584 1784 3584 
Q 2172 3584 2448 3432 
Q 2725 3281 2906 2969 
z
M 947 1747 
Q 947 1113 1208 752 
Q 1469 391 1925 391 
Q 2381 391 2643 752 
Q 2906 1113 2906 1747 
Q 2906 2381 2643 2742 
Q 2381 3103 1925 3103 
Q 1469 3103 1208 2742 
Q 947 2381 947 1747 
z
" transform="scale(0.015625)"/>
       <path id="DejaVuSans-2d" d="M 313 2009 
L 1997 2009 
L 1997 1497 
L 313 1497 
L 313 2009 
z
" transform="scale(0.015625)"/>
       <path id="DejaVuSans-2b" d="M 2944 4013 
L 2944 2272 
L 4684 2272 
L 4684 1741 
L 2944 1741 
L 2944 0 
L 2419 0 
L 2419 1741 
L 678 1741 
L 678 2272 
L 2419 2272 
L 2419 4013 
L 2944 4013 
z
" transform="scale(0.015625)"/>
       <path id="DejaVuSans-6b" d="M 581 4863 
L 1159 4863 
L 1159 1991 
L 2875 3500 
L 3609 3500 
L 1753 1863 
L 3688 0 
L 2938 0 
L 1159 1709 
L 1159 0 
L 581 0 
L 581 4863 
z
" transform="scale(0.015625)"/>
      </defs>
      <use xlink:href="#DejaVuSans-73"/>
      <use xlink:href="#DejaVuSans-71" x="52.099609"/>
      <use xlink:href="#DejaVuSans-75" x="115.576172"/>
      <use xlink:href="#DejaVuSans-69" x="178.955078"/>
      <use xlink:href="#DejaVuSans-64" x="206.738281"/>
      <use xlink:href="#DejaVuSans-2d" x="270.214844"/>
      <use xlink:href="#DejaVuSans-65" x="306.298828"/>
      <use xlink:href="#DejaVuSans-63" x="367.822266"/>
      <use xlink:href="#DejaVuSans-2d" x="422.802734"/>
      <use xlink:href="#DejaVuSans-36" x="458.886719"/>
      <use xlink:href="#DejaVuSans-2b" x="522.509766"/>
      <use xlink:href="#DejaVuSans-32" x="606.298828"/>
      <use xlink:href="#DejaVuSans-2d" x="669.921875"/>
      <use xlink:href="#DejaVuSans-34" x="706.005859"/>
      <use xlink:href="#DejaVuSans-6b" x="769.628906"/>
      <use xlink:href="#DejaVuSans-2d" x="827.539062"/>
      <use xlink:href="#DejaVuSans-61" x="863.623047"/>
      <use xlink:href="#DejaVuSans-70" x="924.902344"/>
      <use xlink:href="#DejaVuSans-70" x="988.378906"/>
      <use xlink:href="#DejaVuSans-65" x="1051.855469"/>
      <use xlink:href="#DejaVuSans-6e" x="1113.378906"/>
      <use xlink:href="#DejaVuSans-64" x="1176.757812"/>
      <use xlink:href="#DejaVuSans-73" x="1240.234375"/>
     </g>
    </g>
    <g id="line2d_17">
     <path d="M 11.2 342.817887 
L 21.2 342.817887 
L 31.2 342.817887 
" style="fill: none; stroke: #ff7f0e; stroke-width: 1.5; stroke-linecap: square"/>
     <g>
      <use xlink:href="#ma0feca4fb5" x="21.2" y="342.817887" style="fill: #ff7f0e; stroke: #ff7f0e"/>
     </g>
    </g>
    <g id="text_16">
     <!-- tentacle-fast-ec-2+2-16k-appends -->
     <g transform="translate(39.2 346.317887) scale(0.1 -0.1)">
      <defs>
       <path id="DejaVuSans-66" d="M 2375 4863 
L 2375 4384 
L 1825 4384 
Q 1516 4384 1395 4259 
Q 1275 4134 1275 3809 
L 1275 3500 
L 2222 3500 
L 2222 3053 
L 1275 3053 
L 1275 0 
L 697 0 
L 697 3053 
L 147 3053 
L 147 3500 
L 697 3500 
L 697 3744 
Q 697 4328 969 4595 
Q 1241 4863 1831 4863 
L 2375 4863 
z
" transform="scale(0.015625)"/>
      </defs>
      <use xlink:href="#DejaVuSans-74"/>
      <use xlink:href="#DejaVuSans-65" x="39.208984"/>
      <use xlink:href="#DejaVuSans-6e" x="100.732422"/>
      <use xlink:href="#DejaVuSans-74" x="164.111328"/>
      <use xlink:href="#DejaVuSans-61" x="203.320312"/>
      <use xlink:href="#DejaVuSans-63" x="264.599609"/>
      <use xlink:href="#DejaVuSans-6c" x="319.580078"/>
      <use xlink:href="#DejaVuSans-65" x="347.363281"/>
      <use xlink:href="#DejaVuSans-2d" x="408.886719"/>
      <use xlink:href="#DejaVuSans-66" x="444.970703"/>
      <use xlink:href="#DejaVuSans-61" x="480.175781"/>
      <use xlink:href="#DejaVuSans-73" x="541.455078"/>
      <use xlink:href="#DejaVuSans-74" x="593.554688"/>
      <use xlink:href="#DejaVuSans-2d" x="632.763672"/>
      <use xlink:href="#DejaVuSans-65" x="668.847656"/>
      <use xlink:href="#DejaVuSans-63" x="730.371094"/>
      <use xlink:href="#DejaVuSans-2d" x="785.351562"/>
      <use xlink:href="#DejaVuSans-32" x="821.435547"/>
      <use xlink:href="#DejaVuSans-2b" x="885.058594"/>
      <use xlink:href="#DejaVuSans-32" x="968.847656"/>
      <use xlink:href="#DejaVuSans-2d" x="1032.470703"/>
      <use xlink:href="#DejaVuSans-31" x="1068.554688"/>
      <use xlink:href="#DejaVuSans-36" x="1132.177734"/>
      <use xlink:href="#DejaVuSans-6b" x="1195.800781"/>
      <use xlink:href="#DejaVuSans-2d" x="1253.710938"/>
      <use xlink:href="#DejaVuSans-61" x="1289.794922"/>
      <use xlink:href="#DejaVuSans-70" x="1351.074219"/>
      <use xlink:href="#DejaVuSans-70" x="1414.550781"/>
      <use xlink:href="#DejaVuSans-65" x="1478.027344"/>
      <use xlink:href="#DejaVuSans-6e" x="1539.550781"/>
      <use xlink:href="#DejaVuSans-64" x="1602.929688"/>
      <use xlink:href="#DejaVuSans-73" x="1666.40625"/>
     </g>
    </g>
    <g id="line2d_18">
     <path d="M 231.051563 328.139762 
L 241.051563 328.139762 
L 251.051563 328.139762 
" style="fill: none; stroke: #2ca02c; stroke-width: 1.5; stroke-linecap: square"/>
     <g>
      <use xlink:href="#medfc0aeba2" x="241.051563" y="328.139762" style="fill: #2ca02c; stroke: #2ca02c"/>
     </g>
    </g>
    <g id="text_17">
     <!-- tentacle-fast-ec-4+2-16k-appends -->
     <g transform="translate(259.051563 331.639762) scale(0.1 -0.1)">
      <use xlink:href="#DejaVuSans-74"/>
      <use xlink:href="#DejaVuSans-65" x="39.208984"/>
      <use xlink:href="#DejaVuSans-6e" x="100.732422"/>
      <use xlink:href="#DejaVuSans-74" x="164.111328"/>
      <use xlink:href="#DejaVuSans-61" x="203.320312"/>
      <use xlink:href="#DejaVuSans-63" x="264.599609"/>
      <use xlink:href="#DejaVuSans-6c" x="319.580078"/>
      <use xlink:href="#DejaVuSans-65" x="347.363281"/>
      <use xlink:href="#DejaVuSans-2d" x="408.886719"/>
      <use xlink:href="#DejaVuSans-66" x="444.970703"/>
      <use xlink:href="#DejaVuSans-61" x="480.175781"/>
      <use xlink:href="#DejaVuSans-73" x="541.455078"/>
      <use xlink:href="#DejaVuSans-74" x="593.554688"/>
      <use xlink:href="#DejaVuSans-2d" x="632.763672"/>
      <use xlink:href="#DejaVuSans-65" x="668.847656"/>
      <use xlink:href="#DejaVuSans-63" x="730.371094"/>
      <use xlink:href="#DejaVuSans-2d" x="785.351562"/>
      <use xlink:href="#DejaVuSans-34" x="821.435547"/>
      <use xlink:href="#DejaVuSans-2b" x="885.058594"/>
      <use xlink:href="#DejaVuSans-32" x="968.847656"/>
      <use xlink:href="#DejaVuSans-2d" x="1032.470703"/>
      <use xlink:href="#DejaVuSans-31" x="1068.554688"/>
      <use xlink:href="#DejaVuSans-36" x="1132.177734"/>
      <use xlink:href="#DejaVuSans-6b" x="1195.800781"/>
      <use xlink:href="#DejaVuSans-2d" x="1253.710938"/>
      <use xlink:href="#DejaVuSans-61" x="1289.794922"/>
      <use xlink:href="#DejaVuSans-70" x="1351.074219"/>
      <use xlink:href="#DejaVuSans-70" x="1414.550781"/>
      <use xlink:href="#DejaVuSans-65" x="1478.027344"/>
      <use xlink:href="#DejaVuSans-6e" x="1539.550781"/>
      <use xlink:href="#DejaVuSans-64" x="1602.929688"/>
      <use xlink:href="#DejaVuSans-73" x="1666.40625"/>
     </g>
    </g>
    <g id="line2d_19">
     <path d="M 231.051563 342.817887 
L 241.051563 342.817887 
L 251.051563 342.817887 
" style="fill: none; stroke: #d62728; stroke-width: 1.5; stroke-linecap: square"/>
     <g>
      <use xlink:href="#me95914a6ea" x="241.051563" y="342.817887" style="fill: #d62728; stroke: #d62728"/>
     </g>
    </g>
    <g id="text_18">
     <!-- tentacle-fast-ec-6+2-16k-appends -->
     <g transform="translate(259.051563 346.317887) scale(0.1 -0.1)">
      <use xlink:href="#DejaVuSans-74"/>
      <use xlink:href="#DejaVuSans-65" x="39.208984"/>
      <use xlink:href="#DejaVuSans-6e" x="100.732422"/>
      <use xlink:href="#DejaVuSans-74" x="164.111328"/>
      <use xlink:href="#DejaVuSans-61" x="203.320312"/>
      <use xlink:href="#DejaVuSans-63" x="264.599609"/>
      <use xlink:href="#DejaVuSans-6c" x="319.580078"/>
      <use xlink:href="#DejaVuSans-65" x="347.363281"/>
      <use xlink:href="#DejaVuSans-2d" x="408.886719"/>
      <use xlink:href="#DejaVuSans-66" x="444.970703"/>
      <use xlink:href="#DejaVuSans-61" x="480.175781"/>
      <use xlink:href="#DejaVuSans-73" x="541.455078"/>
      <use xlink:href="#DejaVuSans-74" x="593.554688"/>
      <use xlink:href="#DejaVuSans-2d" x="632.763672"/>
      <use xlink:href="#DejaVuSans-65" x="668.847656"/>
      <use xlink:href="#DejaVuSans-63" x="730.371094"/>
      <use xlink:href="#DejaVuSans-2d" x="785.351562"/>
      <use xlink:href="#DejaVuSans-36" x="821.435547"/>
      <use xlink:href="#DejaVuSans-2b" x="885.058594"/>
      <use xlink:href="#DejaVuSans-32" x="968.847656"/>
      <use xlink:href="#DejaVuSans-2d" x="1032.470703"/>
      <use xlink:href="#DejaVuSans-31" x="1068.554688"/>
      <use xlink:href="#DejaVuSans-36" x="1132.177734"/>
      <use xlink:href="#DejaVuSans-6b" x="1195.800781"/>
      <use xlink:href="#DejaVuSans-2d" x="1253.710938"/>
      <use xlink:href="#DejaVuSans-61" x="1289.794922"/>
      <use xlink:href="#DejaVuSans-70" x="1351.074219"/>
      <use xlink:href="#DejaVuSans-70" x="1414.550781"/>
      <use xlink:href="#DejaVuSans-65" x="1478.027344"/>
      <use xlink:href="#DejaVuSans-6e" x="1539.550781"/>
      <use xlink:href="#DejaVuSans-64" x="1602.929688"/>
      <use xlink:href="#DejaVuSans-73" x="1666.40625"/>
     </g>
    </g>
   </g>
  </g>
 </g>
 <defs>
  <clipPath id="p75764f276e">
   <rect x="42.491563" y="22.318125" width="357.12" height="266.112"/>
  </clipPath>
 </defs>
</svg>
