<?xml version="1.0" encoding="utf-8" standalone="no"?>
<!DOCTYPE svg PUBLIC "-//W3C//DTD SVG 1.1//EN"
  "http://www.w3.org/Graphics/SVG/1.1/DTD/svg11.dtd">
<svg xmlns:xlink="http://www.w3.org/1999/xlink" width="681.146875pt" height="360.153825pt" viewBox="0 0 681.146875 360.153825" xmlns="http://www.w3.org/2000/svg" version="1.1">
 <metadata>
  <rdf:RDF xmlns:dc="http://purl.org/dc/elements/1.1/" xmlns:cc="http://creativecommons.org/ns#" xmlns:rdf="http://www.w3.org/1999/02/22-rdf-syntax-ns#">
   <cc:Work>
    <dc:type rdf:resource="http://purl.org/dc/dcmitype/StillImage"/>
    <dc:date>2025-11-17T11:37:13.689520</dc:date>
    <dc:format>image/svg+xml</dc:format>
    <dc:creator>
     <cc:Agent>
      <dc:title>Matplotlib v3.9.4, https://matplotlib.org/</dc:title>
     </cc:Agent>
    </dc:creator>
   </cc:Work>
  </rdf:RDF>
 </metadata>
 <defs>
  <style type="text/css">*{stroke-linejoin: round; stroke-linecap: butt}</style>
 </defs>
 <g id="figure_1">
  <g id="patch_1">
   <path d="M -0 360.153825 
L 681.146875 360.153825 
L 681.146875 0 
L -0 0 
z
" style="fill: #ffffff"/>
  </g>
  <g id="axes_1">
   <g id="patch_2">
    <path d="M 162.013438 288.430125 
L 519.133438 288.430125 
L 519.133438 22.318125 
L 162.013438 22.318125 
z
" style="fill: #ffffff"/>
   </g>
   <g id="matplotlib.axis_1">
    <g id="xtick_1">
     <g id="line2d_1">
      <defs>
       <path id="mca82262b3a" d="M 0 0 
L 0 3.5 
" style="stroke: #000000; stroke-width: 0.8"/>
      </defs>
      <g>
       <use xlink:href="#mca82262b3a" x="162.013438" y="288.430125" style="stroke: #000000; stroke-width: 0.8"/>
      </g>
     </g>
     <g id="text_1">
      <!-- 0 -->
      <g transform="translate(158.832188 303.028562) scale(0.1 -0.1)">
       <defs>
        <path id="DejaVuSans-30" d="M 2034 4250 
Q 1547 4250 1301 3770 
Q 1056 3291 1056 2328 
Q 1056 1369 1301 889 
Q 1547 409 2034 409 
Q 2525 409 2770 889 
Q 3016 1369 3016 2328 
Q 3016 3291 2770 3770 
Q 2525 4250 2034 4250 
z
M 2034 4750 
Q 2819 4750 3233 4129 
Q 3647 3509 3647 2328 
Q 3647 1150 3233 529 
Q 2819 -91 2034 -91 
Q 1250 -91 836 529 
Q 422 1150 422 2328 
Q 422 3509 836 4129 
Q 1250 4750 2034 4750 
z
" transform="scale(0.015625)"/>
       </defs>
       <use xlink:href="#DejaVuSans-30"/>
      </g>
     </g>
    </g>
    <g id="xtick_2">
     <g id="line2d_2">
      <g>
       <use xlink:href="#mca82262b3a" x="229.575515" y="288.430125" style="stroke: #000000; stroke-width: 0.8"/>
      </g>
     </g>
     <g id="text_2">
      <!-- 1000 -->
      <g transform="translate(216.850515 303.028562) scale(0.1 -0.1)">
       <defs>
        <path id="DejaVuSans-31" d="M 794 531 
L 1825 531 
L 1825 4091 
L 703 3866 
L 703 4441 
L 1819 4666 
L 2450 4666 
L 2450 531 
L 3481 531 
L 3481 0 
L 794 0 
L 794 531 
z
" transform="scale(0.015625)"/>
       </defs>
       <use xlink:href="#DejaVuSans-31"/>
       <use xlink:href="#DejaVuSans-30" x="63.623047"/>
       <use xlink:href="#DejaVuSans-30" x="127.246094"/>
       <use xlink:href="#DejaVuSans-30" x="190.869141"/>
      </g>
     </g>
    </g>
    <g id="xtick_3">
     <g id="line2d_3">
      <g>
       <use xlink:href="#mca82262b3a" x="297.137592" y="288.430125" style="stroke: #000000; stroke-width: 0.8"/>
      </g>
     </g>
     <g id="text_3">
      <!-- 2000 -->
      <g transform="translate(284.412592 303.028562) scale(0.1 -0.1)">
       <defs>
        <path id="DejaVuSans-32" d="M 1228 531 
L 3431 531 
L 3431 0 
L 469 0 
L 469 531 
Q 828 903 1448 1529 
Q 2069 2156 2228 2338 
Q 2531 2678 2651 2914 
Q 2772 3150 2772 3378 
Q 2772 3750 2511 3984 
Q 2250 4219 1831 4219 
Q 1534 4219 1204 4116 
Q 875 4013 500 3803 
L 500 4441 
Q 881 4594 1212 4672 
Q 1544 4750 1819 4750 
Q 2544 4750 2975 4387 
Q 3406 4025 3406 3419 
Q 3406 3131 3298 2873 
Q 3191 2616 2906 2266 
Q 2828 2175 2409 1742 
Q 1991 1309 1228 531 
z
" transform="scale(0.015625)"/>
       </defs>
       <use xlink:href="#DejaVuSans-32"/>
       <use xlink:href="#DejaVuSans-30" x="63.623047"/>
       <use xlink:href="#DejaVuSans-30" x="127.246094"/>
       <use xlink:href="#DejaVuSans-30" x="190.869141"/>
      </g>
     </g>
    </g>
    <g id="xtick_4">
     <g id="line2d_4">
      <g>
       <use xlink:href="#mca82262b3a" x="364.69967" y="288.430125" style="stroke: #000000; stroke-width: 0.8"/>
      </g>
     </g>
     <g id="text_4">
      <!-- 3000 -->
      <g transform="translate(351.97467 303.028562) scale(0.1 -0.1)">
       <defs>
        <path id="DejaVuSans-33" d="M 2597 2516 
Q 3050 2419 3304 2112 
Q 3559 1806 3559 1356 
Q 3559 666 3084 287 
Q 2609 -91 1734 -91 
Q 1441 -91 1130 -33 
Q 819 25 488 141 
L 488 750 
Q 750 597 1062 519 
Q 1375 441 1716 441 
Q 2309 441 2620 675 
Q 2931 909 2931 1356 
Q 2931 1769 2642 2001 
Q 2353 2234 1838 2234 
L 1294 2234 
L 1294 2753 
L 1863 2753 
Q 2328 2753 2575 2939 
Q 2822 3125 2822 3475 
Q 2822 3834 2567 4026 
Q 2313 4219 1838 4219 
Q 1578 4219 1281 4162 
Q 984 4106 628 3988 
L 628 4550 
Q 988 4650 1302 4700 
Q 1616 4750 1894 4750 
Q 2613 4750 3031 4423 
Q 3450 4097 3450 3541 
Q 3450 3153 3228 2886 
Q 3006 2619 2597 2516 
z
" transform="scale(0.015625)"/>
       </defs>
       <use xlink:href="#DejaVuSans-33"/>
       <use xlink:href="#DejaVuSans-30" x="63.623047"/>
       <use xlink:href="#DejaVuSans-30" x="127.246094"/>
       <use xlink:href="#DejaVuSans-30" x="190.869141"/>
      </g>
     </g>
    </g>
    <g id="xtick_5">
     <g id="line2d_5">
      <g>
       <use xlink:href="#mca82262b3a" x="432.261747" y="288.430125" style="stroke: #000000; stroke-width: 0.8"/>
      </g>
     </g>
     <g id="text_5">
      <!-- 4000 -->
      <g transform="translate(419.536747 303.028562) scale(0.1 -0.1)">
       <defs>
        <path id="DejaVuSans-34" d="M 2419 4116 
L 825 1625 
L 2419 1625 
L 2419 4116 
z
M 2253 4666 
L 3047 4666 
L 3047 1625 
L 3713 1625 
L 3713 1100 
L 3047 1100 
L 3047 0 
L 2419 0 
L 2419 1100 
L 313 1100 
L 313 1709 
L 2253 4666 
z
" transform="scale(0.015625)"/>
       </defs>
       <use xlink:href="#DejaVuSans-34"/>
       <use xlink:href="#DejaVuSans-30" x="63.623047"/>
       <use xlink:href="#DejaVuSans-30" x="127.246094"/>
       <use xlink:href="#DejaVuSans-30" x="190.869141"/>
      </g>
     </g>
    </g>
    <g id="xtick_6">
     <g id="line2d_6">
      <g>
       <use xlink:href="#mca82262b3a" x="499.823825" y="288.430125" style="stroke: #000000; stroke-width: 0.8"/>
      </g>
     </g>
     <g id="text_6">
      <!-- 5000 -->
      <g transform="translate(487.098825 303.028562) scale(0.1 -0.1)">
       <defs>
        <path id="DejaVuSans-35" d="M 691 4666 
L 3169 4666 
L 3169 4134 
L 1269 4134 
L 1269 2991 
Q 1406 3038 1543 3061 
Q 1681 3084 1819 3084 
Q 2600 3084 3056 2656 
Q 3513 2228 3513 1497 
Q 3513 744 3044 326 
Q 2575 -91 1722 -91 
Q 1428 -91 1123 -41 
Q 819 9 494 109 
L 494 744 
Q 775 591 1075 516 
Q 1375 441 1709 441 
Q 2250 441 2565 725 
Q 2881 1009 2881 1497 
Q 2881 1984 2565 2268 
Q 2250 2553 1709 2553 
Q 1456 2553 1204 2497 
Q 953 2441 691 2322 
L 691 4666 
z
" transform="scale(0.015625)"/>
       </defs>
       <use xlink:href="#DejaVuSans-35"/>
       <use xlink:href="#DejaVuSans-30" x="63.623047"/>
       <use xlink:href="#DejaVuSans-30" x="127.246094"/>
       <use xlink:href="#DejaVuSans-30" x="190.869141"/>
      </g>
     </g>
    </g>
    <g id="text_7">
     <!-- Bandwidth (MB/s) -->
     <g transform="translate(296.430469 316.706687) scale(0.1 -0.1)">
      <defs>
       <path id="DejaVuSans-42" d="M 1259 2228 
L 1259 519 
L 2272 519 
Q 2781 519 3026 730 
Q 3272 941 3272 1375 
Q 3272 1813 3026 2020 
Q 2781 2228 2272 2228 
L 1259 2228 
z
M 1259 4147 
L 1259 2741 
L 2194 2741 
Q 2656 2741 2882 2914 
Q 3109 3088 3109 3444 
Q 3109 3797 2882 3972 
Q 2656 4147 2194 4147 
L 1259 4147 
z
M 628 4666 
L 2241 4666 
Q 2963 4666 3353 4366 
Q 3744 4066 3744 3513 
Q 3744 3084 3544 2831 
Q 3344 2578 2956 2516 
Q 3422 2416 3680 2098 
Q 3938 1781 3938 1306 
Q 3938 681 3513 340 
Q 3088 0 2303 0 
L 628 0 
L 628 4666 
z
" transform="scale(0.015625)"/>
       <path id="DejaVuSans-61" d="M 2194 1759 
Q 1497 1759 1228 1600 
Q 959 1441 959 1056 
Q 959 750 1161 570 
Q 1363 391 1709 391 
Q 2188 391 2477 730 
Q 2766 1069 2766 1631 
L 2766 1759 
L 2194 1759 
z
M 3341 1997 
L 3341 0 
L 2766 0 
L 2766 531 
Q 2569 213 2275 61 
Q 1981 -91 1556 -91 
Q 1019 -91 701 211 
Q 384 513 384 1019 
Q 384 1609 779 1909 
Q 1175 2209 1959 2209 
L 2766 2209 
L 2766 2266 
Q 2766 2663 2505 2880 
Q 2244 3097 1772 3097 
Q 1472 3097 1187 3025 
Q 903 2953 641 2809 
L 641 3341 
Q 956 3463 1253 3523 
Q 1550 3584 1831 3584 
Q 2591 3584 2966 3190 
Q 3341 2797 3341 1997 
z
" transform="scale(0.015625)"/>
       <path id="DejaVuSans-6e" d="M 3513 2113 
L 3513 0 
L 2938 0 
L 2938 2094 
Q 2938 2591 2744 2837 
Q 2550 3084 2163 3084 
Q 1697 3084 1428 2787 
Q 1159 2491 1159 1978 
L 1159 0 
L 581 0 
L 581 3500 
L 1159 3500 
L 1159 2956 
Q 1366 3272 1645 3428 
Q 1925 3584 2291 3584 
Q 2894 3584 3203 3211 
Q 3513 2838 3513 2113 
z
" transform="scale(0.015625)"/>
       <path id="DejaVuSans-64" d="M 2906 2969 
L 2906 4863 
L 3481 4863 
L 3481 0 
L 2906 0 
L 2906 525 
Q 2725 213 2448 61 
Q 2172 -91 1784 -91 
Q 1150 -91 751 415 
Q 353 922 353 1747 
Q 353 2572 751 3078 
Q 1150 3584 1784 3584 
Q 2172 3584 2448 3432 
Q 2725 3281 2906 2969 
z
M 947 1747 
Q 947 1113 1208 752 
Q 1469 391 1925 391 
Q 2381 391 2643 752 
Q 2906 1113 2906 1747 
Q 2906 2381 2643 2742 
Q 2381 3103 1925 3103 
Q 1469 3103 1208 2742 
Q 947 2381 947 1747 
z
" transform="scale(0.015625)"/>
       <path id="DejaVuSans-77" d="M 269 3500 
L 844 3500 
L 1563 769 
L 2278 3500 
L 2956 3500 
L 3675 769 
L 4391 3500 
L 4966 3500 
L 4050 0 
L 3372 0 
L 2619 2869 
L 1863 0 
L 1184 0 
L 269 3500 
z
" transform="scale(0.015625)"/>
       <path id="DejaVuSans-69" d="M 603 3500 
L 1178 3500 
L 1178 0 
L 603 0 
L 603 3500 
z
M 603 4863 
L 1178 4863 
L 1178 4134 
L 603 4134 
L 603 4863 
z
" transform="scale(0.015625)"/>
       <path id="DejaVuSans-74" d="M 1172 4494 
L 1172 3500 
L 2356 3500 
L 2356 3053 
L 1172 3053 
L 1172 1153 
Q 1172 725 1289 603 
Q 1406 481 1766 481 
L 2356 481 
L 2356 0 
L 1766 0 
Q 1100 0 847 248 
Q 594 497 594 1153 
L 594 3053 
L 172 3053 
L 172 3500 
L 594 3500 
L 594 4494 
L 1172 4494 
z
" transform="scale(0.015625)"/>
       <path id="DejaVuSans-68" d="M 3513 2113 
L 3513 0 
L 2938 0 
L 2938 2094 
Q 2938 2591 2744 2837 
Q 2550 3084 2163 3084 
Q 1697 3084 1428 2787 
Q 1159 2491 1159 1978 
L 1159 0 
L 581 0 
L 581 4863 
L 1159 4863 
L 1159 2956 
Q 1366 3272 1645 3428 
Q 1925 3584 2291 3584 
Q 2894 3584 3203 3211 
Q 3513 2838 3513 2113 
z
" transform="scale(0.015625)"/>
       <path id="DejaVuSans-20" transform="scale(0.015625)"/>
       <path id="DejaVuSans-28" d="M 1984 4856 
Q 1566 4138 1362 3434 
Q 1159 2731 1159 2009 
Q 1159 1288 1364 580 
Q 1569 -128 1984 -844 
L 1484 -844 
Q 1016 -109 783 600 
Q 550 1309 550 2009 
Q 550 2706 781 3412 
Q 1013 4119 1484 4856 
L 1984 4856 
z
" transform="scale(0.015625)"/>
       <path id="DejaVuSans-4d" d="M 628 4666 
L 1569 4666 
L 2759 1491 
L 3956 4666 
L 4897 4666 
L 4897 0 
L 4281 0 
L 4281 4097 
L 3078 897 
L 2444 897 
L 1241 4097 
L 1241 0 
L 628 0 
L 628 4666 
z
" transform="scale(0.015625)"/>
       <path id="DejaVuSans-2f" d="M 1625 4666 
L 2156 4666 
L 531 -594 
L 0 -594 
L 1625 4666 
z
" transform="scale(0.015625)"/>
       <path id="DejaVuSans-73" d="M 2834 3397 
L 2834 2853 
Q 2591 2978 2328 3040 
Q 2066 3103 1784 3103 
Q 1356 3103 1142 2972 
Q 928 2841 928 2578 
Q 928 2378 1081 2264 
Q 1234 2150 1697 2047 
L 1894 2003 
Q 2506 1872 2764 1633 
Q 3022 1394 3022 966 
Q 3022 478 2636 193 
Q 2250 -91 1575 -91 
Q 1294 -91 989 -36 
Q 684 19 347 128 
L 347 722 
Q 666 556 975 473 
Q 1284 391 1588 391 
Q 1994 391 2212 530 
Q 2431 669 2431 922 
Q 2431 1156 2273 1281 
Q 2116 1406 1581 1522 
L 1381 1569 
Q 847 1681 609 1914 
Q 372 2147 372 2553 
Q 372 3047 722 3315 
Q 1072 3584 1716 3584 
Q 2034 3584 2315 3537 
Q 2597 3491 2834 3397 
z
" transform="scale(0.015625)"/>
       <path id="DejaVuSans-29" d="M 513 4856 
L 1013 4856 
Q 1481 4119 1714 3412 
Q 1947 2706 1947 2009 
Q 1947 1309 1714 600 
Q 1481 -109 1013 -844 
L 513 -844 
Q 928 -128 1133 580 
Q 1338 1288 1338 2009 
Q 1338 2731 1133 3434 
Q 928 4138 513 4856 
z
" transform="scale(0.015625)"/>
      </defs>
      <use xlink:href="#DejaVuSans-42"/>
      <use xlink:href="#DejaVuSans-61" x="68.603516"/>
      <use xlink:href="#DejaVuSans-6e" x="129.882812"/>
      <use xlink:href="#DejaVuSans-64" x="193.261719"/>
      <use xlink:href="#DejaVuSans-77" x="256.738281"/>
      <use xlink:href="#DejaVuSans-69" x="338.525391"/>
      <use xlink:href="#DejaVuSans-64" x="366.308594"/>
      <use xlink:href="#DejaVuSans-74" x="429.785156"/>
      <use xlink:href="#DejaVuSans-68" x="468.994141"/>
      <use xlink:href="#DejaVuSans-20" x="532.373047"/>
      <use xlink:href="#DejaVuSans-28" x="564.160156"/>
      <use xlink:href="#DejaVuSans-4d" x="603.173828"/>
      <use xlink:href="#DejaVuSans-42" x="689.453125"/>
      <use xlink:href="#DejaVuSans-2f" x="758.056641"/>
      <use xlink:href="#DejaVuSans-73" x="791.748047"/>
      <use xlink:href="#DejaVuSans-29" x="843.847656"/>
     </g>
    </g>
   </g>
   <g id="matplotlib.axis_2">
    <g id="ytick_1">
     <g id="line2d_7">
      <defs>
       <path id="md65f800ec2" d="M 0 0 
L -3.5 0 
" style="stroke: #000000; stroke-width: 0.8"/>
      </defs>
      <g>
       <use xlink:href="#md65f800ec2" x="162.013438" y="288.430125" style="stroke: #000000; stroke-width: 0.8"/>
      </g>
     </g>
     <g id="text_8">
      <!-- 0 -->
      <g transform="translate(148.650937 292.229344) scale(0.1 -0.1)">
       <use xlink:href="#DejaVuSans-30"/>
      </g>
     </g>
    </g>
    <g id="ytick_2">
     <g id="line2d_8">
      <g>
       <use xlink:href="#md65f800ec2" x="162.013438" y="232.061028" style="stroke: #000000; stroke-width: 0.8"/>
      </g>
     </g>
     <g id="text_9">
      <!-- 5 -->
      <g transform="translate(148.650937 235.860247) scale(0.1 -0.1)">
       <use xlink:href="#DejaVuSans-35"/>
      </g>
     </g>
    </g>
    <g id="ytick_3">
     <g id="line2d_9">
      <g>
       <use xlink:href="#md65f800ec2" x="162.013438" y="175.691932" style="stroke: #000000; stroke-width: 0.8"/>
      </g>
     </g>
     <g id="text_10">
      <!-- 10 -->
      <g transform="translate(142.288438 179.491151) scale(0.1 -0.1)">
       <use xlink:href="#DejaVuSans-31"/>
       <use xlink:href="#DejaVuSans-30" x="63.623047"/>
      </g>
     </g>
    </g>
    <g id="ytick_4">
     <g id="line2d_10">
      <g>
       <use xlink:href="#md65f800ec2" x="162.013438" y="119.322835" style="stroke: #000000; stroke-width: 0.8"/>
      </g>
     </g>
     <g id="text_11">
      <!-- 15 -->
      <g transform="translate(142.288438 123.122054) scale(0.1 -0.1)">
       <use xlink:href="#DejaVuSans-31"/>
       <use xlink:href="#DejaVuSans-35" x="63.623047"/>
      </g>
     </g>
    </g>
    <g id="ytick_5">
     <g id="line2d_11">
      <g>
       <use xlink:href="#md65f800ec2" x="162.013438" y="62.953739" style="stroke: #000000; stroke-width: 0.8"/>
      </g>
     </g>
     <g id="text_12">
      <!-- 20 -->
      <g transform="translate(142.288438 66.752957) scale(0.1 -0.1)">
       <use xlink:href="#DejaVuSans-32"/>
       <use xlink:href="#DejaVuSans-30" x="63.623047"/>
      </g>
     </g>
    </g>
    <g id="text_13">
     <!-- Latency (ms) -->
     <g transform="translate(136.20875 188.103812) rotate(-90) scale(0.1 -0.1)">
      <defs>
       <path id="DejaVuSans-4c" d="M 628 4666 
L 1259 4666 
L 1259 531 
L 3531 531 
L 3531 0 
L 628 0 
L 628 4666 
z
" transform="scale(0.015625)"/>
       <path id="DejaVuSans-65" d="M 3597 1894 
L 3597 1613 
L 953 1613 
Q 991 1019 1311 708 
Q 1631 397 2203 397 
Q 2534 397 2845 478 
Q 3156 559 3463 722 
L 3463 178 
Q 3153 47 2828 -22 
Q 2503 -91 2169 -91 
Q 1331 -91 842 396 
Q 353 884 353 1716 
Q 353 2575 817 3079 
Q 1281 3584 2069 3584 
Q 2775 3584 3186 3129 
Q 3597 2675 3597 1894 
z
M 3022 2063 
Q 3016 2534 2758 2815 
Q 2500 3097 2075 3097 
Q 1594 3097 1305 2825 
Q 1016 2553 972 2059 
L 3022 2063 
z
" transform="scale(0.015625)"/>
       <path id="DejaVuSans-63" d="M 3122 3366 
L 3122 2828 
Q 2878 2963 2633 3030 
Q 2388 3097 2138 3097 
Q 1578 3097 1268 2742 
Q 959 2388 959 1747 
Q 959 1106 1268 751 
Q 1578 397 2138 397 
Q 2388 397 2633 464 
Q 2878 531 3122 666 
L 3122 134 
Q 2881 22 2623 -34 
Q 2366 -91 2075 -91 
Q 1284 -91 818 406 
Q 353 903 353 1747 
Q 353 2603 823 3093 
Q 1294 3584 2113 3584 
Q 2378 3584 2631 3529 
Q 2884 3475 3122 3366 
z
" transform="scale(0.015625)"/>
       <path id="DejaVuSans-79" d="M 2059 -325 
Q 1816 -950 1584 -1140 
Q 1353 -1331 966 -1331 
L 506 -1331 
L 506 -850 
L 844 -850 
Q 1081 -850 1212 -737 
Q 1344 -625 1503 -206 
L 1606 56 
L 191 3500 
L 800 3500 
L 1894 763 
L 2988 3500 
L 3597 3500 
L 2059 -325 
z
" transform="scale(0.015625)"/>
       <path id="DejaVuSans-6d" d="M 3328 2828 
Q 3544 3216 3844 3400 
Q 4144 3584 4550 3584 
Q 5097 3584 5394 3201 
Q 5691 2819 5691 2113 
L 5691 0 
L 5113 0 
L 5113 2094 
Q 5113 2597 4934 2840 
Q 4756 3084 4391 3084 
Q 3944 3084 3684 2787 
Q 3425 2491 3425 1978 
L 3425 0 
L 2847 0 
L 2847 2094 
Q 2847 2600 2669 2842 
Q 2491 3084 2119 3084 
Q 1678 3084 1418 2786 
Q 1159 2488 1159 1978 
L 1159 0 
L 581 0 
L 581 3500 
L 1159 3500 
L 1159 2956 
Q 1356 3278 1631 3431 
Q 1906 3584 2284 3584 
Q 2666 3584 2933 3390 
Q 3200 3197 3328 2828 
z
" transform="scale(0.015625)"/>
      </defs>
      <use xlink:href="#DejaVuSans-4c"/>
      <use xlink:href="#DejaVuSans-61" x="55.712891"/>
      <use xlink:href="#DejaVuSans-74" x="116.992188"/>
      <use xlink:href="#DejaVuSans-65" x="156.201172"/>
      <use xlink:href="#DejaVuSans-6e" x="217.724609"/>
      <use xlink:href="#DejaVuSans-63" x="281.103516"/>
      <use xlink:href="#DejaVuSans-79" x="336.083984"/>
      <use xlink:href="#DejaVuSans-20" x="395.263672"/>
      <use xlink:href="#DejaVuSans-28" x="427.050781"/>
      <use xlink:href="#DejaVuSans-6d" x="466.064453"/>
      <use xlink:href="#DejaVuSans-73" x="563.476562"/>
      <use xlink:href="#DejaVuSans-29" x="615.576172"/>
     </g>
    </g>
   </g>
   <g id="line2d_12">
    <path d="M 176.626812 235.148018 
L 192.515472 237.659493 
L 208.129476 238.201314 
L 223.74752 238.28341 
L 277.601456 235.222223 
L 322.391467 231.494291 
L 362.527609 228.21821 
L 401.427678 212.692591 
L 424.112327 195.642933 
L 445.654336 158.398527 
L 436.285922 107.167675 
L 456.803087 33.798412 
" clip-path="url(#p80fd5b6552)" style="fill: none; stroke: #1f77b4; stroke-width: 1.5; stroke-linecap: square"/>
    <defs>
     <path id="m95a46816a3" d="M -3 0 
L 3 0 
M 0 3 
L 0 -3 
" style="stroke: #1f77b4"/>
    </defs>
    <g clip-path="url(#p80fd5b6552)">
     <use xlink:href="#m95a46816a3" x="176.626812" y="235.148018" style="fill: #1f77b4; stroke: #1f77b4"/>
     <use xlink:href="#m95a46816a3" x="192.515472" y="237.659493" style="fill: #1f77b4; stroke: #1f77b4"/>
     <use xlink:href="#m95a46816a3" x="208.129476" y="238.201314" style="fill: #1f77b4; stroke: #1f77b4"/>
     <use xlink:href="#m95a46816a3" x="223.74752" y="238.28341" style="fill: #1f77b4; stroke: #1f77b4"/>
     <use xlink:href="#m95a46816a3" x="277.601456" y="235.222223" style="fill: #1f77b4; stroke: #1f77b4"/>
     <use xlink:href="#m95a46816a3" x="322.391467" y="231.494291" style="fill: #1f77b4; stroke: #1f77b4"/>
     <use xlink:href="#m95a46816a3" x="362.527609" y="228.21821" style="fill: #1f77b4; stroke: #1f77b4"/>
     <use xlink:href="#m95a46816a3" x="401.427678" y="212.692591" style="fill: #1f77b4; stroke: #1f77b4"/>
     <use xlink:href="#m95a46816a3" x="424.112327" y="195.642933" style="fill: #1f77b4; stroke: #1f77b4"/>
     <use xlink:href="#m95a46816a3" x="445.654336" y="158.398527" style="fill: #1f77b4; stroke: #1f77b4"/>
     <use xlink:href="#m95a46816a3" x="436.285922" y="107.167675" style="fill: #1f77b4; stroke: #1f77b4"/>
     <use xlink:href="#m95a46816a3" x="456.803087" y="33.798412" style="fill: #1f77b4; stroke: #1f77b4"/>
    </g>
   </g>
   <g id="line2d_13">
    <path d="M 182.259408 250.769036 
L 208.791985 256.000395 
L 234.527984 257.199267 
L 257.066099 256.678515 
L 330.642043 252.670639 
L 375.063492 246.307913 
L 405.741915 239.62418 
L 422.595719 219.275526 
L 436.450858 200.181767 
L 449.8687 160.533643 
L 438.375733 108.727967 
L 460.359809 37.161061 
" clip-path="url(#p80fd5b6552)" style="fill: none; stroke: #ff7f0e; stroke-width: 1.5; stroke-linecap: square"/>
    <defs>
     <path id="mccce9a9a64" d="M -3 0 
L 3 0 
M 0 3 
L 0 -3 
" style="stroke: #ff7f0e"/>
    </defs>
    <g clip-path="url(#p80fd5b6552)">
     <use xlink:href="#mccce9a9a64" x="182.259408" y="250.769036" style="fill: #ff7f0e; stroke: #ff7f0e"/>
     <use xlink:href="#mccce9a9a64" x="208.791985" y="256.000395" style="fill: #ff7f0e; stroke: #ff7f0e"/>
     <use xlink:href="#mccce9a9a64" x="234.527984" y="257.199267" style="fill: #ff7f0e; stroke: #ff7f0e"/>
     <use xlink:href="#mccce9a9a64" x="257.066099" y="256.678515" style="fill: #ff7f0e; stroke: #ff7f0e"/>
     <use xlink:href="#mccce9a9a64" x="330.642043" y="252.670639" style="fill: #ff7f0e; stroke: #ff7f0e"/>
     <use xlink:href="#mccce9a9a64" x="375.063492" y="246.307913" style="fill: #ff7f0e; stroke: #ff7f0e"/>
     <use xlink:href="#mccce9a9a64" x="405.741915" y="239.62418" style="fill: #ff7f0e; stroke: #ff7f0e"/>
     <use xlink:href="#mccce9a9a64" x="422.595719" y="219.275526" style="fill: #ff7f0e; stroke: #ff7f0e"/>
     <use xlink:href="#mccce9a9a64" x="436.450858" y="200.181767" style="fill: #ff7f0e; stroke: #ff7f0e"/>
     <use xlink:href="#mccce9a9a64" x="449.8687" y="160.533643" style="fill: #ff7f0e; stroke: #ff7f0e"/>
     <use xlink:href="#mccce9a9a64" x="438.375733" y="108.727967" style="fill: #ff7f0e; stroke: #ff7f0e"/>
     <use xlink:href="#mccce9a9a64" x="460.359809" y="37.161061" style="fill: #ff7f0e; stroke: #ff7f0e"/>
    </g>
   </g>
   <g id="line2d_14">
    <path d="M 185.195961 256.165596 
L 219.659153 262.303418 
L 250.169589 263.000396 
L 278.774297 262.858031 
L 357.908891 257.78913 
L 406.573547 251.938413 
L 437.848173 245.491029 
L 461.715821 228.781195 
L 473.492698 211.223967 
L 488.26164 176.284319 
L 477.046243 131.483655 
L 502.823598 69.34205 
" clip-path="url(#p80fd5b6552)" style="fill: none; stroke: #2ca02c; stroke-width: 1.5; stroke-linecap: square"/>
    <defs>
     <path id="m77a8351746" d="M -3 0 
L 3 0 
M 0 3 
L 0 -3 
" style="stroke: #2ca02c"/>
    </defs>
    <g clip-path="url(#p80fd5b6552)">
     <use xlink:href="#m77a8351746" x="185.195961" y="256.165596" style="fill: #2ca02c; stroke: #2ca02c"/>
     <use xlink:href="#m77a8351746" x="219.659153" y="262.303418" style="fill: #2ca02c; stroke: #2ca02c"/>
     <use xlink:href="#m77a8351746" x="250.169589" y="263.000396" style="fill: #2ca02c; stroke: #2ca02c"/>
     <use xlink:href="#m77a8351746" x="278.774297" y="262.858031" style="fill: #2ca02c; stroke: #2ca02c"/>
     <use xlink:href="#m77a8351746" x="357.908891" y="257.78913" style="fill: #2ca02c; stroke: #2ca02c"/>
     <use xlink:href="#m77a8351746" x="406.573547" y="251.938413" style="fill: #2ca02c; stroke: #2ca02c"/>
     <use xlink:href="#m77a8351746" x="437.848173" y="245.491029" style="fill: #2ca02c; stroke: #2ca02c"/>
     <use xlink:href="#m77a8351746" x="461.715821" y="228.781195" style="fill: #2ca02c; stroke: #2ca02c"/>
     <use xlink:href="#m77a8351746" x="473.492698" y="211.223967" style="fill: #2ca02c; stroke: #2ca02c"/>
     <use xlink:href="#m77a8351746" x="488.26164" y="176.284319" style="fill: #2ca02c; stroke: #2ca02c"/>
     <use xlink:href="#m77a8351746" x="477.046243" y="131.483655" style="fill: #2ca02c; stroke: #2ca02c"/>
     <use xlink:href="#m77a8351746" x="502.823598" y="69.34205" style="fill: #2ca02c; stroke: #2ca02c"/>
    </g>
   </g>
   <g id="line2d_15">
    <path d="M 187.519062 258.633644 
L 218.541736 262.08809 
L 251.858556 263.404143 
L 279.177187 262.830493 
L 351.465677 256.816587 
L 397.027339 250.514276 
L 424.678812 243.428873 
L 444.418254 225.036016 
L 456.859529 206.661277 
L 470.690434 169.591268 
L 464.070239 124.527692 
L 484.205289 56.256119 
" clip-path="url(#p80fd5b6552)" style="fill: none; stroke: #d62728; stroke-width: 1.5; stroke-linecap: square"/>
    <defs>
     <path id="m1f65862179" d="M -3 0 
L 3 0 
M 0 3 
L 0 -3 
" style="stroke: #d62728"/>
    </defs>
    <g clip-path="url(#p80fd5b6552)">
     <use xlink:href="#m1f65862179" x="187.519062" y="258.633644" style="fill: #d62728; stroke: #d62728"/>
     <use xlink:href="#m1f65862179" x="218.541736" y="262.08809" style="fill: #d62728; stroke: #d62728"/>
     <use xlink:href="#m1f65862179" x="251.858556" y="263.404143" style="fill: #d62728; stroke: #d62728"/>
     <use xlink:href="#m1f65862179" x="279.177187" y="262.830493" style="fill: #d62728; stroke: #d62728"/>
     <use xlink:href="#m1f65862179" x="351.465677" y="256.816587" style="fill: #d62728; stroke: #d62728"/>
     <use xlink:href="#m1f65862179" x="397.027339" y="250.514276" style="fill: #d62728; stroke: #d62728"/>
     <use xlink:href="#m1f65862179" x="424.678812" y="243.428873" style="fill: #d62728; stroke: #d62728"/>
     <use xlink:href="#m1f65862179" x="444.418254" y="225.036016" style="fill: #d62728; stroke: #d62728"/>
     <use xlink:href="#m1f65862179" x="456.859529" y="206.661277" style="fill: #d62728; stroke: #d62728"/>
     <use xlink:href="#m1f65862179" x="470.690434" y="169.591268" style="fill: #d62728; stroke: #d62728"/>
     <use xlink:href="#m1f65862179" x="464.070239" y="124.527692" style="fill: #d62728; stroke: #d62728"/>
     <use xlink:href="#m1f65862179" x="484.205289" y="56.256119" style="fill: #d62728; stroke: #d62728"/>
    </g>
   </g>
   <g id="patch_3">
    <path d="M 162.013438 288.430125 
L 162.013438 22.318125 
" style="fill: none; stroke: #000000; stroke-width: 0.8; stroke-linejoin: miter; stroke-linecap: square"/>
   </g>
   <g id="patch_4">
    <path d="M 519.133438 288.430125 
L 519.133438 22.318125 
" style="fill: none; stroke: #000000; stroke-width: 0.8; stroke-linejoin: miter; stroke-linecap: square"/>
   </g>
   <g id="patch_5">
    <path d="M 162.013438 288.430125 
L 519.133438 288.430125 
" style="fill: none; stroke: #000000; stroke-width: 0.8; stroke-linejoin: miter; stroke-linecap: square"/>
   </g>
   <g id="patch_6">
    <path d="M 162.013438 22.318125 
L 519.133438 22.318125 
" style="fill: none; stroke: #000000; stroke-width: 0.8; stroke-linejoin: miter; stroke-linecap: square"/>
   </g>
   <g id="text_14">
    <!-- 1024K  Sequential Write -->
    <g transform="translate(267.838438 16.318125) scale(0.12 -0.12)">
     <defs>
      <path id="DejaVuSans-4b" d="M 628 4666 
L 1259 4666 
L 1259 2694 
L 3353 4666 
L 4166 4666 
L 1850 2491 
L 4331 0 
L 3500 0 
L 1259 2247 
L 1259 0 
L 628 0 
L 628 4666 
z
" transform="scale(0.015625)"/>
      <path id="DejaVuSans-53" d="M 3425 4513 
L 3425 3897 
Q 3066 4069 2747 4153 
Q 2428 4238 2131 4238 
Q 1616 4238 1336 4038 
Q 1056 3838 1056 3469 
Q 1056 3159 1242 3001 
Q 1428 2844 1947 2747 
L 2328 2669 
Q 3034 2534 3370 2195 
Q 3706 1856 3706 1288 
Q 3706 609 3251 259 
Q 2797 -91 1919 -91 
Q 1588 -91 1214 -16 
Q 841 59 441 206 
L 441 856 
Q 825 641 1194 531 
Q 1563 422 1919 422 
Q 2459 422 2753 634 
Q 3047 847 3047 1241 
Q 3047 1584 2836 1778 
Q 2625 1972 2144 2069 
L 1759 2144 
Q 1053 2284 737 2584 
Q 422 2884 422 3419 
Q 422 4038 858 4394 
Q 1294 4750 2059 4750 
Q 2388 4750 2728 4690 
Q 3069 4631 3425 4513 
z
" transform="scale(0.015625)"/>
      <path id="DejaVuSans-71" d="M 947 1747 
Q 947 1113 1208 752 
Q 1469 391 1925 391 
Q 2381 391 2643 752 
Q 2906 1113 2906 1747 
Q 2906 2381 2643 2742 
Q 2381 3103 1925 3103 
Q 1469 3103 1208 2742 
Q 947 2381 947 1747 
z
M 2906 525 
Q 2725 213 2448 61 
Q 2172 -91 1784 -91 
Q 1150 -91 751 415 
Q 353 922 353 1747 
Q 353 2572 751 3078 
Q 1150 3584 1784 3584 
Q 2172 3584 2448 3432 
Q 2725 3281 2906 2969 
L 2906 3500 
L 3481 3500 
L 3481 -1331 
L 2906 -1331 
L 2906 525 
z
" transform="scale(0.015625)"/>
      <path id="DejaVuSans-75" d="M 544 1381 
L 544 3500 
L 1119 3500 
L 1119 1403 
Q 1119 906 1312 657 
Q 1506 409 1894 409 
Q 2359 409 2629 706 
Q 2900 1003 2900 1516 
L 2900 3500 
L 3475 3500 
L 3475 0 
L 2900 0 
L 2900 538 
Q 2691 219 2414 64 
Q 2138 -91 1772 -91 
Q 1169 -91 856 284 
Q 544 659 544 1381 
z
M 1991 3584 
L 1991 3584 
z
" transform="scale(0.015625)"/>
      <path id="DejaVuSans-6c" d="M 603 4863 
L 1178 4863 
L 1178 0 
L 603 0 
L 603 4863 
z
" transform="scale(0.015625)"/>
      <path id="DejaVuSans-57" d="M 213 4666 
L 850 4666 
L 1831 722 
L 2809 4666 
L 3519 4666 
L 4500 722 
L 5478 4666 
L 6119 4666 
L 4947 0 
L 4153 0 
L 3169 4050 
L 2175 0 
L 1381 0 
L 213 4666 
z
" transform="scale(0.015625)"/>
      <path id="DejaVuSans-72" d="M 2631 2963 
Q 2534 3019 2420 3045 
Q 2306 3072 2169 3072 
Q 1681 3072 1420 2755 
Q 1159 2438 1159 1844 
L 1159 0 
L 581 0 
L 581 3500 
L 1159 3500 
L 1159 2956 
Q 1341 3275 1631 3429 
Q 1922 3584 2338 3584 
Q 2397 3584 2469 3576 
Q 2541 3569 2628 3553 
L 2631 2963 
z
" transform="scale(0.015625)"/>
     </defs>
     <use xlink:href="#DejaVuSans-31"/>
     <use xlink:href="#DejaVuSans-30" x="63.623047"/>
     <use xlink:href="#DejaVuSans-32" x="127.246094"/>
     <use xlink:href="#DejaVuSans-34" x="190.869141"/>
     <use xlink:href="#DejaVuSans-4b" x="254.492188"/>
     <use xlink:href="#DejaVuSans-20" x="320.068359"/>
     <use xlink:href="#DejaVuSans-20" x="351.855469"/>
     <use xlink:href="#DejaVuSans-53" x="383.642578"/>
     <use xlink:href="#DejaVuSans-65" x="447.119141"/>
     <use xlink:href="#DejaVuSans-71" x="508.642578"/>
     <use xlink:href="#DejaVuSans-75" x="572.119141"/>
     <use xlink:href="#DejaVuSans-65" x="635.498047"/>
     <use xlink:href="#DejaVuSans-6e" x="697.021484"/>
     <use xlink:href="#DejaVuSans-74" x="760.400391"/>
     <use xlink:href="#DejaVuSans-69" x="799.609375"/>
     <use xlink:href="#DejaVuSans-61" x="827.392578"/>
     <use xlink:href="#DejaVuSans-6c" x="888.671875"/>
     <use xlink:href="#DejaVuSans-20" x="916.455078"/>
     <use xlink:href="#DejaVuSans-57" x="948.242188"/>
     <use xlink:href="#DejaVuSans-72" x="1042.619141"/>
     <use xlink:href="#DejaVuSans-69" x="1083.732422"/>
     <use xlink:href="#DejaVuSans-74" x="1111.515625"/>
     <use xlink:href="#DejaVuSans-65" x="1150.724609"/>
    </g>
   </g>
   <g id="legend_1">
    <g id="patch_7">
     <path d="M 9.2 352.953825 
L 671.946875 352.953825 
Q 673.946875 352.953825 673.946875 350.953825 
L 673.946875 322.041325 
Q 673.946875 320.041325 671.946875 320.041325 
L 9.2 320.041325 
Q 7.2 320.041325 7.2 322.041325 
L 7.2 350.953825 
Q 7.2 352.953825 9.2 352.953825 
z
" style="fill: #ffffff; opacity: 0.8; stroke: #cccccc; stroke-linejoin: miter"/>
    </g>
    <g id="line2d_16">
     <path d="M 11.2 328.139762 
L 21.2 328.139762 
L 31.2 328.139762 
" style="fill: none; stroke: #1f77b4; stroke-width: 1.5; stroke-linecap: square"/>
     <g>
      <use xlink:href="#m95a46816a3" x="21.2" y="328.139762" style="fill: #1f77b4; stroke: #1f77b4"/>
     </g>
    </g>
    <g id="text_15">
     <!-- cbt_15thNov25_4k_o01_6+2_squid_appends_chopped -->
     <g transform="translate(39.2 331.639762) scale(0.1 -0.1)">
      <defs>
       <path id="DejaVuSans-62" d="M 3116 1747 
Q 3116 2381 2855 2742 
Q 2594 3103 2138 3103 
Q 1681 3103 1420 2742 
Q 1159 2381 1159 1747 
Q 1159 1113 1420 752 
Q 1681 391 2138 391 
Q 2594 391 2855 752 
Q 3116 1113 3116 1747 
z
M 1159 2969 
Q 1341 3281 1617 3432 
Q 1894 3584 2278 3584 
Q 2916 3584 3314 3078 
Q 3713 2572 3713 1747 
Q 3713 922 3314 415 
Q 2916 -91 2278 -91 
Q 1894 -91 1617 61 
Q 1341 213 1159 525 
L 1159 0 
L 581 0 
L 581 4863 
L 1159 4863 
L 1159 2969 
z
" transform="scale(0.015625)"/>
       <path id="DejaVuSans-5f" d="M 3263 -1063 
L 3263 -1509 
L -63 -1509 
L -63 -1063 
L 3263 -1063 
z
" transform="scale(0.015625)"/>
       <path id="DejaVuSans-4e" d="M 628 4666 
L 1478 4666 
L 3547 763 
L 3547 4666 
L 4159 4666 
L 4159 0 
L 3309 0 
L 1241 3903 
L 1241 0 
L 628 0 
L 628 4666 
z
" transform="scale(0.015625)"/>
       <path id="DejaVuSans-6f" d="M 1959 3097 
Q 1497 3097 1228 2736 
Q 959 2375 959 1747 
Q 959 1119 1226 758 
Q 1494 397 1959 397 
Q 2419 397 2687 759 
Q 2956 1122 2956 1747 
Q 2956 2369 2687 2733 
Q 2419 3097 1959 3097 
z
M 1959 3584 
Q 2709 3584 3137 3096 
Q 3566 2609 3566 1747 
Q 3566 888 3137 398 
Q 2709 -91 1959 -91 
Q 1206 -91 779 398 
Q 353 888 353 1747 
Q 353 2609 779 3096 
Q 1206 3584 1959 3584 
z
" transform="scale(0.015625)"/>
       <path id="DejaVuSans-76" d="M 191 3500 
L 800 3500 
L 1894 563 
L 2988 3500 
L 3597 3500 
L 2284 0 
L 1503 0 
L 191 3500 
z
" transform="scale(0.015625)"/>
       <path id="DejaVuSans-6b" d="M 581 4863 
L 1159 4863 
L 1159 1991 
L 2875 3500 
L 3609 3500 
L 1753 1863 
L 3688 0 
L 2938 0 
L 1159 1709 
L 1159 0 
L 581 0 
L 581 4863 
z
" transform="scale(0.015625)"/>
       <path id="DejaVuSans-36" d="M 2113 2584 
Q 1688 2584 1439 2293 
Q 1191 2003 1191 1497 
Q 1191 994 1439 701 
Q 1688 409 2113 409 
Q 2538 409 2786 701 
Q 3034 994 3034 1497 
Q 3034 2003 2786 2293 
Q 2538 2584 2113 2584 
z
M 3366 4563 
L 3366 3988 
Q 3128 4100 2886 4159 
Q 2644 4219 2406 4219 
Q 1781 4219 1451 3797 
Q 1122 3375 1075 2522 
Q 1259 2794 1537 2939 
Q 1816 3084 2150 3084 
Q 2853 3084 3261 2657 
Q 3669 2231 3669 1497 
Q 3669 778 3244 343 
Q 2819 -91 2113 -91 
Q 1303 -91 875 529 
Q 447 1150 447 2328 
Q 447 3434 972 4092 
Q 1497 4750 2381 4750 
Q 2619 4750 2861 4703 
Q 3103 4656 3366 4563 
z
" transform="scale(0.015625)"/>
       <path id="DejaVuSans-2b" d="M 2944 4013 
L 2944 2272 
L 4684 2272 
L 4684 1741 
L 2944 1741 
L 2944 0 
L 2419 0 
L 2419 1741 
L 678 1741 
L 678 2272 
L 2419 2272 
L 2419 4013 
L 2944 4013 
z
" transform="scale(0.015625)"/>
       <path id="DejaVuSans-70" d="M 1159 525 
L 1159 -1331 
L 581 -1331 
L 581 3500 
L 1159 3500 
L 1159 2969 
Q 1341 3281 1617 3432 
Q 1894 3584 2278 3584 
Q 2916 3584 3314 3078 
Q 3713 2572 3713 1747 
Q 3713 922 3314 415 
Q 2916 -91 2278 -91 
Q 1894 -91 1617 61 
Q 1341 213 1159 525 
z
M 3116 1747 
Q 3116 2381 2855 2742 
Q 2594 3103 2138 3103 
Q 1681 3103 1420 2742 
Q 1159 2381 1159 1747 
Q 1159 1113 1420 752 
Q 1681 391 2138 391 
Q 2594 391 2855 752 
Q 3116 1113 3116 1747 
z
" transform="scale(0.015625)"/>
      </defs>
      <use xlink:href="#DejaVuSans-63"/>
      <use xlink:href="#DejaVuSans-62" x="54.980469"/>
      <use xlink:href="#DejaVuSans-74" x="118.457031"/>
      <use xlink:href="#DejaVuSans-5f" x="157.666016"/>
      <use xlink:href="#DejaVuSans-31" x="207.666016"/>
      <use xlink:href="#DejaVuSans-35" x="271.289062"/>
      <use xlink:href="#DejaVuSans-74" x="334.912109"/>
      <use xlink:href="#DejaVuSans-68" x="374.121094"/>
      <use xlink:href="#DejaVuSans-4e" x="437.5"/>
      <use xlink:href="#DejaVuSans-6f" x="512.304688"/>
      <use xlink:href="#DejaVuSans-76" x="573.486328"/>
      <use xlink:href="#DejaVuSans-32" x="632.666016"/>
      <use xlink:href="#DejaVuSans-35" x="696.289062"/>
      <use xlink:href="#DejaVuSans-5f" x="759.912109"/>
      <use xlink:href="#DejaVuSans-34" x="809.912109"/>
      <use xlink:href="#DejaVuSans-6b" x="873.535156"/>
      <use xlink:href="#DejaVuSans-5f" x="931.445312"/>
      <use xlink:href="#DejaVuSans-6f" x="981.445312"/>
      <use xlink:href="#DejaVuSans-30" x="1042.626953"/>
      <use xlink:href="#DejaVuSans-31" x="1106.25"/>
      <use xlink:href="#DejaVuSans-5f" x="1169.873047"/>
      <use xlink:href="#DejaVuSans-36" x="1219.873047"/>
      <use xlink:href="#DejaVuSans-2b" x="1283.496094"/>
      <use xlink:href="#DejaVuSans-32" x="1367.285156"/>
      <use xlink:href="#DejaVuSans-5f" x="1430.908203"/>
      <use xlink:href="#DejaVuSans-73" x="1480.908203"/>
      <use xlink:href="#DejaVuSans-71" x="1533.007812"/>
      <use xlink:href="#DejaVuSans-75" x="1596.484375"/>
      <use xlink:href="#DejaVuSans-69" x="1659.863281"/>
      <use xlink:href="#DejaVuSans-64" x="1687.646484"/>
      <use xlink:href="#DejaVuSans-5f" x="1751.123047"/>
      <use xlink:href="#DejaVuSans-61" x="1801.123047"/>
      <use xlink:href="#DejaVuSans-70" x="1862.402344"/>
      <use xlink:href="#DejaVuSans-70" x="1925.878906"/>
      <use xlink:href="#DejaVuSans-65" x="1989.355469"/>
      <use xlink:href="#DejaVuSans-6e" x="2050.878906"/>
      <use xlink:href="#DejaVuSans-64" x="2114.257812"/>
      <use xlink:href="#DejaVuSans-73" x="2177.734375"/>
      <use xlink:href="#DejaVuSans-5f" x="2229.833984"/>
      <use xlink:href="#DejaVuSans-63" x="2279.833984"/>
      <use xlink:href="#DejaVuSans-68" x="2334.814453"/>
      <use xlink:href="#DejaVuSans-6f" x="2398.193359"/>
      <use xlink:href="#DejaVuSans-70" x="2459.375"/>
      <use xlink:href="#DejaVuSans-70" x="2522.851562"/>
      <use xlink:href="#DejaVuSans-65" x="2586.328125"/>
      <use xlink:href="#DejaVuSans-64" x="2647.851562"/>
     </g>
    </g>
    <g id="line2d_17">
     <path d="M 11.2 343.096012 
L 21.2 343.096012 
L 31.2 343.096012 
" style="fill: none; stroke: #ff7f0e; stroke-width: 1.5; stroke-linecap: square"/>
     <g>
      <use xlink:href="#mccce9a9a64" x="21.2" y="343.096012" style="fill: #ff7f0e; stroke: #ff7f0e"/>
     </g>
    </g>
    <g id="text_16">
     <!-- cbt_15thNov25_16k_o01_2+2_tentacle_appends_chopped -->
     <g transform="translate(39.2 346.596012) scale(0.1 -0.1)">
      <use xlink:href="#DejaVuSans-63"/>
      <use xlink:href="#DejaVuSans-62" x="54.980469"/>
      <use xlink:href="#DejaVuSans-74" x="118.457031"/>
      <use xlink:href="#DejaVuSans-5f" x="157.666016"/>
      <use xlink:href="#DejaVuSans-31" x="207.666016"/>
      <use xlink:href="#DejaVuSans-35" x="271.289062"/>
      <use xlink:href="#DejaVuSans-74" x="334.912109"/>
      <use xlink:href="#DejaVuSans-68" x="374.121094"/>
      <use xlink:href="#DejaVuSans-4e" x="437.5"/>
      <use xlink:href="#DejaVuSans-6f" x="512.304688"/>
      <use xlink:href="#DejaVuSans-76" x="573.486328"/>
      <use xlink:href="#DejaVuSans-32" x="632.666016"/>
      <use xlink:href="#DejaVuSans-35" x="696.289062"/>
      <use xlink:href="#DejaVuSans-5f" x="759.912109"/>
      <use xlink:href="#DejaVuSans-31" x="809.912109"/>
      <use xlink:href="#DejaVuSans-36" x="873.535156"/>
      <use xlink:href="#DejaVuSans-6b" x="937.158203"/>
      <use xlink:href="#DejaVuSans-5f" x="995.068359"/>
      <use xlink:href="#DejaVuSans-6f" x="1045.068359"/>
      <use xlink:href="#DejaVuSans-30" x="1106.25"/>
      <use xlink:href="#DejaVuSans-31" x="1169.873047"/>
      <use xlink:href="#DejaVuSans-5f" x="1233.496094"/>
      <use xlink:href="#DejaVuSans-32" x="1283.496094"/>
      <use xlink:href="#DejaVuSans-2b" x="1347.119141"/>
      <use xlink:href="#DejaVuSans-32" x="1430.908203"/>
      <use xlink:href="#DejaVuSans-5f" x="1494.53125"/>
      <use xlink:href="#DejaVuSans-74" x="1544.53125"/>
      <use xlink:href="#DejaVuSans-65" x="1583.740234"/>
      <use xlink:href="#DejaVuSans-6e" x="1645.263672"/>
      <use xlink:href="#DejaVuSans-74" x="1708.642578"/>
      <use xlink:href="#DejaVuSans-61" x="1747.851562"/>
      <use xlink:href="#DejaVuSans-63" x="1809.130859"/>
      <use xlink:href="#DejaVuSans-6c" x="1864.111328"/>
      <use xlink:href="#DejaVuSans-65" x="1891.894531"/>
      <use xlink:href="#DejaVuSans-5f" x="1953.417969"/>
      <use xlink:href="#DejaVuSans-61" x="2003.417969"/>
      <use xlink:href="#DejaVuSans-70" x="2064.697266"/>
      <use xlink:href="#DejaVuSans-70" x="2128.173828"/>
      <use xlink:href="#DejaVuSans-65" x="2191.650391"/>
      <use xlink:href="#DejaVuSans-6e" x="2253.173828"/>
      <use xlink:href="#DejaVuSans-64" x="2316.552734"/>
      <use xlink:href="#DejaVuSans-73" x="2380.029297"/>
      <use xlink:href="#DejaVuSans-5f" x="2432.128906"/>
      <use xlink:href="#DejaVuSans-63" x="2482.128906"/>
      <use xlink:href="#DejaVuSans-68" x="2537.109375"/>
      <use xlink:href="#DejaVuSans-6f" x="2600.488281"/>
      <use xlink:href="#DejaVuSans-70" x="2661.669922"/>
      <use xlink:href="#DejaVuSans-70" x="2725.146484"/>
      <use xlink:href="#DejaVuSans-65" x="2788.623047"/>
      <use xlink:href="#DejaVuSans-64" x="2850.146484"/>
     </g>
    </g>
    <g id="line2d_18">
     <path d="M 350.573438 328.139762 
L 360.573438 328.139762 
L 370.573438 328.139762 
" style="fill: none; stroke: #2ca02c; stroke-width: 1.5; stroke-linecap: square"/>
     <g>
      <use xlink:href="#m77a8351746" x="360.573438" y="328.139762" style="fill: #2ca02c; stroke: #2ca02c"/>
     </g>
    </g>
    <g id="text_17">
     <!-- cbt_15thNov25_16k_o01_4+2_tentacle_appends_chopped -->
     <g transform="translate(378.573438 331.639762) scale(0.1 -0.1)">
      <use xlink:href="#DejaVuSans-63"/>
      <use xlink:href="#DejaVuSans-62" x="54.980469"/>
      <use xlink:href="#DejaVuSans-74" x="118.457031"/>
      <use xlink:href="#DejaVuSans-5f" x="157.666016"/>
      <use xlink:href="#DejaVuSans-31" x="207.666016"/>
      <use xlink:href="#DejaVuSans-35" x="271.289062"/>
      <use xlink:href="#DejaVuSans-74" x="334.912109"/>
      <use xlink:href="#DejaVuSans-68" x="374.121094"/>
      <use xlink:href="#DejaVuSans-4e" x="437.5"/>
      <use xlink:href="#DejaVuSans-6f" x="512.304688"/>
      <use xlink:href="#DejaVuSans-76" x="573.486328"/>
      <use xlink:href="#DejaVuSans-32" x="632.666016"/>
      <use xlink:href="#DejaVuSans-35" x="696.289062"/>
      <use xlink:href="#DejaVuSans-5f" x="759.912109"/>
      <use xlink:href="#DejaVuSans-31" x="809.912109"/>
      <use xlink:href="#DejaVuSans-36" x="873.535156"/>
      <use xlink:href="#DejaVuSans-6b" x="937.158203"/>
      <use xlink:href="#DejaVuSans-5f" x="995.068359"/>
      <use xlink:href="#DejaVuSans-6f" x="1045.068359"/>
      <use xlink:href="#DejaVuSans-30" x="1106.25"/>
      <use xlink:href="#DejaVuSans-31" x="1169.873047"/>
      <use xlink:href="#DejaVuSans-5f" x="1233.496094"/>
      <use xlink:href="#DejaVuSans-34" x="1283.496094"/>
      <use xlink:href="#DejaVuSans-2b" x="1347.119141"/>
      <use xlink:href="#DejaVuSans-32" x="1430.908203"/>
      <use xlink:href="#DejaVuSans-5f" x="1494.53125"/>
      <use xlink:href="#DejaVuSans-74" x="1544.53125"/>
      <use xlink:href="#DejaVuSans-65" x="1583.740234"/>
      <use xlink:href="#DejaVuSans-6e" x="1645.263672"/>
      <use xlink:href="#DejaVuSans-74" x="1708.642578"/>
      <use xlink:href="#DejaVuSans-61" x="1747.851562"/>
      <use xlink:href="#DejaVuSans-63" x="1809.130859"/>
      <use xlink:href="#DejaVuSans-6c" x="1864.111328"/>
      <use xlink:href="#DejaVuSans-65" x="1891.894531"/>
      <use xlink:href="#DejaVuSans-5f" x="1953.417969"/>
      <use xlink:href="#DejaVuSans-61" x="2003.417969"/>
      <use xlink:href="#DejaVuSans-70" x="2064.697266"/>
      <use xlink:href="#DejaVuSans-70" x="2128.173828"/>
      <use xlink:href="#DejaVuSans-65" x="2191.650391"/>
      <use xlink:href="#DejaVuSans-6e" x="2253.173828"/>
      <use xlink:href="#DejaVuSans-64" x="2316.552734"/>
      <use xlink:href="#DejaVuSans-73" x="2380.029297"/>
      <use xlink:href="#DejaVuSans-5f" x="2432.128906"/>
      <use xlink:href="#DejaVuSans-63" x="2482.128906"/>
      <use xlink:href="#DejaVuSans-68" x="2537.109375"/>
      <use xlink:href="#DejaVuSans-6f" x="2600.488281"/>
      <use xlink:href="#DejaVuSans-70" x="2661.669922"/>
      <use xlink:href="#DejaVuSans-70" x="2725.146484"/>
      <use xlink:href="#DejaVuSans-65" x="2788.623047"/>
      <use xlink:href="#DejaVuSans-64" x="2850.146484"/>
     </g>
    </g>
    <g id="line2d_19">
     <path d="M 350.573438 343.096012 
L 360.573438 343.096012 
L 370.573438 343.096012 
" style="fill: none; stroke: #d62728; stroke-width: 1.5; stroke-linecap: square"/>
     <g>
      <use xlink:href="#m1f65862179" x="360.573438" y="343.096012" style="fill: #d62728; stroke: #d62728"/>
     </g>
    </g>
    <g id="text_18">
     <!-- cbt_15thNov25_16k_o01_6+2_tentacle_appends_chopped -->
     <g transform="translate(378.573438 346.596012) scale(0.1 -0.1)">
      <use xlink:href="#DejaVuSans-63"/>
      <use xlink:href="#DejaVuSans-62" x="54.980469"/>
      <use xlink:href="#DejaVuSans-74" x="118.457031"/>
      <use xlink:href="#DejaVuSans-5f" x="157.666016"/>
      <use xlink:href="#DejaVuSans-31" x="207.666016"/>
      <use xlink:href="#DejaVuSans-35" x="271.289062"/>
      <use xlink:href="#DejaVuSans-74" x="334.912109"/>
      <use xlink:href="#DejaVuSans-68" x="374.121094"/>
      <use xlink:href="#DejaVuSans-4e" x="437.5"/>
      <use xlink:href="#DejaVuSans-6f" x="512.304688"/>
      <use xlink:href="#DejaVuSans-76" x="573.486328"/>
      <use xlink:href="#DejaVuSans-32" x="632.666016"/>
      <use xlink:href="#DejaVuSans-35" x="696.289062"/>
      <use xlink:href="#DejaVuSans-5f" x="759.912109"/>
      <use xlink:href="#DejaVuSans-31" x="809.912109"/>
      <use xlink:href="#DejaVuSans-36" x="873.535156"/>
      <use xlink:href="#DejaVuSans-6b" x="937.158203"/>
      <use xlink:href="#DejaVuSans-5f" x="995.068359"/>
      <use xlink:href="#DejaVuSans-6f" x="1045.068359"/>
      <use xlink:href="#DejaVuSans-30" x="1106.25"/>
      <use xlink:href="#DejaVuSans-31" x="1169.873047"/>
      <use xlink:href="#DejaVuSans-5f" x="1233.496094"/>
      <use xlink:href="#DejaVuSans-36" x="1283.496094"/>
      <use xlink:href="#DejaVuSans-2b" x="1347.119141"/>
      <use xlink:href="#DejaVuSans-32" x="1430.908203"/>
      <use xlink:href="#DejaVuSans-5f" x="1494.53125"/>
      <use xlink:href="#DejaVuSans-74" x="1544.53125"/>
      <use xlink:href="#DejaVuSans-65" x="1583.740234"/>
      <use xlink:href="#DejaVuSans-6e" x="1645.263672"/>
      <use xlink:href="#DejaVuSans-74" x="1708.642578"/>
      <use xlink:href="#DejaVuSans-61" x="1747.851562"/>
      <use xlink:href="#DejaVuSans-63" x="1809.130859"/>
      <use xlink:href="#DejaVuSans-6c" x="1864.111328"/>
      <use xlink:href="#DejaVuSans-65" x="1891.894531"/>
      <use xlink:href="#DejaVuSans-5f" x="1953.417969"/>
      <use xlink:href="#DejaVuSans-61" x="2003.417969"/>
      <use xlink:href="#DejaVuSans-70" x="2064.697266"/>
      <use xlink:href="#DejaVuSans-70" x="2128.173828"/>
      <use xlink:href="#DejaVuSans-65" x="2191.650391"/>
      <use xlink:href="#DejaVuSans-6e" x="2253.173828"/>
      <use xlink:href="#DejaVuSans-64" x="2316.552734"/>
      <use xlink:href="#DejaVuSans-73" x="2380.029297"/>
      <use xlink:href="#DejaVuSans-5f" x="2432.128906"/>
      <use xlink:href="#DejaVuSans-63" x="2482.128906"/>
      <use xlink:href="#DejaVuSans-68" x="2537.109375"/>
      <use xlink:href="#DejaVuSans-6f" x="2600.488281"/>
      <use xlink:href="#DejaVuSans-70" x="2661.669922"/>
      <use xlink:href="#DejaVuSans-70" x="2725.146484"/>
      <use xlink:href="#DejaVuSans-65" x="2788.623047"/>
      <use xlink:href="#DejaVuSans-64" x="2850.146484"/>
     </g>
    </g>
   </g>
  </g>
 </g>
 <defs>
  <clipPath id="p80fd5b6552">
   <rect x="162.013438" y="22.318125" width="357.12" height="266.112"/>
  </clipPath>
 </defs>
</svg>
