<?xml version="1.0" encoding="utf-8" standalone="no"?>
<!DOCTYPE svg PUBLIC "-//W3C//DTD SVG 1.1//EN"
  "http://www.w3.org/Graphics/SVG/1.1/DTD/svg11.dtd">
<svg xmlns:xlink="http://www.w3.org/1999/xlink" width="531.94375pt" height="375.110075pt" viewBox="0 0 531.94375 375.110075" xmlns="http://www.w3.org/2000/svg" version="1.1">
 <metadata>
  <rdf:RDF xmlns:dc="http://purl.org/dc/elements/1.1/" xmlns:cc="http://creativecommons.org/ns#" xmlns:rdf="http://www.w3.org/1999/02/22-rdf-syntax-ns#">
   <cc:Work>
    <dc:type rdf:resource="http://purl.org/dc/dcmitype/StillImage"/>
    <dc:date>2025-12-19T09:56:27.281657</dc:date>
    <dc:format>image/svg+xml</dc:format>
    <dc:creator>
     <cc:Agent>
      <dc:title>Matplotlib v3.9.4, https://matplotlib.org/</dc:title>
     </cc:Agent>
    </dc:creator>
   </cc:Work>
  </rdf:RDF>
 </metadata>
 <defs>
  <style type="text/css">*{stroke-linejoin: round; stroke-linecap: butt}</style>
 </defs>
 <g id="figure_1">
  <g id="patch_1">
   <path d="M 0 375.110075 
L 531.94375 375.110075 
L 531.94375 0 
L 0 0 
z
" style="fill: #ffffff"/>
  </g>
  <g id="axes_1">
   <g id="patch_2">
    <path d="M 87.411875 288.430125 
L 444.531875 288.430125 
L 444.531875 22.318125 
L 87.411875 22.318125 
z
" style="fill: #ffffff"/>
   </g>
   <g id="matplotlib.axis_1">
    <g id="xtick_1">
     <g id="line2d_1">
      <defs>
       <path id="m8f081e13cd" d="M 0 0 
L 0 3.5 
" style="stroke: #000000; stroke-width: 0.8"/>
      </defs>
      <g>
       <use xlink:href="#m8f081e13cd" x="87.411875" y="288.430125" style="stroke: #000000; stroke-width: 0.8"/>
      </g>
     </g>
     <g id="text_1">
      <!-- 0 -->
      <g transform="translate(84.230625 303.028562) scale(0.1 -0.1)">
       <defs>
        <path id="DejaVuSans-30" d="M 2034 4250 
Q 1547 4250 1301 3770 
Q 1056 3291 1056 2328 
Q 1056 1369 1301 889 
Q 1547 409 2034 409 
Q 2525 409 2770 889 
Q 3016 1369 3016 2328 
Q 3016 3291 2770 3770 
Q 2525 4250 2034 4250 
z
M 2034 4750 
Q 2819 4750 3233 4129 
Q 3647 3509 3647 2328 
Q 3647 1150 3233 529 
Q 2819 -91 2034 -91 
Q 1250 -91 836 529 
Q 422 1150 422 2328 
Q 422 3509 836 4129 
Q 1250 4750 2034 4750 
z
" transform="scale(0.015625)"/>
       </defs>
       <use xlink:href="#DejaVuSans-30"/>
      </g>
     </g>
    </g>
    <g id="xtick_2">
     <g id="line2d_2">
      <g>
       <use xlink:href="#m8f081e13cd" x="165.598133" y="288.430125" style="stroke: #000000; stroke-width: 0.8"/>
      </g>
     </g>
     <g id="text_2">
      <!-- 500 -->
      <g transform="translate(156.054383 303.028562) scale(0.1 -0.1)">
       <defs>
        <path id="DejaVuSans-35" d="M 691 4666 
L 3169 4666 
L 3169 4134 
L 1269 4134 
L 1269 2991 
Q 1406 3038 1543 3061 
Q 1681 3084 1819 3084 
Q 2600 3084 3056 2656 
Q 3513 2228 3513 1497 
Q 3513 744 3044 326 
Q 2575 -91 1722 -91 
Q 1428 -91 1123 -41 
Q 819 9 494 109 
L 494 744 
Q 775 591 1075 516 
Q 1375 441 1709 441 
Q 2250 441 2565 725 
Q 2881 1009 2881 1497 
Q 2881 1984 2565 2268 
Q 2250 2553 1709 2553 
Q 1456 2553 1204 2497 
Q 953 2441 691 2322 
L 691 4666 
z
" transform="scale(0.015625)"/>
       </defs>
       <use xlink:href="#DejaVuSans-35"/>
       <use xlink:href="#DejaVuSans-30" x="63.623047"/>
       <use xlink:href="#DejaVuSans-30" x="127.246094"/>
      </g>
     </g>
    </g>
    <g id="xtick_3">
     <g id="line2d_3">
      <g>
       <use xlink:href="#m8f081e13cd" x="243.784392" y="288.430125" style="stroke: #000000; stroke-width: 0.8"/>
      </g>
     </g>
     <g id="text_3">
      <!-- 1000 -->
      <g transform="translate(231.059392 303.028562) scale(0.1 -0.1)">
       <defs>
        <path id="DejaVuSans-31" d="M 794 531 
L 1825 531 
L 1825 4091 
L 703 3866 
L 703 4441 
L 1819 4666 
L 2450 4666 
L 2450 531 
L 3481 531 
L 3481 0 
L 794 0 
L 794 531 
z
" transform="scale(0.015625)"/>
       </defs>
       <use xlink:href="#DejaVuSans-31"/>
       <use xlink:href="#DejaVuSans-30" x="63.623047"/>
       <use xlink:href="#DejaVuSans-30" x="127.246094"/>
       <use xlink:href="#DejaVuSans-30" x="190.869141"/>
      </g>
     </g>
    </g>
    <g id="xtick_4">
     <g id="line2d_4">
      <g>
       <use xlink:href="#m8f081e13cd" x="321.97065" y="288.430125" style="stroke: #000000; stroke-width: 0.8"/>
      </g>
     </g>
     <g id="text_4">
      <!-- 1500 -->
      <g transform="translate(309.24565 303.028562) scale(0.1 -0.1)">
       <use xlink:href="#DejaVuSans-31"/>
       <use xlink:href="#DejaVuSans-35" x="63.623047"/>
       <use xlink:href="#DejaVuSans-30" x="127.246094"/>
       <use xlink:href="#DejaVuSans-30" x="190.869141"/>
      </g>
     </g>
    </g>
    <g id="xtick_5">
     <g id="line2d_5">
      <g>
       <use xlink:href="#m8f081e13cd" x="400.156908" y="288.430125" style="stroke: #000000; stroke-width: 0.8"/>
      </g>
     </g>
     <g id="text_5">
      <!-- 2000 -->
      <g transform="translate(387.431908 303.028562) scale(0.1 -0.1)">
       <defs>
        <path id="DejaVuSans-32" d="M 1228 531 
L 3431 531 
L 3431 0 
L 469 0 
L 469 531 
Q 828 903 1448 1529 
Q 2069 2156 2228 2338 
Q 2531 2678 2651 2914 
Q 2772 3150 2772 3378 
Q 2772 3750 2511 3984 
Q 2250 4219 1831 4219 
Q 1534 4219 1204 4116 
Q 875 4013 500 3803 
L 500 4441 
Q 881 4594 1212 4672 
Q 1544 4750 1819 4750 
Q 2544 4750 2975 4387 
Q 3406 4025 3406 3419 
Q 3406 3131 3298 2873 
Q 3191 2616 2906 2266 
Q 2828 2175 2409 1742 
Q 1991 1309 1228 531 
z
" transform="scale(0.015625)"/>
       </defs>
       <use xlink:href="#DejaVuSans-32"/>
       <use xlink:href="#DejaVuSans-30" x="63.623047"/>
       <use xlink:href="#DejaVuSans-30" x="127.246094"/>
       <use xlink:href="#DejaVuSans-30" x="190.869141"/>
      </g>
     </g>
    </g>
    <g id="text_6">
     <!-- Bandwidth (MB/s) -->
     <g transform="translate(221.828906 316.706687) scale(0.1 -0.1)">
      <defs>
       <path id="DejaVuSans-42" d="M 1259 2228 
L 1259 519 
L 2272 519 
Q 2781 519 3026 730 
Q 3272 941 3272 1375 
Q 3272 1813 3026 2020 
Q 2781 2228 2272 2228 
L 1259 2228 
z
M 1259 4147 
L 1259 2741 
L 2194 2741 
Q 2656 2741 2882 2914 
Q 3109 3088 3109 3444 
Q 3109 3797 2882 3972 
Q 2656 4147 2194 4147 
L 1259 4147 
z
M 628 4666 
L 2241 4666 
Q 2963 4666 3353 4366 
Q 3744 4066 3744 3513 
Q 3744 3084 3544 2831 
Q 3344 2578 2956 2516 
Q 3422 2416 3680 2098 
Q 3938 1781 3938 1306 
Q 3938 681 3513 340 
Q 3088 0 2303 0 
L 628 0 
L 628 4666 
z
" transform="scale(0.015625)"/>
       <path id="DejaVuSans-61" d="M 2194 1759 
Q 1497 1759 1228 1600 
Q 959 1441 959 1056 
Q 959 750 1161 570 
Q 1363 391 1709 391 
Q 2188 391 2477 730 
Q 2766 1069 2766 1631 
L 2766 1759 
L 2194 1759 
z
M 3341 1997 
L 3341 0 
L 2766 0 
L 2766 531 
Q 2569 213 2275 61 
Q 1981 -91 1556 -91 
Q 1019 -91 701 211 
Q 384 513 384 1019 
Q 384 1609 779 1909 
Q 1175 2209 1959 2209 
L 2766 2209 
L 2766 2266 
Q 2766 2663 2505 2880 
Q 2244 3097 1772 3097 
Q 1472 3097 1187 3025 
Q 903 2953 641 2809 
L 641 3341 
Q 956 3463 1253 3523 
Q 1550 3584 1831 3584 
Q 2591 3584 2966 3190 
Q 3341 2797 3341 1997 
z
" transform="scale(0.015625)"/>
       <path id="DejaVuSans-6e" d="M 3513 2113 
L 3513 0 
L 2938 0 
L 2938 2094 
Q 2938 2591 2744 2837 
Q 2550 3084 2163 3084 
Q 1697 3084 1428 2787 
Q 1159 2491 1159 1978 
L 1159 0 
L 581 0 
L 581 3500 
L 1159 3500 
L 1159 2956 
Q 1366 3272 1645 3428 
Q 1925 3584 2291 3584 
Q 2894 3584 3203 3211 
Q 3513 2838 3513 2113 
z
" transform="scale(0.015625)"/>
       <path id="DejaVuSans-64" d="M 2906 2969 
L 2906 4863 
L 3481 4863 
L 3481 0 
L 2906 0 
L 2906 525 
Q 2725 213 2448 61 
Q 2172 -91 1784 -91 
Q 1150 -91 751 415 
Q 353 922 353 1747 
Q 353 2572 751 3078 
Q 1150 3584 1784 3584 
Q 2172 3584 2448 3432 
Q 2725 3281 2906 2969 
z
M 947 1747 
Q 947 1113 1208 752 
Q 1469 391 1925 391 
Q 2381 391 2643 752 
Q 2906 1113 2906 1747 
Q 2906 2381 2643 2742 
Q 2381 3103 1925 3103 
Q 1469 3103 1208 2742 
Q 947 2381 947 1747 
z
" transform="scale(0.015625)"/>
       <path id="DejaVuSans-77" d="M 269 3500 
L 844 3500 
L 1563 769 
L 2278 3500 
L 2956 3500 
L 3675 769 
L 4391 3500 
L 4966 3500 
L 4050 0 
L 3372 0 
L 2619 2869 
L 1863 0 
L 1184 0 
L 269 3500 
z
" transform="scale(0.015625)"/>
       <path id="DejaVuSans-69" d="M 603 3500 
L 1178 3500 
L 1178 0 
L 603 0 
L 603 3500 
z
M 603 4863 
L 1178 4863 
L 1178 4134 
L 603 4134 
L 603 4863 
z
" transform="scale(0.015625)"/>
       <path id="DejaVuSans-74" d="M 1172 4494 
L 1172 3500 
L 2356 3500 
L 2356 3053 
L 1172 3053 
L 1172 1153 
Q 1172 725 1289 603 
Q 1406 481 1766 481 
L 2356 481 
L 2356 0 
L 1766 0 
Q 1100 0 847 248 
Q 594 497 594 1153 
L 594 3053 
L 172 3053 
L 172 3500 
L 594 3500 
L 594 4494 
L 1172 4494 
z
" transform="scale(0.015625)"/>
       <path id="DejaVuSans-68" d="M 3513 2113 
L 3513 0 
L 2938 0 
L 2938 2094 
Q 2938 2591 2744 2837 
Q 2550 3084 2163 3084 
Q 1697 3084 1428 2787 
Q 1159 2491 1159 1978 
L 1159 0 
L 581 0 
L 581 4863 
L 1159 4863 
L 1159 2956 
Q 1366 3272 1645 3428 
Q 1925 3584 2291 3584 
Q 2894 3584 3203 3211 
Q 3513 2838 3513 2113 
z
" transform="scale(0.015625)"/>
       <path id="DejaVuSans-20" transform="scale(0.015625)"/>
       <path id="DejaVuSans-28" d="M 1984 4856 
Q 1566 4138 1362 3434 
Q 1159 2731 1159 2009 
Q 1159 1288 1364 580 
Q 1569 -128 1984 -844 
L 1484 -844 
Q 1016 -109 783 600 
Q 550 1309 550 2009 
Q 550 2706 781 3412 
Q 1013 4119 1484 4856 
L 1984 4856 
z
" transform="scale(0.015625)"/>
       <path id="DejaVuSans-4d" d="M 628 4666 
L 1569 4666 
L 2759 1491 
L 3956 4666 
L 4897 4666 
L 4897 0 
L 4281 0 
L 4281 4097 
L 3078 897 
L 2444 897 
L 1241 4097 
L 1241 0 
L 628 0 
L 628 4666 
z
" transform="scale(0.015625)"/>
       <path id="DejaVuSans-2f" d="M 1625 4666 
L 2156 4666 
L 531 -594 
L 0 -594 
L 1625 4666 
z
" transform="scale(0.015625)"/>
       <path id="DejaVuSans-73" d="M 2834 3397 
L 2834 2853 
Q 2591 2978 2328 3040 
Q 2066 3103 1784 3103 
Q 1356 3103 1142 2972 
Q 928 2841 928 2578 
Q 928 2378 1081 2264 
Q 1234 2150 1697 2047 
L 1894 2003 
Q 2506 1872 2764 1633 
Q 3022 1394 3022 966 
Q 3022 478 2636 193 
Q 2250 -91 1575 -91 
Q 1294 -91 989 -36 
Q 684 19 347 128 
L 347 722 
Q 666 556 975 473 
Q 1284 391 1588 391 
Q 1994 391 2212 530 
Q 2431 669 2431 922 
Q 2431 1156 2273 1281 
Q 2116 1406 1581 1522 
L 1381 1569 
Q 847 1681 609 1914 
Q 372 2147 372 2553 
Q 372 3047 722 3315 
Q 1072 3584 1716 3584 
Q 2034 3584 2315 3537 
Q 2597 3491 2834 3397 
z
" transform="scale(0.015625)"/>
       <path id="DejaVuSans-29" d="M 513 4856 
L 1013 4856 
Q 1481 4119 1714 3412 
Q 1947 2706 1947 2009 
Q 1947 1309 1714 600 
Q 1481 -109 1013 -844 
L 513 -844 
Q 928 -128 1133 580 
Q 1338 1288 1338 2009 
Q 1338 2731 1133 3434 
Q 928 4138 513 4856 
z
" transform="scale(0.015625)"/>
      </defs>
      <use xlink:href="#DejaVuSans-42"/>
      <use xlink:href="#DejaVuSans-61" x="68.603516"/>
      <use xlink:href="#DejaVuSans-6e" x="129.882812"/>
      <use xlink:href="#DejaVuSans-64" x="193.261719"/>
      <use xlink:href="#DejaVuSans-77" x="256.738281"/>
      <use xlink:href="#DejaVuSans-69" x="338.525391"/>
      <use xlink:href="#DejaVuSans-64" x="366.308594"/>
      <use xlink:href="#DejaVuSans-74" x="429.785156"/>
      <use xlink:href="#DejaVuSans-68" x="468.994141"/>
      <use xlink:href="#DejaVuSans-20" x="532.373047"/>
      <use xlink:href="#DejaVuSans-28" x="564.160156"/>
      <use xlink:href="#DejaVuSans-4d" x="603.173828"/>
      <use xlink:href="#DejaVuSans-42" x="689.453125"/>
      <use xlink:href="#DejaVuSans-2f" x="758.056641"/>
      <use xlink:href="#DejaVuSans-73" x="791.748047"/>
      <use xlink:href="#DejaVuSans-29" x="843.847656"/>
     </g>
    </g>
   </g>
   <g id="matplotlib.axis_2">
    <g id="ytick_1">
     <g id="line2d_6">
      <defs>
       <path id="ma4bd343881" d="M 0 0 
L -3.5 0 
" style="stroke: #000000; stroke-width: 0.8"/>
      </defs>
      <g>
       <use xlink:href="#ma4bd343881" x="87.411875" y="288.430125" style="stroke: #000000; stroke-width: 0.8"/>
      </g>
     </g>
     <g id="text_7">
      <!-- 0 -->
      <g transform="translate(74.049375 292.229344) scale(0.1 -0.1)">
       <use xlink:href="#DejaVuSans-30"/>
      </g>
     </g>
    </g>
    <g id="ytick_2">
     <g id="line2d_7">
      <g>
       <use xlink:href="#ma4bd343881" x="87.411875" y="244.709231" style="stroke: #000000; stroke-width: 0.8"/>
      </g>
     </g>
     <g id="text_8">
      <!-- 5 -->
      <g transform="translate(74.049375 248.50845) scale(0.1 -0.1)">
       <use xlink:href="#DejaVuSans-35"/>
      </g>
     </g>
    </g>
    <g id="ytick_3">
     <g id="line2d_8">
      <g>
       <use xlink:href="#ma4bd343881" x="87.411875" y="200.988337" style="stroke: #000000; stroke-width: 0.8"/>
      </g>
     </g>
     <g id="text_9">
      <!-- 10 -->
      <g transform="translate(67.686875 204.787556) scale(0.1 -0.1)">
       <use xlink:href="#DejaVuSans-31"/>
       <use xlink:href="#DejaVuSans-30" x="63.623047"/>
      </g>
     </g>
    </g>
    <g id="ytick_4">
     <g id="line2d_9">
      <g>
       <use xlink:href="#ma4bd343881" x="87.411875" y="157.267443" style="stroke: #000000; stroke-width: 0.8"/>
      </g>
     </g>
     <g id="text_10">
      <!-- 15 -->
      <g transform="translate(67.686875 161.066662) scale(0.1 -0.1)">
       <use xlink:href="#DejaVuSans-31"/>
       <use xlink:href="#DejaVuSans-35" x="63.623047"/>
      </g>
     </g>
    </g>
    <g id="ytick_5">
     <g id="line2d_10">
      <g>
       <use xlink:href="#ma4bd343881" x="87.411875" y="113.54655" style="stroke: #000000; stroke-width: 0.8"/>
      </g>
     </g>
     <g id="text_11">
      <!-- 20 -->
      <g transform="translate(67.686875 117.345768) scale(0.1 -0.1)">
       <use xlink:href="#DejaVuSans-32"/>
       <use xlink:href="#DejaVuSans-30" x="63.623047"/>
      </g>
     </g>
    </g>
    <g id="ytick_6">
     <g id="line2d_11">
      <g>
       <use xlink:href="#ma4bd343881" x="87.411875" y="69.825656" style="stroke: #000000; stroke-width: 0.8"/>
      </g>
     </g>
     <g id="text_12">
      <!-- 25 -->
      <g transform="translate(67.686875 73.624875) scale(0.1 -0.1)">
       <use xlink:href="#DejaVuSans-32"/>
       <use xlink:href="#DejaVuSans-35" x="63.623047"/>
      </g>
     </g>
    </g>
    <g id="ytick_7">
     <g id="line2d_12">
      <g>
       <use xlink:href="#ma4bd343881" x="87.411875" y="26.104762" style="stroke: #000000; stroke-width: 0.8"/>
      </g>
     </g>
     <g id="text_13">
      <!-- 30 -->
      <g transform="translate(67.686875 29.903981) scale(0.1 -0.1)">
       <defs>
        <path id="DejaVuSans-33" d="M 2597 2516 
Q 3050 2419 3304 2112 
Q 3559 1806 3559 1356 
Q 3559 666 3084 287 
Q 2609 -91 1734 -91 
Q 1441 -91 1130 -33 
Q 819 25 488 141 
L 488 750 
Q 750 597 1062 519 
Q 1375 441 1716 441 
Q 2309 441 2620 675 
Q 2931 909 2931 1356 
Q 2931 1769 2642 2001 
Q 2353 2234 1838 2234 
L 1294 2234 
L 1294 2753 
L 1863 2753 
Q 2328 2753 2575 2939 
Q 2822 3125 2822 3475 
Q 2822 3834 2567 4026 
Q 2313 4219 1838 4219 
Q 1578 4219 1281 4162 
Q 984 4106 628 3988 
L 628 4550 
Q 988 4650 1302 4700 
Q 1616 4750 1894 4750 
Q 2613 4750 3031 4423 
Q 3450 4097 3450 3541 
Q 3450 3153 3228 2886 
Q 3006 2619 2597 2516 
z
" transform="scale(0.015625)"/>
       </defs>
       <use xlink:href="#DejaVuSans-33"/>
       <use xlink:href="#DejaVuSans-30" x="63.623047"/>
      </g>
     </g>
    </g>
    <g id="text_14">
     <!-- Latency (ms) -->
     <g transform="translate(61.607188 188.103812) rotate(-90) scale(0.1 -0.1)">
      <defs>
       <path id="DejaVuSans-4c" d="M 628 4666 
L 1259 4666 
L 1259 531 
L 3531 531 
L 3531 0 
L 628 0 
L 628 4666 
z
" transform="scale(0.015625)"/>
       <path id="DejaVuSans-65" d="M 3597 1894 
L 3597 1613 
L 953 1613 
Q 991 1019 1311 708 
Q 1631 397 2203 397 
Q 2534 397 2845 478 
Q 3156 559 3463 722 
L 3463 178 
Q 3153 47 2828 -22 
Q 2503 -91 2169 -91 
Q 1331 -91 842 396 
Q 353 884 353 1716 
Q 353 2575 817 3079 
Q 1281 3584 2069 3584 
Q 2775 3584 3186 3129 
Q 3597 2675 3597 1894 
z
M 3022 2063 
Q 3016 2534 2758 2815 
Q 2500 3097 2075 3097 
Q 1594 3097 1305 2825 
Q 1016 2553 972 2059 
L 3022 2063 
z
" transform="scale(0.015625)"/>
       <path id="DejaVuSans-63" d="M 3122 3366 
L 3122 2828 
Q 2878 2963 2633 3030 
Q 2388 3097 2138 3097 
Q 1578 3097 1268 2742 
Q 959 2388 959 1747 
Q 959 1106 1268 751 
Q 1578 397 2138 397 
Q 2388 397 2633 464 
Q 2878 531 3122 666 
L 3122 134 
Q 2881 22 2623 -34 
Q 2366 -91 2075 -91 
Q 1284 -91 818 406 
Q 353 903 353 1747 
Q 353 2603 823 3093 
Q 1294 3584 2113 3584 
Q 2378 3584 2631 3529 
Q 2884 3475 3122 3366 
z
" transform="scale(0.015625)"/>
       <path id="DejaVuSans-79" d="M 2059 -325 
Q 1816 -950 1584 -1140 
Q 1353 -1331 966 -1331 
L 506 -1331 
L 506 -850 
L 844 -850 
Q 1081 -850 1212 -737 
Q 1344 -625 1503 -206 
L 1606 56 
L 191 3500 
L 800 3500 
L 1894 763 
L 2988 3500 
L 3597 3500 
L 2059 -325 
z
" transform="scale(0.015625)"/>
       <path id="DejaVuSans-6d" d="M 3328 2828 
Q 3544 3216 3844 3400 
Q 4144 3584 4550 3584 
Q 5097 3584 5394 3201 
Q 5691 2819 5691 2113 
L 5691 0 
L 5113 0 
L 5113 2094 
Q 5113 2597 4934 2840 
Q 4756 3084 4391 3084 
Q 3944 3084 3684 2787 
Q 3425 2491 3425 1978 
L 3425 0 
L 2847 0 
L 2847 2094 
Q 2847 2600 2669 2842 
Q 2491 3084 2119 3084 
Q 1678 3084 1418 2786 
Q 1159 2488 1159 1978 
L 1159 0 
L 581 0 
L 581 3500 
L 1159 3500 
L 1159 2956 
Q 1356 3278 1631 3431 
Q 1906 3584 2284 3584 
Q 2666 3584 2933 3390 
Q 3200 3197 3328 2828 
z
" transform="scale(0.015625)"/>
      </defs>
      <use xlink:href="#DejaVuSans-4c"/>
      <use xlink:href="#DejaVuSans-61" x="55.712891"/>
      <use xlink:href="#DejaVuSans-74" x="116.992188"/>
      <use xlink:href="#DejaVuSans-65" x="156.201172"/>
      <use xlink:href="#DejaVuSans-6e" x="217.724609"/>
      <use xlink:href="#DejaVuSans-63" x="281.103516"/>
      <use xlink:href="#DejaVuSans-79" x="336.083984"/>
      <use xlink:href="#DejaVuSans-20" x="395.263672"/>
      <use xlink:href="#DejaVuSans-28" x="427.050781"/>
      <use xlink:href="#DejaVuSans-6d" x="466.064453"/>
      <use xlink:href="#DejaVuSans-73" x="563.476562"/>
      <use xlink:href="#DejaVuSans-29" x="615.576172"/>
     </g>
    </g>
   </g>
   <g id="line2d_13">
    <path d="M 146.823631 240.214449 
L 205.002429 239.716611 
L 253.944569 236.842457 
L 289.081016 231.639312 
L 316.294253 225.886356 
L 359.570113 204.262321 
L 385.317234 192.289816 
L 395.027747 176.686006 
L 392.835118 138.321112 
L 401.859862 106.132006 
L 397.503472 66.556401 
L 403.046911 34.126521 
" clip-path="url(#pe1033059c2)" style="fill: none; stroke: #1f77b4; stroke-width: 1.5; stroke-linecap: square"/>
    <defs>
     <path id="m001d35c806" d="M -3 0 
L 3 0 
M 0 3 
L 0 -3 
" style="stroke: #1f77b4"/>
    </defs>
    <g clip-path="url(#pe1033059c2)">
     <use xlink:href="#m001d35c806" x="146.823631" y="240.214449" style="fill: #1f77b4; stroke: #1f77b4"/>
     <use xlink:href="#m001d35c806" x="205.002429" y="239.716611" style="fill: #1f77b4; stroke: #1f77b4"/>
     <use xlink:href="#m001d35c806" x="253.944569" y="236.842457" style="fill: #1f77b4; stroke: #1f77b4"/>
     <use xlink:href="#m001d35c806" x="289.081016" y="231.639312" style="fill: #1f77b4; stroke: #1f77b4"/>
     <use xlink:href="#m001d35c806" x="316.294253" y="225.886356" style="fill: #1f77b4; stroke: #1f77b4"/>
     <use xlink:href="#m001d35c806" x="359.570113" y="204.262321" style="fill: #1f77b4; stroke: #1f77b4"/>
     <use xlink:href="#m001d35c806" x="385.317234" y="192.289816" style="fill: #1f77b4; stroke: #1f77b4"/>
     <use xlink:href="#m001d35c806" x="395.027747" y="176.686006" style="fill: #1f77b4; stroke: #1f77b4"/>
     <use xlink:href="#m001d35c806" x="392.835118" y="138.321112" style="fill: #1f77b4; stroke: #1f77b4"/>
     <use xlink:href="#m001d35c806" x="401.859862" y="106.132006" style="fill: #1f77b4; stroke: #1f77b4"/>
     <use xlink:href="#m001d35c806" x="397.503472" y="66.556401" style="fill: #1f77b4; stroke: #1f77b4"/>
     <use xlink:href="#m001d35c806" x="403.046911" y="34.126521" style="fill: #1f77b4; stroke: #1f77b4"/>
    </g>
   </g>
   <g id="line2d_14">
    <path d="M 147.093413 240.430283 
L 205.33937 239.853612 
L 254.915849 237.144719 
L 290.97699 232.166017 
L 319.088398 226.637993 
L 359.596217 204.269905 
L 385.13168 192.229553 
L 394.740473 176.57763 
L 394.747513 139.245476 
L 402.523093 106.520911 
L 398.919288 67.558769 
L 404.334583 35.155512 
" clip-path="url(#pe1033059c2)" style="fill: none; stroke: #ff7f0e; stroke-width: 1.5; stroke-linecap: square"/>
    <defs>
     <path id="me08d7c9166" d="M -3 0 
L 3 0 
M 0 3 
L 0 -3 
" style="stroke: #ff7f0e"/>
    </defs>
    <g clip-path="url(#pe1033059c2)">
     <use xlink:href="#me08d7c9166" x="147.093413" y="240.430283" style="fill: #ff7f0e; stroke: #ff7f0e"/>
     <use xlink:href="#me08d7c9166" x="205.33937" y="239.853612" style="fill: #ff7f0e; stroke: #ff7f0e"/>
     <use xlink:href="#me08d7c9166" x="254.915849" y="237.144719" style="fill: #ff7f0e; stroke: #ff7f0e"/>
     <use xlink:href="#me08d7c9166" x="290.97699" y="232.166017" style="fill: #ff7f0e; stroke: #ff7f0e"/>
     <use xlink:href="#me08d7c9166" x="319.088398" y="226.637993" style="fill: #ff7f0e; stroke: #ff7f0e"/>
     <use xlink:href="#me08d7c9166" x="359.596217" y="204.269905" style="fill: #ff7f0e; stroke: #ff7f0e"/>
     <use xlink:href="#me08d7c9166" x="385.13168" y="192.229553" style="fill: #ff7f0e; stroke: #ff7f0e"/>
     <use xlink:href="#me08d7c9166" x="394.740473" y="176.57763" style="fill: #ff7f0e; stroke: #ff7f0e"/>
     <use xlink:href="#me08d7c9166" x="394.747513" y="139.245476" style="fill: #ff7f0e; stroke: #ff7f0e"/>
     <use xlink:href="#me08d7c9166" x="402.523093" y="106.520911" style="fill: #ff7f0e; stroke: #ff7f0e"/>
     <use xlink:href="#me08d7c9166" x="398.919288" y="67.558769" style="fill: #ff7f0e; stroke: #ff7f0e"/>
     <use xlink:href="#me08d7c9166" x="404.334583" y="35.155512" style="fill: #ff7f0e; stroke: #ff7f0e"/>
    </g>
   </g>
   <g id="line2d_15">
    <path d="M 245.092257 270.294431 
L 331.592439 265.012099 
L 377.624143 258.873312 
L 399.809859 251.813634 
L 409.442981 244.022859 
L 397.829804 214.669465 
L 422.048966 202.871202 
L 423.459573 186.158922 
L 417.843648 149.698383 
L 430.166899 121.206325 
L 422.56219 83.173233 
L 408.789465 41.478677 
" clip-path="url(#pe1033059c2)" style="fill: none; stroke: #2ca02c; stroke-width: 1.5; stroke-linecap: square"/>
    <defs>
     <path id="m975c1ad27b" d="M -3 0 
L 3 0 
M 0 3 
L 0 -3 
" style="stroke: #2ca02c"/>
    </defs>
    <g clip-path="url(#pe1033059c2)">
     <use xlink:href="#m975c1ad27b" x="245.092257" y="270.294431" style="fill: #2ca02c; stroke: #2ca02c"/>
     <use xlink:href="#m975c1ad27b" x="331.592439" y="265.012099" style="fill: #2ca02c; stroke: #2ca02c"/>
     <use xlink:href="#m975c1ad27b" x="377.624143" y="258.873312" style="fill: #2ca02c; stroke: #2ca02c"/>
     <use xlink:href="#m975c1ad27b" x="399.809859" y="251.813634" style="fill: #2ca02c; stroke: #2ca02c"/>
     <use xlink:href="#m975c1ad27b" x="409.442981" y="244.022859" style="fill: #2ca02c; stroke: #2ca02c"/>
     <use xlink:href="#m975c1ad27b" x="397.829804" y="214.669465" style="fill: #2ca02c; stroke: #2ca02c"/>
     <use xlink:href="#m975c1ad27b" x="422.048966" y="202.871202" style="fill: #2ca02c; stroke: #2ca02c"/>
     <use xlink:href="#m975c1ad27b" x="423.459573" y="186.158922" style="fill: #2ca02c; stroke: #2ca02c"/>
     <use xlink:href="#m975c1ad27b" x="417.843648" y="149.698383" style="fill: #2ca02c; stroke: #2ca02c"/>
     <use xlink:href="#m975c1ad27b" x="430.166899" y="121.206325" style="fill: #2ca02c; stroke: #2ca02c"/>
     <use xlink:href="#m975c1ad27b" x="422.56219" y="83.173233" style="fill: #2ca02c; stroke: #2ca02c"/>
     <use xlink:href="#m975c1ad27b" x="408.789465" y="41.478677" style="fill: #2ca02c; stroke: #2ca02c"/>
    </g>
   </g>
   <g id="line2d_16">
    <path d="M 243.988221 270.170282 
L 332.705992 265.119021 
L 378.313403 258.942531 
L 400.720906 251.920288 
L 408.708589 243.921075 
L 397.823401 214.66706 
L 422.006501 202.861187 
L 422.990331 186.016929 
L 417.284012 149.457779 
L 430.066619 121.162895 
L 422.101801 82.896159 
L 427.699181 52.565482 
" clip-path="url(#pe1033059c2)" style="fill: none; stroke: #d62728; stroke-width: 1.5; stroke-linecap: square"/>
    <defs>
     <path id="m5d1fdcf60f" d="M -3 0 
L 3 0 
M 0 3 
L 0 -3 
" style="stroke: #d62728"/>
    </defs>
    <g clip-path="url(#pe1033059c2)">
     <use xlink:href="#m5d1fdcf60f" x="243.988221" y="270.170282" style="fill: #d62728; stroke: #d62728"/>
     <use xlink:href="#m5d1fdcf60f" x="332.705992" y="265.119021" style="fill: #d62728; stroke: #d62728"/>
     <use xlink:href="#m5d1fdcf60f" x="378.313403" y="258.942531" style="fill: #d62728; stroke: #d62728"/>
     <use xlink:href="#m5d1fdcf60f" x="400.720906" y="251.920288" style="fill: #d62728; stroke: #d62728"/>
     <use xlink:href="#m5d1fdcf60f" x="408.708589" y="243.921075" style="fill: #d62728; stroke: #d62728"/>
     <use xlink:href="#m5d1fdcf60f" x="397.823401" y="214.66706" style="fill: #d62728; stroke: #d62728"/>
     <use xlink:href="#m5d1fdcf60f" x="422.006501" y="202.861187" style="fill: #d62728; stroke: #d62728"/>
     <use xlink:href="#m5d1fdcf60f" x="422.990331" y="186.016929" style="fill: #d62728; stroke: #d62728"/>
     <use xlink:href="#m5d1fdcf60f" x="417.284012" y="149.457779" style="fill: #d62728; stroke: #d62728"/>
     <use xlink:href="#m5d1fdcf60f" x="430.066619" y="121.162895" style="fill: #d62728; stroke: #d62728"/>
     <use xlink:href="#m5d1fdcf60f" x="422.101801" y="82.896159" style="fill: #d62728; stroke: #d62728"/>
     <use xlink:href="#m5d1fdcf60f" x="427.699181" y="52.565482" style="fill: #d62728; stroke: #d62728"/>
    </g>
   </g>
   <g id="line2d_17">
    <path d="M 243.993687 270.166793 
L 336.772168 265.495248 
L 381.952806 259.301034 
L 402.253701 252.094649 
L 410.448707 244.156355 
L 404.343021 216.180297 
L 421.200048 202.65162 
L 422.769718 185.950568 
L 417.509888 149.548392 
L 430.355292 121.310155 
L 422.094007 82.867641 
L 427.980363 52.739622 
" clip-path="url(#pe1033059c2)" style="fill: none; stroke: #9467bd; stroke-width: 1.5; stroke-linecap: square"/>
    <defs>
     <path id="m75310ea854" d="M -3 0 
L 3 0 
M 0 3 
L 0 -3 
" style="stroke: #9467bd"/>
    </defs>
    <g clip-path="url(#pe1033059c2)">
     <use xlink:href="#m75310ea854" x="243.993687" y="270.166793" style="fill: #9467bd; stroke: #9467bd"/>
     <use xlink:href="#m75310ea854" x="336.772168" y="265.495248" style="fill: #9467bd; stroke: #9467bd"/>
     <use xlink:href="#m75310ea854" x="381.952806" y="259.301034" style="fill: #9467bd; stroke: #9467bd"/>
     <use xlink:href="#m75310ea854" x="402.253701" y="252.094649" style="fill: #9467bd; stroke: #9467bd"/>
     <use xlink:href="#m75310ea854" x="410.448707" y="244.156355" style="fill: #9467bd; stroke: #9467bd"/>
     <use xlink:href="#m75310ea854" x="404.343021" y="216.180297" style="fill: #9467bd; stroke: #9467bd"/>
     <use xlink:href="#m75310ea854" x="421.200048" y="202.65162" style="fill: #9467bd; stroke: #9467bd"/>
     <use xlink:href="#m75310ea854" x="422.769718" y="185.950568" style="fill: #9467bd; stroke: #9467bd"/>
     <use xlink:href="#m75310ea854" x="417.509888" y="149.548392" style="fill: #9467bd; stroke: #9467bd"/>
     <use xlink:href="#m75310ea854" x="430.355292" y="121.310155" style="fill: #9467bd; stroke: #9467bd"/>
     <use xlink:href="#m75310ea854" x="422.094007" y="82.867641" style="fill: #9467bd; stroke: #9467bd"/>
     <use xlink:href="#m75310ea854" x="427.980363" y="52.739622" style="fill: #9467bd; stroke: #9467bd"/>
    </g>
   </g>
   <g id="line2d_18">
    <path d="M 244.693274 270.252518 
L 336.279569 265.450355 
L 378.876323 258.997044 
L 399.943004 251.829529 
L 408.685252 243.918025 
L 397.619159 214.618284 
L 421.985905 202.856726 
L 422.65505 185.918178 
L 417.182984 149.428855 
L 430.221631 121.246798 
L 421.853287 82.741052 
L 428.025442 52.783976 
" clip-path="url(#pe1033059c2)" style="fill: none; stroke: #8c564b; stroke-width: 1.5; stroke-linecap: square"/>
    <defs>
     <path id="m56235c4804" d="M -3 0 
L 3 0 
M 0 3 
L 0 -3 
" style="stroke: #8c564b"/>
    </defs>
    <g clip-path="url(#pe1033059c2)">
     <use xlink:href="#m56235c4804" x="244.693274" y="270.252518" style="fill: #8c564b; stroke: #8c564b"/>
     <use xlink:href="#m56235c4804" x="336.279569" y="265.450355" style="fill: #8c564b; stroke: #8c564b"/>
     <use xlink:href="#m56235c4804" x="378.876323" y="258.997044" style="fill: #8c564b; stroke: #8c564b"/>
     <use xlink:href="#m56235c4804" x="399.943004" y="251.829529" style="fill: #8c564b; stroke: #8c564b"/>
     <use xlink:href="#m56235c4804" x="408.685252" y="243.918025" style="fill: #8c564b; stroke: #8c564b"/>
     <use xlink:href="#m56235c4804" x="397.619159" y="214.618284" style="fill: #8c564b; stroke: #8c564b"/>
     <use xlink:href="#m56235c4804" x="421.985905" y="202.856726" style="fill: #8c564b; stroke: #8c564b"/>
     <use xlink:href="#m56235c4804" x="422.65505" y="185.918178" style="fill: #8c564b; stroke: #8c564b"/>
     <use xlink:href="#m56235c4804" x="417.182984" y="149.428855" style="fill: #8c564b; stroke: #8c564b"/>
     <use xlink:href="#m56235c4804" x="430.221631" y="121.246798" style="fill: #8c564b; stroke: #8c564b"/>
     <use xlink:href="#m56235c4804" x="421.853287" y="82.741052" style="fill: #8c564b; stroke: #8c564b"/>
     <use xlink:href="#m56235c4804" x="428.025442" y="52.783976" style="fill: #8c564b; stroke: #8c564b"/>
    </g>
   </g>
   <g id="patch_3">
    <path d="M 87.411875 288.430125 
L 87.411875 22.318125 
" style="fill: none; stroke: #000000; stroke-width: 0.8; stroke-linejoin: miter; stroke-linecap: square"/>
   </g>
   <g id="patch_4">
    <path d="M 444.531875 288.430125 
L 444.531875 22.318125 
" style="fill: none; stroke: #000000; stroke-width: 0.8; stroke-linejoin: miter; stroke-linecap: square"/>
   </g>
   <g id="patch_5">
    <path d="M 87.411875 288.430125 
L 444.531875 288.430125 
" style="fill: none; stroke: #000000; stroke-width: 0.8; stroke-linejoin: miter; stroke-linecap: square"/>
   </g>
   <g id="patch_6">
    <path d="M 87.411875 22.318125 
L 444.531875 22.318125 
" style="fill: none; stroke: #000000; stroke-width: 0.8; stroke-linejoin: miter; stroke-linecap: square"/>
   </g>
   <g id="text_15">
    <!-- 2048K  Random Read -->
    <g transform="translate(201.131563 16.318125) scale(0.12 -0.12)">
     <defs>
      <path id="DejaVuSans-34" d="M 2419 4116 
L 825 1625 
L 2419 1625 
L 2419 4116 
z
M 2253 4666 
L 3047 4666 
L 3047 1625 
L 3713 1625 
L 3713 1100 
L 3047 1100 
L 3047 0 
L 2419 0 
L 2419 1100 
L 313 1100 
L 313 1709 
L 2253 4666 
z
" transform="scale(0.015625)"/>
      <path id="DejaVuSans-38" d="M 2034 2216 
Q 1584 2216 1326 1975 
Q 1069 1734 1069 1313 
Q 1069 891 1326 650 
Q 1584 409 2034 409 
Q 2484 409 2743 651 
Q 3003 894 3003 1313 
Q 3003 1734 2745 1975 
Q 2488 2216 2034 2216 
z
M 1403 2484 
Q 997 2584 770 2862 
Q 544 3141 544 3541 
Q 544 4100 942 4425 
Q 1341 4750 2034 4750 
Q 2731 4750 3128 4425 
Q 3525 4100 3525 3541 
Q 3525 3141 3298 2862 
Q 3072 2584 2669 2484 
Q 3125 2378 3379 2068 
Q 3634 1759 3634 1313 
Q 3634 634 3220 271 
Q 2806 -91 2034 -91 
Q 1263 -91 848 271 
Q 434 634 434 1313 
Q 434 1759 690 2068 
Q 947 2378 1403 2484 
z
M 1172 3481 
Q 1172 3119 1398 2916 
Q 1625 2713 2034 2713 
Q 2441 2713 2670 2916 
Q 2900 3119 2900 3481 
Q 2900 3844 2670 4047 
Q 2441 4250 2034 4250 
Q 1625 4250 1398 4047 
Q 1172 3844 1172 3481 
z
" transform="scale(0.015625)"/>
      <path id="DejaVuSans-4b" d="M 628 4666 
L 1259 4666 
L 1259 2694 
L 3353 4666 
L 4166 4666 
L 1850 2491 
L 4331 0 
L 3500 0 
L 1259 2247 
L 1259 0 
L 628 0 
L 628 4666 
z
" transform="scale(0.015625)"/>
      <path id="DejaVuSans-52" d="M 2841 2188 
Q 3044 2119 3236 1894 
Q 3428 1669 3622 1275 
L 4263 0 
L 3584 0 
L 2988 1197 
Q 2756 1666 2539 1819 
Q 2322 1972 1947 1972 
L 1259 1972 
L 1259 0 
L 628 0 
L 628 4666 
L 2053 4666 
Q 2853 4666 3247 4331 
Q 3641 3997 3641 3322 
Q 3641 2881 3436 2590 
Q 3231 2300 2841 2188 
z
M 1259 4147 
L 1259 2491 
L 2053 2491 
Q 2509 2491 2742 2702 
Q 2975 2913 2975 3322 
Q 2975 3731 2742 3939 
Q 2509 4147 2053 4147 
L 1259 4147 
z
" transform="scale(0.015625)"/>
      <path id="DejaVuSans-6f" d="M 1959 3097 
Q 1497 3097 1228 2736 
Q 959 2375 959 1747 
Q 959 1119 1226 758 
Q 1494 397 1959 397 
Q 2419 397 2687 759 
Q 2956 1122 2956 1747 
Q 2956 2369 2687 2733 
Q 2419 3097 1959 3097 
z
M 1959 3584 
Q 2709 3584 3137 3096 
Q 3566 2609 3566 1747 
Q 3566 888 3137 398 
Q 2709 -91 1959 -91 
Q 1206 -91 779 398 
Q 353 888 353 1747 
Q 353 2609 779 3096 
Q 1206 3584 1959 3584 
z
" transform="scale(0.015625)"/>
     </defs>
     <use xlink:href="#DejaVuSans-32"/>
     <use xlink:href="#DejaVuSans-30" x="63.623047"/>
     <use xlink:href="#DejaVuSans-34" x="127.246094"/>
     <use xlink:href="#DejaVuSans-38" x="190.869141"/>
     <use xlink:href="#DejaVuSans-4b" x="254.492188"/>
     <use xlink:href="#DejaVuSans-20" x="320.068359"/>
     <use xlink:href="#DejaVuSans-20" x="351.855469"/>
     <use xlink:href="#DejaVuSans-52" x="383.642578"/>
     <use xlink:href="#DejaVuSans-61" x="450.875"/>
     <use xlink:href="#DejaVuSans-6e" x="512.154297"/>
     <use xlink:href="#DejaVuSans-64" x="575.533203"/>
     <use xlink:href="#DejaVuSans-6f" x="639.009766"/>
     <use xlink:href="#DejaVuSans-6d" x="700.191406"/>
     <use xlink:href="#DejaVuSans-20" x="797.603516"/>
     <use xlink:href="#DejaVuSans-52" x="829.390625"/>
     <use xlink:href="#DejaVuSans-65" x="894.373047"/>
     <use xlink:href="#DejaVuSans-61" x="955.896484"/>
     <use xlink:href="#DejaVuSans-64" x="1017.175781"/>
    </g>
   </g>
   <g id="legend_1">
    <g id="patch_7">
     <path d="M 9.2 367.910075 
L 522.74375 367.910075 
Q 524.74375 367.910075 524.74375 365.910075 
L 524.74375 322.041325 
Q 524.74375 320.041325 522.74375 320.041325 
L 9.2 320.041325 
Q 7.2 320.041325 7.2 322.041325 
L 7.2 365.910075 
Q 7.2 367.910075 9.2 367.910075 
z
" style="fill: #ffffff; opacity: 0.8; stroke: #cccccc; stroke-linejoin: miter"/>
    </g>
    <g id="line2d_19">
     <path d="M 11.2 328.139762 
L 21.2 328.139762 
L 31.2 328.139762 
" style="fill: none; stroke: #1f77b4; stroke-width: 1.5; stroke-linecap: square"/>
     <g>
      <use xlink:href="#m001d35c806" x="21.2" y="328.139762" style="fill: #1f77b4; stroke: #1f77b4"/>
     </g>
    </g>
    <g id="text_16">
     <!-- 3way_reads_osds_6_shardsize_5000000.1strun -->
     <g transform="translate(39.2 331.639762) scale(0.1 -0.1)">
      <defs>
       <path id="DejaVuSans-5f" d="M 3263 -1063 
L 3263 -1509 
L -63 -1509 
L -63 -1063 
L 3263 -1063 
z
" transform="scale(0.015625)"/>
       <path id="DejaVuSans-72" d="M 2631 2963 
Q 2534 3019 2420 3045 
Q 2306 3072 2169 3072 
Q 1681 3072 1420 2755 
Q 1159 2438 1159 1844 
L 1159 0 
L 581 0 
L 581 3500 
L 1159 3500 
L 1159 2956 
Q 1341 3275 1631 3429 
Q 1922 3584 2338 3584 
Q 2397 3584 2469 3576 
Q 2541 3569 2628 3553 
L 2631 2963 
z
" transform="scale(0.015625)"/>
       <path id="DejaVuSans-36" d="M 2113 2584 
Q 1688 2584 1439 2293 
Q 1191 2003 1191 1497 
Q 1191 994 1439 701 
Q 1688 409 2113 409 
Q 2538 409 2786 701 
Q 3034 994 3034 1497 
Q 3034 2003 2786 2293 
Q 2538 2584 2113 2584 
z
M 3366 4563 
L 3366 3988 
Q 3128 4100 2886 4159 
Q 2644 4219 2406 4219 
Q 1781 4219 1451 3797 
Q 1122 3375 1075 2522 
Q 1259 2794 1537 2939 
Q 1816 3084 2150 3084 
Q 2853 3084 3261 2657 
Q 3669 2231 3669 1497 
Q 3669 778 3244 343 
Q 2819 -91 2113 -91 
Q 1303 -91 875 529 
Q 447 1150 447 2328 
Q 447 3434 972 4092 
Q 1497 4750 2381 4750 
Q 2619 4750 2861 4703 
Q 3103 4656 3366 4563 
z
" transform="scale(0.015625)"/>
       <path id="DejaVuSans-7a" d="M 353 3500 
L 3084 3500 
L 3084 2975 
L 922 459 
L 3084 459 
L 3084 0 
L 275 0 
L 275 525 
L 2438 3041 
L 353 3041 
L 353 3500 
z
" transform="scale(0.015625)"/>
       <path id="DejaVuSans-2e" d="M 684 794 
L 1344 794 
L 1344 0 
L 684 0 
L 684 794 
z
" transform="scale(0.015625)"/>
       <path id="DejaVuSans-75" d="M 544 1381 
L 544 3500 
L 1119 3500 
L 1119 1403 
Q 1119 906 1312 657 
Q 1506 409 1894 409 
Q 2359 409 2629 706 
Q 2900 1003 2900 1516 
L 2900 3500 
L 3475 3500 
L 3475 0 
L 2900 0 
L 2900 538 
Q 2691 219 2414 64 
Q 2138 -91 1772 -91 
Q 1169 -91 856 284 
Q 544 659 544 1381 
z
M 1991 3584 
L 1991 3584 
z
" transform="scale(0.015625)"/>
      </defs>
      <use xlink:href="#DejaVuSans-33"/>
      <use xlink:href="#DejaVuSans-77" x="63.623047"/>
      <use xlink:href="#DejaVuSans-61" x="145.410156"/>
      <use xlink:href="#DejaVuSans-79" x="206.689453"/>
      <use xlink:href="#DejaVuSans-5f" x="265.869141"/>
      <use xlink:href="#DejaVuSans-72" x="315.869141"/>
      <use xlink:href="#DejaVuSans-65" x="354.732422"/>
      <use xlink:href="#DejaVuSans-61" x="416.255859"/>
      <use xlink:href="#DejaVuSans-64" x="477.535156"/>
      <use xlink:href="#DejaVuSans-73" x="541.011719"/>
      <use xlink:href="#DejaVuSans-5f" x="593.111328"/>
      <use xlink:href="#DejaVuSans-6f" x="643.111328"/>
      <use xlink:href="#DejaVuSans-73" x="704.292969"/>
      <use xlink:href="#DejaVuSans-64" x="756.392578"/>
      <use xlink:href="#DejaVuSans-73" x="819.869141"/>
      <use xlink:href="#DejaVuSans-5f" x="871.96875"/>
      <use xlink:href="#DejaVuSans-36" x="921.96875"/>
      <use xlink:href="#DejaVuSans-5f" x="985.591797"/>
      <use xlink:href="#DejaVuSans-73" x="1035.591797"/>
      <use xlink:href="#DejaVuSans-68" x="1087.691406"/>
      <use xlink:href="#DejaVuSans-61" x="1151.070312"/>
      <use xlink:href="#DejaVuSans-72" x="1212.349609"/>
      <use xlink:href="#DejaVuSans-64" x="1251.712891"/>
      <use xlink:href="#DejaVuSans-73" x="1315.189453"/>
      <use xlink:href="#DejaVuSans-69" x="1367.289062"/>
      <use xlink:href="#DejaVuSans-7a" x="1395.072266"/>
      <use xlink:href="#DejaVuSans-65" x="1447.5625"/>
      <use xlink:href="#DejaVuSans-5f" x="1509.085938"/>
      <use xlink:href="#DejaVuSans-35" x="1559.085938"/>
      <use xlink:href="#DejaVuSans-30" x="1622.708984"/>
      <use xlink:href="#DejaVuSans-30" x="1686.332031"/>
      <use xlink:href="#DejaVuSans-30" x="1749.955078"/>
      <use xlink:href="#DejaVuSans-30" x="1813.578125"/>
      <use xlink:href="#DejaVuSans-30" x="1877.201172"/>
      <use xlink:href="#DejaVuSans-30" x="1940.824219"/>
      <use xlink:href="#DejaVuSans-2e" x="2004.447266"/>
      <use xlink:href="#DejaVuSans-31" x="2036.234375"/>
      <use xlink:href="#DejaVuSans-73" x="2099.857422"/>
      <use xlink:href="#DejaVuSans-74" x="2151.957031"/>
      <use xlink:href="#DejaVuSans-72" x="2191.166016"/>
      <use xlink:href="#DejaVuSans-75" x="2232.279297"/>
      <use xlink:href="#DejaVuSans-6e" x="2295.658203"/>
     </g>
    </g>
    <g id="line2d_20">
     <path d="M 11.2 343.096012 
L 21.2 343.096012 
L 31.2 343.096012 
" style="fill: none; stroke: #ff7f0e; stroke-width: 1.5; stroke-linecap: square"/>
     <g>
      <use xlink:href="#me08d7c9166" x="21.2" y="343.096012" style="fill: #ff7f0e; stroke: #ff7f0e"/>
     </g>
    </g>
    <g id="text_17">
     <!-- 3way_reads_osds_6_shardsize_5000000.2ndrun -->
     <g transform="translate(39.2 346.596012) scale(0.1 -0.1)">
      <use xlink:href="#DejaVuSans-33"/>
      <use xlink:href="#DejaVuSans-77" x="63.623047"/>
      <use xlink:href="#DejaVuSans-61" x="145.410156"/>
      <use xlink:href="#DejaVuSans-79" x="206.689453"/>
      <use xlink:href="#DejaVuSans-5f" x="265.869141"/>
      <use xlink:href="#DejaVuSans-72" x="315.869141"/>
      <use xlink:href="#DejaVuSans-65" x="354.732422"/>
      <use xlink:href="#DejaVuSans-61" x="416.255859"/>
      <use xlink:href="#DejaVuSans-64" x="477.535156"/>
      <use xlink:href="#DejaVuSans-73" x="541.011719"/>
      <use xlink:href="#DejaVuSans-5f" x="593.111328"/>
      <use xlink:href="#DejaVuSans-6f" x="643.111328"/>
      <use xlink:href="#DejaVuSans-73" x="704.292969"/>
      <use xlink:href="#DejaVuSans-64" x="756.392578"/>
      <use xlink:href="#DejaVuSans-73" x="819.869141"/>
      <use xlink:href="#DejaVuSans-5f" x="871.96875"/>
      <use xlink:href="#DejaVuSans-36" x="921.96875"/>
      <use xlink:href="#DejaVuSans-5f" x="985.591797"/>
      <use xlink:href="#DejaVuSans-73" x="1035.591797"/>
      <use xlink:href="#DejaVuSans-68" x="1087.691406"/>
      <use xlink:href="#DejaVuSans-61" x="1151.070312"/>
      <use xlink:href="#DejaVuSans-72" x="1212.349609"/>
      <use xlink:href="#DejaVuSans-64" x="1251.712891"/>
      <use xlink:href="#DejaVuSans-73" x="1315.189453"/>
      <use xlink:href="#DejaVuSans-69" x="1367.289062"/>
      <use xlink:href="#DejaVuSans-7a" x="1395.072266"/>
      <use xlink:href="#DejaVuSans-65" x="1447.5625"/>
      <use xlink:href="#DejaVuSans-5f" x="1509.085938"/>
      <use xlink:href="#DejaVuSans-35" x="1559.085938"/>
      <use xlink:href="#DejaVuSans-30" x="1622.708984"/>
      <use xlink:href="#DejaVuSans-30" x="1686.332031"/>
      <use xlink:href="#DejaVuSans-30" x="1749.955078"/>
      <use xlink:href="#DejaVuSans-30" x="1813.578125"/>
      <use xlink:href="#DejaVuSans-30" x="1877.201172"/>
      <use xlink:href="#DejaVuSans-30" x="1940.824219"/>
      <use xlink:href="#DejaVuSans-2e" x="2004.447266"/>
      <use xlink:href="#DejaVuSans-32" x="2036.234375"/>
      <use xlink:href="#DejaVuSans-6e" x="2099.857422"/>
      <use xlink:href="#DejaVuSans-64" x="2163.236328"/>
      <use xlink:href="#DejaVuSans-72" x="2226.712891"/>
      <use xlink:href="#DejaVuSans-75" x="2267.826172"/>
      <use xlink:href="#DejaVuSans-6e" x="2331.205078"/>
     </g>
    </g>
    <g id="line2d_21">
     <path d="M 11.2 358.052262 
L 21.2 358.052262 
L 31.2 358.052262 
" style="fill: none; stroke: #2ca02c; stroke-width: 1.5; stroke-linecap: square"/>
     <g>
      <use xlink:href="#m975c1ad27b" x="21.2" y="358.052262" style="fill: #2ca02c; stroke: #2ca02c"/>
     </g>
    </g>
    <g id="text_18">
     <!-- 3way_reads_osds_6_shardsize_131072 -->
     <g transform="translate(39.2 361.552262) scale(0.1 -0.1)">
      <defs>
       <path id="DejaVuSans-37" d="M 525 4666 
L 3525 4666 
L 3525 4397 
L 1831 0 
L 1172 0 
L 2766 4134 
L 525 4134 
L 525 4666 
z
" transform="scale(0.015625)"/>
      </defs>
      <use xlink:href="#DejaVuSans-33"/>
      <use xlink:href="#DejaVuSans-77" x="63.623047"/>
      <use xlink:href="#DejaVuSans-61" x="145.410156"/>
      <use xlink:href="#DejaVuSans-79" x="206.689453"/>
      <use xlink:href="#DejaVuSans-5f" x="265.869141"/>
      <use xlink:href="#DejaVuSans-72" x="315.869141"/>
      <use xlink:href="#DejaVuSans-65" x="354.732422"/>
      <use xlink:href="#DejaVuSans-61" x="416.255859"/>
      <use xlink:href="#DejaVuSans-64" x="477.535156"/>
      <use xlink:href="#DejaVuSans-73" x="541.011719"/>
      <use xlink:href="#DejaVuSans-5f" x="593.111328"/>
      <use xlink:href="#DejaVuSans-6f" x="643.111328"/>
      <use xlink:href="#DejaVuSans-73" x="704.292969"/>
      <use xlink:href="#DejaVuSans-64" x="756.392578"/>
      <use xlink:href="#DejaVuSans-73" x="819.869141"/>
      <use xlink:href="#DejaVuSans-5f" x="871.96875"/>
      <use xlink:href="#DejaVuSans-36" x="921.96875"/>
      <use xlink:href="#DejaVuSans-5f" x="985.591797"/>
      <use xlink:href="#DejaVuSans-73" x="1035.591797"/>
      <use xlink:href="#DejaVuSans-68" x="1087.691406"/>
      <use xlink:href="#DejaVuSans-61" x="1151.070312"/>
      <use xlink:href="#DejaVuSans-72" x="1212.349609"/>
      <use xlink:href="#DejaVuSans-64" x="1251.712891"/>
      <use xlink:href="#DejaVuSans-73" x="1315.189453"/>
      <use xlink:href="#DejaVuSans-69" x="1367.289062"/>
      <use xlink:href="#DejaVuSans-7a" x="1395.072266"/>
      <use xlink:href="#DejaVuSans-65" x="1447.5625"/>
      <use xlink:href="#DejaVuSans-5f" x="1509.085938"/>
      <use xlink:href="#DejaVuSans-31" x="1559.085938"/>
      <use xlink:href="#DejaVuSans-33" x="1622.708984"/>
      <use xlink:href="#DejaVuSans-31" x="1686.332031"/>
      <use xlink:href="#DejaVuSans-30" x="1749.955078"/>
      <use xlink:href="#DejaVuSans-37" x="1813.578125"/>
      <use xlink:href="#DejaVuSans-32" x="1877.201172"/>
     </g>
    </g>
    <g id="line2d_22">
     <path d="M 298.659375 328.139762 
L 308.659375 328.139762 
L 318.659375 328.139762 
" style="fill: none; stroke: #d62728; stroke-width: 1.5; stroke-linecap: square"/>
     <g>
      <use xlink:href="#m5d1fdcf60f" x="308.659375" y="328.139762" style="fill: #d62728; stroke: #d62728"/>
     </g>
    </g>
    <g id="text_19">
     <!-- 3way_reads_osds_6_shardsize_196608 -->
     <g transform="translate(326.659375 331.639762) scale(0.1 -0.1)">
      <defs>
       <path id="DejaVuSans-39" d="M 703 97 
L 703 672 
Q 941 559 1184 500 
Q 1428 441 1663 441 
Q 2288 441 2617 861 
Q 2947 1281 2994 2138 
Q 2813 1869 2534 1725 
Q 2256 1581 1919 1581 
Q 1219 1581 811 2004 
Q 403 2428 403 3163 
Q 403 3881 828 4315 
Q 1253 4750 1959 4750 
Q 2769 4750 3195 4129 
Q 3622 3509 3622 2328 
Q 3622 1225 3098 567 
Q 2575 -91 1691 -91 
Q 1453 -91 1209 -44 
Q 966 3 703 97 
z
M 1959 2075 
Q 2384 2075 2632 2365 
Q 2881 2656 2881 3163 
Q 2881 3666 2632 3958 
Q 2384 4250 1959 4250 
Q 1534 4250 1286 3958 
Q 1038 3666 1038 3163 
Q 1038 2656 1286 2365 
Q 1534 2075 1959 2075 
z
" transform="scale(0.015625)"/>
      </defs>
      <use xlink:href="#DejaVuSans-33"/>
      <use xlink:href="#DejaVuSans-77" x="63.623047"/>
      <use xlink:href="#DejaVuSans-61" x="145.410156"/>
      <use xlink:href="#DejaVuSans-79" x="206.689453"/>
      <use xlink:href="#DejaVuSans-5f" x="265.869141"/>
      <use xlink:href="#DejaVuSans-72" x="315.869141"/>
      <use xlink:href="#DejaVuSans-65" x="354.732422"/>
      <use xlink:href="#DejaVuSans-61" x="416.255859"/>
      <use xlink:href="#DejaVuSans-64" x="477.535156"/>
      <use xlink:href="#DejaVuSans-73" x="541.011719"/>
      <use xlink:href="#DejaVuSans-5f" x="593.111328"/>
      <use xlink:href="#DejaVuSans-6f" x="643.111328"/>
      <use xlink:href="#DejaVuSans-73" x="704.292969"/>
      <use xlink:href="#DejaVuSans-64" x="756.392578"/>
      <use xlink:href="#DejaVuSans-73" x="819.869141"/>
      <use xlink:href="#DejaVuSans-5f" x="871.96875"/>
      <use xlink:href="#DejaVuSans-36" x="921.96875"/>
      <use xlink:href="#DejaVuSans-5f" x="985.591797"/>
      <use xlink:href="#DejaVuSans-73" x="1035.591797"/>
      <use xlink:href="#DejaVuSans-68" x="1087.691406"/>
      <use xlink:href="#DejaVuSans-61" x="1151.070312"/>
      <use xlink:href="#DejaVuSans-72" x="1212.349609"/>
      <use xlink:href="#DejaVuSans-64" x="1251.712891"/>
      <use xlink:href="#DejaVuSans-73" x="1315.189453"/>
      <use xlink:href="#DejaVuSans-69" x="1367.289062"/>
      <use xlink:href="#DejaVuSans-7a" x="1395.072266"/>
      <use xlink:href="#DejaVuSans-65" x="1447.5625"/>
      <use xlink:href="#DejaVuSans-5f" x="1509.085938"/>
      <use xlink:href="#DejaVuSans-31" x="1559.085938"/>
      <use xlink:href="#DejaVuSans-39" x="1622.708984"/>
      <use xlink:href="#DejaVuSans-36" x="1686.332031"/>
      <use xlink:href="#DejaVuSans-36" x="1749.955078"/>
      <use xlink:href="#DejaVuSans-30" x="1813.578125"/>
      <use xlink:href="#DejaVuSans-38" x="1877.201172"/>
     </g>
    </g>
    <g id="line2d_23">
     <path d="M 298.659375 343.096012 
L 308.659375 343.096012 
L 318.659375 343.096012 
" style="fill: none; stroke: #9467bd; stroke-width: 1.5; stroke-linecap: square"/>
     <g>
      <use xlink:href="#m75310ea854" x="308.659375" y="343.096012" style="fill: #9467bd; stroke: #9467bd"/>
     </g>
    </g>
    <g id="text_20">
     <!-- 3way_reads_osds_6_shardsize_262144 -->
     <g transform="translate(326.659375 346.596012) scale(0.1 -0.1)">
      <use xlink:href="#DejaVuSans-33"/>
      <use xlink:href="#DejaVuSans-77" x="63.623047"/>
      <use xlink:href="#DejaVuSans-61" x="145.410156"/>
      <use xlink:href="#DejaVuSans-79" x="206.689453"/>
      <use xlink:href="#DejaVuSans-5f" x="265.869141"/>
      <use xlink:href="#DejaVuSans-72" x="315.869141"/>
      <use xlink:href="#DejaVuSans-65" x="354.732422"/>
      <use xlink:href="#DejaVuSans-61" x="416.255859"/>
      <use xlink:href="#DejaVuSans-64" x="477.535156"/>
      <use xlink:href="#DejaVuSans-73" x="541.011719"/>
      <use xlink:href="#DejaVuSans-5f" x="593.111328"/>
      <use xlink:href="#DejaVuSans-6f" x="643.111328"/>
      <use xlink:href="#DejaVuSans-73" x="704.292969"/>
      <use xlink:href="#DejaVuSans-64" x="756.392578"/>
      <use xlink:href="#DejaVuSans-73" x="819.869141"/>
      <use xlink:href="#DejaVuSans-5f" x="871.96875"/>
      <use xlink:href="#DejaVuSans-36" x="921.96875"/>
      <use xlink:href="#DejaVuSans-5f" x="985.591797"/>
      <use xlink:href="#DejaVuSans-73" x="1035.591797"/>
      <use xlink:href="#DejaVuSans-68" x="1087.691406"/>
      <use xlink:href="#DejaVuSans-61" x="1151.070312"/>
      <use xlink:href="#DejaVuSans-72" x="1212.349609"/>
      <use xlink:href="#DejaVuSans-64" x="1251.712891"/>
      <use xlink:href="#DejaVuSans-73" x="1315.189453"/>
      <use xlink:href="#DejaVuSans-69" x="1367.289062"/>
      <use xlink:href="#DejaVuSans-7a" x="1395.072266"/>
      <use xlink:href="#DejaVuSans-65" x="1447.5625"/>
      <use xlink:href="#DejaVuSans-5f" x="1509.085938"/>
      <use xlink:href="#DejaVuSans-32" x="1559.085938"/>
      <use xlink:href="#DejaVuSans-36" x="1622.708984"/>
      <use xlink:href="#DejaVuSans-32" x="1686.332031"/>
      <use xlink:href="#DejaVuSans-31" x="1749.955078"/>
      <use xlink:href="#DejaVuSans-34" x="1813.578125"/>
      <use xlink:href="#DejaVuSans-34" x="1877.201172"/>
     </g>
    </g>
    <g id="line2d_24">
     <path d="M 298.659375 358.052262 
L 308.659375 358.052262 
L 318.659375 358.052262 
" style="fill: none; stroke: #8c564b; stroke-width: 1.5; stroke-linecap: square"/>
     <g>
      <use xlink:href="#m56235c4804" x="308.659375" y="358.052262" style="fill: #8c564b; stroke: #8c564b"/>
     </g>
    </g>
    <g id="text_21">
     <!-- 3way_reads_osds_6_shardsize_327680 -->
     <g transform="translate(326.659375 361.552262) scale(0.1 -0.1)">
      <use xlink:href="#DejaVuSans-33"/>
      <use xlink:href="#DejaVuSans-77" x="63.623047"/>
      <use xlink:href="#DejaVuSans-61" x="145.410156"/>
      <use xlink:href="#DejaVuSans-79" x="206.689453"/>
      <use xlink:href="#DejaVuSans-5f" x="265.869141"/>
      <use xlink:href="#DejaVuSans-72" x="315.869141"/>
      <use xlink:href="#DejaVuSans-65" x="354.732422"/>
      <use xlink:href="#DejaVuSans-61" x="416.255859"/>
      <use xlink:href="#DejaVuSans-64" x="477.535156"/>
      <use xlink:href="#DejaVuSans-73" x="541.011719"/>
      <use xlink:href="#DejaVuSans-5f" x="593.111328"/>
      <use xlink:href="#DejaVuSans-6f" x="643.111328"/>
      <use xlink:href="#DejaVuSans-73" x="704.292969"/>
      <use xlink:href="#DejaVuSans-64" x="756.392578"/>
      <use xlink:href="#DejaVuSans-73" x="819.869141"/>
      <use xlink:href="#DejaVuSans-5f" x="871.96875"/>
      <use xlink:href="#DejaVuSans-36" x="921.96875"/>
      <use xlink:href="#DejaVuSans-5f" x="985.591797"/>
      <use xlink:href="#DejaVuSans-73" x="1035.591797"/>
      <use xlink:href="#DejaVuSans-68" x="1087.691406"/>
      <use xlink:href="#DejaVuSans-61" x="1151.070312"/>
      <use xlink:href="#DejaVuSans-72" x="1212.349609"/>
      <use xlink:href="#DejaVuSans-64" x="1251.712891"/>
      <use xlink:href="#DejaVuSans-73" x="1315.189453"/>
      <use xlink:href="#DejaVuSans-69" x="1367.289062"/>
      <use xlink:href="#DejaVuSans-7a" x="1395.072266"/>
      <use xlink:href="#DejaVuSans-65" x="1447.5625"/>
      <use xlink:href="#DejaVuSans-5f" x="1509.085938"/>
      <use xlink:href="#DejaVuSans-33" x="1559.085938"/>
      <use xlink:href="#DejaVuSans-32" x="1622.708984"/>
      <use xlink:href="#DejaVuSans-37" x="1686.332031"/>
      <use xlink:href="#DejaVuSans-36" x="1749.955078"/>
      <use xlink:href="#DejaVuSans-38" x="1813.578125"/>
      <use xlink:href="#DejaVuSans-30" x="1877.201172"/>
     </g>
    </g>
   </g>
  </g>
 </g>
 <defs>
  <clipPath id="pe1033059c2">
   <rect x="87.411875" y="22.318125" width="357.12" height="266.112"/>
  </clipPath>
 </defs>
</svg>
