<?xml version="1.0" encoding="utf-8" standalone="no"?>
<!DOCTYPE svg PUBLIC "-//W3C//DTD SVG 1.1//EN"
  "http://www.w3.org/Graphics/SVG/1.1/DTD/svg11.dtd">
<svg xmlns:xlink="http://www.w3.org/1999/xlink" width="584.840625pt" height="360.153825pt" viewBox="0 0 584.840625 360.153825" xmlns="http://www.w3.org/2000/svg" version="1.1">
 <metadata>
  <rdf:RDF xmlns:dc="http://purl.org/dc/elements/1.1/" xmlns:cc="http://creativecommons.org/ns#" xmlns:rdf="http://www.w3.org/1999/02/22-rdf-syntax-ns#">
   <cc:Work>
    <dc:type rdf:resource="http://purl.org/dc/dcmitype/StillImage"/>
    <dc:date>2025-11-17T09:35:47.514229</dc:date>
    <dc:format>image/svg+xml</dc:format>
    <dc:creator>
     <cc:Agent>
      <dc:title>Matplotlib v3.9.4, https://matplotlib.org/</dc:title>
     </cc:Agent>
    </dc:creator>
   </cc:Work>
  </rdf:RDF>
 </metadata>
 <defs>
  <style type="text/css">*{stroke-linejoin: round; stroke-linecap: butt}</style>
 </defs>
 <g id="figure_1">
  <g id="patch_1">
   <path d="M 0 360.153825 
L 584.840625 360.153825 
L 584.840625 0 
L 0 0 
z
" style="fill: #ffffff"/>
  </g>
  <g id="axes_1">
   <g id="patch_2">
    <path d="M 113.860312 288.430125 
L 470.980313 288.430125 
L 470.980313 22.318125 
L 113.860312 22.318125 
z
" style="fill: #ffffff"/>
   </g>
   <g id="matplotlib.axis_1">
    <g id="xtick_1">
     <g id="line2d_1">
      <defs>
       <path id="mef6a167a95" d="M 0 0 
L 0 3.5 
" style="stroke: #000000; stroke-width: 0.8"/>
      </defs>
      <g>
       <use xlink:href="#mef6a167a95" x="113.860312" y="288.430125" style="stroke: #000000; stroke-width: 0.8"/>
      </g>
     </g>
     <g id="text_1">
      <!-- 0 -->
      <g transform="translate(110.679062 303.028562) scale(0.1 -0.1)">
       <defs>
        <path id="DejaVuSans-30" d="M 2034 4250 
Q 1547 4250 1301 3770 
Q 1056 3291 1056 2328 
Q 1056 1369 1301 889 
Q 1547 409 2034 409 
Q 2525 409 2770 889 
Q 3016 1369 3016 2328 
Q 3016 3291 2770 3770 
Q 2525 4250 2034 4250 
z
M 2034 4750 
Q 2819 4750 3233 4129 
Q 3647 3509 3647 2328 
Q 3647 1150 3233 529 
Q 2819 -91 2034 -91 
Q 1250 -91 836 529 
Q 422 1150 422 2328 
Q 422 3509 836 4129 
Q 1250 4750 2034 4750 
z
" transform="scale(0.015625)"/>
       </defs>
       <use xlink:href="#DejaVuSans-30"/>
      </g>
     </g>
    </g>
    <g id="xtick_2">
     <g id="line2d_2">
      <g>
       <use xlink:href="#mef6a167a95" x="180.032082" y="288.430125" style="stroke: #000000; stroke-width: 0.8"/>
      </g>
     </g>
     <g id="text_2">
      <!-- 1000 -->
      <g transform="translate(167.307082 303.028562) scale(0.1 -0.1)">
       <defs>
        <path id="DejaVuSans-31" d="M 794 531 
L 1825 531 
L 1825 4091 
L 703 3866 
L 703 4441 
L 1819 4666 
L 2450 4666 
L 2450 531 
L 3481 531 
L 3481 0 
L 794 0 
L 794 531 
z
" transform="scale(0.015625)"/>
       </defs>
       <use xlink:href="#DejaVuSans-31"/>
       <use xlink:href="#DejaVuSans-30" x="63.623047"/>
       <use xlink:href="#DejaVuSans-30" x="127.246094"/>
       <use xlink:href="#DejaVuSans-30" x="190.869141"/>
      </g>
     </g>
    </g>
    <g id="xtick_3">
     <g id="line2d_3">
      <g>
       <use xlink:href="#mef6a167a95" x="246.203852" y="288.430125" style="stroke: #000000; stroke-width: 0.8"/>
      </g>
     </g>
     <g id="text_3">
      <!-- 2000 -->
      <g transform="translate(233.478852 303.028562) scale(0.1 -0.1)">
       <defs>
        <path id="DejaVuSans-32" d="M 1228 531 
L 3431 531 
L 3431 0 
L 469 0 
L 469 531 
Q 828 903 1448 1529 
Q 2069 2156 2228 2338 
Q 2531 2678 2651 2914 
Q 2772 3150 2772 3378 
Q 2772 3750 2511 3984 
Q 2250 4219 1831 4219 
Q 1534 4219 1204 4116 
Q 875 4013 500 3803 
L 500 4441 
Q 881 4594 1212 4672 
Q 1544 4750 1819 4750 
Q 2544 4750 2975 4387 
Q 3406 4025 3406 3419 
Q 3406 3131 3298 2873 
Q 3191 2616 2906 2266 
Q 2828 2175 2409 1742 
Q 1991 1309 1228 531 
z
" transform="scale(0.015625)"/>
       </defs>
       <use xlink:href="#DejaVuSans-32"/>
       <use xlink:href="#DejaVuSans-30" x="63.623047"/>
       <use xlink:href="#DejaVuSans-30" x="127.246094"/>
       <use xlink:href="#DejaVuSans-30" x="190.869141"/>
      </g>
     </g>
    </g>
    <g id="xtick_4">
     <g id="line2d_4">
      <g>
       <use xlink:href="#mef6a167a95" x="312.375622" y="288.430125" style="stroke: #000000; stroke-width: 0.8"/>
      </g>
     </g>
     <g id="text_4">
      <!-- 3000 -->
      <g transform="translate(299.650622 303.028562) scale(0.1 -0.1)">
       <defs>
        <path id="DejaVuSans-33" d="M 2597 2516 
Q 3050 2419 3304 2112 
Q 3559 1806 3559 1356 
Q 3559 666 3084 287 
Q 2609 -91 1734 -91 
Q 1441 -91 1130 -33 
Q 819 25 488 141 
L 488 750 
Q 750 597 1062 519 
Q 1375 441 1716 441 
Q 2309 441 2620 675 
Q 2931 909 2931 1356 
Q 2931 1769 2642 2001 
Q 2353 2234 1838 2234 
L 1294 2234 
L 1294 2753 
L 1863 2753 
Q 2328 2753 2575 2939 
Q 2822 3125 2822 3475 
Q 2822 3834 2567 4026 
Q 2313 4219 1838 4219 
Q 1578 4219 1281 4162 
Q 984 4106 628 3988 
L 628 4550 
Q 988 4650 1302 4700 
Q 1616 4750 1894 4750 
Q 2613 4750 3031 4423 
Q 3450 4097 3450 3541 
Q 3450 3153 3228 2886 
Q 3006 2619 2597 2516 
z
" transform="scale(0.015625)"/>
       </defs>
       <use xlink:href="#DejaVuSans-33"/>
       <use xlink:href="#DejaVuSans-30" x="63.623047"/>
       <use xlink:href="#DejaVuSans-30" x="127.246094"/>
       <use xlink:href="#DejaVuSans-30" x="190.869141"/>
      </g>
     </g>
    </g>
    <g id="xtick_5">
     <g id="line2d_5">
      <g>
       <use xlink:href="#mef6a167a95" x="378.547392" y="288.430125" style="stroke: #000000; stroke-width: 0.8"/>
      </g>
     </g>
     <g id="text_5">
      <!-- 4000 -->
      <g transform="translate(365.822392 303.028562) scale(0.1 -0.1)">
       <defs>
        <path id="DejaVuSans-34" d="M 2419 4116 
L 825 1625 
L 2419 1625 
L 2419 4116 
z
M 2253 4666 
L 3047 4666 
L 3047 1625 
L 3713 1625 
L 3713 1100 
L 3047 1100 
L 3047 0 
L 2419 0 
L 2419 1100 
L 313 1100 
L 313 1709 
L 2253 4666 
z
" transform="scale(0.015625)"/>
       </defs>
       <use xlink:href="#DejaVuSans-34"/>
       <use xlink:href="#DejaVuSans-30" x="63.623047"/>
       <use xlink:href="#DejaVuSans-30" x="127.246094"/>
       <use xlink:href="#DejaVuSans-30" x="190.869141"/>
      </g>
     </g>
    </g>
    <g id="xtick_6">
     <g id="line2d_6">
      <g>
       <use xlink:href="#mef6a167a95" x="444.719161" y="288.430125" style="stroke: #000000; stroke-width: 0.8"/>
      </g>
     </g>
     <g id="text_6">
      <!-- 5000 -->
      <g transform="translate(431.994161 303.028562) scale(0.1 -0.1)">
       <defs>
        <path id="DejaVuSans-35" d="M 691 4666 
L 3169 4666 
L 3169 4134 
L 1269 4134 
L 1269 2991 
Q 1406 3038 1543 3061 
Q 1681 3084 1819 3084 
Q 2600 3084 3056 2656 
Q 3513 2228 3513 1497 
Q 3513 744 3044 326 
Q 2575 -91 1722 -91 
Q 1428 -91 1123 -41 
Q 819 9 494 109 
L 494 744 
Q 775 591 1075 516 
Q 1375 441 1709 441 
Q 2250 441 2565 725 
Q 2881 1009 2881 1497 
Q 2881 1984 2565 2268 
Q 2250 2553 1709 2553 
Q 1456 2553 1204 2497 
Q 953 2441 691 2322 
L 691 4666 
z
" transform="scale(0.015625)"/>
       </defs>
       <use xlink:href="#DejaVuSans-35"/>
       <use xlink:href="#DejaVuSans-30" x="63.623047"/>
       <use xlink:href="#DejaVuSans-30" x="127.246094"/>
       <use xlink:href="#DejaVuSans-30" x="190.869141"/>
      </g>
     </g>
    </g>
    <g id="text_7">
     <!-- Bandwidth (MB/s) -->
     <g transform="translate(248.277344 316.706687) scale(0.1 -0.1)">
      <defs>
       <path id="DejaVuSans-42" d="M 1259 2228 
L 1259 519 
L 2272 519 
Q 2781 519 3026 730 
Q 3272 941 3272 1375 
Q 3272 1813 3026 2020 
Q 2781 2228 2272 2228 
L 1259 2228 
z
M 1259 4147 
L 1259 2741 
L 2194 2741 
Q 2656 2741 2882 2914 
Q 3109 3088 3109 3444 
Q 3109 3797 2882 3972 
Q 2656 4147 2194 4147 
L 1259 4147 
z
M 628 4666 
L 2241 4666 
Q 2963 4666 3353 4366 
Q 3744 4066 3744 3513 
Q 3744 3084 3544 2831 
Q 3344 2578 2956 2516 
Q 3422 2416 3680 2098 
Q 3938 1781 3938 1306 
Q 3938 681 3513 340 
Q 3088 0 2303 0 
L 628 0 
L 628 4666 
z
" transform="scale(0.015625)"/>
       <path id="DejaVuSans-61" d="M 2194 1759 
Q 1497 1759 1228 1600 
Q 959 1441 959 1056 
Q 959 750 1161 570 
Q 1363 391 1709 391 
Q 2188 391 2477 730 
Q 2766 1069 2766 1631 
L 2766 1759 
L 2194 1759 
z
M 3341 1997 
L 3341 0 
L 2766 0 
L 2766 531 
Q 2569 213 2275 61 
Q 1981 -91 1556 -91 
Q 1019 -91 701 211 
Q 384 513 384 1019 
Q 384 1609 779 1909 
Q 1175 2209 1959 2209 
L 2766 2209 
L 2766 2266 
Q 2766 2663 2505 2880 
Q 2244 3097 1772 3097 
Q 1472 3097 1187 3025 
Q 903 2953 641 2809 
L 641 3341 
Q 956 3463 1253 3523 
Q 1550 3584 1831 3584 
Q 2591 3584 2966 3190 
Q 3341 2797 3341 1997 
z
" transform="scale(0.015625)"/>
       <path id="DejaVuSans-6e" d="M 3513 2113 
L 3513 0 
L 2938 0 
L 2938 2094 
Q 2938 2591 2744 2837 
Q 2550 3084 2163 3084 
Q 1697 3084 1428 2787 
Q 1159 2491 1159 1978 
L 1159 0 
L 581 0 
L 581 3500 
L 1159 3500 
L 1159 2956 
Q 1366 3272 1645 3428 
Q 1925 3584 2291 3584 
Q 2894 3584 3203 3211 
Q 3513 2838 3513 2113 
z
" transform="scale(0.015625)"/>
       <path id="DejaVuSans-64" d="M 2906 2969 
L 2906 4863 
L 3481 4863 
L 3481 0 
L 2906 0 
L 2906 525 
Q 2725 213 2448 61 
Q 2172 -91 1784 -91 
Q 1150 -91 751 415 
Q 353 922 353 1747 
Q 353 2572 751 3078 
Q 1150 3584 1784 3584 
Q 2172 3584 2448 3432 
Q 2725 3281 2906 2969 
z
M 947 1747 
Q 947 1113 1208 752 
Q 1469 391 1925 391 
Q 2381 391 2643 752 
Q 2906 1113 2906 1747 
Q 2906 2381 2643 2742 
Q 2381 3103 1925 3103 
Q 1469 3103 1208 2742 
Q 947 2381 947 1747 
z
" transform="scale(0.015625)"/>
       <path id="DejaVuSans-77" d="M 269 3500 
L 844 3500 
L 1563 769 
L 2278 3500 
L 2956 3500 
L 3675 769 
L 4391 3500 
L 4966 3500 
L 4050 0 
L 3372 0 
L 2619 2869 
L 1863 0 
L 1184 0 
L 269 3500 
z
" transform="scale(0.015625)"/>
       <path id="DejaVuSans-69" d="M 603 3500 
L 1178 3500 
L 1178 0 
L 603 0 
L 603 3500 
z
M 603 4863 
L 1178 4863 
L 1178 4134 
L 603 4134 
L 603 4863 
z
" transform="scale(0.015625)"/>
       <path id="DejaVuSans-74" d="M 1172 4494 
L 1172 3500 
L 2356 3500 
L 2356 3053 
L 1172 3053 
L 1172 1153 
Q 1172 725 1289 603 
Q 1406 481 1766 481 
L 2356 481 
L 2356 0 
L 1766 0 
Q 1100 0 847 248 
Q 594 497 594 1153 
L 594 3053 
L 172 3053 
L 172 3500 
L 594 3500 
L 594 4494 
L 1172 4494 
z
" transform="scale(0.015625)"/>
       <path id="DejaVuSans-68" d="M 3513 2113 
L 3513 0 
L 2938 0 
L 2938 2094 
Q 2938 2591 2744 2837 
Q 2550 3084 2163 3084 
Q 1697 3084 1428 2787 
Q 1159 2491 1159 1978 
L 1159 0 
L 581 0 
L 581 4863 
L 1159 4863 
L 1159 2956 
Q 1366 3272 1645 3428 
Q 1925 3584 2291 3584 
Q 2894 3584 3203 3211 
Q 3513 2838 3513 2113 
z
" transform="scale(0.015625)"/>
       <path id="DejaVuSans-20" transform="scale(0.015625)"/>
       <path id="DejaVuSans-28" d="M 1984 4856 
Q 1566 4138 1362 3434 
Q 1159 2731 1159 2009 
Q 1159 1288 1364 580 
Q 1569 -128 1984 -844 
L 1484 -844 
Q 1016 -109 783 600 
Q 550 1309 550 2009 
Q 550 2706 781 3412 
Q 1013 4119 1484 4856 
L 1984 4856 
z
" transform="scale(0.015625)"/>
       <path id="DejaVuSans-4d" d="M 628 4666 
L 1569 4666 
L 2759 1491 
L 3956 4666 
L 4897 4666 
L 4897 0 
L 4281 0 
L 4281 4097 
L 3078 897 
L 2444 897 
L 1241 4097 
L 1241 0 
L 628 0 
L 628 4666 
z
" transform="scale(0.015625)"/>
       <path id="DejaVuSans-2f" d="M 1625 4666 
L 2156 4666 
L 531 -594 
L 0 -594 
L 1625 4666 
z
" transform="scale(0.015625)"/>
       <path id="DejaVuSans-73" d="M 2834 3397 
L 2834 2853 
Q 2591 2978 2328 3040 
Q 2066 3103 1784 3103 
Q 1356 3103 1142 2972 
Q 928 2841 928 2578 
Q 928 2378 1081 2264 
Q 1234 2150 1697 2047 
L 1894 2003 
Q 2506 1872 2764 1633 
Q 3022 1394 3022 966 
Q 3022 478 2636 193 
Q 2250 -91 1575 -91 
Q 1294 -91 989 -36 
Q 684 19 347 128 
L 347 722 
Q 666 556 975 473 
Q 1284 391 1588 391 
Q 1994 391 2212 530 
Q 2431 669 2431 922 
Q 2431 1156 2273 1281 
Q 2116 1406 1581 1522 
L 1381 1569 
Q 847 1681 609 1914 
Q 372 2147 372 2553 
Q 372 3047 722 3315 
Q 1072 3584 1716 3584 
Q 2034 3584 2315 3537 
Q 2597 3491 2834 3397 
z
" transform="scale(0.015625)"/>
       <path id="DejaVuSans-29" d="M 513 4856 
L 1013 4856 
Q 1481 4119 1714 3412 
Q 1947 2706 1947 2009 
Q 1947 1309 1714 600 
Q 1481 -109 1013 -844 
L 513 -844 
Q 928 -128 1133 580 
Q 1338 1288 1338 2009 
Q 1338 2731 1133 3434 
Q 928 4138 513 4856 
z
" transform="scale(0.015625)"/>
      </defs>
      <use xlink:href="#DejaVuSans-42"/>
      <use xlink:href="#DejaVuSans-61" x="68.603516"/>
      <use xlink:href="#DejaVuSans-6e" x="129.882812"/>
      <use xlink:href="#DejaVuSans-64" x="193.261719"/>
      <use xlink:href="#DejaVuSans-77" x="256.738281"/>
      <use xlink:href="#DejaVuSans-69" x="338.525391"/>
      <use xlink:href="#DejaVuSans-64" x="366.308594"/>
      <use xlink:href="#DejaVuSans-74" x="429.785156"/>
      <use xlink:href="#DejaVuSans-68" x="468.994141"/>
      <use xlink:href="#DejaVuSans-20" x="532.373047"/>
      <use xlink:href="#DejaVuSans-28" x="564.160156"/>
      <use xlink:href="#DejaVuSans-4d" x="603.173828"/>
      <use xlink:href="#DejaVuSans-42" x="689.453125"/>
      <use xlink:href="#DejaVuSans-2f" x="758.056641"/>
      <use xlink:href="#DejaVuSans-73" x="791.748047"/>
      <use xlink:href="#DejaVuSans-29" x="843.847656"/>
     </g>
    </g>
   </g>
   <g id="matplotlib.axis_2">
    <g id="ytick_1">
     <g id="line2d_7">
      <defs>
       <path id="m56d507095e" d="M 0 0 
L -3.5 0 
" style="stroke: #000000; stroke-width: 0.8"/>
      </defs>
      <g>
       <use xlink:href="#m56d507095e" x="113.860312" y="288.430125" style="stroke: #000000; stroke-width: 0.8"/>
      </g>
     </g>
     <g id="text_8">
      <!-- 0 -->
      <g transform="translate(100.497812 292.229344) scale(0.1 -0.1)">
       <use xlink:href="#DejaVuSans-30"/>
      </g>
     </g>
    </g>
    <g id="ytick_2">
     <g id="line2d_8">
      <g>
       <use xlink:href="#m56d507095e" x="113.860312" y="253.916088" style="stroke: #000000; stroke-width: 0.8"/>
      </g>
     </g>
     <g id="text_9">
      <!-- 5 -->
      <g transform="translate(100.497812 257.715307) scale(0.1 -0.1)">
       <use xlink:href="#DejaVuSans-35"/>
      </g>
     </g>
    </g>
    <g id="ytick_3">
     <g id="line2d_9">
      <g>
       <use xlink:href="#m56d507095e" x="113.860312" y="219.402051" style="stroke: #000000; stroke-width: 0.8"/>
      </g>
     </g>
     <g id="text_10">
      <!-- 10 -->
      <g transform="translate(94.135312 223.20127) scale(0.1 -0.1)">
       <use xlink:href="#DejaVuSans-31"/>
       <use xlink:href="#DejaVuSans-30" x="63.623047"/>
      </g>
     </g>
    </g>
    <g id="ytick_4">
     <g id="line2d_10">
      <g>
       <use xlink:href="#m56d507095e" x="113.860312" y="184.888014" style="stroke: #000000; stroke-width: 0.8"/>
      </g>
     </g>
     <g id="text_11">
      <!-- 15 -->
      <g transform="translate(94.135312 188.687233) scale(0.1 -0.1)">
       <use xlink:href="#DejaVuSans-31"/>
       <use xlink:href="#DejaVuSans-35" x="63.623047"/>
      </g>
     </g>
    </g>
    <g id="ytick_5">
     <g id="line2d_11">
      <g>
       <use xlink:href="#m56d507095e" x="113.860312" y="150.373977" style="stroke: #000000; stroke-width: 0.8"/>
      </g>
     </g>
     <g id="text_12">
      <!-- 20 -->
      <g transform="translate(94.135312 154.173196) scale(0.1 -0.1)">
       <use xlink:href="#DejaVuSans-32"/>
       <use xlink:href="#DejaVuSans-30" x="63.623047"/>
      </g>
     </g>
    </g>
    <g id="ytick_6">
     <g id="line2d_12">
      <g>
       <use xlink:href="#m56d507095e" x="113.860312" y="115.85994" style="stroke: #000000; stroke-width: 0.8"/>
      </g>
     </g>
     <g id="text_13">
      <!-- 25 -->
      <g transform="translate(94.135312 119.659159) scale(0.1 -0.1)">
       <use xlink:href="#DejaVuSans-32"/>
       <use xlink:href="#DejaVuSans-35" x="63.623047"/>
      </g>
     </g>
    </g>
    <g id="ytick_7">
     <g id="line2d_13">
      <g>
       <use xlink:href="#m56d507095e" x="113.860312" y="81.345903" style="stroke: #000000; stroke-width: 0.8"/>
      </g>
     </g>
     <g id="text_14">
      <!-- 30 -->
      <g transform="translate(94.135312 85.145122) scale(0.1 -0.1)">
       <use xlink:href="#DejaVuSans-33"/>
       <use xlink:href="#DejaVuSans-30" x="63.623047"/>
      </g>
     </g>
    </g>
    <g id="ytick_8">
     <g id="line2d_14">
      <g>
       <use xlink:href="#m56d507095e" x="113.860312" y="46.831866" style="stroke: #000000; stroke-width: 0.8"/>
      </g>
     </g>
     <g id="text_15">
      <!-- 35 -->
      <g transform="translate(94.135312 50.631085) scale(0.1 -0.1)">
       <use xlink:href="#DejaVuSans-33"/>
       <use xlink:href="#DejaVuSans-35" x="63.623047"/>
      </g>
     </g>
    </g>
    <g id="text_16">
     <!-- Latency (ms) -->
     <g transform="translate(88.055625 188.103812) rotate(-90) scale(0.1 -0.1)">
      <defs>
       <path id="DejaVuSans-4c" d="M 628 4666 
L 1259 4666 
L 1259 531 
L 3531 531 
L 3531 0 
L 628 0 
L 628 4666 
z
" transform="scale(0.015625)"/>
       <path id="DejaVuSans-65" d="M 3597 1894 
L 3597 1613 
L 953 1613 
Q 991 1019 1311 708 
Q 1631 397 2203 397 
Q 2534 397 2845 478 
Q 3156 559 3463 722 
L 3463 178 
Q 3153 47 2828 -22 
Q 2503 -91 2169 -91 
Q 1331 -91 842 396 
Q 353 884 353 1716 
Q 353 2575 817 3079 
Q 1281 3584 2069 3584 
Q 2775 3584 3186 3129 
Q 3597 2675 3597 1894 
z
M 3022 2063 
Q 3016 2534 2758 2815 
Q 2500 3097 2075 3097 
Q 1594 3097 1305 2825 
Q 1016 2553 972 2059 
L 3022 2063 
z
" transform="scale(0.015625)"/>
       <path id="DejaVuSans-63" d="M 3122 3366 
L 3122 2828 
Q 2878 2963 2633 3030 
Q 2388 3097 2138 3097 
Q 1578 3097 1268 2742 
Q 959 2388 959 1747 
Q 959 1106 1268 751 
Q 1578 397 2138 397 
Q 2388 397 2633 464 
Q 2878 531 3122 666 
L 3122 134 
Q 2881 22 2623 -34 
Q 2366 -91 2075 -91 
Q 1284 -91 818 406 
Q 353 903 353 1747 
Q 353 2603 823 3093 
Q 1294 3584 2113 3584 
Q 2378 3584 2631 3529 
Q 2884 3475 3122 3366 
z
" transform="scale(0.015625)"/>
       <path id="DejaVuSans-79" d="M 2059 -325 
Q 1816 -950 1584 -1140 
Q 1353 -1331 966 -1331 
L 506 -1331 
L 506 -850 
L 844 -850 
Q 1081 -850 1212 -737 
Q 1344 -625 1503 -206 
L 1606 56 
L 191 3500 
L 800 3500 
L 1894 763 
L 2988 3500 
L 3597 3500 
L 2059 -325 
z
" transform="scale(0.015625)"/>
       <path id="DejaVuSans-6d" d="M 3328 2828 
Q 3544 3216 3844 3400 
Q 4144 3584 4550 3584 
Q 5097 3584 5394 3201 
Q 5691 2819 5691 2113 
L 5691 0 
L 5113 0 
L 5113 2094 
Q 5113 2597 4934 2840 
Q 4756 3084 4391 3084 
Q 3944 3084 3684 2787 
Q 3425 2491 3425 1978 
L 3425 0 
L 2847 0 
L 2847 2094 
Q 2847 2600 2669 2842 
Q 2491 3084 2119 3084 
Q 1678 3084 1418 2786 
Q 1159 2488 1159 1978 
L 1159 0 
L 581 0 
L 581 3500 
L 1159 3500 
L 1159 2956 
Q 1356 3278 1631 3431 
Q 1906 3584 2284 3584 
Q 2666 3584 2933 3390 
Q 3200 3197 3328 2828 
z
" transform="scale(0.015625)"/>
      </defs>
      <use xlink:href="#DejaVuSans-4c"/>
      <use xlink:href="#DejaVuSans-61" x="55.712891"/>
      <use xlink:href="#DejaVuSans-74" x="116.992188"/>
      <use xlink:href="#DejaVuSans-65" x="156.201172"/>
      <use xlink:href="#DejaVuSans-6e" x="217.724609"/>
      <use xlink:href="#DejaVuSans-63" x="281.103516"/>
      <use xlink:href="#DejaVuSans-79" x="336.083984"/>
      <use xlink:href="#DejaVuSans-20" x="395.263672"/>
      <use xlink:href="#DejaVuSans-28" x="427.050781"/>
      <use xlink:href="#DejaVuSans-6d" x="466.064453"/>
      <use xlink:href="#DejaVuSans-73" x="563.476562"/>
      <use xlink:href="#DejaVuSans-29" x="615.576172"/>
     </g>
    </g>
   </g>
   <g id="line2d_15">
    <path d="M 128.17297 255.80621 
L 143.734669 257.343952 
L 159.027364 257.675702 
L 174.324017 257.725969 
L 227.069735 255.851645 
L 270.938046 253.569083 
L 310.248258 251.563182 
L 348.347832 242.057055 
L 370.565672 231.61778 
L 391.664385 208.813533 
L 382.488755 177.445573 
L 402.583714 132.522564 
L 406.775318 82.466893 
L 411.271079 34.260455 
" clip-path="url(#p5f0011b9c5)" style="fill: none; stroke: #1f77b4; stroke-width: 1.5; stroke-linecap: square"/>
    <defs>
     <path id="mc111174988" d="M -3 0 
L 3 0 
M 0 3 
L 0 -3 
" style="stroke: #1f77b4"/>
    </defs>
    <g clip-path="url(#p5f0011b9c5)">
     <use xlink:href="#mc111174988" x="128.17297" y="255.80621" style="fill: #1f77b4; stroke: #1f77b4"/>
     <use xlink:href="#mc111174988" x="143.734669" y="257.343952" style="fill: #1f77b4; stroke: #1f77b4"/>
     <use xlink:href="#mc111174988" x="159.027364" y="257.675702" style="fill: #1f77b4; stroke: #1f77b4"/>
     <use xlink:href="#mc111174988" x="174.324017" y="257.725969" style="fill: #1f77b4; stroke: #1f77b4"/>
     <use xlink:href="#mc111174988" x="227.069735" y="255.851645" style="fill: #1f77b4; stroke: #1f77b4"/>
     <use xlink:href="#mc111174988" x="270.938046" y="253.569083" style="fill: #1f77b4; stroke: #1f77b4"/>
     <use xlink:href="#mc111174988" x="310.248258" y="251.563182" style="fill: #1f77b4; stroke: #1f77b4"/>
     <use xlink:href="#mc111174988" x="348.347832" y="242.057055" style="fill: #1f77b4; stroke: #1f77b4"/>
     <use xlink:href="#mc111174988" x="370.565672" y="231.61778" style="fill: #1f77b4; stroke: #1f77b4"/>
     <use xlink:href="#mc111174988" x="391.664385" y="208.813533" style="fill: #1f77b4; stroke: #1f77b4"/>
     <use xlink:href="#mc111174988" x="382.488755" y="177.445573" style="fill: #1f77b4; stroke: #1f77b4"/>
     <use xlink:href="#mc111174988" x="402.583714" y="132.522564" style="fill: #1f77b4; stroke: #1f77b4"/>
     <use xlink:href="#mc111174988" x="406.775318" y="82.466893" style="fill: #1f77b4; stroke: #1f77b4"/>
     <use xlink:href="#mc111174988" x="411.271079" y="34.260455" style="fill: #1f77b4; stroke: #1f77b4"/>
    </g>
   </g>
   <g id="line2d_16">
    <path d="M 133.689657 265.370749 
L 159.676241 268.573839 
L 184.882639 269.307892 
L 206.956959 268.989043 
L 279.01884 266.535075 
L 322.526175 262.639263 
L 352.57329 258.546904 
L 369.080273 246.087698 
L 382.650298 234.396847 
L 395.792025 210.120836 
L 384.535563 178.400919 
L 406.067245 134.581469 
L 408.440624 83.843726 
L 413.828393 36.621705 
" clip-path="url(#p5f0011b9c5)" style="fill: none; stroke: #ff7f0e; stroke-width: 1.5; stroke-linecap: square"/>
    <defs>
     <path id="m93366c42df" d="M -3 0 
L 3 0 
M 0 3 
L 0 -3 
" style="stroke: #ff7f0e"/>
    </defs>
    <g clip-path="url(#p5f0011b9c5)">
     <use xlink:href="#m93366c42df" x="133.689657" y="265.370749" style="fill: #ff7f0e; stroke: #ff7f0e"/>
     <use xlink:href="#m93366c42df" x="159.676241" y="268.573839" style="fill: #ff7f0e; stroke: #ff7f0e"/>
     <use xlink:href="#m93366c42df" x="184.882639" y="269.307892" style="fill: #ff7f0e; stroke: #ff7f0e"/>
     <use xlink:href="#m93366c42df" x="206.956959" y="268.989043" style="fill: #ff7f0e; stroke: #ff7f0e"/>
     <use xlink:href="#m93366c42df" x="279.01884" y="266.535075" style="fill: #ff7f0e; stroke: #ff7f0e"/>
     <use xlink:href="#m93366c42df" x="322.526175" y="262.639263" style="fill: #ff7f0e; stroke: #ff7f0e"/>
     <use xlink:href="#m93366c42df" x="352.57329" y="258.546904" style="fill: #ff7f0e; stroke: #ff7f0e"/>
     <use xlink:href="#m93366c42df" x="369.080273" y="246.087698" style="fill: #ff7f0e; stroke: #ff7f0e"/>
     <use xlink:href="#m93366c42df" x="382.650298" y="234.396847" style="fill: #ff7f0e; stroke: #ff7f0e"/>
     <use xlink:href="#m93366c42df" x="395.792025" y="210.120836" style="fill: #ff7f0e; stroke: #ff7f0e"/>
     <use xlink:href="#m93366c42df" x="384.535563" y="178.400919" style="fill: #ff7f0e; stroke: #ff7f0e"/>
     <use xlink:href="#m93366c42df" x="406.067245" y="134.581469" style="fill: #ff7f0e; stroke: #ff7f0e"/>
     <use xlink:href="#m93366c42df" x="408.440624" y="83.843726" style="fill: #ff7f0e; stroke: #ff7f0e"/>
     <use xlink:href="#m93366c42df" x="413.828393" y="36.621705" style="fill: #ff7f0e; stroke: #ff7f0e"/>
    </g>
   </g>
   <g id="line2d_17">
    <path d="M 136.565781 268.67499 
L 170.319781 272.433095 
L 200.202367 272.859845 
L 228.218441 272.772677 
L 305.724585 269.669057 
L 353.387809 266.086742 
L 384.018858 262.139096 
L 407.395353 251.90789 
L 418.929882 241.157837 
L 433.394906 219.764762 
L 422.410302 192.33392 
L 447.657205 154.285454 
L 447.566243 108.315863 
L 454.656153 67.306661 
" clip-path="url(#p5f0011b9c5)" style="fill: none; stroke: #2ca02c; stroke-width: 1.5; stroke-linecap: square"/>
    <defs>
     <path id="m4d5448967e" d="M -3 0 
L 3 0 
M 0 3 
L 0 -3 
" style="stroke: #2ca02c"/>
    </defs>
    <g clip-path="url(#p5f0011b9c5)">
     <use xlink:href="#m4d5448967e" x="136.565781" y="268.67499" style="fill: #2ca02c; stroke: #2ca02c"/>
     <use xlink:href="#m4d5448967e" x="170.319781" y="272.433095" style="fill: #2ca02c; stroke: #2ca02c"/>
     <use xlink:href="#m4d5448967e" x="200.202367" y="272.859845" style="fill: #2ca02c; stroke: #2ca02c"/>
     <use xlink:href="#m4d5448967e" x="228.218441" y="272.772677" style="fill: #2ca02c; stroke: #2ca02c"/>
     <use xlink:href="#m4d5448967e" x="305.724585" y="269.669057" style="fill: #2ca02c; stroke: #2ca02c"/>
     <use xlink:href="#m4d5448967e" x="353.387809" y="266.086742" style="fill: #2ca02c; stroke: #2ca02c"/>
     <use xlink:href="#m4d5448967e" x="384.018858" y="262.139096" style="fill: #2ca02c; stroke: #2ca02c"/>
     <use xlink:href="#m4d5448967e" x="407.395353" y="251.90789" style="fill: #2ca02c; stroke: #2ca02c"/>
     <use xlink:href="#m4d5448967e" x="418.929882" y="241.157837" style="fill: #2ca02c; stroke: #2ca02c"/>
     <use xlink:href="#m4d5448967e" x="433.394906" y="219.764762" style="fill: #2ca02c; stroke: #2ca02c"/>
     <use xlink:href="#m4d5448967e" x="422.410302" y="192.33392" style="fill: #2ca02c; stroke: #2ca02c"/>
     <use xlink:href="#m4d5448967e" x="447.657205" y="154.285454" style="fill: #2ca02c; stroke: #2ca02c"/>
     <use xlink:href="#m4d5448967e" x="447.566243" y="108.315863" style="fill: #2ca02c; stroke: #2ca02c"/>
     <use xlink:href="#m4d5448967e" x="454.656153" y="67.306661" style="fill: #2ca02c; stroke: #2ca02c"/>
    </g>
   </g>
   <g id="line2d_18">
    <path d="M 138.841077 270.186142 
L 169.225359 272.301253 
L 201.856578 273.107054 
L 228.61304 272.755816 
L 299.413961 269.073583 
L 344.038045 265.214763 
L 371.120499 260.876466 
L 390.453739 249.614768 
L 402.638994 238.364163 
L 416.185284 215.666697 
L 409.70132 188.074878 
L 429.422027 146.273115 
L 430.551181 98.43689 
L 435.848375 54.124074 
" clip-path="url(#p5f0011b9c5)" style="fill: none; stroke: #d62728; stroke-width: 1.5; stroke-linecap: square"/>
    <defs>
     <path id="m7c129620f1" d="M -3 0 
L 3 0 
M 0 3 
L 0 -3 
" style="stroke: #d62728"/>
    </defs>
    <g clip-path="url(#p5f0011b9c5)">
     <use xlink:href="#m7c129620f1" x="138.841077" y="270.186142" style="fill: #d62728; stroke: #d62728"/>
     <use xlink:href="#m7c129620f1" x="169.225359" y="272.301253" style="fill: #d62728; stroke: #d62728"/>
     <use xlink:href="#m7c129620f1" x="201.856578" y="273.107054" style="fill: #d62728; stroke: #d62728"/>
     <use xlink:href="#m7c129620f1" x="228.61304" y="272.755816" style="fill: #d62728; stroke: #d62728"/>
     <use xlink:href="#m7c129620f1" x="299.413961" y="269.073583" style="fill: #d62728; stroke: #d62728"/>
     <use xlink:href="#m7c129620f1" x="344.038045" y="265.214763" style="fill: #d62728; stroke: #d62728"/>
     <use xlink:href="#m7c129620f1" x="371.120499" y="260.876466" style="fill: #d62728; stroke: #d62728"/>
     <use xlink:href="#m7c129620f1" x="390.453739" y="249.614768" style="fill: #d62728; stroke: #d62728"/>
     <use xlink:href="#m7c129620f1" x="402.638994" y="238.364163" style="fill: #d62728; stroke: #d62728"/>
     <use xlink:href="#m7c129620f1" x="416.185284" y="215.666697" style="fill: #d62728; stroke: #d62728"/>
     <use xlink:href="#m7c129620f1" x="409.70132" y="188.074878" style="fill: #d62728; stroke: #d62728"/>
     <use xlink:href="#m7c129620f1" x="429.422027" y="146.273115" style="fill: #d62728; stroke: #d62728"/>
     <use xlink:href="#m7c129620f1" x="430.551181" y="98.43689" style="fill: #d62728; stroke: #d62728"/>
     <use xlink:href="#m7c129620f1" x="435.848375" y="54.124074" style="fill: #d62728; stroke: #d62728"/>
    </g>
   </g>
   <g id="patch_3">
    <path d="M 113.860312 288.430125 
L 113.860312 22.318125 
" style="fill: none; stroke: #000000; stroke-width: 0.8; stroke-linejoin: miter; stroke-linecap: square"/>
   </g>
   <g id="patch_4">
    <path d="M 470.980313 288.430125 
L 470.980313 22.318125 
" style="fill: none; stroke: #000000; stroke-width: 0.8; stroke-linejoin: miter; stroke-linecap: square"/>
   </g>
   <g id="patch_5">
    <path d="M 113.860312 288.430125 
L 470.980313 288.430125 
" style="fill: none; stroke: #000000; stroke-width: 0.8; stroke-linejoin: miter; stroke-linecap: square"/>
   </g>
   <g id="patch_6">
    <path d="M 113.860312 22.318125 
L 470.980313 22.318125 
" style="fill: none; stroke: #000000; stroke-width: 0.8; stroke-linejoin: miter; stroke-linecap: square"/>
   </g>
   <g id="text_17">
    <!-- 1024K  Sequential Write -->
    <g transform="translate(219.685313 16.318125) scale(0.12 -0.12)">
     <defs>
      <path id="DejaVuSans-4b" d="M 628 4666 
L 1259 4666 
L 1259 2694 
L 3353 4666 
L 4166 4666 
L 1850 2491 
L 4331 0 
L 3500 0 
L 1259 2247 
L 1259 0 
L 628 0 
L 628 4666 
z
" transform="scale(0.015625)"/>
      <path id="DejaVuSans-53" d="M 3425 4513 
L 3425 3897 
Q 3066 4069 2747 4153 
Q 2428 4238 2131 4238 
Q 1616 4238 1336 4038 
Q 1056 3838 1056 3469 
Q 1056 3159 1242 3001 
Q 1428 2844 1947 2747 
L 2328 2669 
Q 3034 2534 3370 2195 
Q 3706 1856 3706 1288 
Q 3706 609 3251 259 
Q 2797 -91 1919 -91 
Q 1588 -91 1214 -16 
Q 841 59 441 206 
L 441 856 
Q 825 641 1194 531 
Q 1563 422 1919 422 
Q 2459 422 2753 634 
Q 3047 847 3047 1241 
Q 3047 1584 2836 1778 
Q 2625 1972 2144 2069 
L 1759 2144 
Q 1053 2284 737 2584 
Q 422 2884 422 3419 
Q 422 4038 858 4394 
Q 1294 4750 2059 4750 
Q 2388 4750 2728 4690 
Q 3069 4631 3425 4513 
z
" transform="scale(0.015625)"/>
      <path id="DejaVuSans-71" d="M 947 1747 
Q 947 1113 1208 752 
Q 1469 391 1925 391 
Q 2381 391 2643 752 
Q 2906 1113 2906 1747 
Q 2906 2381 2643 2742 
Q 2381 3103 1925 3103 
Q 1469 3103 1208 2742 
Q 947 2381 947 1747 
z
M 2906 525 
Q 2725 213 2448 61 
Q 2172 -91 1784 -91 
Q 1150 -91 751 415 
Q 353 922 353 1747 
Q 353 2572 751 3078 
Q 1150 3584 1784 3584 
Q 2172 3584 2448 3432 
Q 2725 3281 2906 2969 
L 2906 3500 
L 3481 3500 
L 3481 -1331 
L 2906 -1331 
L 2906 525 
z
" transform="scale(0.015625)"/>
      <path id="DejaVuSans-75" d="M 544 1381 
L 544 3500 
L 1119 3500 
L 1119 1403 
Q 1119 906 1312 657 
Q 1506 409 1894 409 
Q 2359 409 2629 706 
Q 2900 1003 2900 1516 
L 2900 3500 
L 3475 3500 
L 3475 0 
L 2900 0 
L 2900 538 
Q 2691 219 2414 64 
Q 2138 -91 1772 -91 
Q 1169 -91 856 284 
Q 544 659 544 1381 
z
M 1991 3584 
L 1991 3584 
z
" transform="scale(0.015625)"/>
      <path id="DejaVuSans-6c" d="M 603 4863 
L 1178 4863 
L 1178 0 
L 603 0 
L 603 4863 
z
" transform="scale(0.015625)"/>
      <path id="DejaVuSans-57" d="M 213 4666 
L 850 4666 
L 1831 722 
L 2809 4666 
L 3519 4666 
L 4500 722 
L 5478 4666 
L 6119 4666 
L 4947 0 
L 4153 0 
L 3169 4050 
L 2175 0 
L 1381 0 
L 213 4666 
z
" transform="scale(0.015625)"/>
      <path id="DejaVuSans-72" d="M 2631 2963 
Q 2534 3019 2420 3045 
Q 2306 3072 2169 3072 
Q 1681 3072 1420 2755 
Q 1159 2438 1159 1844 
L 1159 0 
L 581 0 
L 581 3500 
L 1159 3500 
L 1159 2956 
Q 1341 3275 1631 3429 
Q 1922 3584 2338 3584 
Q 2397 3584 2469 3576 
Q 2541 3569 2628 3553 
L 2631 2963 
z
" transform="scale(0.015625)"/>
     </defs>
     <use xlink:href="#DejaVuSans-31"/>
     <use xlink:href="#DejaVuSans-30" x="63.623047"/>
     <use xlink:href="#DejaVuSans-32" x="127.246094"/>
     <use xlink:href="#DejaVuSans-34" x="190.869141"/>
     <use xlink:href="#DejaVuSans-4b" x="254.492188"/>
     <use xlink:href="#DejaVuSans-20" x="320.068359"/>
     <use xlink:href="#DejaVuSans-20" x="351.855469"/>
     <use xlink:href="#DejaVuSans-53" x="383.642578"/>
     <use xlink:href="#DejaVuSans-65" x="447.119141"/>
     <use xlink:href="#DejaVuSans-71" x="508.642578"/>
     <use xlink:href="#DejaVuSans-75" x="572.119141"/>
     <use xlink:href="#DejaVuSans-65" x="635.498047"/>
     <use xlink:href="#DejaVuSans-6e" x="697.021484"/>
     <use xlink:href="#DejaVuSans-74" x="760.400391"/>
     <use xlink:href="#DejaVuSans-69" x="799.609375"/>
     <use xlink:href="#DejaVuSans-61" x="827.392578"/>
     <use xlink:href="#DejaVuSans-6c" x="888.671875"/>
     <use xlink:href="#DejaVuSans-20" x="916.455078"/>
     <use xlink:href="#DejaVuSans-57" x="948.242188"/>
     <use xlink:href="#DejaVuSans-72" x="1042.619141"/>
     <use xlink:href="#DejaVuSans-69" x="1083.732422"/>
     <use xlink:href="#DejaVuSans-74" x="1111.515625"/>
     <use xlink:href="#DejaVuSans-65" x="1150.724609"/>
    </g>
   </g>
   <g id="legend_1">
    <g id="patch_7">
     <path d="M 9.2 352.953825 
L 575.640625 352.953825 
Q 577.640625 352.953825 577.640625 350.953825 
L 577.640625 322.041325 
Q 577.640625 320.041325 575.640625 320.041325 
L 9.2 320.041325 
Q 7.2 320.041325 7.2 322.041325 
L 7.2 350.953825 
Q 7.2 352.953825 9.2 352.953825 
z
" style="fill: #ffffff; opacity: 0.8; stroke: #cccccc; stroke-linejoin: miter"/>
    </g>
    <g id="line2d_19">
     <path d="M 11.2 328.139762 
L 21.2 328.139762 
L 31.2 328.139762 
" style="fill: none; stroke: #1f77b4; stroke-width: 1.5; stroke-linecap: square"/>
     <g>
      <use xlink:href="#mc111174988" x="21.2" y="328.139762" style="fill: #1f77b4; stroke: #1f77b4"/>
     </g>
    </g>
    <g id="text_18">
     <!-- cbt_15thNov25_4k_o01_6+2_squid_appends -->
     <g transform="translate(39.2 331.639762) scale(0.1 -0.1)">
      <defs>
       <path id="DejaVuSans-62" d="M 3116 1747 
Q 3116 2381 2855 2742 
Q 2594 3103 2138 3103 
Q 1681 3103 1420 2742 
Q 1159 2381 1159 1747 
Q 1159 1113 1420 752 
Q 1681 391 2138 391 
Q 2594 391 2855 752 
Q 3116 1113 3116 1747 
z
M 1159 2969 
Q 1341 3281 1617 3432 
Q 1894 3584 2278 3584 
Q 2916 3584 3314 3078 
Q 3713 2572 3713 1747 
Q 3713 922 3314 415 
Q 2916 -91 2278 -91 
Q 1894 -91 1617 61 
Q 1341 213 1159 525 
L 1159 0 
L 581 0 
L 581 4863 
L 1159 4863 
L 1159 2969 
z
" transform="scale(0.015625)"/>
       <path id="DejaVuSans-5f" d="M 3263 -1063 
L 3263 -1509 
L -63 -1509 
L -63 -1063 
L 3263 -1063 
z
" transform="scale(0.015625)"/>
       <path id="DejaVuSans-4e" d="M 628 4666 
L 1478 4666 
L 3547 763 
L 3547 4666 
L 4159 4666 
L 4159 0 
L 3309 0 
L 1241 3903 
L 1241 0 
L 628 0 
L 628 4666 
z
" transform="scale(0.015625)"/>
       <path id="DejaVuSans-6f" d="M 1959 3097 
Q 1497 3097 1228 2736 
Q 959 2375 959 1747 
Q 959 1119 1226 758 
Q 1494 397 1959 397 
Q 2419 397 2687 759 
Q 2956 1122 2956 1747 
Q 2956 2369 2687 2733 
Q 2419 3097 1959 3097 
z
M 1959 3584 
Q 2709 3584 3137 3096 
Q 3566 2609 3566 1747 
Q 3566 888 3137 398 
Q 2709 -91 1959 -91 
Q 1206 -91 779 398 
Q 353 888 353 1747 
Q 353 2609 779 3096 
Q 1206 3584 1959 3584 
z
" transform="scale(0.015625)"/>
       <path id="DejaVuSans-76" d="M 191 3500 
L 800 3500 
L 1894 563 
L 2988 3500 
L 3597 3500 
L 2284 0 
L 1503 0 
L 191 3500 
z
" transform="scale(0.015625)"/>
       <path id="DejaVuSans-6b" d="M 581 4863 
L 1159 4863 
L 1159 1991 
L 2875 3500 
L 3609 3500 
L 1753 1863 
L 3688 0 
L 2938 0 
L 1159 1709 
L 1159 0 
L 581 0 
L 581 4863 
z
" transform="scale(0.015625)"/>
       <path id="DejaVuSans-36" d="M 2113 2584 
Q 1688 2584 1439 2293 
Q 1191 2003 1191 1497 
Q 1191 994 1439 701 
Q 1688 409 2113 409 
Q 2538 409 2786 701 
Q 3034 994 3034 1497 
Q 3034 2003 2786 2293 
Q 2538 2584 2113 2584 
z
M 3366 4563 
L 3366 3988 
Q 3128 4100 2886 4159 
Q 2644 4219 2406 4219 
Q 1781 4219 1451 3797 
Q 1122 3375 1075 2522 
Q 1259 2794 1537 2939 
Q 1816 3084 2150 3084 
Q 2853 3084 3261 2657 
Q 3669 2231 3669 1497 
Q 3669 778 3244 343 
Q 2819 -91 2113 -91 
Q 1303 -91 875 529 
Q 447 1150 447 2328 
Q 447 3434 972 4092 
Q 1497 4750 2381 4750 
Q 2619 4750 2861 4703 
Q 3103 4656 3366 4563 
z
" transform="scale(0.015625)"/>
       <path id="DejaVuSans-2b" d="M 2944 4013 
L 2944 2272 
L 4684 2272 
L 4684 1741 
L 2944 1741 
L 2944 0 
L 2419 0 
L 2419 1741 
L 678 1741 
L 678 2272 
L 2419 2272 
L 2419 4013 
L 2944 4013 
z
" transform="scale(0.015625)"/>
       <path id="DejaVuSans-70" d="M 1159 525 
L 1159 -1331 
L 581 -1331 
L 581 3500 
L 1159 3500 
L 1159 2969 
Q 1341 3281 1617 3432 
Q 1894 3584 2278 3584 
Q 2916 3584 3314 3078 
Q 3713 2572 3713 1747 
Q 3713 922 3314 415 
Q 2916 -91 2278 -91 
Q 1894 -91 1617 61 
Q 1341 213 1159 525 
z
M 3116 1747 
Q 3116 2381 2855 2742 
Q 2594 3103 2138 3103 
Q 1681 3103 1420 2742 
Q 1159 2381 1159 1747 
Q 1159 1113 1420 752 
Q 1681 391 2138 391 
Q 2594 391 2855 752 
Q 3116 1113 3116 1747 
z
" transform="scale(0.015625)"/>
      </defs>
      <use xlink:href="#DejaVuSans-63"/>
      <use xlink:href="#DejaVuSans-62" x="54.980469"/>
      <use xlink:href="#DejaVuSans-74" x="118.457031"/>
      <use xlink:href="#DejaVuSans-5f" x="157.666016"/>
      <use xlink:href="#DejaVuSans-31" x="207.666016"/>
      <use xlink:href="#DejaVuSans-35" x="271.289062"/>
      <use xlink:href="#DejaVuSans-74" x="334.912109"/>
      <use xlink:href="#DejaVuSans-68" x="374.121094"/>
      <use xlink:href="#DejaVuSans-4e" x="437.5"/>
      <use xlink:href="#DejaVuSans-6f" x="512.304688"/>
      <use xlink:href="#DejaVuSans-76" x="573.486328"/>
      <use xlink:href="#DejaVuSans-32" x="632.666016"/>
      <use xlink:href="#DejaVuSans-35" x="696.289062"/>
      <use xlink:href="#DejaVuSans-5f" x="759.912109"/>
      <use xlink:href="#DejaVuSans-34" x="809.912109"/>
      <use xlink:href="#DejaVuSans-6b" x="873.535156"/>
      <use xlink:href="#DejaVuSans-5f" x="931.445312"/>
      <use xlink:href="#DejaVuSans-6f" x="981.445312"/>
      <use xlink:href="#DejaVuSans-30" x="1042.626953"/>
      <use xlink:href="#DejaVuSans-31" x="1106.25"/>
      <use xlink:href="#DejaVuSans-5f" x="1169.873047"/>
      <use xlink:href="#DejaVuSans-36" x="1219.873047"/>
      <use xlink:href="#DejaVuSans-2b" x="1283.496094"/>
      <use xlink:href="#DejaVuSans-32" x="1367.285156"/>
      <use xlink:href="#DejaVuSans-5f" x="1430.908203"/>
      <use xlink:href="#DejaVuSans-73" x="1480.908203"/>
      <use xlink:href="#DejaVuSans-71" x="1533.007812"/>
      <use xlink:href="#DejaVuSans-75" x="1596.484375"/>
      <use xlink:href="#DejaVuSans-69" x="1659.863281"/>
      <use xlink:href="#DejaVuSans-64" x="1687.646484"/>
      <use xlink:href="#DejaVuSans-5f" x="1751.123047"/>
      <use xlink:href="#DejaVuSans-61" x="1801.123047"/>
      <use xlink:href="#DejaVuSans-70" x="1862.402344"/>
      <use xlink:href="#DejaVuSans-70" x="1925.878906"/>
      <use xlink:href="#DejaVuSans-65" x="1989.355469"/>
      <use xlink:href="#DejaVuSans-6e" x="2050.878906"/>
      <use xlink:href="#DejaVuSans-64" x="2114.257812"/>
      <use xlink:href="#DejaVuSans-73" x="2177.734375"/>
     </g>
    </g>
    <g id="line2d_20">
     <path d="M 11.2 343.096012 
L 21.2 343.096012 
L 31.2 343.096012 
" style="fill: none; stroke: #ff7f0e; stroke-width: 1.5; stroke-linecap: square"/>
     <g>
      <use xlink:href="#m93366c42df" x="21.2" y="343.096012" style="fill: #ff7f0e; stroke: #ff7f0e"/>
     </g>
    </g>
    <g id="text_19">
     <!-- cbt_15thNov25_16k_o01_2+2_tentacle_appends -->
     <g transform="translate(39.2 346.596012) scale(0.1 -0.1)">
      <use xlink:href="#DejaVuSans-63"/>
      <use xlink:href="#DejaVuSans-62" x="54.980469"/>
      <use xlink:href="#DejaVuSans-74" x="118.457031"/>
      <use xlink:href="#DejaVuSans-5f" x="157.666016"/>
      <use xlink:href="#DejaVuSans-31" x="207.666016"/>
      <use xlink:href="#DejaVuSans-35" x="271.289062"/>
      <use xlink:href="#DejaVuSans-74" x="334.912109"/>
      <use xlink:href="#DejaVuSans-68" x="374.121094"/>
      <use xlink:href="#DejaVuSans-4e" x="437.5"/>
      <use xlink:href="#DejaVuSans-6f" x="512.304688"/>
      <use xlink:href="#DejaVuSans-76" x="573.486328"/>
      <use xlink:href="#DejaVuSans-32" x="632.666016"/>
      <use xlink:href="#DejaVuSans-35" x="696.289062"/>
      <use xlink:href="#DejaVuSans-5f" x="759.912109"/>
      <use xlink:href="#DejaVuSans-31" x="809.912109"/>
      <use xlink:href="#DejaVuSans-36" x="873.535156"/>
      <use xlink:href="#DejaVuSans-6b" x="937.158203"/>
      <use xlink:href="#DejaVuSans-5f" x="995.068359"/>
      <use xlink:href="#DejaVuSans-6f" x="1045.068359"/>
      <use xlink:href="#DejaVuSans-30" x="1106.25"/>
      <use xlink:href="#DejaVuSans-31" x="1169.873047"/>
      <use xlink:href="#DejaVuSans-5f" x="1233.496094"/>
      <use xlink:href="#DejaVuSans-32" x="1283.496094"/>
      <use xlink:href="#DejaVuSans-2b" x="1347.119141"/>
      <use xlink:href="#DejaVuSans-32" x="1430.908203"/>
      <use xlink:href="#DejaVuSans-5f" x="1494.53125"/>
      <use xlink:href="#DejaVuSans-74" x="1544.53125"/>
      <use xlink:href="#DejaVuSans-65" x="1583.740234"/>
      <use xlink:href="#DejaVuSans-6e" x="1645.263672"/>
      <use xlink:href="#DejaVuSans-74" x="1708.642578"/>
      <use xlink:href="#DejaVuSans-61" x="1747.851562"/>
      <use xlink:href="#DejaVuSans-63" x="1809.130859"/>
      <use xlink:href="#DejaVuSans-6c" x="1864.111328"/>
      <use xlink:href="#DejaVuSans-65" x="1891.894531"/>
      <use xlink:href="#DejaVuSans-5f" x="1953.417969"/>
      <use xlink:href="#DejaVuSans-61" x="2003.417969"/>
      <use xlink:href="#DejaVuSans-70" x="2064.697266"/>
      <use xlink:href="#DejaVuSans-70" x="2128.173828"/>
      <use xlink:href="#DejaVuSans-65" x="2191.650391"/>
      <use xlink:href="#DejaVuSans-6e" x="2253.173828"/>
      <use xlink:href="#DejaVuSans-64" x="2316.552734"/>
      <use xlink:href="#DejaVuSans-73" x="2380.029297"/>
     </g>
    </g>
    <g id="line2d_21">
     <path d="M 302.420313 328.139762 
L 312.420313 328.139762 
L 322.420313 328.139762 
" style="fill: none; stroke: #2ca02c; stroke-width: 1.5; stroke-linecap: square"/>
     <g>
      <use xlink:href="#m4d5448967e" x="312.420313" y="328.139762" style="fill: #2ca02c; stroke: #2ca02c"/>
     </g>
    </g>
    <g id="text_20">
     <!-- cbt_15thNov25_16k_o01_4+2_tentacle_appends -->
     <g transform="translate(330.420313 331.639762) scale(0.1 -0.1)">
      <use xlink:href="#DejaVuSans-63"/>
      <use xlink:href="#DejaVuSans-62" x="54.980469"/>
      <use xlink:href="#DejaVuSans-74" x="118.457031"/>
      <use xlink:href="#DejaVuSans-5f" x="157.666016"/>
      <use xlink:href="#DejaVuSans-31" x="207.666016"/>
      <use xlink:href="#DejaVuSans-35" x="271.289062"/>
      <use xlink:href="#DejaVuSans-74" x="334.912109"/>
      <use xlink:href="#DejaVuSans-68" x="374.121094"/>
      <use xlink:href="#DejaVuSans-4e" x="437.5"/>
      <use xlink:href="#DejaVuSans-6f" x="512.304688"/>
      <use xlink:href="#DejaVuSans-76" x="573.486328"/>
      <use xlink:href="#DejaVuSans-32" x="632.666016"/>
      <use xlink:href="#DejaVuSans-35" x="696.289062"/>
      <use xlink:href="#DejaVuSans-5f" x="759.912109"/>
      <use xlink:href="#DejaVuSans-31" x="809.912109"/>
      <use xlink:href="#DejaVuSans-36" x="873.535156"/>
      <use xlink:href="#DejaVuSans-6b" x="937.158203"/>
      <use xlink:href="#DejaVuSans-5f" x="995.068359"/>
      <use xlink:href="#DejaVuSans-6f" x="1045.068359"/>
      <use xlink:href="#DejaVuSans-30" x="1106.25"/>
      <use xlink:href="#DejaVuSans-31" x="1169.873047"/>
      <use xlink:href="#DejaVuSans-5f" x="1233.496094"/>
      <use xlink:href="#DejaVuSans-34" x="1283.496094"/>
      <use xlink:href="#DejaVuSans-2b" x="1347.119141"/>
      <use xlink:href="#DejaVuSans-32" x="1430.908203"/>
      <use xlink:href="#DejaVuSans-5f" x="1494.53125"/>
      <use xlink:href="#DejaVuSans-74" x="1544.53125"/>
      <use xlink:href="#DejaVuSans-65" x="1583.740234"/>
      <use xlink:href="#DejaVuSans-6e" x="1645.263672"/>
      <use xlink:href="#DejaVuSans-74" x="1708.642578"/>
      <use xlink:href="#DejaVuSans-61" x="1747.851562"/>
      <use xlink:href="#DejaVuSans-63" x="1809.130859"/>
      <use xlink:href="#DejaVuSans-6c" x="1864.111328"/>
      <use xlink:href="#DejaVuSans-65" x="1891.894531"/>
      <use xlink:href="#DejaVuSans-5f" x="1953.417969"/>
      <use xlink:href="#DejaVuSans-61" x="2003.417969"/>
      <use xlink:href="#DejaVuSans-70" x="2064.697266"/>
      <use xlink:href="#DejaVuSans-70" x="2128.173828"/>
      <use xlink:href="#DejaVuSans-65" x="2191.650391"/>
      <use xlink:href="#DejaVuSans-6e" x="2253.173828"/>
      <use xlink:href="#DejaVuSans-64" x="2316.552734"/>
      <use xlink:href="#DejaVuSans-73" x="2380.029297"/>
     </g>
    </g>
    <g id="line2d_22">
     <path d="M 302.420313 343.096012 
L 312.420313 343.096012 
L 322.420313 343.096012 
" style="fill: none; stroke: #d62728; stroke-width: 1.5; stroke-linecap: square"/>
     <g>
      <use xlink:href="#m7c129620f1" x="312.420313" y="343.096012" style="fill: #d62728; stroke: #d62728"/>
     </g>
    </g>
    <g id="text_21">
     <!-- cbt_15thNov25_16k_o01_6+2_tentacle_appends -->
     <g transform="translate(330.420313 346.596012) scale(0.1 -0.1)">
      <use xlink:href="#DejaVuSans-63"/>
      <use xlink:href="#DejaVuSans-62" x="54.980469"/>
      <use xlink:href="#DejaVuSans-74" x="118.457031"/>
      <use xlink:href="#DejaVuSans-5f" x="157.666016"/>
      <use xlink:href="#DejaVuSans-31" x="207.666016"/>
      <use xlink:href="#DejaVuSans-35" x="271.289062"/>
      <use xlink:href="#DejaVuSans-74" x="334.912109"/>
      <use xlink:href="#DejaVuSans-68" x="374.121094"/>
      <use xlink:href="#DejaVuSans-4e" x="437.5"/>
      <use xlink:href="#DejaVuSans-6f" x="512.304688"/>
      <use xlink:href="#DejaVuSans-76" x="573.486328"/>
      <use xlink:href="#DejaVuSans-32" x="632.666016"/>
      <use xlink:href="#DejaVuSans-35" x="696.289062"/>
      <use xlink:href="#DejaVuSans-5f" x="759.912109"/>
      <use xlink:href="#DejaVuSans-31" x="809.912109"/>
      <use xlink:href="#DejaVuSans-36" x="873.535156"/>
      <use xlink:href="#DejaVuSans-6b" x="937.158203"/>
      <use xlink:href="#DejaVuSans-5f" x="995.068359"/>
      <use xlink:href="#DejaVuSans-6f" x="1045.068359"/>
      <use xlink:href="#DejaVuSans-30" x="1106.25"/>
      <use xlink:href="#DejaVuSans-31" x="1169.873047"/>
      <use xlink:href="#DejaVuSans-5f" x="1233.496094"/>
      <use xlink:href="#DejaVuSans-36" x="1283.496094"/>
      <use xlink:href="#DejaVuSans-2b" x="1347.119141"/>
      <use xlink:href="#DejaVuSans-32" x="1430.908203"/>
      <use xlink:href="#DejaVuSans-5f" x="1494.53125"/>
      <use xlink:href="#DejaVuSans-74" x="1544.53125"/>
      <use xlink:href="#DejaVuSans-65" x="1583.740234"/>
      <use xlink:href="#DejaVuSans-6e" x="1645.263672"/>
      <use xlink:href="#DejaVuSans-74" x="1708.642578"/>
      <use xlink:href="#DejaVuSans-61" x="1747.851562"/>
      <use xlink:href="#DejaVuSans-63" x="1809.130859"/>
      <use xlink:href="#DejaVuSans-6c" x="1864.111328"/>
      <use xlink:href="#DejaVuSans-65" x="1891.894531"/>
      <use xlink:href="#DejaVuSans-5f" x="1953.417969"/>
      <use xlink:href="#DejaVuSans-61" x="2003.417969"/>
      <use xlink:href="#DejaVuSans-70" x="2064.697266"/>
      <use xlink:href="#DejaVuSans-70" x="2128.173828"/>
      <use xlink:href="#DejaVuSans-65" x="2191.650391"/>
      <use xlink:href="#DejaVuSans-6e" x="2253.173828"/>
      <use xlink:href="#DejaVuSans-64" x="2316.552734"/>
      <use xlink:href="#DejaVuSans-73" x="2380.029297"/>
     </g>
    </g>
   </g>
  </g>
 </g>
 <defs>
  <clipPath id="p5f0011b9c5">
   <rect x="113.860312" y="22.318125" width="357.12" height="266.112"/>
  </clipPath>
 </defs>
</svg>
